<svg width="25" height="25" viewBox="0 0 25 25" fill="none" xmlns="http://www.w3.org/2000/svg">
<g id="shopping-cart-add">
<g id="Icon">
<path d="M6.17319 16.3708L4.30616 4.23512H3.16406C2.61178 4.23512 2.16406 3.78741 2.16406 3.23512C2.16406 2.68284 2.61178 2.23512 3.16406 2.23512H5.14876C5.24467 2.23353 5.3384 2.24579 5.42773 2.27025C5.56967 2.30895 5.69903 2.37812 5.80836 2.47031C5.92619 2.56949 6.02158 2.69603 6.08387 2.8421C6.11819 2.92232 6.14232 3.00793 6.15464 3.09731L6.48354 5.23512H14.1641V7.23512H6.79123L8.022 15.2351H17.42L18.92 10.2351H21.0081L19.1219 16.5225C18.995 16.9455 18.6057 17.2351 18.1641 17.2351H7.17984C7.08539 17.2367 6.99305 17.2249 6.90494 17.2012C6.75481 17.1611 6.6186 17.0868 6.5051 16.9873C6.40116 16.8964 6.31563 16.7837 6.25616 16.6549C6.21519 16.5664 6.18678 16.471 6.17319 16.3708Z" fill="#04B4DB"/>
<path d="M10.1641 20.2351C10.1641 21.3397 9.26863 22.2351 8.16406 22.2351C7.05949 22.2351 6.16406 21.3397 6.16406 20.2351C6.16406 19.1306 7.05949 18.2351 8.16406 18.2351C9.26863 18.2351 10.1641 19.1306 10.1641 20.2351Z" fill="#04B4DB"/>
<path d="M19.1641 20.2351C19.1641 21.3397 18.2686 22.2351 17.1641 22.2351C16.0595 22.2351 15.1641 21.3397 15.1641 20.2351C15.1641 19.1306 16.0595 18.2351 17.1641 18.2351C18.2686 18.2351 19.1641 19.1306 19.1641 20.2351Z" fill="#04B4DB"/>
<path d="M19.1641 2.23512C19.7163 2.23512 20.1641 2.68284 20.1641 3.23512V4.23512H21.1641C21.7163 4.23512 22.1641 4.68284 22.1641 5.23512C22.1641 5.78741 21.7163 6.23512 21.1641 6.23512H20.1641V7.23512C20.1641 7.78741 19.7163 8.23512 19.1641 8.23512C18.6118 8.23512 18.1641 7.78741 18.1641 7.23512V6.23512H17.1641C16.6118 6.23512 16.1641 5.78741 16.1641 5.23512C16.1641 4.68284 16.6118 4.23512 17.1641 4.23512H18.1641V3.23512C18.1641 2.68284 18.6118 2.23512 19.1641 2.23512Z" fill="#04B4DB"/>
</g>
</g>
</svg>
