<svg width="114" height="115" viewBox="0 0 114 115" fill="none" xmlns="http://www.w3.org/2000/svg">
<g opacity="0.5">
<path d="M99.75 57.3301C99.75 62.5768 95.4967 66.8301 90.25 66.8301C85.0033 66.8301 80.75 62.5768 80.75 57.3301C80.75 52.0834 85.0033 47.8301 90.25 47.8301C95.4967 47.8301 99.75 52.0834 99.75 57.3301Z" fill="#F93E2B"/>
<path d="M66.5 85.8301C66.5 91.0768 62.2467 95.3301 57 95.3301C51.7533 95.3301 47.5 91.0768 47.5 85.8301C47.5 80.5834 51.7533 76.3301 57 76.3301C62.2467 76.3301 66.5 80.5834 66.5 85.8301Z" fill="#F93E2B"/>
<path d="M33.25 28.8301C33.25 34.0768 28.9967 38.3301 23.75 38.3301C18.5033 38.3301 14.25 34.0768 14.25 28.8301C14.25 23.5834 18.5033 19.3301 23.75 19.3301C28.9967 19.3301 33.25 23.5834 33.25 28.8301Z" fill="#F93E2B"/>
</g>
<path d="M90.25 66.8301C95.4967 66.8301 99.75 62.5768 99.75 57.3301C99.75 52.0834 95.4967 47.8301 90.25 47.8301M90.25 66.8301C85.0033 66.8301 80.75 62.5768 80.75 57.3301C80.75 52.0834 85.0033 47.8301 90.25 47.8301M90.25 66.8301V95.3301M90.25 47.8301L90.25 19.3301M57 76.3301C51.7533 76.3301 47.5 80.5834 47.5 85.8301C47.5 91.0768 51.7533 95.3301 57 95.3301C62.2467 95.3301 66.5 91.0768 66.5 85.8301C66.5 80.5834 62.2467 76.3301 57 76.3301ZM57 76.3301V19.3301M23.75 38.3301C28.9967 38.3301 33.25 34.0768 33.25 28.8301C33.25 23.5834 28.9967 19.3301 23.75 19.3301C18.5033 19.3301 14.25 23.5834 14.25 28.8301C14.25 34.0768 18.5033 38.3301 23.75 38.3301ZM23.75 38.3301V95.3301" stroke="black" stroke-width="6" stroke-linecap="round"/>
</svg>
