<svg width="89" height="61" viewBox="0 0 89 61" fill="none" xmlns="http://www.w3.org/2000/svg">
<g clip-path="url(#clip0_178_1774)">
<path d="M71.5204 2.28997C66.0204 -0.290027 59.7304 -0.510027 53.8704 0.729973C50.4404 1.44997 45.5404 3.29997 43.7904 6.70997C40.1204 10.1 44.3504 17.61 46.7504 20.51C48.5904 22.73 51.8704 23.07 54.5304 23.17C55.3804 23.2 56.3904 23.03 57.3304 22.66C57.3004 22.83 57.5004 22.99 57.6404 22.84C60.1704 20.17 65.6104 20.99 68.2204 23.16C70.7404 25.26 81.0104 37.24 69.9804 48.27C63.6804 54.57 63.3304 43.45 63.7504 42.95C63.7904 42.91 63.8204 42.87 63.8604 42.82C64.3704 42.21 64.1004 41.45 63.5804 41.08C63.3004 40.84 62.9104 40.66 62.4704 40.82C61.1504 41.29 58.8504 45.89 59.4104 49.46C60.2104 54.6 64.6604 57.4 69.4604 56.41C81.3704 53.94 87.5404 43.06 88.2604 31.56C89.0204 19.4 82.6604 7.48997 71.5304 2.26997L71.5204 2.28997Z" fill="#FDC11C"/>
<path d="M71.5903 27.11C71.9303 27.61 72.2603 28.15 72.5803 28.73C75.7703 27.71 78.6603 24.58 80.6703 22.35C82.5003 20.32 84.0003 18.09 85.0403 15.66C84.4303 14.43 83.7403 13.25 82.9703 12.12C82.5203 14.55 81.5903 16.61 80.2303 18.7C77.8903 22.3 75.0703 24.91 71.6003 27.11H71.5903Z" fill="#FDDD85"/>
<path d="M74.2603 32.62C74.3903 33.05 74.5103 33.5 74.6103 33.95C77.9803 33.68 81.4603 32.31 84.6203 31.39C85.8503 31.03 87.0703 30.61 88.2903 30.18C88.3003 29.35 88.2902 28.53 88.2402 27.71C86.7802 28.33 85.3603 28.98 84.0803 29.44C80.9003 30.59 77.4303 31.39 74.2603 32.63V32.62Z" fill="#FDDD85"/>
<path d="M62.0001 42.15C62.3701 42.37 62.9501 42.4 63.3701 42.37C63.7201 42.34 63.7101 41.87 63.3701 41.83C62.9701 41.78 62.7701 41.58 62.4401 41.39C62.3201 41.32 62.1701 41.31 62.0401 41.26C62.0001 41.25 61.9601 41.22 61.9201 41.19C61.8101 41.3 61.6901 41.43 61.5801 41.57C61.6801 41.8 61.8201 42.03 62.0001 42.13V42.15Z" fill="#FDDD85"/>
<path d="M62.8603 44.48C63.1203 44.5 63.3803 44.49 63.6503 44.48C63.6503 44.23 63.6403 44 63.6503 43.79C63.1403 43.87 62.6203 43.82 62.1403 43.98C62.0603 44.01 62.0103 44.12 62.0903 44.19C62.3503 44.4 62.5403 44.46 62.8803 44.49L62.8603 44.48Z" fill="#FDDD85"/>
<path d="M61.0304 43.62C61.1204 43.64 61.1805 43.51 61.0905 43.47C60.9105 43.39 60.7405 43.3 60.5905 43.18C60.5505 43.27 60.5004 43.35 60.4604 43.44C60.6404 43.52 60.8305 43.58 61.0205 43.61L61.0304 43.62Z" fill="#FDDD85"/>
<path d="M67.1903 3.05001C68.2303 5.73001 68.9403 8.59001 69.1803 11.45C69.3903 13.95 68.9203 16.47 68.2803 18.87C67.9703 20.05 67.4203 21.17 66.8903 22.3C67.3803 22.56 67.8403 22.84 68.2203 23.17C68.3003 23.23 68.3803 23.3 68.4703 23.39C70.4803 20.24 71.1703 15.28 71.3303 12.37C71.5203 9.07001 70.8903 5.12001 69.6303 1.51001C68.4503 1.08001 67.2503 0.75001 66.0303 0.51001C66.4403 1.34001 66.8503 2.19001 67.1803 3.05001H67.1903Z" fill="#FDDD85"/>
<path d="M67.9203 52.3C68.3303 54.28 67.3903 55.3 66.3203 56.54C66.8203 56.61 67.3403 56.64 67.8603 56.62C69.5103 54.78 69.7503 51.66 68.9103 49.24C68.3203 49.69 67.7903 49.97 67.3203 50.11C67.5203 50.85 67.7703 51.59 67.9103 52.31L67.9203 52.3Z" fill="#FDDD85"/>
<path d="M63.0305 6.44998C64.5305 11.42 63.7305 16.29 63.4105 21.25C63.9805 21.32 64.5505 21.43 65.1005 21.59C66.6105 16.38 66.2305 9.84998 64.8105 5.01998C64.3705 3.52998 63.5205 1.72998 62.4005 0.0599814C61.4305 -1.85557e-05 60.4505 -0.0100186 59.4805 0.0299814C61.1905 1.85998 62.3205 4.05998 63.0405 6.45998L63.0305 6.44998Z" fill="#FDDD85"/>
<path d="M69.6704 24.61C69.9504 24.93 70.2504 25.29 70.5604 25.68C75.5104 21.42 78.5304 14.29 78.9504 7.36999C78.0304 6.48999 77.0404 5.67999 76.0004 4.92999C76.2804 7.75999 76.1304 10.59 75.3404 13.63C74.2604 17.77 71.9004 21.11 69.6804 24.61H69.6704Z" fill="#FDDD85"/>
<path d="M74.0604 54.93C74.0504 53.04 73.9404 51.19 73.2504 49.4C72.8604 48.38 72.2704 47.37 71.3904 46.71C71.1604 47 70.9104 47.28 70.6504 47.57C70.8004 47.65 70.9504 47.75 71.0704 47.87C72.0004 48.78 72.4004 50.26 72.7404 51.47C73.0904 52.69 73.3004 54.02 73.1904 55.3C73.4804 55.18 73.7704 55.06 74.0604 54.93Z" fill="#FDDD85"/>
<path d="M64.9503 54.96C65.5403 53.49 65.9903 51.73 66.0003 50.1C65.8203 50.03 65.6503 49.94 65.4903 49.82C64.8903 50.94 64.7203 52.31 64.4203 53.53C64.2303 54.28 63.9503 54.98 63.5703 55.65C63.8403 55.8 64.1203 55.93 64.4103 56.04C64.6403 55.66 64.8203 55.29 64.9503 54.96Z" fill="#FDDD85"/>
<path d="M78.3403 48.67C76.9903 46.55 75.2103 45.18 72.9803 44.46C72.8403 44.71 72.6903 44.95 72.5303 45.19C74.8103 46.32 76.5803 48.14 77.8403 50.41C78.1303 50.94 78.3603 51.54 78.5603 52.18C78.9703 51.85 79.3803 51.51 79.7603 51.15C79.2803 50.21 78.7603 49.34 78.3303 48.67H78.3403Z" fill="#FDDD85"/>
<path d="M74.4505 41.1C74.2705 41.71 74.0505 42.32 73.7705 42.94C75.8405 43.8 78.1705 44.28 80.1605 45.39C81.1705 45.95 82.1405 46.63 83.0705 47.35C83.5405 46.68 83.9705 45.98 84.3705 45.27C81.4305 42.86 77.5505 40.99 74.4505 41.1Z" fill="#FDDD85"/>
<path d="M83.6303 33.25C80.8103 33.58 77.5103 33.86 74.8403 35.14C74.9103 35.62 74.9503 36.1 74.9703 36.59C77.8503 36.1 80.6903 35.17 83.6303 34.92C85.0703 34.8 86.4903 34.63 87.9303 34.54C88.0203 33.91 88.1003 33.27 88.1603 32.63C86.4803 32.75 84.7803 33.12 83.6303 33.25Z" fill="#FDDD85"/>
<path d="M60.2303 52.13C61.1803 51.84 62.0703 51.58 62.8503 50.88C63.2403 50.53 63.8103 50.11 64.0103 49.61C64.1603 49.24 64.3703 48.94 64.5603 48.61C64.4703 48.42 64.3803 48.23 64.3103 48.02C63.5203 48.46 62.8103 49.08 62.1303 49.66C61.6703 50.05 61.2603 50.38 60.8603 50.83C60.5903 51.14 60.3403 51.43 60.0503 51.7C60.1103 51.84 60.1703 51.99 60.2303 52.12V52.13Z" fill="#FDDD85"/>
<path d="M82.9202 40.32C84.0302 40.63 85.1003 41.03 86.1403 41.49C86.3503 40.94 86.5403 40.39 86.7203 39.83C86.1903 39.63 85.6902 39.44 85.2402 39.28C82.1702 38.12 78.3102 37.54 74.9502 38.23C74.9102 38.73 74.8503 39.24 74.7603 39.75C77.3803 40.17 80.2903 39.6 82.9103 40.33L82.9202 40.32Z" fill="#FDDD85"/>
<path d="M82.8604 25.14C79.9404 27.28 76.6404 28.77 73.4004 30.35C73.5704 30.72 73.7304 31.1 73.8804 31.49C77.6604 30.25 81.2704 28.43 84.5704 26.24C85.3804 25.7 86.5904 24.85 87.7704 23.83C87.6104 22.98 87.4204 22.15 87.1904 21.32C85.9404 22.78 84.3904 24.03 82.8604 25.14Z" fill="#FDDD85"/>
<path d="M61.2901 47.38C61.9701 47.33 63.1401 47.16 63.9301 46.74C63.8601 46.42 63.8101 46.1 63.7601 45.78C63.1501 45.81 62.4801 46.06 61.9601 46.13C61.3501 46.21 60.7501 46.26 60.1401 46.17C59.9401 46.14 59.7601 46.07 59.6001 46C59.5101 46.41 59.4301 46.83 59.3901 47.25C60.0301 47.42 60.7801 47.41 61.3001 47.37L61.2901 47.38Z" fill="#FDDD85"/>
<path d="M61.3603 21.21C61.8403 16.48 60.2803 10.84 58.6103 7.14998C57.7403 5.22998 56.4603 2.67998 54.8003 0.539978C54.4803 0.599978 54.1703 0.659978 53.8503 0.719978C52.9903 0.899978 52.0303 1.15998 51.0503 1.48998C51.5803 1.78998 52.0903 2.13998 52.5703 2.58998C54.2303 4.11998 55.4003 6.42998 56.4603 8.39998C58.0503 11.37 59.3003 14.4 59.7203 17.76C59.8803 19.02 59.8403 20.27 59.8003 21.53C60.2903 21.37 60.8103 21.26 61.3503 21.21H61.3603Z" fill="#FDDD85"/>
<path d="M0.0602251 31.58C0.780225 43.08 6.95023 53.95 18.8602 56.43C23.6502 57.43 28.1002 54.62 28.9102 49.48C29.4702 45.91 27.1602 41.31 25.8502 40.84C25.4102 40.68 25.0102 40.86 24.7402 41.1C24.2202 41.47 23.9502 42.23 24.4602 42.84C24.4902 42.88 24.5302 42.93 24.5602 42.97C24.9802 43.47 24.6302 54.59 18.3302 48.29C7.30023 37.26 17.5702 25.28 20.0902 23.18C22.7002 21 28.1502 20.18 30.6802 22.86C30.8202 23.01 31.0202 22.86 30.9902 22.68C31.9302 23.04 32.9402 23.22 33.7902 23.18C36.4602 23.08 39.7302 22.75 41.5802 20.52C43.9802 17.62 48.2102 10.11 44.5402 6.71998C42.7902 3.29998 37.8902 1.45998 34.4602 0.739983C28.5902 -0.500017 22.3102 -0.280017 16.8102 2.29998C5.66022 7.50998 -0.699775 19.42 0.0602251 31.58Z" fill="#FDC11C"/>
<path d="M16.7203 27.11C16.3803 27.61 16.0503 28.15 15.7303 28.73C12.5403 27.71 9.65027 24.58 7.64027 22.35C5.81027 20.32 4.31027 18.09 3.28027 15.66C3.89027 14.43 4.58027 13.25 5.35027 12.12C5.80027 14.55 6.73027 16.61 8.09027 18.7C10.4303 22.3 13.2503 24.91 16.7203 27.11Z" fill="#FDDD85"/>
<path d="M14.0403 32.62C13.9103 33.05 13.7903 33.5 13.6903 33.95C10.3203 33.68 6.84032 32.31 3.68032 31.39C2.45032 31.03 1.22032 30.61 0.0103206 30.18C0.00032063 29.35 0.0103206 28.53 0.0603206 27.71C1.52032 28.33 2.94032 28.98 4.22032 29.44C7.40032 30.59 10.8703 31.39 14.0403 32.63V32.62Z" fill="#FDDD85"/>
<path d="M26.3001 42.15C25.9301 42.37 25.3502 42.4 24.9302 42.37C24.5802 42.34 24.5902 41.87 24.9302 41.83C25.3302 41.78 25.5302 41.58 25.8602 41.39C25.9802 41.32 26.1302 41.31 26.2602 41.26C26.3002 41.25 26.3401 41.22 26.3801 41.19C26.4901 41.3 26.6101 41.43 26.7201 41.57C26.6201 41.8 26.4801 42.03 26.3001 42.13V42.15Z" fill="#FDDD85"/>
<path d="M25.4502 44.48C25.1902 44.5 24.9202 44.49 24.6602 44.48C24.6602 44.23 24.6702 44 24.6602 43.79C25.1702 43.87 25.6902 43.82 26.1702 43.98C26.2502 44.01 26.3002 44.12 26.2302 44.19C25.9702 44.4 25.7802 44.46 25.4402 44.49L25.4502 44.48Z" fill="#FDDD85"/>
<path d="M27.2701 43.62C27.1801 43.64 27.1101 43.51 27.2101 43.47C27.3901 43.39 27.5601 43.3 27.7101 43.18C27.7501 43.27 27.8001 43.35 27.8401 43.44C27.6601 43.52 27.4701 43.58 27.2801 43.61L27.2701 43.62Z" fill="#FDDD85"/>
<path d="M21.1202 3.05001C20.0802 5.73001 19.3702 8.59001 19.1302 11.45C18.9202 13.95 19.3902 16.47 20.0302 18.87C20.3402 20.05 20.8902 21.17 21.4202 22.3C20.9302 22.56 20.4702 22.84 20.0802 23.17C20.0002 23.23 19.9202 23.3 19.8302 23.39C17.8202 20.24 17.1302 15.28 16.9702 12.37C16.7802 9.07001 17.4002 5.12001 18.6702 1.51001C19.8502 1.08001 21.0502 0.75001 22.2702 0.51001C21.8502 1.34001 21.4502 2.19001 21.1202 3.05001Z" fill="#FDDD85"/>
<path d="M20.3802 52.3C19.9702 54.28 20.9102 55.3 21.9802 56.54C21.4802 56.61 20.9602 56.64 20.4402 56.62C18.7902 54.78 18.5502 51.66 19.3802 49.24C19.9702 49.69 20.5002 49.97 20.9702 50.11C20.7702 50.85 20.5302 51.59 20.3802 52.31V52.3Z" fill="#FDDD85"/>
<path d="M25.2804 6.44998C23.7804 11.42 24.5704 16.29 24.9004 21.25C24.3304 21.32 23.7604 21.43 23.2104 21.59C21.7004 16.38 22.0904 9.84998 23.5104 5.01998C23.9504 3.52998 24.8004 1.72998 25.9204 0.0599814C26.8904 -1.85557e-05 27.8704 -0.0100186 28.8404 0.0299814C27.1304 1.85998 26.0004 4.05998 25.2804 6.45998V6.44998Z" fill="#FDDD85"/>
<path d="M18.6404 24.61C18.3604 24.93 18.0604 25.29 17.7504 25.68C12.8004 21.42 9.78035 14.29 9.36035 7.36999C10.2804 6.48999 11.2704 5.67999 12.3104 4.92999C12.0304 7.75999 12.1804 10.59 12.9704 13.63C14.0504 17.77 16.4104 21.11 18.6304 24.61H18.6404Z" fill="#FDDD85"/>
<path d="M14.2405 54.93C14.2405 53.04 14.3605 51.19 15.0405 49.4C15.4305 48.38 16.0205 47.37 16.9005 46.71C17.1305 47 17.3805 47.28 17.6405 47.57C17.4905 47.65 17.3505 47.75 17.2205 47.87C16.3005 48.78 15.9005 50.26 15.5505 51.47C15.2005 52.69 14.9905 54.02 15.1005 55.3C14.8105 55.18 14.5205 55.06 14.2305 54.93H14.2405Z" fill="#FDDD85"/>
<path d="M23.3503 54.96C22.7603 53.49 22.3103 51.73 22.3003 50.1C22.4803 50.03 22.6503 49.94 22.8103 49.82C23.4103 50.94 23.5703 52.31 23.8803 53.53C24.0703 54.28 24.3503 54.98 24.7303 55.65C24.4603 55.8 24.1803 55.93 23.8903 56.04C23.6603 55.66 23.4803 55.29 23.3503 54.96Z" fill="#FDDD85"/>
<path d="M9.96053 48.67C11.3105 46.55 13.0905 45.18 15.3205 44.46C15.4605 44.71 15.6105 44.95 15.7705 45.19C13.4905 46.32 11.7205 48.14 10.4605 50.41C10.1705 50.94 9.94053 51.54 9.74053 52.18C9.33053 51.85 8.92053 51.51 8.54053 51.15C9.02053 50.21 9.54053 49.34 9.97053 48.67H9.96053Z" fill="#FDDD85"/>
<path d="M13.8604 41.1C14.0404 41.71 14.2604 42.32 14.5404 42.94C12.4604 43.8 10.1404 44.28 8.14043 45.39C7.13043 45.95 6.16043 46.63 5.24043 47.35C4.77043 46.68 4.34043 45.98 3.94043 45.27C6.88043 42.86 10.7604 40.99 13.8604 41.1Z" fill="#FDDD85"/>
<path d="M4.67039 33.25C7.49039 33.58 10.7904 33.86 13.4704 35.14C13.4004 35.62 13.3604 36.1 13.3404 36.59C10.4604 36.1 7.62039 35.17 4.68039 34.92C3.24039 34.8 1.82039 34.63 0.380391 34.54C0.290391 33.91 0.210391 33.27 0.150391 32.63C1.83039 32.75 3.53039 33.12 4.68039 33.25H4.67039Z" fill="#FDDD85"/>
<path d="M28.0805 52.13C27.1305 51.84 26.2405 51.58 25.4605 50.88C25.0705 50.53 24.5005 50.11 24.3005 49.61C24.1505 49.24 23.9305 48.94 23.7505 48.61C23.8405 48.42 23.9305 48.23 24.0005 48.02C24.7905 48.46 25.5005 49.08 26.1805 49.66C26.6405 50.05 27.0505 50.38 27.4505 50.83C27.7205 51.14 27.9705 51.43 28.2605 51.7C28.2005 51.84 28.1405 51.99 28.0805 52.12V52.13Z" fill="#FDDD85"/>
<path d="M5.39008 40.32C4.28008 40.63 3.21008 41.03 2.17008 41.49C1.96008 40.94 1.76008 40.39 1.58008 39.83C2.11008 39.63 2.61008 39.44 3.06008 39.28C6.13008 38.12 9.99008 37.54 13.3501 38.23C13.3801 38.73 13.4501 39.24 13.5401 39.75C10.9201 40.17 8.01008 39.6 5.39008 40.33V40.32Z" fill="#FDDD85"/>
<path d="M5.44027 25.14C8.36027 27.28 11.6603 28.77 14.9003 30.35C14.7303 30.72 14.5703 31.1 14.4203 31.49C10.6403 30.25 7.02027 28.43 3.73027 26.24C2.92027 25.7 1.71027 24.85 0.530273 23.83C0.690273 22.98 0.880273 22.15 1.11027 21.32C2.36027 22.78 3.91027 24.03 5.43027 25.14H5.44027Z" fill="#FDDD85"/>
<path d="M27.0204 47.38C26.3404 47.33 25.1704 47.16 24.3804 46.74C24.4504 46.42 24.5004 46.1 24.5504 45.78C25.1604 45.81 25.8304 46.06 26.3504 46.13C26.9604 46.21 27.5604 46.26 28.1704 46.17C28.3704 46.14 28.5404 46.07 28.7104 46C28.8004 46.41 28.8704 46.83 28.9204 47.25C28.2804 47.42 27.5304 47.41 27.0104 47.37L27.0204 47.38Z" fill="#FDDD85"/>
<path d="M26.9402 21.21C26.4602 16.48 28.0202 10.84 29.6902 7.14998C30.5602 5.22998 31.8402 2.67998 33.5002 0.539978C33.8202 0.599978 34.1302 0.659978 34.4502 0.719978C35.3202 0.899978 36.2702 1.15998 37.2502 1.48998C36.7202 1.78998 36.2102 2.13998 35.7302 2.58998C34.0602 4.11998 32.9002 6.42998 31.8402 8.39998C30.2502 11.37 29.0002 14.4 28.5802 17.76C28.4202 19.02 28.4602 20.27 28.5002 21.53C28.0102 21.37 27.4802 21.26 26.9502 21.21H26.9402Z" fill="#FDDD85"/>
<path d="M61.5901 18.79C57.5101 15.37 44.7601 11.29 44.1601 11.29C43.5601 11.29 30.8101 15.37 26.7301 18.79C23.0901 21.84 24.9701 26.48 25.3401 30.4C25.5601 32.69 25.4201 35.34 26.5401 37.43C27.9701 40.1 29.5001 42.58 30.5301 45.46C31.4301 47.98 32.6201 49.91 34.2601 52.02C34.7101 52.6 35.0701 53.28 35.5901 53.7C36.5901 56.96 40.0301 59.79 43.4801 60.14C43.5501 60.14 43.6301 60.15 43.7001 60.16C43.7801 60.16 43.8501 60.16 43.9301 60.17C44.0101 60.17 44.0901 60.17 44.1701 60.17C44.2501 60.17 44.3301 60.17 44.4101 60.17C44.4901 60.17 44.5601 60.17 44.6401 60.16C44.7101 60.16 44.7901 60.16 44.8601 60.14C48.3101 59.8 51.7501 56.96 52.7501 53.7C53.2701 53.28 53.6301 52.6 54.0801 52.02C55.7201 49.91 56.9101 47.98 57.8101 45.46C58.8401 42.58 60.3701 40.11 61.8001 37.43C62.9201 35.34 62.7801 32.7 63.0001 30.4C63.3701 26.48 65.2501 21.84 61.6201 18.79H61.5901Z" fill="#C43100"/>
<path d="M64.94 17.59C61.83 15.3 58.35 12.62 54.95 11.01C49.62 8.49998 45.79 8.47998 44.31 4.78998C44.26 4.79998 44.21 4.80998 44.16 4.81998C44.11 4.80998 44.05 4.79998 44 4.78998C42.52 8.47998 38.68 8.49998 33.36 11.01C29.96 12.61 26.48 15.3 23.37 17.59C23.23 17.97 23.11 18.34 23.01 18.72C22.1 22.19 23.7 24.76 26.47 26.82C28.02 27.97 29.87 30.87 31.8 31.26C33.77 31.66 35.59 34.18 35.44 37.25C35.2 42 31.36 40.34 31.28 45.22C31.21 49.77 37.59 58.41 42.44 55.52C43.08 55.41 43.69 55.14 44.17 54.72C44.65 55.13 45.25 55.41 45.89 55.52C50.74 58.41 57.12 49.76 57.05 45.22C56.98 40.33 53.13 42 52.89 37.25C52.73 34.18 54.56 31.66 56.53 31.26C58.46 30.87 60.32 27.97 61.86 26.82C64.63 24.76 66.22 22.19 65.32 18.72C65.22 18.34 65.1 17.97 64.96 17.59H64.94Z" fill="#A82A00"/>
<path d="M31.02 27.53C31.02 24.48 29.41 21.99 27.4 21.99C25.39 21.99 23.76 24.45 23.75 27.51C23.75 30.57 25.36 33.05 27.37 33.06C29.38 33.06 31.01 30.59 31.02 27.54V27.53Z" fill="#471302"/>
<path d="M25.7101 28.13C25.6001 27.53 25.2601 27.09 24.9601 27.15C24.6601 27.21 24.5002 27.74 24.6202 28.33C24.7302 28.93 25.0702 29.37 25.3702 29.31C25.6702 29.25 25.8201 28.72 25.7101 28.13Z" fill="#FDDD85"/>
<path d="M26.1101 30.28C26.0701 30.08 25.8801 29.96 25.6701 29.99C25.4701 30.03 25.3301 30.22 25.3701 30.41C25.4101 30.61 25.6001 30.73 25.8101 30.7C26.0101 30.66 26.1501 30.47 26.1101 30.28Z" fill="#FDDD85"/>
<path d="M64.5498 27.53C64.5498 24.48 62.9398 21.99 60.9298 21.99C58.9198 21.99 57.2898 24.45 57.2798 27.51C57.2798 30.57 58.8898 33.05 60.8998 33.06C62.9098 33.06 64.5398 30.59 64.5498 27.54V27.53Z" fill="#471302"/>
<path d="M59.4097 29.84C59.0497 29.35 58.5497 29.11 58.3097 29.29C58.0597 29.47 58.1597 30.02 58.5197 30.5C58.8797 30.99 59.3797 31.24 59.6197 31.05C59.8697 30.86 59.7697 30.32 59.4097 29.83V29.84Z" fill="#FDDD85"/>
<path d="M60.7197 31.6C60.5997 31.44 60.3697 31.41 60.1997 31.53C60.0297 31.65 59.9897 31.89 60.1097 32.05C60.2297 32.21 60.4597 32.24 60.6297 32.11C60.7897 31.99 60.8397 31.76 60.7197 31.6Z" fill="#FDDD85"/>
<path d="M64.94 17.59C61.83 15.3 58.35 12.62 54.95 11.01C49.62 8.49998 45.79 8.47998 44.31 4.78998C44.26 4.79998 44.21 4.80998 44.16 4.81998C44.11 4.80998 44.05 4.79998 44 4.78998C42.52 8.47998 38.68 8.49998 33.36 11.01C29.96 12.61 26.48 15.3 23.37 17.59C23.23 17.97 23.11 18.34 23.01 18.72C22.1 22.19 23.7 24.76 26.47 26.82C28.02 27.97 29.87 29.17 31.8 29.57C33.77 29.97 35.59 29.1 35.44 32.16C35.2 36.91 31.36 40.34 31.28 45.22C31.21 49.77 37.59 58.41 42.44 55.52C43.08 55.41 43.69 55.14 44.17 54.72C44.65 55.13 45.25 55.41 45.89 55.52C50.74 58.41 57.12 49.76 57.05 45.22C56.98 40.33 53.13 36.91 52.89 32.16C52.73 29.09 54.56 29.97 56.53 29.57C58.46 29.18 60.32 27.98 61.86 26.82C64.63 24.76 66.22 22.19 65.32 18.72C65.22 18.34 65.1 17.97 64.96 17.59H64.94Z" fill="#FF6A38"/>
<path d="M44.1501 21.21C48.8201 21.21 46.7501 4.18999 44.1501 4.81999C41.5501 4.18999 39.4801 21.21 44.1501 21.21Z" fill="#FF8961"/>
<path d="M22.79 21.29C23.03 23.51 24.43 25.3 26.46 26.81C28.01 27.96 29.86 29.16 31.79 29.56C33.04 29.81 34.23 29.56 34.89 30.12C35.41 29.37 35.7 28.55 35.7 27.7C35.69 24.1 30.62 21.2 24.37 21.22C23.83 21.22 23.31 21.25 22.79 21.3V21.29Z" fill="#FF8961"/>
<path d="M52.07 37.42C52.07 29.83 48.53 21.99 44.15 21.99C39.77 21.99 36.23 29.84 36.23 37.42C36.23 45 39.77 49.46 44.15 49.46C48.53 49.46 52.07 45 52.07 37.42Z" fill="#FF8961"/>
<path d="M63.8901 21.22C57.6401 21.24 52.5901 24.18 52.6001 27.77C52.6001 28.61 52.8901 29.4 53.3901 30.14C54.0501 29.56 55.2501 29.82 56.5101 29.56C58.4401 29.17 60.3001 27.97 61.8401 26.81C63.8701 25.3 65.2701 23.5 65.5101 21.28C64.9801 21.24 64.4401 21.21 63.8801 21.21L63.8901 21.22Z" fill="#FF8961"/>
<path d="M44.1498 54.99C44.9198 55.92 46.9798 56.86 48.1298 56.74C49.4098 56.6 50.9498 55.69 52.3598 54.62C52.4898 54.33 52.6098 54.03 52.7098 53.73C51.6798 54.43 50.6098 55.04 49.6898 55.19C47.6298 55.53 45.6398 55.19 44.6198 53.4C44.9598 53.13 45.1198 52.3 45.1998 52.07C45.5298 50.98 47.8198 48.49 48.0598 48.32C48.8998 47.71 49.5198 46.86 50.1698 46.07C50.3698 45.83 50.1098 45.41 49.8198 45.62C49.0498 46.16 48.2798 46.82 47.3998 47.2C46.5198 47.58 45.3598 47.44 44.4198 47.57C44.3198 47.58 44.2298 47.61 44.1498 47.64C44.0698 47.61 43.9798 47.58 43.8798 47.57C42.9398 47.45 41.7798 47.59 40.8998 47.2C40.0198 46.82 39.2598 46.17 38.4798 45.62C38.1898 45.42 37.9298 45.84 38.1298 46.07C38.7898 46.86 39.4098 47.71 40.2398 48.32C40.4798 48.5 42.7698 50.98 43.1098 52.07C43.1798 52.3 43.3398 53.14 43.6798 53.4C42.6598 55.18 40.6698 55.52 38.6098 55.19C37.6998 55.04 36.6198 54.43 35.5898 53.73C35.6798 54.03 35.7998 54.33 35.9398 54.62C37.3498 55.69 38.8998 56.61 40.1798 56.74C41.3198 56.86 43.3898 55.93 44.1598 54.99H44.1498Z" fill="#A82A00"/>
<path d="M40.2498 48.31C40.3098 48.35 40.4898 48.53 40.7298 48.79C40.7898 48.82 40.8498 48.85 40.8998 48.88C41.7798 49.26 46.5198 49.26 47.3998 48.88C47.4598 48.85 47.5198 48.82 47.5698 48.79C47.8098 48.53 47.9898 48.35 48.0498 48.31C48.8898 47.7 49.5098 46.85 50.1598 46.06C50.3598 45.82 50.0998 45.4 49.8098 45.61C49.0398 46.15 48.2698 46.81 47.3898 47.19C46.5098 47.57 41.7698 47.57 40.8898 47.19C40.0098 46.81 39.2498 46.16 38.4698 45.61C38.1798 45.41 37.9198 45.83 38.1198 46.06C38.7798 46.85 39.3998 47.7 40.2298 48.31H40.2498Z" fill="#471302"/>
</g>
<defs>
<clipPath id="clip0_178_1774">
<rect width="88.31" height="60.15" fill="white"/>
</clipPath>
</defs>
</svg>
