<svg width="89" height="75" viewBox="0 0 89 75" fill="none" xmlns="http://www.w3.org/2000/svg">
<g clip-path="url(#clip0_178_9004)">
<path d="M31.0298 32.89C32.4498 31.45 30.8598 27.56 27.4698 24.2C24.0798 20.83 20.1698 19.27 18.7498 20.71C17.3198 22.15 18.9198 26.04 22.3098 29.4C25.6998 32.77 29.6098 34.33 31.0298 32.89Z" fill="#C43100"/>
<path d="M26.4699 25.47C26.1499 24.32 24.7699 23.2 23.8699 22.5C22.7899 21.67 21.3799 21.2 20.0399 21.46C19.5699 21.55 19.4199 22.08 19.4999 22.48C19.5199 22.57 19.5399 22.67 19.5599 22.76C19.7299 23.63 20.9299 23.43 21.1399 22.72C22.0399 22.44 23.0999 23.08 23.8599 23.51C24.8499 24.07 25.4199 24.87 26.2199 25.63C26.3399 25.75 26.5199 25.61 26.4799 25.46L26.4699 25.47Z" fill="#A82A00"/>
<path d="M57.7798 32.89C56.3598 31.45 57.9498 27.56 61.3398 24.2C64.7298 20.83 68.6298 19.27 70.0598 20.71C71.4898 22.15 69.8898 26.04 66.4998 29.4C63.1098 32.77 59.1998 34.33 57.7798 32.89Z" fill="#C43100"/>
<path d="M62.3397 25.47C62.6597 24.32 64.0397 23.2 64.9397 22.5C66.0197 21.67 67.4297 21.2 68.7797 21.46C69.2497 21.55 69.3997 22.08 69.3197 22.48C69.2997 22.57 69.2797 22.67 69.2597 22.76C69.0897 23.63 67.8897 23.43 67.6797 22.72C66.7797 22.44 65.7197 23.08 64.9597 23.51C63.9697 24.07 63.3997 24.87 62.5997 25.63C62.4797 25.75 62.2997 25.61 62.3397 25.46V25.47Z" fill="#A82A00"/>
<path d="M60.3498 28.78C56.6198 25.65 44.9598 21.92 44.3998 21.92C43.8398 21.92 32.1898 25.65 28.4498 28.78C25.1198 31.57 26.8398 35.82 27.1798 39.4C27.3798 41.5 27.2598 43.92 28.2798 45.83C29.5898 48.28 30.9898 58.3 31.9298 60.94C32.7498 63.24 33.8398 65.01 35.3398 66.94C35.7498 67.47 36.0798 68.09 36.5598 68.47C37.4698 71.45 40.6198 74.04 43.7698 74.36C43.8398 74.36 43.8998 74.36 43.9698 74.38C44.0398 74.38 44.1098 74.38 44.1798 74.39C44.2498 74.39 44.3198 74.39 44.3998 74.39C44.4798 74.39 44.5498 74.39 44.6198 74.39C44.6898 74.39 44.7598 74.39 44.8298 74.38C44.8998 74.38 44.9598 74.38 45.0298 74.36C48.1898 74.05 51.3298 71.45 52.2398 68.47C52.7098 68.09 53.0498 67.46 53.4598 66.94C54.9598 65.01 56.0498 63.24 56.8698 60.94C57.8098 58.31 59.2198 48.28 60.5198 45.83C61.5398 43.92 61.4198 41.5 61.6198 39.4C61.9598 35.82 63.6798 31.57 60.3498 28.78Z" fill="#C43100"/>
<path d="M54.2799 21.67C49.4099 19.37 45.8999 19.35 44.5399 15.98C44.4899 15.98 44.4399 15.99 44.3999 16.01C44.3499 16 44.2999 15.99 44.2599 15.98C42.8999 19.36 39.3999 19.38 34.5199 21.67C31.4099 23.14 28.2199 25.6 25.3799 27.69C25.2599 28.03 25.1399 28.38 25.0499 28.72C24.2199 31.89 25.6799 34.25 28.2099 36.13C29.6199 37.18 31.3199 39.83 33.0899 40.19C34.8899 40.56 36.5599 42.86 36.4199 45.67C36.1999 50.02 32.6799 56.26 32.6199 60.73C32.5599 64.89 38.3899 72.79 42.8299 70.15C43.4199 70.05 43.9699 69.8 44.4099 69.42C44.8499 69.8 45.3999 70.05 45.9899 70.15C50.4299 72.79 56.2599 64.88 56.1999 60.73C56.1299 56.26 52.6199 50.02 52.3999 45.67C52.2599 42.87 53.9299 40.56 55.7299 40.19C57.4899 39.83 59.1899 37.18 60.6099 36.13C63.1399 34.25 64.5999 31.89 63.7699 28.72C63.6799 28.38 57.4099 23.14 54.2999 21.67H54.2799Z" fill="#A82A00"/>
<path d="M33.8199 36.85C33.8199 33.79 32.2099 31.31 30.1999 31.31C28.1899 31.31 26.5599 33.78 26.5499 36.83C26.5399 39.88 28.1599 42.37 30.1699 42.37C32.1799 42.37 33.8099 39.9 33.8199 36.85Z" fill="#471302"/>
<path d="M28.51 37.45C28.4 36.85 28.06 36.41 27.76 36.47C27.46 36.53 27.3 37.06 27.42 37.66C27.53 38.26 27.87 38.7 28.17 38.64C28.47 38.58 28.62 38.05 28.51 37.45Z" fill="#FDDD85"/>
<path d="M28.9099 39.6C28.8699 39.4 28.6799 39.28 28.4699 39.32C28.2699 39.36 28.1299 39.55 28.1699 39.74C28.2099 39.94 28.3999 40.06 28.6099 40.03C28.8099 39.99 28.9499 39.8 28.9099 39.61V39.6Z" fill="#FDDD85"/>
<path d="M62.2597 36.85C62.2697 33.79 60.6497 31.31 58.6397 31.31C56.6297 31.31 54.9997 33.78 54.9897 36.83C54.9897 39.89 56.5997 42.37 58.6097 42.37C60.6197 42.37 62.2497 39.9 62.2597 36.85Z" fill="#471302"/>
<path d="M57.1197 39.16C56.7597 38.67 56.2597 38.42 56.0197 38.61C55.7697 38.79 55.8697 39.34 56.2297 39.83C56.5897 40.32 57.0897 40.56 57.3297 40.38C57.5797 40.2 57.4797 39.65 57.1197 39.17V39.16Z" fill="#FDDD85"/>
<path d="M58.4199 40.91C58.2999 40.75 58.0699 40.72 57.8999 40.85C57.7299 40.97 57.6899 41.2 57.8099 41.36C57.9299 41.52 58.1599 41.55 58.3299 41.42C58.4999 41.3 58.5399 41.07 58.4199 40.91Z" fill="#FDDD85"/>
<path d="M61.0701 24.22C56.2001 21.92 45.9001 19.36 44.5501 15.98C44.5001 15.98 44.4501 15.99 44.4101 16.01C44.3601 16 44.3101 15.99 44.2701 15.98C42.9101 19.36 32.6201 21.92 27.7501 24.22C24.6401 25.69 25.1501 28.38 25.0601 28.72C24.2301 31.89 25.6901 34.25 28.2201 36.13C29.6301 37.18 31.3301 38.28 33.1001 38.64C34.9001 39.01 36.5701 38.21 36.4301 41.01C36.2101 45.36 32.6901 56.25 32.6301 60.72C32.5701 64.88 38.4001 72.78 42.8401 70.14C43.4301 70.04 43.9801 69.79 44.4201 69.41C44.8601 69.79 45.4101 70.04 46.0001 70.14C50.4401 72.78 56.2701 64.87 56.2101 60.72C56.1401 56.25 52.6301 45.35 52.4101 41.01C52.2701 38.21 53.9401 39.01 55.7401 38.64C57.5001 38.28 59.2001 37.18 60.6201 36.13C63.1501 34.25 64.6101 31.89 63.7801 28.72C63.6901 28.38 64.2001 25.68 61.0901 24.22H61.0701Z" fill="#FF6A38"/>
<path d="M88.0302 26.38C87.1902 19.9 85.4902 13.96 81.6302 8.6C78.1702 3.79 73.1202 0 66.9902 0C57.9302 0 47.3302 12.66 46.3602 14.98C44.5802 19.26 47.5102 19.93 50.1502 21.47C54.0902 23.77 59.1802 26.01 61.2502 24.21C62.1202 23.45 63.1902 21.75 64.1102 20.61C66.5802 17.55 70.5802 14.67 73.7002 18.31C82.0002 28 83.3302 55.63 83.7102 60.29C83.9102 62.72 85.4602 69.58 86.5302 68.07C88.2902 65.6 89.7802 39.8 88.0302 26.38ZM2.28016 68.07C3.36016 69.58 4.90016 62.72 5.10016 60.29C5.48016 55.63 6.81016 28 15.1102 18.31C18.2302 14.67 22.2302 17.55 24.7002 20.61C25.6202 21.75 26.7002 23.46 27.5602 24.21C29.6302 26 34.7202 23.77 38.6502 21.47C41.2902 19.93 44.2202 19.26 42.4402 14.98C41.4902 12.66 30.8902 0 21.8202 0C15.6902 0 10.6402 3.79 7.19016 8.59C3.33016 13.95 1.63016 19.89 0.780164 26.38C-0.969836 39.8 0.520164 65.6 2.28016 68.07Z" fill="#FDDD85"/>
<path d="M88.0302 26.38C87.1902 19.9 85.4902 13.96 81.6302 8.6C78.1702 3.79 73.1202 0 66.9902 0C57.9302 0 47.3302 12.66 46.3602 14.98C44.5802 19.26 47.5102 19.93 50.1502 21.47C54.0902 23.77 59.1802 26.01 61.2502 24.21C62.1202 23.45 63.1902 21.75 64.1102 20.61C66.5802 17.55 70.5802 14.67 73.7002 18.31C82.0002 28 83.3302 55.63 83.7102 60.29C83.9102 62.72 85.4602 69.58 86.5302 68.07C88.2902 65.6 89.7802 39.8 88.0302 26.38ZM2.28016 68.07C3.36016 69.58 4.90016 62.72 5.10016 60.29C5.48016 55.63 6.81016 28 15.1102 18.31C18.2302 14.67 22.2302 17.55 24.7002 20.61C25.6202 21.75 26.7002 23.46 27.5602 24.21C29.6302 26 34.7202 23.77 38.6502 21.47C41.2902 19.93 44.2202 19.26 42.4402 14.98C41.4902 12.66 30.8902 0 21.8202 0C15.6902 0 10.6402 3.79 7.19016 8.59C3.33016 13.95 1.63016 19.89 0.780164 26.38C-0.969836 39.8 0.520164 65.6 2.28016 68.07Z" fill="#FDC11C"/>
<path d="M81.62 8.59C78.17 3.79 73.12 0 66.99 0C57.93 0 47.33 12.66 46.36 14.98C46.33 15.05 46.32 15.11 46.29 15.18C47.06 16.32 48.65 16.91 50.15 17.79C54.09 20.09 59.18 22.33 61.25 20.53C62.12 19.77 63.19 18.07 64.11 16.93C66.58 13.87 69.66 12.05 73.7 14.63C87.59 23.51 86.72 51.95 87.11 56.61C87.19 57.61 87.51 59.37 87.92 60.99C88.89 51.77 89.28 35.95 88.04 26.39C87.2 19.91 85.5 13.97 81.64 8.61L81.62 8.59Z" fill="#FDDD85"/>
<path d="M15.1198 14.63C19.3898 12.46 22.2398 13.87 24.7098 16.93C25.6298 18.07 26.7098 19.78 27.5698 20.53C29.6398 22.32 34.7298 20.09 38.6598 17.79C40.1598 16.91 41.7498 16.32 42.5198 15.18C42.4898 15.11 42.4798 15.05 42.4498 14.98C41.4898 12.66 30.8898 0 21.8198 0C15.6898 0 10.6398 3.79 7.1898 8.59C3.3298 13.95 1.6298 19.89 0.779805 26.38C-0.470195 35.94 -0.0701954 51.76 0.899805 60.98C1.3098 59.37 1.6298 57.61 1.7098 56.6C2.0898 51.94 1.6298 21.47 15.1198 14.62V14.63Z" fill="#FDDD85"/>
<path d="M44.4097 31C48.6897 31 49.9797 16.03 44.4097 16C38.8397 15.97 40.1297 31 44.4097 31Z" fill="#FF8961"/>
<path d="M24.8599 31.08C25.0799 33.11 26.3599 34.75 28.2199 36.13C29.6299 37.18 31.3299 38.28 33.0999 38.64C34.2399 38.87 35.3299 38.64 35.9399 39.15C36.4099 38.46 36.6799 37.72 36.6799 36.93C36.6699 33.64 32.0299 30.98 26.3199 31C25.8299 31 25.3499 31.03 24.8699 31.07L24.8599 31.08Z" fill="#FF8961"/>
<path d="M51.6499 45.83C51.6499 38.89 48.4099 31.71 44.4099 31.71C40.4099 31.71 37.1699 38.89 37.1699 45.83C37.1699 52.77 40.4099 64.61 44.4099 64.61C48.4099 64.61 51.6499 52.77 51.6499 45.83Z" fill="#FF8961"/>
<path d="M62.4699 31.01C56.7599 31.03 52.1399 33.71 52.1499 37.01C52.1499 37.78 52.4099 38.5 52.8699 39.17C53.4699 38.64 54.5699 38.88 55.7199 38.64C57.4799 38.28 59.1799 37.18 60.5999 36.13C62.4599 34.74 63.7399 33.1 63.9599 31.07C63.4699 31.03 62.9799 31 62.4699 31.01Z" fill="#FF8961"/>
<path d="M44.4101 69.66C45.1101 70.51 47.0001 71.37 48.0501 71.26C49.2201 71.14 50.6301 70.3 51.9201 69.32C52.0401 69.05 52.1501 68.78 52.2401 68.51C51.3001 69.15 50.3101 69.71 49.4801 69.85C47.5901 70.16 45.7801 69.85 44.8401 68.22C45.1501 67.98 45.3001 67.21 45.3701 67C45.6801 66 47.7701 63.73 47.9901 63.57C48.7601 63.01 49.3201 62.24 49.9201 61.52C50.1001 61.31 49.8601 60.92 49.6001 61.1C48.8901 61.6 48.1901 62.2 47.3901 62.54C46.5801 62.89 45.5201 62.76 44.6601 62.88C44.5701 62.89 44.4901 62.92 44.4201 62.94C44.3501 62.91 44.2701 62.89 44.1801 62.88C43.3201 62.76 42.2601 62.89 41.4501 62.54C40.6501 62.2 39.9401 61.6 39.2401 61.1C38.9801 60.91 38.7401 61.3 38.9201 61.52C39.5201 62.24 40.0901 63.02 40.8501 63.57C41.0701 63.73 43.1601 66 43.4701 67C43.5301 67.21 43.6801 67.98 44.0001 68.22C43.0601 69.85 41.2501 70.16 39.3601 69.85C38.5201 69.71 37.5401 69.15 36.6001 68.51C36.6901 68.79 36.7901 69.06 36.9201 69.32C38.2101 70.3 39.6201 71.14 40.7901 71.26C41.8401 71.37 43.7301 70.52 44.4301 69.66H44.4101Z" fill="#A82A00"/>
<path d="M40.83 63.56C40.88 63.6 41.05 63.77 41.27 64C41.32 64.03 41.38 64.06 41.43 64.08C42.24 64.43 46.57 64.43 47.38 64.08C47.43 64.06 47.49 64.02 47.54 64C47.76 63.76 47.93 63.6 47.98 63.56C48.75 63 49.31 62.23 49.91 61.51C50.09 61.3 49.85 60.91 49.59 61.09C48.88 61.59 48.18 62.19 47.38 62.53C46.57 62.88 42.24 62.88 41.43 62.53C40.63 62.19 39.92 61.59 39.22 61.09C38.96 60.9 38.72 61.29 38.9 61.51C39.5 62.23 40.07 63.01 40.83 63.56Z" fill="#471302"/>
<path d="M50.5097 19.27C50.2997 19.27 50.0797 19.22 49.8797 19.1L49.5697 18.92C48.9597 18.57 48.7197 17.77 49.0697 17.16C49.4197 16.55 50.1697 16.33 50.7797 16.68L50.8497 16.72L51.1397 16.89C51.7497 17.24 51.9597 18.01 51.6097 18.63C51.3797 19.04 50.9397 19.27 50.4997 19.27H50.5097Z" fill="#FDC11C"/>
<path d="M86.9795 54.96C86.2995 54.96 85.7295 54.42 85.7095 53.73L85.6795 52.9C85.6595 52.28 86.0795 51.75 86.6595 51.62C86.0695 51.53 85.6095 51.04 85.5795 50.42L85.5395 49.6C85.5095 48.98 85.9195 48.45 86.4995 48.3C85.9095 48.23 85.4395 47.75 85.3895 47.13L85.3295 46.31C85.2795 45.7 85.6795 45.15 86.2495 44.99C85.6595 44.93 85.1695 44.47 85.1095 43.85L85.0195 43.03C84.9495 42.42 85.3295 41.86 85.8895 41.68C85.2995 41.64 84.7995 41.19 84.7095 40.58L84.5895 39.77C84.4995 39.16 84.8495 38.59 85.4095 38.39C84.8195 38.37 84.2995 37.94 84.1995 37.34C84.1495 37.07 84.0995 36.8 84.0495 36.53C83.9395 35.93 84.2595 35.35 84.8095 35.12C84.2395 35.1 83.6895 34.73 83.5495 34.13C83.4895 33.86 83.4295 33.6 83.3595 33.33C83.2195 32.74 83.5095 32.14 84.0395 31.88C83.4495 31.91 82.8995 31.55 82.7295 30.96C82.6495 30.7 82.5795 30.44 82.4995 30.18C82.3195 29.6 82.5795 28.99 83.0795 28.7C82.4995 28.77 81.9295 28.44 81.7295 27.87C81.6395 27.62 81.5395 27.37 81.4395 27.12C81.2195 26.56 81.4395 25.93 81.9095 25.61C81.3495 25.73 80.7495 25.45 80.4895 24.9C80.3795 24.66 80.2595 24.42 80.1395 24.18C79.8695 23.64 80.0195 23.01 80.4595 22.64C79.9095 22.82 79.2995 22.6 78.9895 22.09C78.8495 21.86 78.7095 21.64 78.5695 21.42C78.2495 20.92 78.3195 20.29 78.6995 19.87C78.1795 20.1 77.5595 19.97 77.1895 19.51C77.0195 19.31 76.8595 19.11 76.6895 18.91C76.3095 18.47 76.2795 17.84 76.5895 17.37C76.1195 17.67 75.4895 17.64 75.0495 17.25C74.8595 17.08 74.6595 16.91 74.4595 16.75C74.0095 16.38 73.8795 15.78 74.0895 15.27C73.6995 15.65 73.0895 15.73 72.5895 15.45C72.3795 15.33 72.1695 15.22 71.9595 15.13C71.4795 14.92 71.1995 14.45 71.1995 13.97C70.9895 14.4 70.5195 14.71 70.0195 14.68C69.7795 14.68 69.5895 14.69 69.4095 14.72C68.9095 14.8 68.4395 14.56 68.1695 14.17C68.2295 14.65 68.0195 15.14 67.5795 15.41C67.3795 15.53 67.1895 15.67 66.9995 15.81C66.5495 16.15 65.9495 16.16 65.5095 15.85C65.7995 16.31 65.7695 16.93 65.3995 17.36C65.2995 17.48 65.1895 17.6 65.0995 17.73L64.9195 17.96C64.5495 18.44 63.8995 18.58 63.3695 18.33C63.7695 18.78 63.8195 19.46 63.4395 19.95C63.2495 20.2 63.0595 20.44 62.8795 20.65C62.4295 21.19 61.6295 21.26 61.0895 20.8C61.0995 20.84 61.1095 20.89 61.1195 20.93C61.2295 21.62 60.7495 22.27 60.0495 22.38C59.7695 22.42 59.4695 22.44 59.1595 22.44H59.0095C58.3295 22.43 57.7795 21.88 57.7595 21.21C57.5195 21.81 56.8495 22.14 56.2195 21.95C55.9395 21.87 55.6595 21.77 55.3695 21.67C54.7595 21.46 54.4195 20.84 54.5395 20.22C54.1995 20.74 53.5195 20.94 52.9395 20.67C52.6795 20.55 52.4195 20.42 52.1595 20.3C51.5295 19.99 51.2695 19.22 51.5795 18.59C51.8895 17.96 52.6595 17.7 53.2895 18.01C53.5295 18.13 53.7695 18.25 54.0095 18.36C54.5495 18.61 54.8295 19.2 54.7195 19.76C55.0295 19.29 55.6395 19.07 56.1995 19.27C56.4495 19.36 56.6895 19.43 56.9295 19.51C57.4695 19.67 57.8195 20.15 57.8395 20.69C58.0295 20.22 58.4995 19.88 59.0395 19.9H59.1495C59.3295 19.9 59.4995 19.9 59.6595 19.87C60.0395 19.81 60.4095 19.93 60.6795 20.16C60.5795 19.77 60.6595 19.35 60.9395 19.02C61.0995 18.83 61.2595 18.63 61.4195 18.42C61.7895 17.93 62.4495 17.79 62.9795 18.04C62.5695 17.59 62.5295 16.9 62.9195 16.41L63.1295 16.14C63.2495 15.99 63.3695 15.85 63.4895 15.71C63.9195 15.21 64.6395 15.13 65.1695 15.49C64.8195 14.94 64.9395 14.2 65.4695 13.8C65.7295 13.6 65.9895 13.42 66.2595 13.25C66.8395 12.89 67.6095 13.05 67.9895 13.62C67.8995 12.93 68.3795 12.29 69.0695 12.19C69.3795 12.15 69.6895 12.13 69.9995 12.12H70.1195C70.8095 12.14 71.3595 12.71 71.3595 13.4C71.6595 12.79 72.3895 12.52 73.0195 12.8C73.2995 12.92 73.5795 13.07 73.8695 13.23C74.4395 13.55 74.6695 14.25 74.4195 14.84C74.8795 14.41 75.5995 14.37 76.0995 14.78C76.3295 14.97 76.5495 15.16 76.7795 15.35C77.2595 15.78 77.3395 16.49 76.9895 17.01C77.5095 16.67 78.2195 16.76 78.6395 17.24C78.8295 17.46 79.0195 17.69 79.2095 17.92C79.6095 18.42 79.5795 19.12 79.1595 19.58C79.7195 19.32 80.3995 19.51 80.7495 20.05C80.9095 20.29 81.0595 20.54 81.2095 20.79C81.5395 21.33 81.4095 22.03 80.9395 22.43C81.5295 22.24 82.1795 22.51 82.4595 23.08C82.5895 23.34 82.7095 23.6 82.8295 23.86C83.0995 24.43 82.8995 25.11 82.3895 25.45C82.9895 25.32 83.6095 25.65 83.8395 26.24C83.9395 26.51 84.0495 26.77 84.1395 27.04C84.3495 27.63 84.1095 28.28 83.5795 28.58C84.1795 28.51 84.7695 28.87 84.9595 29.47C85.0395 29.74 85.1195 30.02 85.1995 30.29C85.3695 30.9 85.0795 31.53 84.5295 31.79C85.1495 31.74 85.7095 32.15 85.8595 32.76C85.9295 33.04 85.9895 33.31 86.0595 33.59C86.1995 34.2 85.8695 34.81 85.3095 35.05C85.9095 35.05 86.4595 35.47 86.5795 36.09C86.6295 36.37 86.6795 36.65 86.7295 36.92C86.8395 37.54 86.4895 38.13 85.9195 38.34C86.5295 38.36 87.0495 38.81 87.1395 39.43L87.2595 40.27C87.3495 40.89 86.9695 41.47 86.3895 41.65C86.9895 41.69 87.4995 42.16 87.5695 42.78L87.6595 43.62C87.7195 44.24 87.3295 44.81 86.7495 44.97C87.3495 45.03 87.8395 45.51 87.8895 46.14L87.9495 46.98C87.9895 47.6 87.5795 48.15 86.9995 48.3C87.5995 48.38 88.0795 48.87 88.1095 49.49L88.1495 50.33C88.1795 50.95 87.7595 51.49 87.1695 51.63C87.7695 51.72 88.2295 52.22 88.2495 52.84L88.2795 53.67C88.2995 54.37 87.7495 54.96 87.0495 54.99H87.0095L86.9795 54.96Z" fill="#FDC11C"/>
<path d="M87.0999 57.88C86.4399 57.88 85.8899 57.38 85.8299 56.71C85.8199 56.58 85.8099 56.42 85.7999 56.25C85.7599 55.55 86.2999 54.95 86.9999 54.91C87.6899 54.89 88.2999 55.41 88.3399 56.11C88.3399 56.25 88.3599 56.38 88.3699 56.49C88.4299 57.19 87.9099 57.81 87.2099 57.87C87.1699 57.87 87.1399 57.87 87.0999 57.87V57.88Z" fill="#FDC11C"/>
<path d="M1.70985 57.88C1.70985 57.88 1.63985 57.88 1.60985 57.88C0.909847 57.82 0.389847 57.21 0.439847 56.51C0.439847 56.39 0.459847 56.27 0.469847 56.12C0.509847 55.42 1.11985 54.88 1.80985 54.92C2.50985 54.96 3.04985 55.56 3.00985 56.26C3.00985 56.43 2.98985 56.58 2.97985 56.71C2.92985 57.37 2.36985 57.88 1.70985 57.88Z" fill="#FDC11C"/>
<path d="M1.84002 54.97H1.79002C1.09002 54.94 0.540019 54.35 0.570019 53.65L0.600019 52.81C0.630019 52.19 1.10002 51.69 1.69002 51.6C1.10002 51.46 0.680019 50.92 0.720019 50.29L0.770019 49.45C0.810019 48.83 1.29002 48.33 1.88002 48.26C1.30002 48.11 0.890019 47.55 0.930019 46.93L0.990019 46.09C1.04002 45.47 1.53002 44.99 2.13002 44.93C1.55002 44.76 1.16002 44.2 1.22002 43.58L1.31002 42.74C1.38002 42.12 1.88002 41.65 2.48002 41.61C1.91002 41.42 1.53002 40.85 1.61002 40.23L1.72002 39.39C1.81002 38.77 2.33002 38.32 2.94002 38.3C2.37002 38.09 2.01002 37.51 2.11002 36.89L2.25002 36.06C2.36002 35.44 2.90002 35.01 3.50002 35.01C2.94002 34.78 2.61002 34.18 2.74002 33.56C2.80002 33.28 2.86002 33.01 2.92002 32.73C3.06002 32.11 3.64002 31.72 4.23002 31.74C3.67002 31.49 3.37002 30.86 3.53002 30.25C3.60002 29.98 3.68002 29.7 3.76002 29.43C3.93002 28.82 4.52002 28.45 5.12002 28.51C4.58002 28.22 4.32002 27.58 4.53002 26.98C4.62002 26.71 4.72002 26.44 4.82002 26.17C5.04002 25.57 5.65002 25.24 6.25002 25.36C5.73002 25.02 5.52002 24.36 5.78002 23.78C5.90002 23.52 6.02002 23.25 6.14002 22.99C6.41002 22.41 7.06002 22.13 7.65002 22.31C7.17002 21.92 7.03002 21.23 7.35002 20.68C7.50002 20.43 7.65002 20.18 7.80002 19.93C8.14002 19.39 8.82002 19.19 9.39002 19.44C8.96002 18.98 8.93002 18.27 9.33002 17.77C9.52002 17.54 9.71002 17.31 9.90002 17.09C10.33 16.61 11.04 16.53 11.56 16.88C11.22 16.35 11.33 15.63 11.83 15.22C12.07 15.03 12.31 14.84 12.55 14.66C13.08 14.28 13.8 14.36 14.23 14.83C14.03 14.23 14.31 13.55 14.9 13.27C15.19 13.14 15.47 13.01 15.75 12.91C16.38 12.67 17.08 12.96 17.36 13.56C17.36 12.88 17.89 12.32 18.57 12.29C18.68 12.29 18.78 12.29 18.89 12.29C19.13 12.29 19.36 12.3 19.58 12.32C20.27 12.39 20.78 13 20.73 13.69C21.09 13.1 21.85 12.9 22.45 13.24C22.73 13.4 23 13.58 23.27 13.77C23.81 14.16 23.95 14.9 23.61 15.46C24.14 15.09 24.87 15.18 25.3 15.68C25.42 15.82 25.54 15.96 25.66 16.11L25.87 16.37C26.26 16.87 26.22 17.56 25.81 18.01C26.34 17.76 27 17.9 27.37 18.39C27.53 18.6 27.69 18.81 27.85 18.99C28.13 19.32 28.21 19.75 28.1 20.13C28.37 19.9 28.74 19.79 29.12 19.84C29.28 19.87 29.45 19.88 29.63 19.88H29.73C30.27 19.88 30.74 20.2 30.94 20.68C30.96 20.15 31.31 19.66 31.85 19.5C32.09 19.43 32.34 19.35 32.58 19.26C33.14 19.06 33.74 19.28 34.06 19.75C33.95 19.19 34.23 18.61 34.77 18.36C35.01 18.25 35.25 18.13 35.49 18.01C36.12 17.7 36.88 17.96 37.2 18.59C37.51 19.22 37.25 19.98 36.62 20.3C36.36 20.43 36.1 20.55 35.84 20.67C35.26 20.94 34.59 20.74 34.24 20.22C34.36 20.83 34.02 21.45 33.41 21.66C33.12 21.76 32.84 21.85 32.56 21.94C31.92 22.13 31.26 21.8 31.02 21.19C31 21.86 30.45 22.41 29.77 22.42H29.62C29.31 22.42 29 22.4 28.72 22.36C28.02 22.25 27.55 21.6 27.66 20.91C27.66 20.87 27.68 20.82 27.69 20.78C27.15 21.23 26.35 21.16 25.9 20.62C25.72 20.4 25.53 20.16 25.34 19.92C24.96 19.42 25.01 18.74 25.41 18.29C24.88 18.54 24.23 18.4 23.86 17.92L23.68 17.7C23.58 17.57 23.47 17.45 23.37 17.33C23 16.9 22.97 16.3 23.25 15.84C22.82 16.14 22.22 16.15 21.78 15.82C21.59 15.68 21.4 15.56 21.2 15.45C20.76 15.2 20.52 14.72 20.56 14.24C20.31 14.64 19.85 14.9 19.35 14.85C19.21 14.84 19.06 14.83 18.91 14.83H18.69C18.15 14.88 17.69 14.55 17.48 14.1C17.48 14.61 17.17 15.09 16.66 15.29C16.44 15.38 16.21 15.47 15.98 15.58C15.47 15.82 14.87 15.69 14.51 15.29C14.68 15.8 14.51 16.39 14.05 16.72C13.85 16.87 13.65 17.02 13.45 17.18C13.01 17.55 12.39 17.56 11.93 17.25C12.22 17.72 12.19 18.34 11.81 18.77C11.64 18.96 11.47 19.16 11.31 19.36C10.94 19.82 10.32 19.95 9.80002 19.72C10.18 20.13 10.26 20.77 9.95002 21.26C9.81002 21.48 9.67002 21.71 9.54002 21.94C9.24002 22.46 8.63002 22.68 8.08002 22.52C8.53002 22.88 8.69002 23.51 8.43002 24.05C8.32002 24.29 8.21002 24.53 8.10002 24.78C7.86002 25.33 7.27002 25.63 6.70002 25.52C7.19002 25.84 7.41002 26.45 7.20002 27.02C7.11002 27.27 7.02002 27.53 6.93002 27.78C6.73002 28.36 6.17002 28.69 5.59002 28.63C6.10002 28.91 6.37002 29.51 6.20002 30.1C6.12002 30.36 6.05002 30.62 5.98002 30.89C5.82002 31.48 5.27002 31.87 4.68002 31.83C5.22002 32.08 5.53002 32.67 5.39002 33.27C5.33002 33.54 5.27002 33.8 5.21002 34.07C5.08002 34.67 4.55002 35.07 3.97002 35.07C4.51002 35.29 4.85002 35.87 4.74002 36.47L4.60002 37.28C4.50002 37.89 3.98002 38.32 3.39002 38.34C3.95002 38.54 4.31002 39.11 4.22002 39.72L4.11002 40.53C4.03002 41.14 3.53002 41.59 2.94002 41.63C3.50002 41.81 3.88002 42.37 3.81002 42.98L3.72002 43.8C3.66002 44.41 3.17002 44.88 2.58002 44.94C3.15002 45.1 3.54002 45.65 3.49002 46.26L3.43002 47.08C3.38002 47.7 2.91002 48.18 2.32002 48.25C2.90002 48.4 3.30002 48.94 3.27002 49.55L3.23002 50.38C3.20002 51 2.73002 51.49 2.14002 51.57C2.72002 51.71 3.14002 52.24 3.11002 52.86L3.08002 53.69C3.05002 54.38 2.49002 54.91 1.81002 54.91L1.84002 54.97Z" fill="#FDC11C"/>
<path d="M38.2998 19.27C37.8598 19.27 37.4298 19.04 37.1898 18.63C36.8398 18.02 37.0498 17.24 37.6598 16.89L37.9498 16.72L38.6598 17.78L39.2998 18.88L38.9298 19.1C38.7298 19.21 38.5098 19.27 38.2998 19.27Z" fill="#FDC11C"/>
</g>
<defs>
<clipPath id="clip0_178_9004">
<rect width="88.81" height="74.39" fill="white"/>
</clipPath>
</defs>
</svg>
