<svg width="88" height="65" viewBox="0 0 88 65" fill="none" xmlns="http://www.w3.org/2000/svg">
<g clip-path="url(#clip0_178_9079)">
<path d="M9.83986 25.04C5.16986 27.97 6.10986 23.52 3.95986 20.1C1.80986 16.68 -2.60014 15.59 2.06986 12.66C6.74986 9.72997 12.2699 10.12 14.4199 13.54C16.5699 16.96 14.5199 22.11 9.83986 25.04Z" fill="#471302"/>
<path d="M7.04971 20.6C2.37971 23.53 4.55971 21.07 3.94971 20.1C3.33971 19.13 0.169709 20.03 4.83971 17.1C9.50971 14.17 13.7997 12.57 14.3997 13.54C15.0097 14.51 11.7097 17.67 7.03971 20.6H7.04971Z" fill="#A82A00"/>
<path d="M14.4098 13.54C15.6398 15.5 12.6098 19.61 7.64984 22.72C6.60984 23.37 5.86984 23.74 5.33984 23.9C5.80984 25.09 6.59984 25.54 9.14984 23.94C13.8198 21.01 16.1798 16.35 14.4198 13.54H14.4098Z" fill="#A82A00"/>
<path d="M2.76008 13.77C0.220083 15.37 0.280083 16.27 1.14008 17.22C1.51008 16.81 2.16008 16.3 3.20008 15.65C8.16008 12.53 13.1801 11.59 14.4101 13.55C12.6501 10.74 7.43008 10.84 2.75008 13.77H2.76008Z" fill="#A82A00"/>
<path d="M50.8698 29.65C59.3698 35.63 71.2298 41.53 74.0398 34.68C76.8498 27.82 74.3298 11.6 61.0398 4.81999C29.8698 -11.09 6.50977 17.49 6.50977 17.49C6.50977 17.49 29.6498 14.72 50.8698 29.65Z" fill="#FF6A38"/>
<path d="M50.8697 29.65C52.9797 31.13 55.2897 32.61 57.6197 33.89C55.7997 27.82 51.7897 21.62 44.7897 18.05C30.2897 10.65 17.4797 12.88 7.92969 17.38C13.2497 17.06 32.7597 16.91 50.8697 29.66V29.65Z" fill="#FF8961"/>
<path d="M38.3297 8.54C40.5397 8.41 42.2597 6.98 42.1597 5.34C42.0597 3.7 40.1897 2.47 37.9797 2.6C35.7697 2.73 34.0497 4.16 34.1497 5.8C34.2497 7.44 36.1097 8.67 38.3297 8.54Z" fill="#C43100"/>
<path d="M39.2597 8.00002C41.1397 7.89002 42.6097 6.69002 42.5297 5.32002C42.4497 3.95002 40.8597 2.93002 38.9797 3.03002C37.0997 3.14002 35.6297 4.34002 35.7097 5.71002C35.7897 7.08002 37.3797 8.10002 39.2597 8.00002Z" fill="#FF6A38"/>
<path d="M39.4395 4.95003C39.9295 4.91003 40.3095 4.53003 40.2695 4.09003C40.2295 3.66003 39.7995 3.34003 39.3095 3.38003C38.8195 3.42003 38.4395 3.81003 38.4795 4.24003C38.5195 4.67003 38.9395 4.99003 39.4395 4.95003Z" fill="#FDDD85"/>
<path d="M37.5896 5.30002C37.8896 5.18002 38.0496 4.87002 37.9496 4.60002C37.8496 4.33002 37.5096 4.21002 37.2096 4.33002C36.9096 4.45002 36.7396 4.76002 36.8496 5.03002C36.9596 5.30002 37.2896 5.42002 37.5896 5.30002Z" fill="#FDDD85"/>
<path d="M30.0997 9.07997C31.7197 8.98997 32.9697 7.93997 32.8997 6.73997C32.8297 5.53997 31.4697 4.64997 29.8497 4.73997C28.2297 4.82997 26.9797 5.87997 27.0497 7.07997C27.1197 8.27997 28.4897 9.16997 30.0997 9.07997Z" fill="#C43100"/>
<path d="M30.7797 8.67998C32.1597 8.59998 33.2196 7.72998 33.1696 6.71998C33.1096 5.71998 31.9497 4.96998 30.5697 5.04998C29.1897 5.12998 28.1197 6.00998 28.1797 7.00998C28.2397 8.00998 29.3997 8.75998 30.7797 8.67998Z" fill="#FF6A38"/>
<path d="M30.9198 6.45994C31.2798 6.42994 31.5498 6.14994 31.5298 5.82994C31.5098 5.50994 31.1898 5.27994 30.8298 5.30994C30.4698 5.33994 30.1998 5.61994 30.2198 5.93994C30.2398 6.25994 30.5598 6.48994 30.9198 6.45994Z" fill="#FDDD85"/>
<path d="M29.5595 6.70996C29.7795 6.61996 29.8995 6.39996 29.8295 6.19996C29.7495 5.99996 29.5095 5.91996 29.2895 5.99996C29.0695 6.08996 28.9495 6.30996 29.0195 6.50996C29.0995 6.70996 29.3395 6.78996 29.5595 6.70996Z" fill="#FDDD85"/>
<path d="M45.3698 9.35C48.2698 9.81999 50.9098 8.46 51.2598 6.29999C51.6098 4.14999 49.5398 2.01999 46.6298 1.54999C43.7198 1.07999 41.0898 2.43999 40.7398 4.59999C40.3898 6.75 42.4598 8.88 45.3698 9.35Z" fill="#C43100"/>
<path d="M46.7399 8.91001C49.2099 9.31001 51.4499 8.18001 51.7499 6.37001C52.0399 4.57001 50.2699 2.79001 47.7999 2.39001C45.3299 1.99001 43.0799 3.12001 42.7899 4.93001C42.4999 6.73001 44.2699 8.51001 46.7399 8.91001Z" fill="#FF6A38"/>
<path d="M47.8497 5.01997C48.4997 5.10997 49.0897 4.71997 49.1697 4.13997C49.2497 3.56997 48.7797 3.02997 48.1297 2.93997C47.4797 2.84997 46.8897 3.23997 46.8097 3.81997C46.7297 4.38997 47.1997 4.92997 47.8497 5.01997Z" fill="#FDDD85"/>
<path d="M45.3496 4.92997C45.7796 4.85997 46.0796 4.49997 46.0196 4.12997C45.9596 3.74997 45.5596 3.49997 45.1396 3.56997C44.7096 3.63997 44.4096 3.99997 44.4696 4.36997C44.5296 4.74997 44.9296 4.99997 45.3496 4.92997Z" fill="#FDDD85"/>
<path d="M43.4097 14.6C45.8597 14.99 48.0697 13.84 48.3597 12.02C48.6497 10.21 46.8997 8.42002 44.4497 8.03002C41.9997 7.64002 39.7897 8.80002 39.4997 10.61C39.2097 12.42 40.9597 14.21 43.4097 14.6Z" fill="#C43100"/>
<path d="M44.5597 14.24C46.6397 14.57 48.5297 13.61 48.7697 12.09C49.0097 10.57 47.5197 9.07004 45.4297 8.74004C43.3397 8.41004 41.4597 9.37004 41.2197 10.89C40.9797 12.41 42.4697 13.91 44.5597 14.24Z" fill="#FF6A38"/>
<path d="M45.4998 10.95C46.0498 11.03 46.5498 10.69 46.6098 10.21C46.6698 9.73004 46.2798 9.28004 45.7298 9.20004C45.1798 9.13004 44.6798 9.46004 44.6198 9.94004C44.5498 10.42 44.9498 10.87 45.4898 10.95H45.4998Z" fill="#FDDD85"/>
<path d="M43.3899 10.89C43.7499 10.83 43.9999 10.53 43.9499 10.21C43.8999 9.89003 43.5699 9.68003 43.2099 9.74003C42.8499 9.80003 42.5999 10.1 42.6499 10.42C42.6999 10.74 43.0299 10.95 43.3999 10.89H43.3899Z" fill="#FDDD85"/>
<path d="M61.66 27.98C64.26 29.05 67.23 27.8 68.3 25.2C69.36 22.6 68.12 19.62 65.52 18.56C62.92 17.49 59.95 18.74 58.88 21.34C57.81 23.94 59.06 26.91 61.66 27.98Z" fill="#471302"/>
<path d="M61.9198 27.34C64.1698 28.26 66.7298 27.18 67.6498 24.94C68.5698 22.69 67.4998 20.13 65.2498 19.21C62.9998 18.29 60.4398 19.36 59.5198 21.61C58.5998 23.86 59.6798 26.42 61.9198 27.34Z" fill="#FF8961"/>
<path d="M62.7802 25.2399C63.8602 25.6799 65.1002 25.1599 65.5502 24.0799C65.9902 22.9999 65.4802 21.7599 64.3902 21.3099C63.3102 20.8699 62.0702 21.3899 61.6202 22.4699C61.1802 23.5499 61.6902 24.7899 62.7802 25.2399Z" fill="#471302"/>
<path d="M66.0298 22.9C66.9798 23.29 67.9398 23.12 68.1898 22.52C68.4398 21.92 67.8598 21.12 66.9198 20.74C65.9698 20.35 64.9998 20.52 64.7598 21.12C64.5098 21.72 65.0898 22.52 66.0398 22.9H66.0298Z" fill="#FDDD85"/>
<path d="M63.0198 22.48C63.5498 22.69 64.0798 22.6 64.2198 22.27C64.3598 21.94 64.0398 21.5 63.5098 21.28C62.9798 21.06 62.4498 21.16 62.3098 21.49C62.1798 21.82 62.4898 22.26 63.0198 22.48Z" fill="#FDDD85"/>
<path d="M52.7298 10.05C55.4498 11.17 58.3298 10.43 59.1498 8.41999C59.9798 6.39999 58.4398 3.85999 55.7198 2.74999C52.9998 1.62999 50.1198 2.36999 49.2898 4.37999C48.4598 6.39999 49.9998 8.93999 52.7198 10.05H52.7298Z" fill="#C43100"/>
<path d="M54.16 9.94001C56.48 10.89 58.92 10.29 59.61 8.60001C60.3 6.91001 58.98 4.77001 56.66 3.82001C54.34 2.87001 51.9 3.47001 51.21 5.16001C50.52 6.85001 51.84 8.98001 54.16 9.94001Z" fill="#FF6A38"/>
<path d="M56.1299 6.38998C56.7399 6.62998 57.4099 6.38998 57.6199 5.83998C57.8299 5.28998 57.4999 4.66998 56.8799 4.43998C56.2599 4.19998 55.5999 4.44998 55.3899 4.98998C55.1799 5.52998 55.5099 6.15998 56.1299 6.38998Z" fill="#FDDD85"/>
<path d="M53.7197 5.73999C54.1497 5.76999 54.5297 5.48999 54.5497 5.10999C54.5797 4.72999 54.2497 4.39999 53.8197 4.35999C53.3897 4.32999 53.0097 4.60999 52.9897 4.98999C52.9597 5.36999 53.2897 5.70999 53.7197 5.73999Z" fill="#FDDD85"/>
<path d="M49.0098 14.7C51.2598 15.74 53.7098 15.24 54.4798 13.58C55.2498 11.91 54.0598 9.71998 51.8098 8.66998C49.5598 7.61998 47.1098 8.12998 46.3398 9.78998C45.5598 11.45 46.7598 13.65 48.9998 14.7H49.0098Z" fill="#C43100"/>
<path d="M50.2197 14.67C52.1297 15.56 54.2097 15.15 54.8597 13.76C55.5097 12.37 54.4797 10.52 52.5697 9.63C50.6597 8.74 48.5797 9.15 47.9297 10.54C47.2797 11.93 48.3097 13.78 50.2197 14.67Z" fill="#FF6A38"/>
<path d="M52.0099 11.76C52.5199 11.98 53.0899 11.8 53.2799 11.35C53.4799 10.9 53.2199 10.36 52.7099 10.14C52.1999 9.91998 51.6299 10.1 51.4399 10.55C51.2499 11 51.4999 11.54 52.0099 11.76Z" fill="#FDDD85"/>
<path d="M50.0096 11.12C50.3696 11.16 50.6996 10.94 50.7396 10.62C50.7796 10.3 50.5096 10.01 50.1496 9.96001C49.7896 9.92001 49.4596 10.14 49.4196 10.46C49.3796 10.78 49.6396 11.07 50.0096 11.12Z" fill="#FDDD85"/>
<path d="M67.7097 13.73C70.1597 16.71 71.0197 20.06 71.7897 19.42C72.5597 18.79 71.1997 15.85 68.7497 12.88C66.2997 9.89997 63.6797 7.99997 62.9097 8.63997C62.1397 9.27997 65.2597 10.76 67.7097 13.74V13.73Z" fill="#FDDD85"/>
<path d="M71.9699 21.43C72.0699 21.9 72.3799 22.24 72.6599 22.18C72.9499 22.12 73.0899 21.69 72.9999 21.22C72.8999 20.75 72.5899 20.42 72.3099 20.47C72.0299 20.53 71.8799 20.96 71.9699 21.43Z" fill="#FDDD85"/>
<path d="M72.7898 24.06C72.8398 24.29 73.0098 24.44 73.1798 24.41C73.3498 24.37 73.4498 24.16 73.3998 23.94C73.3498 23.72 73.1798 23.56 73.0098 23.59C72.8398 23.63 72.7398 23.84 72.7898 24.06Z" fill="#FDDD85"/>
<path d="M37.6198 21.28C32.8398 18.52 36.4698 18.56 37.5698 16.66C38.6698 14.76 36.8098 11.63 41.5998 14.39C46.3798 17.15 49.3698 20.92 48.2698 22.83C47.1698 24.73 42.4098 24.04 37.6298 21.29L37.6198 21.28Z" fill="#471302"/>
<path d="M39.0398 18.81C34.2598 16.05 37.2498 17.2 37.5598 16.66C37.8698 16.12 35.3798 14.11 40.1598 16.86C44.9398 19.62 48.5598 22.29 48.2498 22.82C47.9398 23.36 43.8098 21.56 39.0298 18.81H39.0398Z" fill="#A82A00"/>
<path d="M48.2597 22.82C47.6297 23.91 43.0097 22.42 37.9297 19.49C36.8697 18.88 36.1797 18.43 35.7597 18.09C35.2197 18.57 35.3697 19.16 37.9697 20.66C42.7497 23.42 47.3597 24.38 48.2597 22.82Z" fill="#A82A00"/>
<path d="M41.2397 15C38.6397 13.5 38.0497 13.66 37.9097 14.37C38.4097 14.56 39.1497 14.93 40.2097 15.55C45.2897 18.48 48.8997 21.73 48.2697 22.82C49.1697 21.26 46.0297 17.75 41.2497 15H41.2397Z" fill="#A82A00"/>
<path d="M47.0696 24.89C49.7696 26.44 52.4896 26.78 53.1496 25.64C53.8096 24.5 52.1496 22.31 49.4596 20.76C46.7596 19.21 44.0396 18.87 43.3796 20.01C42.7196 21.15 44.3796 23.34 47.0696 24.89Z" fill="#C43100"/>
<path d="M48.19 25.53C50.27 26.73 52.49 26.78 53.15 25.64C53.81 24.5 52.65 22.6 50.57 21.4C48.49 20.2 46.27 20.15 45.61 21.29C44.95 22.43 46.1 24.33 48.19 25.53Z" fill="#FF6A38"/>
<path d="M52.9199 31.04C60.5299 36.05 69.8599 40.28 73.2999 35.95C68.9499 36.92 63.0499 34.9 58.2299 30.35C53.1699 25.58 50.8199 19.46 51.8899 14.99C51.6499 15.18 51.4299 15.38 51.2099 15.6C47.9199 19.09 48.7999 25.45 52.9099 31.03L52.9199 31.04Z" fill="#C43100"/>
<path d="M77.64 39.52C82.31 36.59 81.37 41.04 83.52 44.46C85.67 47.88 90.08 48.97 85.41 51.9C80.74 54.83 75.21 54.44 73.06 51.02C70.92 47.6 72.96 42.45 77.64 39.52Z" fill="#471302"/>
<path d="M80.43 43.96C85.11 41.03 82.92 43.49 83.53 44.46C84.1399 45.43 87.31 44.53 82.64 47.46C77.97 50.39 73.68 51.99 73.08 51.02C72.47 50.05 75.77 46.89 80.44 43.96H80.43Z" fill="#A82A00"/>
<path d="M73.0702 51.02C71.8402 49.06 74.8702 44.95 79.8402 41.84C80.8802 41.19 81.6202 40.82 82.1502 40.67C81.6802 39.48 80.8902 39.03 78.3402 40.63C73.6702 43.56 71.3102 48.22 73.0702 51.03V51.02Z" fill="#A82A00"/>
<path d="M84.7203 50.8C87.2703 49.2 87.2003 48.3 86.3403 47.35C85.9703 47.76 85.3203 48.27 84.2803 48.92C79.3203 52.04 74.3003 52.98 73.0703 51.02C74.8303 53.83 80.0503 53.73 84.7303 50.8H84.7203Z" fill="#A82A00"/>
<path d="M36.61 34.91C28.11 28.93 16.25 23.03 13.44 29.88C10.63 36.74 13.15 52.96 26.44 59.74C57.61 75.64 80.98 47.07 80.98 47.07C80.98 47.07 57.84 49.84 36.62 34.91H36.61Z" fill="#FF6A38"/>
<path d="M36.6099 34.91C34.4999 33.43 32.1899 31.95 29.8599 30.67C31.6799 36.74 35.6899 42.94 42.6899 46.51C57.1899 53.91 69.9899 51.68 79.5499 47.19C74.2299 47.51 54.7199 47.66 36.6099 34.91Z" fill="#FF8961"/>
<path d="M49.1501 56.02C46.9401 56.15 45.2201 57.58 45.3201 59.22C45.4101 60.86 47.2801 62.09 49.5001 61.96C51.7201 61.83 53.4301 60.4 53.3301 58.76C53.2401 57.12 51.3701 55.89 49.1501 56.02Z" fill="#C43100"/>
<path d="M48.2199 56.56C46.3399 56.67 44.8699 57.87 44.9499 59.24C45.0299 60.61 46.6199 61.63 48.5099 61.53C50.3899 61.42 51.8599 60.22 51.7799 58.85C51.6999 57.48 50.1099 56.46 48.2199 56.56Z" fill="#FF6A38"/>
<path d="M48.0297 59.61C47.5397 59.65 47.1597 60.03 47.1997 60.47C47.2397 60.9 47.6697 61.22 48.1597 61.18C48.6497 61.14 49.0297 60.75 48.9897 60.32C48.9497 59.89 48.5197 59.57 48.0297 59.61Z" fill="#FDDD85"/>
<path d="M49.8898 59.27C49.5798 59.39 49.4198 59.7 49.5298 59.97C49.6398 60.24 49.9698 60.36 50.2698 60.24C50.5698 60.12 50.7398 59.81 50.6298 59.54C50.5298 59.27 50.1898 59.15 49.8898 59.27Z" fill="#FDDD85"/>
<path d="M57.3799 55.48C55.7599 55.58 54.51 56.62 54.58 57.82C54.65 59.02 56.0099 59.91 57.6299 59.82C59.2499 59.72 60.4999 58.68 60.4299 57.48C60.3599 56.28 58.9899 55.39 57.3799 55.48Z" fill="#C43100"/>
<path d="M56.6998 55.88C55.3198 55.96 54.2598 56.84 54.3098 57.84C54.3698 58.84 55.5298 59.59 56.9098 59.51C58.2898 59.43 59.3598 58.55 59.2998 57.55C59.2398 56.55 58.0798 55.8 56.6998 55.88Z" fill="#FF6A38"/>
<path d="M56.5598 58.1C56.1998 58.13 55.9298 58.41 55.9498 58.73C55.9798 59.05 56.2898 59.28 56.6498 59.25C57.0098 59.22 57.2798 58.94 57.2598 58.62C57.2298 58.3 56.9198 58.07 56.5598 58.1Z" fill="#FDDD85"/>
<path d="M57.9198 57.85C57.6998 57.94 57.5798 58.17 57.6498 58.36C57.7298 58.56 57.9698 58.64 58.1898 58.56C58.4098 58.47 58.5298 58.25 58.4598 58.05C58.3798 57.85 58.1398 57.77 57.9198 57.85Z" fill="#FDDD85"/>
<path d="M42.1097 55.21C39.2097 54.74 36.5697 56.1 36.2197 58.26C35.8697 60.41 37.9397 62.54 40.8497 63.01C43.7497 63.48 46.3897 62.12 46.7397 59.96C47.0897 57.81 45.0197 55.68 42.1097 55.21Z" fill="#C43100"/>
<path d="M40.7398 55.65C38.2698 55.25 36.0298 56.38 35.7298 58.19C35.4398 59.99 37.2098 61.77 39.6798 62.17C42.1498 62.57 44.3898 61.44 44.6898 59.63C44.9798 57.83 43.2098 56.05 40.7398 55.65Z" fill="#FF6A38"/>
<path d="M39.6298 59.5399C38.9798 59.4499 38.3898 59.8399 38.3098 60.4199C38.2298 60.9899 38.6898 61.5299 39.3498 61.6199C39.9998 61.7099 40.5898 61.3199 40.6698 60.7499C40.7498 60.1799 40.2898 59.6399 39.6298 59.5499V59.5399Z" fill="#FDDD85"/>
<path d="M42.12 59.63C41.69 59.7 41.39 60.06 41.45 60.43C41.51 60.81 41.91 61.06 42.33 60.99C42.76 60.92 43.06 60.56 43 60.19C42.94 59.81 42.55 59.56 42.12 59.63Z" fill="#FDDD85"/>
<path d="M44.0698 49.96C41.6198 49.57 39.4098 50.72 39.1198 52.54C38.8298 54.35 40.5798 56.14 43.0298 56.53C45.4798 56.92 47.6898 55.76 47.9798 53.95C48.2698 52.14 46.5198 50.35 44.0698 49.96Z" fill="#C43100"/>
<path d="M42.9199 50.32C40.8399 49.99 38.9499 50.95 38.7099 52.47C38.4699 53.99 39.9599 55.49 42.0499 55.82C44.1399 56.15 46.0199 55.19 46.2599 53.67C46.4999 52.15 45.0099 50.65 42.9199 50.32Z" fill="#FF6A38"/>
<path d="M41.9899 53.6C41.4399 53.53 40.9399 53.86 40.8699 54.34C40.8099 54.82 41.1999 55.27 41.7499 55.35C42.2999 55.42 42.7999 55.09 42.8599 54.61C42.9199 54.13 42.5299 53.67 41.9899 53.6Z" fill="#FDDD85"/>
<path d="M44.0898 53.68C43.7298 53.74 43.4798 54.04 43.5298 54.36C43.5798 54.68 43.9098 54.89 44.2798 54.83C44.6398 54.77 44.8898 54.47 44.8398 54.15C44.7898 53.83 44.4598 53.62 44.0898 53.68Z" fill="#FDDD85"/>
<path d="M21.9598 46C24.5598 47.06 27.5398 45.82 28.5998 43.22C29.6598 40.62 28.4198 37.65 25.8198 36.58C23.2198 35.51 20.2498 36.76 19.1798 39.36C18.1098 41.96 19.3598 44.94 21.9598 46Z" fill="#471302"/>
<path d="M22.23 45.36C24.48 46.28 27.04 45.2 27.97 42.96C28.89 40.71 27.81 38.15 25.57 37.23C23.32 36.31 20.76 37.38 19.84 39.63C18.92 41.88 19.99 44.44 22.24 45.36H22.23Z" fill="#FF8961"/>
<path d="M23.0899 43.25C24.1699 43.7 25.4099 43.17 25.8599 42.09C26.3099 41.01 25.7899 39.77 24.6999 39.32C23.6199 38.88 22.3799 39.39 21.9299 40.48C21.4899 41.56 22.0099 42.8 23.0899 43.25Z" fill="#471302"/>
<path d="M26.3397 40.91C27.2897 41.3 28.2597 41.13 28.4997 40.53C28.7397 39.93 28.1697 39.14 27.2197 38.75C26.2697 38.36 25.2997 38.53 25.0597 39.13C24.8097 39.73 25.3897 40.52 26.3297 40.91H26.3397Z" fill="#FDDD85"/>
<path d="M23.3299 40.5C23.8599 40.71 24.3899 40.62 24.5299 40.29C24.6699 39.96 24.3499 39.51 23.8199 39.3C23.2899 39.08 22.7599 39.18 22.6199 39.51C22.4899 39.84 22.7999 40.28 23.3299 40.5Z" fill="#FDDD85"/>
<path d="M34.7501 54.52C32.0301 53.4 29.1501 54.14 28.3201 56.15C27.4901 58.17 29.0301 60.71 31.7501 61.82C34.4701 62.94 37.3501 62.2 38.1801 60.19C39.0101 58.17 37.4701 55.63 34.7501 54.52Z" fill="#C43100"/>
<path d="M33.3201 54.63C31.0001 53.68 28.5601 54.28 27.8701 55.97C27.1801 57.66 28.5001 59.8 30.8201 60.75C33.1401 61.7 35.5801 61.1 36.2701 59.41C36.9601 57.72 35.6401 55.59 33.3201 54.63Z" fill="#FF6A38"/>
<path d="M31.3501 58.17C30.7401 57.93 30.0701 58.17 29.8601 58.72C29.6501 59.26 29.9801 59.89 30.6001 60.12C31.2101 60.35 31.8801 60.11 32.0901 59.57C32.3001 59.03 31.9701 58.4 31.3501 58.17Z" fill="#FDDD85"/>
<path d="M33.7601 58.82C33.3301 58.79 32.9501 59.07 32.9301 59.45C32.9001 59.83 33.2301 60.17 33.6601 60.2C34.0901 60.23 34.4701 59.95 34.4901 59.57C34.5201 59.19 34.1901 58.86 33.7601 58.82Z" fill="#FDDD85"/>
<path d="M38.4703 49.86C36.2203 48.82 33.7703 49.32 33.0003 50.98C32.2303 52.65 33.4203 54.84 35.6703 55.89C37.9203 56.93 40.3603 56.43 41.1403 54.77C41.9203 53.11 40.7203 50.91 38.4803 49.86H38.4703Z" fill="#C43100"/>
<path d="M37.2601 49.9C35.3501 49.01 33.2701 49.42 32.6201 50.81C31.9701 52.2 33.0001 54.05 34.9101 54.94C36.8201 55.83 38.9001 55.42 39.5501 54.03C40.2001 52.64 39.1701 50.79 37.2601 49.9Z" fill="#FF6A38"/>
<path d="M35.47 52.8C34.96 52.58 34.39 52.76 34.2 53.21C34 53.66 34.26 54.2 34.76 54.42C35.27 54.64 35.84 54.46 36.03 54.02C36.23 53.57 35.97 53.03 35.47 52.81V52.8Z" fill="#FDDD85"/>
<path d="M37.4703 53.44C37.1103 53.4 36.7803 53.62 36.7403 53.94C36.7003 54.26 36.9703 54.55 37.3303 54.6C37.6903 54.64 38.0203 54.42 38.0603 54.1C38.1003 53.78 37.8303 53.49 37.4703 53.44Z" fill="#FDDD85"/>
<path d="M19.77 50.83C17.32 47.85 16.46 44.5 15.69 45.14C14.92 45.77 16.28 48.71 18.73 51.68C21.18 54.66 23.8 56.56 24.57 55.92C25.34 55.28 22.22 53.8 19.77 50.82V50.83Z" fill="#FDDD85"/>
<path d="M15.5102 43.13C15.4102 42.66 15.1002 42.32 14.8202 42.38C14.5302 42.44 14.3902 42.87 14.4802 43.34C14.5802 43.81 14.8902 44.14 15.1702 44.09C15.4502 44.03 15.6002 43.6 15.5102 43.13Z" fill="#FDDD85"/>
<path d="M14.6898 40.5C14.6398 40.27 14.4698 40.12 14.2998 40.15C14.1298 40.19 14.0298 40.4 14.0798 40.62C14.1298 40.85 14.2998 41 14.4698 40.97C14.6398 40.93 14.7398 40.72 14.6898 40.5Z" fill="#FDDD85"/>
<path d="M49.8602 43.28C54.6402 46.04 51.0102 46 49.9102 47.9C48.8102 49.8 50.6602 52.93 45.8802 50.17C41.1002 47.41 38.1102 43.64 39.2102 41.73C40.3102 39.83 45.0702 40.52 49.8502 43.28H49.8602Z" fill="#471302"/>
<path d="M48.4302 45.75C53.2102 48.51 50.2202 47.36 49.9102 47.9C49.6002 48.44 52.0902 50.45 47.3102 47.7C42.5302 44.94 38.9102 42.27 39.2202 41.73C39.5302 41.19 43.6602 42.99 48.4402 45.75H48.4302Z" fill="#A82A00"/>
<path d="M39.2202 41.74C39.8502 40.65 44.4702 42.14 49.5502 45.07C50.6202 45.68 51.3002 46.13 51.7302 46.47C52.2702 45.99 52.1202 45.4 49.5202 43.9C44.7402 41.14 40.1302 40.18 39.2302 41.74H39.2202Z" fill="#A82A00"/>
<path d="M46.2403 49.56C48.8403 51.06 49.4303 50.9 49.5803 50.19C49.0803 49.99 48.3403 49.62 47.2803 49.01C42.2003 46.08 38.5903 42.83 39.2203 41.74C38.3203 43.31 41.4603 46.81 46.2403 49.56Z" fill="#A82A00"/>
<path d="M40.4104 39.6699C37.7104 38.1199 34.9904 37.7799 34.3304 38.9199C33.6704 40.0599 35.3204 42.2499 38.0204 43.7999C40.7204 45.3499 43.4404 45.6899 44.1004 44.5499C44.7604 43.4099 43.1004 41.2199 40.4104 39.6699Z" fill="#C43100"/>
<path d="M39.2902 39.03C37.2102 37.83 34.9902 37.78 34.3302 38.92C33.6702 40.06 34.8202 41.96 36.9102 43.16C38.9902 44.36 41.2102 44.41 41.8702 43.27C42.5302 42.13 41.3702 40.23 39.2902 39.03Z" fill="#FF6A38"/>
<path d="M34.5602 33.52C26.9502 28.51 17.6202 24.28 14.1802 28.61C18.5202 27.64 24.4202 29.66 29.2402 34.21C34.3002 38.98 36.6502 45.1 35.5802 49.57C35.8102 49.38 36.0402 49.18 36.2602 48.96C39.5502 45.47 38.6802 39.1 34.5602 33.53V33.52Z" fill="#C43100"/>
</g>
<defs>
<clipPath id="clip0_178_9079">
<rect width="87.48" height="64.56" fill="white"/>
</clipPath>
</defs>
</svg>
