<svg width="92" height="64" viewBox="0 0 92 64" fill="none" xmlns="http://www.w3.org/2000/svg">
<g clip-path="url(#clip0_178_1743)">
<path d="M34.9798 19.63C34.3798 16.96 28.7698 15.94 22.4498 17.35C16.1298 18.76 11.4898 22.08 12.0898 24.76C12.6898 27.43 18.2998 28.45 24.6198 27.04C30.9398 25.62 35.5798 22.31 34.9798 19.63Z" fill="#FF6A38"/>
<path d="M56.8198 19.63C57.4198 16.96 63.0298 15.94 69.3498 17.35C75.6698 18.77 80.3098 22.08 79.7098 24.76C79.1098 27.43 73.4998 28.45 67.1798 27.04C60.8598 25.62 56.2198 22.31 56.8198 19.63Z" fill="#FF6A38"/>
<path d="M23.1698 19.42C21.6198 18.94 19.3298 19.7 17.8798 20.22C16.1398 20.84 14.5698 22.11 13.8998 23.84C13.6598 24.45 14.1598 25 14.6698 25.2C14.7898 25.25 14.9098 25.29 15.0298 25.34C16.1498 25.78 16.7898 24.27 16.1398 23.51C16.4798 22.28 17.9798 21.53 19.0298 20.98C20.3898 20.26 21.7198 20.19 23.1698 19.84C23.3898 19.79 23.3698 19.48 23.1698 19.42Z" fill="#C43100"/>
<path d="M68.5299 19.42C70.0799 18.94 72.3699 19.7 73.8199 20.22C75.5599 20.84 77.1299 22.11 77.7999 23.84C78.0399 24.45 77.5399 25 77.0199 25.2C76.8999 25.25 76.7799 25.29 76.6599 25.34C75.5399 25.78 74.8999 24.27 75.5499 23.51C75.2099 22.28 73.7099 21.53 72.6599 20.98C71.2999 20.26 69.9699 20.19 68.5199 19.84C68.2999 19.79 68.3199 19.48 68.5199 19.42H68.5299Z" fill="#C43100"/>
<path d="M67.0302 15.97C65.9602 13.4 64.3502 11.2 64.2902 8.45002C64.3102 8.32002 64.3102 8.19002 64.2902 8.05002C64.2902 7.76002 64.3202 7.47002 64.3702 7.17002C64.4702 6.56002 63.9302 6.20002 63.4902 6.31002C61.0202 3.92002 30.7702 3.92002 28.3102 6.31002C27.8702 6.20002 27.3302 6.57002 27.4302 7.17002C27.4802 7.47002 27.5002 7.77002 27.5102 8.05002C27.5002 8.19002 27.5002 8.32002 27.5102 8.45002C27.4602 11.19 25.8402 13.4 24.7702 15.97C23.5102 19.01 24.1002 22.28 24.6502 25.4C25.7102 31.39 25.8902 28.85 25.6102 34.87C25.5102 37.17 25.6602 39.67 26.6402 41.8C27.8102 44.33 29.9902 45.85 32.0502 47.61C35.6502 50.68 35.7402 61.47 40.8902 62.77C43.7202 63.49 48.0402 63.49 50.8802 62.77C56.0302 61.47 56.1302 50.67 59.7202 47.61C61.7802 45.85 63.9702 44.33 65.1302 41.8C66.1102 39.68 66.2602 37.18 66.1602 34.87C65.8902 28.84 66.0702 31.38 67.1302 25.4C67.6802 22.28 68.2702 19.01 67.0102 15.97H67.0302Z" fill="#C43100"/>
<path d="M67.03 15.97C65.96 13.4 64.35 11.2 64.29 8.45002C64.31 8.32002 64.31 8.19002 64.29 8.05002C64.29 7.76002 64.32 7.47002 64.37 7.17002C64.47 6.56002 63.93 6.20002 63.49 6.31002C62.41 5.26002 56.02 4.67002 48.96 4.54002C48.94 4.54002 48.92 4.54002 48.89 4.54002C48.46 4.54002 48.02 4.53002 47.59 4.52002C47.28 4.52002 46.96 4.52002 46.65 4.52002C46.43 4.52002 46.21 4.52002 45.99 4.52002H45.81C45.59 4.52002 45.37 4.52002 45.15 4.52002C44.83 4.52002 44.52 4.52002 44.2 4.52002C43.77 4.52002 43.33 4.52002 42.9 4.54002C42.87 4.54002 42.85 4.54002 42.82 4.54002C35.77 4.67002 29.38 5.26002 28.3 6.31002C27.86 6.20002 27.32 6.57002 27.42 7.17002C27.47 7.47002 27.49 7.77002 27.5 8.05002C27.49 8.19002 27.49 8.32002 27.5 8.45002C27.45 11.19 25.83 13.4 24.76 15.97C23.5 19.01 24.09 22.28 24.64 25.4C24.69 25.67 24.73 25.92 24.78 26.15C26.77 28.52 30.37 31.07 32.52 33.14C35.81 36.31 37.81 38.04 38.92 42.61C40.01 47.12 39.61 51.88 38.53 56.33C38.27 57.4 37.85 58.44 37.38 59.47C38.25 61.12 39.34 62.38 40.9 62.78C43.73 63.5 48.05 63.5 50.89 62.78C52.45 62.39 53.54 61.12 54.41 59.47C53.95 58.44 53.53 57.4 53.27 56.33C52.18 51.87 51.78 47.12 52.88 42.61C53.99 38.04 55.98 36.31 59.28 33.14C61.43 31.07 65.02 28.52 67.02 26.15C67.06 25.91 67.11 25.67 67.16 25.4C67.71 22.28 68.3 19.01 67.04 15.97H67.03Z" fill="#A82A00"/>
<path d="M2.06023 1.20001C2.60023 2.51001 9.59023 6.44001 12.5202 6.87001C15.4502 7.31001 22.4602 6.87001 26.8102 6.43001C31.1602 5.99001 31.9502 16.03 28.9002 16.14C25.8502 16.25 18.7602 17.01 10.5802 13.41C2.38023 9.82001 0.310232 2.51001 0.0902318 1.20001C-0.449768 -0.66999 1.51023 -0.10999 2.06023 1.20001ZM89.7502 1.20001C89.2102 2.51001 82.2202 6.44001 79.2902 6.87001C76.3602 7.31001 69.3502 6.87001 65.0002 6.43001C60.6502 5.99001 59.8602 16.03 62.9102 16.14C65.9602 16.25 73.0502 17.01 81.2302 13.41C89.4102 9.81001 91.4802 2.50001 91.7002 1.19001C92.2402 -0.67999 90.2802 -0.11999 89.7402 1.19001L89.7502 1.20001Z" fill="#FDC11C"/>
<path d="M64.9998 8.98002C69.3498 9.42002 76.3598 9.85002 79.2898 9.42002C82.2198 8.98002 89.1998 5.06002 89.7498 3.75002C90.0598 3.00002 90.8498 2.50002 91.3498 2.56002C91.5598 1.93002 91.6698 1.46002 91.7198 1.20002C92.2598 -0.66998 90.2998 -0.10998 89.7598 1.20002C89.2198 2.51002 82.2298 6.44002 79.2998 6.87002C76.3698 7.31002 69.3598 6.87002 65.0098 6.43002C62.0298 6.13002 60.7098 10.77 61.1798 13.74C61.5198 11.23 62.7998 8.75002 65.0098 8.97002L64.9998 8.98002Z" fill="#FDDD85"/>
<path d="M26.7999 6.43002C22.4499 6.87002 15.4399 7.30002 12.5099 6.87002C9.57986 6.43002 2.59986 2.51002 2.05986 1.20002C1.51986 -0.10998 -0.450142 -0.66998 0.0898584 1.20002C0.129858 1.45002 0.239858 1.93002 0.449858 2.56002C0.949858 2.50002 1.73986 3.00002 2.04986 3.75002C2.58986 5.06002 9.57986 8.98002 12.5099 9.42002C15.4399 9.86002 22.4499 9.42002 26.7999 8.98002C29.0099 8.76002 30.2999 11.24 30.6299 13.75C31.0899 10.78 29.7799 6.14002 26.7999 6.44002V6.43002Z" fill="#FDDD85"/>
<path d="M34.04 25.25C34.04 22.19 32.43 19.71 30.42 19.7C28.41 19.7 26.78 22.17 26.77 25.22C26.77 28.28 28.38 30.76 30.39 30.76C32.4 30.76 34.03 28.29 34.04 25.24V25.25Z" fill="#471302"/>
<path d="M28.7302 25.85C28.6202 25.25 28.2802 24.81 27.9802 24.87C27.6802 24.93 27.5202 25.46 27.6402 26.06C27.7502 26.66 28.0902 27.1 28.3902 27.04C28.6902 26.98 28.8502 26.45 28.7302 25.85Z" fill="#FDDD85"/>
<path d="M29.1399 28C29.0999 27.8 28.9099 27.68 28.6999 27.72C28.4999 27.76 28.3599 27.95 28.3999 28.14C28.4399 28.34 28.6299 28.46 28.8399 28.43C29.0499 28.39 29.1799 28.2 29.1399 28.01V28Z" fill="#FDDD85"/>
<path d="M65.0298 25.25C65.0298 22.19 63.4198 19.71 61.4098 19.7C59.3998 19.7 57.7698 22.17 57.7598 25.22C57.7598 28.28 59.3698 30.76 61.3798 30.76C63.3898 30.76 65.0198 28.29 65.0298 25.24V25.25Z" fill="#471302"/>
<path d="M59.8897 27.57C59.5297 27.08 59.0297 26.83 58.7897 27.02C58.5397 27.2 58.6397 27.75 58.9997 28.24C59.3597 28.73 59.8597 28.97 60.0997 28.79C60.3497 28.61 60.2497 28.06 59.8897 27.58V27.57Z" fill="#FDDD85"/>
<path d="M61.1899 29.32C61.0699 29.16 60.8399 29.13 60.6699 29.26C60.4999 29.38 60.4599 29.61 60.5799 29.77C60.6999 29.93 60.9299 29.96 61.0999 29.83C61.2699 29.71 61.3099 29.48 61.1899 29.32Z" fill="#FDDD85"/>
<path d="M65.86 14.79C65.49 13.07 63.48 8.82001 63.71 7.02001C63.74 6.92001 63.81 6.49001 63.82 6.30001C63.71 6.28001 63.61 6.27001 63.5 6.30001C62.28 5.11001 54.24 4.52001 46.14 4.51001H45.67C37.57 4.52001 29.53 5.12001 28.31 6.30001C28.2 6.27001 28.1 6.28001 27.99 6.30001C28.02 6.57001 28.07 6.95001 28.1 7.02001C28.33 8.81001 26.32 13.07 25.95 14.79C25.37 17.46 24.96 20.44 26.85 22.69C28.59 24.76 31.97 27.02 33.96 28.83C36.91 31.52 38.69 32.99 39.68 36.88C40.66 40.71 40.3 44.76 39.33 48.54C38.45 51.99 35.56 55.05 35.78 58.71C35.86 60.05 36.13 63.78 38.11 63.72C40.05 63.66 51.78 63.66 53.72 63.72C55.69 63.78 55.97 60.05 56.05 58.71C56.26 55.05 53.38 51.99 52.5 48.54C51.53 44.75 51.17 40.71 52.15 36.88C53.14 32.99 54.92 31.52 57.87 28.83C59.85 27.01 63.24 24.75 64.97 22.69C66.86 20.44 66.45 17.46 65.87 14.79H65.86Z" fill="#FF6A38"/>
<path d="M43.1401 61.53C43.1501 60.52 43.1101 58.73 42.8301 57.07C42.8101 56.7 42.7401 56.34 42.6101 56.02C42.1501 54.2 41.2901 52.87 39.7601 53.54C37.9001 54.36 38.9601 57.99 39.9801 59.08C40.4901 59.62 41.3601 59.68 41.9901 59.26C42.2001 60.06 42.3901 60.86 42.6201 61.64C42.7201 61.97 43.1401 61.86 43.1401 61.52V61.53Z" fill="#FF8961"/>
<path d="M48.8202 61.53C48.8102 60.52 48.8502 58.73 49.1402 57.07C49.1602 56.7 49.2302 56.34 49.3602 56.02C49.8202 54.2 50.6702 52.87 52.2102 53.54C54.0802 54.36 53.0102 57.99 51.9902 59.08C51.4802 59.62 50.6102 59.68 49.9802 59.26C49.7702 60.06 49.5802 60.86 49.3502 61.64C49.2502 61.97 48.8302 61.86 48.8202 61.52V61.53Z" fill="#FF8961"/>
<path d="M42.3 61.6C42.31 60.81 42.27 59.4 41.98 58.1C41.96 57.81 41.89 57.53 41.76 57.27C41.3 55.84 40.45 54.8 38.91 55.33C37.05 55.97 38.11 58.82 39.13 59.68C39.64 60.11 40.51 60.15 41.14 59.82C41.35 60.44 41.54 61.07 41.77 61.69C41.87 61.95 42.29 61.87 42.29 61.6H42.3Z" fill="#C43100"/>
<path d="M49.6698 61.6C49.6598 60.81 49.6998 59.4 49.9798 58.1C49.9998 57.81 50.0698 57.53 50.1998 57.27C50.6598 55.84 51.5098 54.8 53.0498 55.33C54.9098 55.97 53.8498 58.82 52.8298 59.68C52.3198 60.11 51.4498 60.15 50.8198 59.82C50.6098 60.44 50.4198 61.07 50.1898 61.69C50.0898 61.95 49.6698 61.87 49.6698 61.6Z" fill="#C43100"/>
<path d="M48.0198 44.19C48.0198 50.66 47.0698 55.91 45.8998 55.91C44.7298 55.91 43.7798 50.66 43.7798 44.19C43.7798 37.72 44.7298 32.47 45.8998 32.47C47.0698 32.47 48.0198 37.72 48.0198 44.19Z" fill="#FF8961"/>
<path d="M39.4301 36.04C39.6901 32.76 38.7001 28.56 36.4601 24.49C33.6001 19.29 29.4801 15.72 25.9201 14.91C25.3601 17.55 24.9801 20.48 26.8401 22.7C28.5801 24.77 31.9601 27.03 33.9501 28.84C36.6701 31.33 38.4001 32.78 39.4201 36.05L39.4301 36.04Z" fill="#FF8961"/>
<path d="M65.8801 14.91C62.3201 15.72 58.2002 19.29 55.3402 24.49C53.1002 28.57 52.1101 32.77 52.3701 36.05C53.4001 32.78 55.1201 31.33 57.8501 28.84C59.8301 27.02 63.2201 24.76 64.9501 22.7C66.8201 20.48 66.4402 17.55 65.8702 14.91H65.8801Z" fill="#FF8961"/>
<path d="M63.1701 6.09002C61.2301 5.05002 53.7101 4.53002 46.1301 4.52002H45.6601C38.0801 4.52002 30.5601 5.06002 28.6201 6.09002C29.5501 8.94002 36.9301 19.64 45.8901 19.64C54.8501 19.64 62.2301 8.94002 63.1601 6.09002H63.1701Z" fill="#FF8961"/>
</g>
<defs>
<clipPath id="clip0_178_1743">
<rect width="91.8" height="63.73" fill="white"/>
</clipPath>
</defs>
</svg>
