<svg width="74" height="75" viewBox="0 0 74 75" fill="none" xmlns="http://www.w3.org/2000/svg">
<g clip-path="url(#clip0_178_1863)">
<path d="M68.0999 17.86C68.0999 17.86 69.6899 25.86 69.4999 27.68C69.3399 29.23 68.5199 31.04 68.0999 31.72C67.7799 32.25 72.3299 37.94 73.0699 38.93C73.8199 39.92 73.5899 40.82 72.2599 42.16C70.9299 43.5 70.0899 43.28 69.7199 44.22C69.3499 45.15 70.1099 45.46 70.2999 45.68C70.6299 46.05 70.4999 46.6 69.7199 46.95C70.4699 47.32 70.6099 47.95 70.2499 48.75C69.8899 49.55 69.0399 49.81 68.6699 50.86C68.2999 51.92 70.0399 53.72 69.0399 55.89C68.0399 58.07 64.4999 58.25 60.3999 56.57C59.0999 56.2 57.9799 58.25 57.5399 58.93C57.0999 59.61 55.1199 65.83 53.7499 69.62C52.3799 70.37 37.2099 72.72 31.4999 65.11C32.7099 60.6 35.0099 49.79 34.6599 46.69C34.2999 43.58 33.4899 41.29 32.1599 39.45C30.8299 37.61 21.9399 18.37 37.3199 9.91C52.6999 1.44 66.9099 12.3 68.1099 17.85L68.0999 17.86Z" fill="#FDC11C"/>
<path d="M68.0996 17.86C68.0996 17.86 69.6896 25.86 69.4996 27.68C69.3396 29.23 68.5196 31.04 68.0996 31.72C67.7796 32.25 72.3296 37.94 73.0696 38.93C73.8196 39.92 73.5896 40.82 72.2596 42.16C70.9296 43.5 70.0896 43.28 69.7196 44.22C69.3496 45.15 70.1096 45.46 70.2996 45.68C70.6296 46.05 70.4996 46.6 69.7196 46.95C70.4696 47.32 70.6096 47.95 70.2496 48.75C69.8896 49.55 69.0396 49.81 68.6696 50.86C68.2996 51.92 70.0396 53.72 69.0396 55.89C68.0396 58.07 64.4996 58.25 60.3996 56.57C59.0996 56.2 49.4496 51.83 48.4696 48.86C47.2296 45.13 33.4896 41.28 32.1496 39.45C30.8196 37.61 21.9296 18.37 37.3096 9.91C52.6896 1.44 66.8996 12.3 68.0996 17.85V17.86Z" fill="#FDDD85"/>
<path d="M67.77 26.8C66.05 25.26 63.61 25.3 61.59 26.33C59.56 27.38 57.33 28.4 55.92 30.28C55.86 30.36 55.98 30.48 56.06 30.42C58.43 28.82 63.61 25.54 66.06 28.5C67.05 29.7 68.95 27.84 67.77 26.79V26.8Z" fill="#FF6A38"/>
<path d="M59.6 32.76C60.63 32 63.65 31.45 64.21 31.45C64.77 31.45 65.24 32.01 65.39 32.76C65.42 32.6 65.44 32.43 65.44 32.26C65.44 31.26 64.89 30.45 64.21 30.45C63.53 30.45 59.25 31.26 59.25 32.26C59.25 32.43 59.38 32.6 59.6 32.76Z" fill="#FF6A38"/>
<path d="M71.4298 14.93C71.6298 11.77 68.8998 8.68999 66.2198 7.17999C63.7398 5.77999 60.0198 5.75999 57.0898 6.45999C51.9898 3.92999 45.7298 2.96999 40.0198 3.79999C37.1198 4.22999 34.3498 5.32999 31.9798 6.99999C29.7598 8.56999 27.2698 11.26 26.9298 13.94C26.9198 14.05 27.0098 14.12 27.0998 14.12C27.0998 14.13 27.0998 14.15 27.0898 14.16C27.0398 14.36 27.3098 14.47 27.4098 14.27C28.2698 12.65 30.1298 11.97 31.8198 11.29C30.7398 12.01 29.8498 13.21 29.1598 14.11C27.8398 15.82 26.0398 17.82 25.1398 19.75C23.1298 24.07 23.0798 30.59 25.9998 34.47C26.1798 34.71 26.5598 34.47 26.5198 34.22C26.4198 33.65 26.2898 33.08 26.1398 32.53C26.0698 31.16 25.6798 29.82 25.9298 28.43C26.2498 26.64 27.0398 24.98 27.8798 23.36C26.8098 25.59 26.7998 26.53 26.7098 29.2C26.6198 31.85 28.0698 36.59 28.8398 39.1C29.5598 41.44 31.3398 43.69 32.7198 45.74C33.7498 47.28 35.3598 49.42 37.3098 49.93C37.5698 50 37.7598 49.72 37.5998 49.52C37.4798 49.37 37.3398 49.22 37.1998 49.08C35.3198 46.38 34.3098 43.49 33.9098 40.47C35.2198 45.99 38.8198 51.42 43.0398 54.72C43.1298 54.79 43.2198 54.71 43.2198 54.62C43.2998 54.71 43.3898 54.79 43.4798 54.87C43.5298 54.92 43.6598 54.88 43.6298 54.8C42.3898 51.28 42.3498 47.63 42.6798 43.91C42.8698 41.76 43.3598 39.83 44.0498 37.95C44.1998 38.67 44.3898 39.39 44.5998 40.12C45.6698 43.77 47.0498 47.66 48.7098 51.08C48.7298 51.11 48.7498 51.14 48.7698 51.16C48.7798 51.2 48.7998 51.24 48.8098 51.28C48.9498 51.66 49.6498 51.51 49.6298 51.11C49.5298 48.74 48.9498 46.4 48.8398 44.01C48.7298 41.77 48.8798 39.52 49.1398 37.29C49.4198 34.91 49.9898 32.57 50.7498 30.28C51.3098 28.59 52.1298 26.98 52.8398 25.34C52.4898 26.86 52.3198 28.42 52.2498 29.99C52.1498 32.38 52.0998 35.85 53.3398 37.94C53.4398 38.11 53.7398 38.07 53.7598 37.85C53.7898 37.54 53.7598 37.24 53.7398 36.93C54.6298 34.73 55.3298 32.52 56.4498 30.39C57.4998 28.4 58.6998 26.48 59.7398 24.49C61.5998 20.94 63.6398 15.93 62.0498 11.99C64.0198 12.43 65.4598 14.34 66.6098 15.79C68.4498 18.11 69.5298 20.41 70.3198 23.23C70.3898 23.47 70.7698 23.4 70.7298 23.15C70.7298 23.14 70.7298 23.12 70.7298 23.11C70.7898 23.07 70.8398 23.01 70.8498 22.91C71.2698 20.15 70.1998 17.25 68.9198 14.85C68.3398 13.77 67.4998 12.44 66.4598 11.37C66.5298 11.41 66.5998 11.44 66.6698 11.47C68.7098 12.52 69.9898 14.14 71.5298 15.71C71.5898 15.78 71.7398 15.72 71.7098 15.62C71.6198 15.37 71.5198 15.13 71.4098 14.89L71.4298 14.93Z" fill="#FF6A38"/>
<path d="M65.4399 32.63C65.4399 33.48 64.9799 34.17 64.3999 34.17C63.8199 34.17 63.3599 33.48 63.3599 32.63C63.3599 31.78 63.8199 31.09 64.3999 31.09C64.9799 31.09 65.4399 31.78 65.4399 32.63Z" fill="#FF6A38"/>
<path d="M52.32 15.86C52.32 15.86 54.08 24.7 53.86 26.71C53.68 28.43 52.78 30.42 52.32 31.17C51.96 31.76 56.99 38.04 57.81 39.14C58.63 40.24 58.38 41.22 56.91 42.71C55.44 44.19 54.51 43.95 54.1 44.98C53.69 46.01 54.53 46.36 54.73 46.59C55.09 47 54.95 47.6 54.1 48C54.92 48.41 55.08 49.1 54.68 49.99C54.28 50.88 53.34 51.16 52.93 52.32C52.52 53.48 54.44 55.48 53.34 57.88C52.24 60.28 48.33 60.49 43.8 58.64C42.36 58.23 41.12 60.49 40.64 61.25C40.16 62.01 37.96 68.87 36.45 73.06C34.94 73.88 18.18 76.48 11.86 68.08C13.2 63.1 15.74 51.16 15.35 47.73C14.95 44.3 14.06 41.76 12.58 39.73C11.11 37.7 1.28996 16.45 18.29 7.09001C35.28 -2.26999 50.99 9.73001 52.31 15.86H52.32Z" fill="#A82A00"/>
<path d="M52.3197 15.86C52.3197 15.86 54.0797 24.7 53.8597 26.71C53.6797 28.43 52.7797 30.42 52.3197 31.17C51.9597 31.76 56.9897 38.04 57.8097 39.14C58.6297 40.24 58.3797 41.22 56.9097 42.71C55.4397 44.19 54.5097 43.95 54.0997 44.98C53.6897 46.01 54.5297 46.36 54.7297 46.59C55.0897 47 54.9497 47.6 54.0997 48C54.9197 48.41 55.0797 49.1 54.6797 49.99C54.2797 50.88 53.3397 51.16 52.9297 52.32C52.5197 53.48 54.4397 55.48 53.3397 57.88C52.2397 60.28 48.3297 60.49 43.7997 58.64C42.3597 58.23 31.7097 53.4 30.6197 50.13C29.2497 46.01 14.0697 41.76 12.5897 39.73C11.1197 37.7 1.29972 16.45 18.2997 7.09001C35.2897 -2.26999 50.9997 9.73001 52.3197 15.86Z" fill="#C43100"/>
<path d="M51.9498 25.73C50.0498 24.03 47.3498 24.07 45.1298 25.22C42.8798 26.38 40.4198 27.51 38.8598 29.59C38.7898 29.68 38.9198 29.81 39.0098 29.74C41.6298 27.97 47.3498 24.35 50.0498 27.62C51.1398 28.94 53.2398 26.89 51.9398 25.73H51.9498Z" fill="#471302"/>
<path d="M42.8498 32.25C43.9198 31.39 47.3698 30.75 48.0098 30.75C48.6498 30.75 49.1698 31.39 49.3198 32.25C49.3498 32.09 49.3698 31.92 49.3698 31.75C49.3698 30.65 48.7598 29.75 48.0098 29.75C47.2598 29.75 42.5298 30.65 42.5298 31.75C42.5298 31.92 42.6598 32.09 42.8498 32.25Z" fill="#471302"/>
<path d="M55.97 12.62C56.21 9.13002 53 5.73002 49.86 4.06002C46.95 2.51002 42.59 2.49002 39.15 3.26002C33.17 0.470021 25.84 -0.599979 19.14 0.330021C15.74 0.800021 12.49 2.02002 9.70996 3.87002C7.09996 5.60002 4.17996 8.57002 3.77996 11.54C3.75996 11.66 3.86996 11.74 3.97996 11.74C3.97996 11.76 3.97996 11.77 3.95996 11.78C3.89996 12.01 4.21996 12.12 4.33996 11.91C5.34996 10.12 7.52996 9.37002 9.50996 8.62002C8.23996 9.42002 7.19996 10.74 6.38996 11.74C4.84996 13.63 2.72996 15.84 1.67996 17.97C-0.680041 22.75 -0.740041 29.94 2.67996 34.23C2.88996 34.5 3.33996 34.23 3.28996 33.95C3.16996 33.32 3.01996 32.7 2.83996 32.08C2.75996 30.57 2.29996 29.09 2.59996 27.55C2.96996 25.57 3.89996 23.74 4.88996 21.95C3.63996 24.41 3.62996 25.45 3.51996 28.4C3.41996 31.32 5.10996 36.56 6.01996 39.34C6.86996 41.93 8.95996 44.41 10.56 46.67C11.77 48.37 13.66 50.74 15.94 51.3C16.24 51.38 16.46 51.07 16.28 50.85C16.13 50.68 15.98 50.52 15.81 50.37C13.6 47.38 12.42 44.19 11.95 40.86C13.49 46.96 17.71 52.95 22.66 56.6C22.76 56.68 22.87 56.59 22.87 56.49C22.97 56.59 23.07 56.68 23.18 56.77C23.24 56.82 23.39 56.79 23.36 56.69C21.91 52.8 21.86 48.77 22.25 44.66C22.47 42.29 23.05 40.15 23.86 38.08C24.04 38.88 24.25 39.67 24.5 40.48C25.75 44.52 27.37 48.81 29.32 52.59C29.34 52.63 29.37 52.66 29.39 52.68C29.41 52.72 29.42 52.77 29.44 52.81C29.6 53.23 30.43 53.07 30.41 52.63C30.29 50.01 29.61 47.42 29.48 44.79C29.35 42.32 29.53 39.83 29.83 37.37C30.15 34.74 30.82 32.16 31.71 29.62C32.37 27.75 33.33 25.98 34.16 24.17C33.75 25.85 33.55 27.57 33.47 29.3C33.35 31.94 33.3 35.78 34.75 38.08C34.87 38.27 35.22 38.23 35.24 37.99C35.27 37.65 35.25 37.31 35.21 36.97C36.26 34.54 37.07 32.1 38.39 29.74C39.62 27.54 41.03 25.42 42.26 23.22C44.44 19.29 46.84 13.77 44.96 9.41002C47.27 9.90002 48.97 12.01 50.31 13.61C52.47 16.17 53.73 18.71 54.67 21.83C54.75 22.1 55.2 22.02 55.15 21.74C55.15 21.72 55.15 21.71 55.15 21.7C55.22 21.66 55.28 21.59 55.29 21.48C55.78 18.43 54.52 15.22 53.02 12.58C52.35 11.39 51.36 9.92002 50.14 8.73002C50.22 8.77002 50.31 8.81002 50.39 8.85002C52.78 10.01 54.28 11.8 56.09 13.53C56.17 13.6 56.34 13.54 56.3 13.43C56.2 13.15 56.08 12.89 55.95 12.63L55.97 12.62Z" fill="#FDDD85"/>
<path d="M15.81 50.3501C15.6 50.0701 15.42 49.7901 15.23 49.5101C15.53 50.0901 15.85 50.6701 16.19 51.2501C16.34 51.1701 16.4 50.9901 16.28 50.8401C16.13 50.6701 15.98 50.5101 15.81 50.3601V50.3501Z" fill="#FDC11C"/>
<path d="M36.4101 27.71C36.5401 23.83 36.5401 20.16 37.2801 16.31C37.9001 13.1 39.0001 9.89005 38.6701 6.62005C38.6301 6.27005 38.1401 6.19005 38.0201 6.54005C35.5901 13.24 33.7601 20.04 32.8101 27.04C33.2601 26.08 33.7401 25.12 34.1801 24.16C33.7701 25.84 33.5701 27.56 33.4901 29.29C33.3701 31.93 33.3201 35.77 34.7701 38.07C34.8901 38.26 35.2401 38.22 35.2601 37.98C35.2901 37.64 35.2701 37.3 35.2301 36.96C35.7401 35.77 36.2001 34.58 36.6901 33.4C36.4401 31.57 36.3501 29.7 36.4101 27.71Z" fill="#FDC11C"/>
<path d="M26.1501 35.23C25.5001 27.85 24.4001 18.85 29.0701 12.45C29.2901 12.14 28.8201 11.85 28.5501 12.07C22.2901 17.35 22.9201 28 23.0601 35.23C23.0801 36.47 23.1501 38 23.2901 39.67C23.4601 39.13 23.6501 38.6 23.8601 38.07C24.0401 38.87 24.2501 39.6601 24.5001 40.4701C25.7501 44.5101 27.3701 48.8001 29.3201 52.5801C29.3401 52.6201 29.3701 52.65 29.3901 52.67C29.4101 52.71 29.4201 52.76 29.4401 52.8C29.6001 53.22 30.4301 53.06 30.4101 52.62C30.3801 51.92 30.3001 51.23 30.2101 50.5401C29.6101 49.43 29.0301 48.32 28.6001 47.19C27.1401 43.37 26.4901 39.26 26.1301 35.23H26.1501Z" fill="#FDC11C"/>
<path d="M7.85971 10.0101C8.37971 9.69005 8.89971 9.38005 9.44971 9.11005C15.3997 6.10005 21.2497 6.18005 27.5997 4.82005C27.7997 4.78005 27.8097 4.47005 27.5997 4.43005C22.2297 3.39005 13.6397 4.06005 6.46971 6.63005C5.09971 8.11005 4.00971 9.82005 3.77971 11.5401C3.75971 11.6601 3.86971 11.7401 3.97971 11.7401C3.97971 11.7601 3.97971 11.7701 3.95971 11.7801C3.89971 12.01 4.21971 12.1201 4.33971 11.9101C5.34971 10.1201 7.52971 9.37005 9.50971 8.62005C8.90971 9.00005 8.35971 9.50005 7.85971 10.0301V10.0101Z" fill="#FDC11C"/>
<path d="M22.6598 56.5801C22.7598 56.6601 22.8698 56.5701 22.8698 56.4701C22.9698 56.5701 23.0698 56.6601 23.1798 56.7501C23.2398 56.8001 23.3898 56.7701 23.3598 56.6701C22.8898 55.4001 22.5698 54.1101 22.3698 52.8001C22.2498 52.7001 22.1398 52.6101 22.0198 52.5001C19.2898 50.0801 17.1698 46.7301 15.8298 43.4601C13.0398 36.6101 14.2998 29.5201 15.0498 22.4501C15.0898 22.0601 14.4598 21.9201 14.2798 22.2501C10.7798 28.6301 10.5098 35.6901 12.4598 42.5001C14.2898 48.0101 18.1798 53.2601 22.6698 56.5701L22.6598 56.5801Z" fill="#FDC11C"/>
<path d="M14.5001 50.67C14.2701 50.47 14.0301 50.26 13.7901 50.04C12.6701 49.04 11.7001 48.04 10.8301 47.03C11.7501 48.3 13.0101 49.79 14.5001 50.67Z" fill="#FDC11C"/>
<path d="M6.26995 38.1C4.43995 30.71 4.68995 22.08 8.84995 15.51C9.08995 15.12 8.59994 14.65 8.18994 14.89C2.25994 18.37 1.85995 26.94 2.02995 33.29C2.22995 33.61 2.44995 33.92 2.67995 34.22C2.88995 34.49 3.33995 34.22 3.28995 33.94C3.16995 33.31 3.01995 32.69 2.83995 32.07C2.75995 30.56 2.29995 29.08 2.59995 27.54C2.96995 25.56 3.89995 23.73 4.88995 21.94C3.63995 24.4 3.62995 25.44 3.51995 28.39C3.41995 31.31 5.10995 36.55 6.01995 39.33C6.56995 41.01 7.63995 42.64 8.76995 44.2C7.67995 42.41 6.84995 40.44 6.26995 38.11V38.1Z" fill="#FDC11C"/>
<path d="M49.37 31.98C49.37 32.83 48.91 33.52 48.33 33.52C47.75 33.52 47.29 32.83 47.29 31.98C47.29 31.13 47.75 30.44 48.33 30.44C48.91 30.44 49.37 31.13 49.37 31.98Z" fill="#471302"/>
</g>
<defs>
<clipPath id="clip0_178_1863">
<rect width="73.5" height="74.09" fill="white"/>
</clipPath>
</defs>
</svg>
