<svg width="106" height="66" viewBox="0 0 106 66" fill="none" xmlns="http://www.w3.org/2000/svg">
<g clip-path="url(#clip0_178_8490)">
<path d="M24.0998 13.87C23.6798 14.36 22.9798 14.68 22.3798 14.89C21.7098 15.12 20.9898 15.18 20.3498 14.82C19.7698 14.49 19.3898 13.87 19.4398 13.19C19.4898 12.58 19.7898 11.83 20.2498 11.42C20.5198 11.19 20.8098 10.93 21.1498 10.81C21.3298 10.75 21.5498 10.72 21.7398 10.77C21.7398 10.77 21.7398 10.77 21.7598 10.77C21.8798 10.77 21.9898 10.81 22.0798 10.87C22.7698 10.65 23.4898 10.72 24.0198 11.29C24.7298 12.04 24.7598 13.1 24.0798 13.88L24.0998 13.87ZM23.7298 18.04C23.4098 16.86 22.2398 16.15 21.0698 16.1C19.4898 16.03 18.4698 17.45 17.9498 18.74C17.7398 19.26 17.9498 19.79 18.3098 20.17C18.5598 20.73 19.2298 21.1 19.8098 21.21C20.5298 21.35 21.2898 21.28 21.9798 21.02C23.2198 20.54 24.0998 19.41 23.7298 18.04ZM37.2398 22.27C36.9798 22.14 36.7198 22.04 36.4698 21.96C36.4498 21.95 36.4398 21.93 36.4198 21.91C35.9298 21.61 35.3798 21.64 34.8498 21.83C34.7898 21.83 34.7298 21.83 34.6698 21.85C34.3098 21.92 34.0198 22.14 33.8098 22.42C33.3898 22.74 33.0298 23.12 32.7898 23.46C32.0898 24.44 32.0298 26.08 33.1598 26.76C35.0498 27.89 37.4398 25.79 37.9798 24.06C38.1798 23.41 37.8598 22.56 37.2398 22.25V22.27Z" fill="#FF6A38"/>
<path d="M81.8597 11.29C82.3897 10.72 83.1197 10.65 83.7997 10.87C83.8897 10.81 83.9997 10.77 84.1197 10.77C84.1197 10.77 84.1197 10.77 84.1397 10.77C84.3297 10.72 84.5497 10.75 84.7297 10.81C85.0697 10.93 85.3597 11.18 85.6297 11.42C86.0997 11.83 86.3997 12.59 86.4397 13.19C86.4897 13.87 86.1197 14.49 85.5297 14.82C84.8897 15.18 84.1697 15.13 83.4997 14.89C82.8997 14.68 82.2097 14.36 81.7797 13.87C81.0997 13.09 81.1297 12.03 81.8397 11.28L81.8597 11.29ZM83.9197 21.04C84.6097 21.3 85.3697 21.37 86.0897 21.23C86.6697 21.12 87.3397 20.75 87.5897 20.19C87.9597 19.81 88.1597 19.28 87.9497 18.76C87.4297 17.47 86.4097 16.05 84.8297 16.12C83.6597 16.17 82.4997 16.88 82.1697 18.06C81.7997 19.44 82.6797 20.57 83.9197 21.04ZM67.9197 24.09C68.4597 25.82 70.8497 27.92 72.7397 26.79C73.8797 26.11 73.8197 24.47 73.1097 23.49C72.8697 23.15 72.4997 22.77 72.0897 22.45C71.8797 22.16 71.5897 21.94 71.2297 21.88C71.1697 21.87 71.1097 21.88 71.0497 21.86C70.5197 21.67 69.9697 21.64 69.4797 21.94C69.4597 21.95 69.4497 21.97 69.4297 21.99C69.1697 22.07 68.9197 22.17 68.6597 22.3C68.0397 22.61 67.7197 23.46 67.9197 24.11V24.09Z" fill="#FF6A38"/>
<path d="M32.3999 32.16C24.9599 30.11 16.2899 28.36 10.2699 23.19C10.1199 23.06 10.3099 22.85 10.4699 22.93C14.5399 24.93 18.4099 26.83 22.8199 27.98C26.1999 28.86 29.6399 29.06 33.0399 29.82C34.5599 30.16 33.9099 32.57 32.3999 32.16ZM34.7299 34.61C28.4199 35.57 23.5899 34.43 17.4999 32.98C14.1799 32.19 10.3799 31.63 7.04994 32.49C6.73994 32.57 6.68994 33.12 7.04994 33.17C9.04994 33.45 11.0499 33.39 13.0599 33.55C16.1499 33.8 19.0099 35 21.9399 35.91C26.2899 37.26 30.7799 37.31 35.2199 36.38C36.3899 36.13 35.8699 34.44 34.7299 34.62V34.61ZM39.9899 37.71C34.2099 38.75 29.0299 38.76 24.0199 42.02C20.7999 44.12 16.6099 46.49 15.8099 50.56C15.7299 50.95 16.2199 51.15 16.4399 50.82C19.1499 46.8 22.9499 44.34 27.0099 41.87C31.1699 39.34 36.3099 41.58 40.4099 38.71C40.9299 38.35 40.6099 37.6 39.9899 37.71ZM47.2399 38.04C44.5799 39.59 42.4199 41.32 39.3999 42.18C37.4199 42.75 35.2599 43.39 33.6299 44.71C30.1099 47.56 29.2699 54.08 29.8199 58.32C29.8899 58.88 30.5699 58.98 30.7899 58.45C32.5399 54.22 30.9299 48.38 35.5299 45.66C37.3599 44.58 39.7499 44.1 41.7499 43.41C44.0099 42.63 46.0299 41.3 48.2399 40.4C49.9999 39.68 48.8299 37.12 47.2499 38.04H47.2399ZM73.5099 32.15C80.9499 30.1 89.6099 28.35 95.6399 23.18C95.7899 23.05 95.5999 22.84 95.4399 22.92C91.3799 24.92 87.5099 26.82 83.0899 27.97C79.7099 28.85 76.2699 29.05 72.8699 29.81C71.3499 30.15 71.9999 32.56 73.5099 32.15ZM70.6899 36.36C75.1299 37.29 79.6099 37.24 83.9699 35.89C86.8999 34.98 89.7599 33.78 92.8499 33.53C94.8599 33.37 96.8699 33.43 98.8699 33.15C99.2299 33.1 99.1799 32.55 98.8699 32.47C95.5399 31.61 91.7399 32.17 88.4199 32.96C82.3199 34.41 77.4899 35.55 71.1799 34.59C70.0399 34.42 69.5199 36.11 70.6899 36.35V36.36ZM65.4899 38.7C69.5899 41.58 74.7299 39.33 78.8899 41.86C82.9599 44.34 86.7499 46.8 89.4699 50.81C89.6899 51.14 90.1799 50.93 90.0999 50.55C89.2999 46.48 85.1099 44.11 81.8899 42.01C76.8699 38.74 71.6999 38.74 65.9199 37.7C65.2999 37.59 64.9799 38.34 65.4999 38.7H65.4899ZM57.6699 40.39C59.8799 41.3 61.8999 42.62 64.1599 43.4C66.1599 44.09 68.5599 44.57 70.3799 45.65C74.9799 48.37 73.3699 54.21 75.1199 58.44C75.3399 58.97 76.0099 58.87 76.0899 58.31C76.6399 54.07 75.7999 47.55 72.2799 44.7C70.6499 43.38 68.4899 42.74 66.5099 42.17C63.4899 41.31 61.3299 39.59 58.6699 38.03C57.0799 37.1 55.9199 39.66 57.6799 40.39H57.6699Z" fill="#FF6A38"/>
<path d="M60.1602 20.27C60.1602 17.85 56.9302 15.89 52.9502 15.89C48.9702 15.89 45.7402 17.85 45.7402 20.27C45.7402 22.69 48.9702 24.65 52.9502 24.65C56.9302 24.65 60.1602 22.69 60.1602 20.27Z" fill="#FF6A38"/>
<path d="M75.6001 34.92C75.6001 29.69 65.4601 25.44 52.9501 25.44C40.4401 25.44 30.3101 29.68 30.3101 34.92C30.3101 40.16 40.4501 44.4 52.9501 44.4C65.4501 44.4 75.6001 40.16 75.6001 34.92Z" fill="#FF6A38"/>
<path d="M69.84 6.9C68.16 4.92 67.64 4.49 65.37 3.47C64.44 3.05 60.57 2.81 59.56 2.72C57.61 2.54 56.85 1.61 55.32 0.680001C55.16 0.580001 54.95 0.740001 55.01 0.920001C55.7 3.1 57.93 4.23 60.06 4.57C61.7 4.83 63.18 5.93 64.81 6.32C66.37 6.69 67.97 7.13 69.55 7.4C69.85 7.45 70.04 7.14 69.84 6.9Z" fill="#731D00"/>
<path d="M84.5998 9.40002C84.1898 8.13002 76.6998 4.31002 75.9398 3.88002C70.7198 0.920024 64.9698 0.410024 59.1298 2.35533e-05C58.8198 -0.0199764 58.7498 0.490024 59.0598 0.540024C59.8898 0.680024 60.7198 0.840024 61.5398 1.01002C61.5598 1.02002 61.5898 1.04002 61.6198 1.05002C65.3998 1.96002 68.4998 5.31002 71.6398 8.18002C72.7698 9.66002 73.9998 11.07 75.4598 12.11C76.6298 12.95 78.3298 13.85 79.9198 13.85C80.9298 14.21 81.9598 13.96 82.9298 13.16C83.8898 12.36 85.0398 10.75 84.5998 9.41002V9.40002Z" fill="#C43100"/>
<path d="M86.2499 20.51C85.7599 18.54 79.6799 17.55 79.5199 17.73C76.1099 18.85 72.5499 18.8 69.2499 20.41C68.7499 20.65 68.5299 21.45 68.8599 21.9C70.2999 23.9 71.7699 25.68 74.1099 26.59C76.9499 27.69 80.4499 24.94 82.9799 24.11C84.8599 23.49 86.8299 22.83 86.2599 20.5L86.2499 20.51Z" fill="#C43100"/>
<path d="M88.6598 15.73C88.3498 14 87.2098 12.77 86.5498 11.18C86.3198 10.62 85.3298 10.41 85.1998 11.18C84.8698 13.1 83.8198 14.06 82.6998 15.42C82.6498 15.46 82.6098 15.51 82.5798 15.57C82.5298 15.63 82.4798 15.69 82.4298 15.75C82.2698 15.95 82.3898 16.2 82.6298 16.21C83.0598 16.88 84.0398 16.91 84.6998 17.31C85.0598 17.53 85.2798 17.93 85.5498 18.25C86.0998 18.89 86.4498 19.71 86.9398 20.4C86.9898 20.66 87.1598 20.84 87.3898 20.94C87.8398 21.34 88.4798 21.03 88.5898 20.51C88.5998 20.48 88.6198 20.47 88.6398 20.44C89.2098 18.97 88.9298 17.26 88.6598 15.74V15.73Z" fill="#731D00"/>
<path d="M65.0702 40.2C64.6702 39.95 64.1602 39.99 63.7302 40.09C63.0902 40.25 62.6302 40.48 62.0702 40.94C61.5402 41.37 61.0202 41.96 60.7902 42.61C60.7602 42.68 60.7502 42.76 60.7402 42.84C60.3402 43.2 60.1702 43.89 60.4802 44.37C60.7902 44.83 61.1902 45.03 61.7202 45.09C62.4202 45.17 63.1402 44.7 63.6802 44.3C64.3402 43.82 64.9102 43.2 65.3702 42.53C65.8902 41.78 65.9502 40.73 65.0802 40.19L65.0702 40.2Z" fill="#731D00"/>
<path d="M67.43 41.79C66.87 41.08 65.79 41.51 65.33 42.09C65.19 42.27 65.1 42.48 65.07 42.69C64.67 43.42 65.34 44.31 66.13 44.48C66.9 44.65 67.46 44.14 67.72 43.47C67.95 42.89 67.79 42.25 67.42 41.79H67.43Z" fill="#731D00"/>
<path d="M71.2402 43.25C71.0102 41.81 69.2202 41.9 68.4202 42.82C68.2002 43.07 68.1202 43.4 68.1602 43.7C67.9802 44.5 68.1202 45.51 68.6602 46.1C69.3602 46.86 70.3602 46.48 70.8302 45.7C71.2602 44.99 71.3502 44.05 71.2302 43.25H71.2402Z" fill="#731D00"/>
<path d="M75.4702 45.58C75.2302 45 74.8002 44.49 74.2902 44.16C74.1502 44.07 73.9902 44.03 73.8302 44.02C73.7302 44 73.6302 43.99 73.5302 44C72.5102 44.15 71.8702 45.46 71.4902 46.29C71.1802 46.98 71.5602 47.65 72.3102 47.73C72.6602 47.76 73.1302 48.09 73.4902 48.22C73.7902 48.32 74.1202 48.29 74.4302 48.18C75.0402 48.41 75.8402 48.08 75.9302 47.19C75.9902 46.59 75.7802 46.06 75.4602 45.57L75.4702 45.58Z" fill="#731D00"/>
<path d="M76.7902 51.69C76.3402 49.95 74.7002 49.17 73.0502 48.94C72.5402 48.87 72.0702 49.14 71.9702 49.59C71.9402 49.62 71.9102 49.65 71.9102 49.7C71.9402 51.32 73.4802 57.77 76.2302 55.35C77.1902 54.51 77.0702 52.79 76.7802 51.69H76.7902Z" fill="#731D00"/>
<path d="M77.1299 57.21C76.1699 56.53 75.3299 56.52 74.6799 56.91C74.5299 56.9 74.3899 56.9 74.2299 56.91C73.6399 56.98 73.0099 57.47 73.1099 58.12C72.7599 59.03 72.6799 60.13 72.7299 61.03C72.7999 62.52 73.9599 63.86 74.7099 65.06C74.9899 65.51 75.7499 65.71 76.1199 65.24C77.7399 63.22 79.9599 59.2 77.1299 57.2V57.21Z" fill="#C43100"/>
<path d="M70.5002 38.59C69.8602 38.7 68.6502 38.99 67.7802 39.49C67.4402 39.49 67.2002 39.73 67.1202 40.01C66.9802 40.17 66.8702 40.33 66.8202 40.52C66.7702 40.72 66.9202 40.91 67.1202 40.92C67.1802 40.92 67.2802 40.9 67.4302 40.87C67.4902 40.91 67.5402 40.95 67.6102 40.97C69.1902 41.46 71.0102 40.83 72.6202 40.79C73.0302 40.78 73.4002 40.45 73.3902 40.02C73.3302 38.44 71.7002 38.38 70.5002 38.59Z" fill="#731D00"/>
<path d="M82.1898 34.93C81.5998 33.93 79.3698 34.41 78.4898 34.52C77.6198 34.63 76.0798 34.89 75.1398 35.55C74.9998 35.57 74.8598 35.57 74.7298 35.59C73.5998 35.76 74.0898 37.45 75.1998 37.29C76.1298 37.15 83.7998 37.65 82.1998 34.92L82.1898 34.93Z" fill="#731D00"/>
<path d="M90.7099 49.76C90.4199 47.94 87.1 49.13 88.55 51.01C89.87 52.72 89.83 55.58 90.41 57.55C90.45 57.68 90.6499 57.69 90.6799 57.55C90.9799 56.25 91.2099 54.84 91.2899 53.51C91.3699 52.24 90.8999 50.99 90.7099 49.76Z" fill="#C43100"/>
<path d="M105.8 28.66C105.54 28.62 105.31 28.54 105.07 28.64C104.08 29.06 103.12 29.23 102.09 29.48C100.64 29.84 99.4598 30.79 98.0798 31.32C96.1698 32.05 97.3398 34.81 99.1698 33.9C100.34 33.31 101.8 32.54 102.77 31.65C103.39 31.08 103.82 30.38 104.56 29.95C105.21 29.57 105.56 29.44 105.86 28.77C105.88 28.73 105.86 28.66 105.81 28.66H105.8Z" fill="#C43100"/>
<path d="M100.85 16.5C99.77 16.84 99.07 17.99 98.01 18.46C97.5 18.69 97.03 19.34 96.66 19.74C96.09 20.36 95.48 20.95 94.89 21.56C94.42 22.05 94.4 22.67 94.67 23.27C94.67 23.29 94.69 23.3 94.69 23.32C95.14 24.31 96.26 24.17 96.89 23.55C96.89 23.54 96.91 23.53 96.92 23.52C97 23.44 97.07 23.36 97.12 23.26C97.9 22.3 98.65 21.33 99.3 20.28C99.67 19.69 99.74 19.02 100.08 18.41C100.4 17.82 100.86 17.31 101.04 16.67C101.07 16.56 100.96 16.44 100.85 16.48V16.5Z" fill="#C43100"/>
<path d="M80.4498 28.55C79.9898 28.33 79.6398 28.34 79.1498 28.42C79.1298 28.42 79.1298 28.42 79.1198 28.42C79.0998 28.42 79.0598 28.42 78.9998 28.43C78.8598 28.45 78.7198 28.46 78.5898 28.47C78.3198 28.5 78.0498 28.53 77.7798 28.54C77.7198 28.54 77.6698 28.54 77.6098 28.54C77.5698 28.54 77.2798 28.51 77.1698 28.53C76.5598 28.61 76.0298 28.89 75.8598 29.53C75.6998 30.13 75.9598 30.75 76.4898 31.07C77.0598 31.42 77.8198 31.34 78.4498 31.26C79.1098 31.18 80.2598 31.1 80.7098 30.53C81.1698 29.95 81.2598 28.92 80.4498 28.54V28.55Z" fill="#731D00"/>
<path d="M85.2498 26.52C84.2598 26.76 80.1798 27.83 81.6998 29.48C82.2498 30.08 83.0798 29.86 83.7698 29.71C84.5098 29.55 85.2498 29.37 85.9998 29.25C87.7698 28.97 87.0498 26.08 85.2498 26.52Z" fill="#731D00"/>
<path d="M93.4201 23.27C92.1801 23.3 91.2701 23.98 90.1501 24.43C89.1401 24.83 87.8601 25.14 87.1401 26C86.6301 26.6 86.9301 27.63 87.8101 27.62C88.9301 27.61 90.1601 27.13 91.2201 26.77C92.2501 26.41 93.3901 25.88 94.1801 25.12C94.8601 24.47 94.3501 23.26 93.4201 23.28V23.27Z" fill="#731D00"/>
<path d="M87.07 32.81C85.78 33.26 84.06 33.32 82.98 34.18C82.54 34.53 82.59 35.33 82.98 35.69C84.15 36.77 86.49 35.99 87.84 35.62C89.67 35.13 88.84 32.19 87.06 32.81H87.07Z" fill="#731D00"/>
<path d="M96.0701 31.76C94.9101 31.45 93.6001 31.56 92.4201 31.65C91.3701 31.73 89.6001 31.94 89.2701 33.17C89.2001 33.45 89.2501 33.85 89.5001 34.03C90.2901 34.65 91.4601 34.5 92.4201 34.47C93.5101 34.44 94.5901 34.52 95.6801 34.62C97.3501 34.77 97.6201 32.17 96.0701 31.76Z" fill="#731D00"/>
<path d="M79.1201 39.14C78.2801 38.59 77.1901 38.58 76.2201 38.6C75.2901 38.62 73.6901 38.76 73.2401 39.74C73.0901 40.07 73.1101 40.4 73.3601 40.67C73.9401 41.31 74.9701 41.23 75.7501 41.31C76.3601 41.37 77.3701 41.39 77.6801 41.58C79.2501 42.55 80.6501 40.12 79.1201 39.12V39.14Z" fill="#731D00"/>
<path d="M89.54 47.04C87.99 44.88 85.96 43.46 83.9 41.84C83.14 41.24 82.13 40.37 81.08 40.57C80.63 40.66 79.77 41.03 79.99 41.67C80.4 42.85 82.08 43.85 83.02 44.63C84.47 45.83 85.96 46.94 87.04 48.5C88.1 50.02 90.62 48.56 89.54 47.04Z" fill="#731D00"/>
<path d="M36.0102 6.9C37.6902 4.92 38.2102 4.49 40.4802 3.47C41.4102 3.05 45.2802 2.81 46.2902 2.72C48.2402 2.54 49.0002 1.61 50.5302 0.680001C50.6902 0.580001 50.9002 0.740001 50.8402 0.920001C50.1502 3.1 47.9202 4.23 45.7902 4.57C44.1502 4.83 42.6702 5.93 41.0402 6.32C39.4802 6.69 37.8802 7.13 36.3002 7.4C36.0002 7.45 35.8102 7.14 36.0102 6.9Z" fill="#731D00"/>
<path d="M22.9201 13.16C23.8901 13.97 24.9201 14.22 25.9301 13.85C27.5201 13.85 29.2201 12.95 30.3901 12.11C31.8501 11.07 33.0801 9.65002 34.2101 8.18002C37.3501 5.31002 40.4501 1.96002 44.2301 1.05002C44.2601 1.05002 44.2801 1.03002 44.3101 1.01002C45.1401 0.840024 45.9601 0.680024 46.7901 0.540024C47.0901 0.490024 47.0201 -0.0199764 46.7201 2.35533e-05C40.8801 0.410024 35.1301 0.920024 29.9101 3.88002C29.1501 4.31002 21.6601 8.13002 21.2501 9.40002C20.8201 10.74 21.9701 12.35 22.9201 13.15V13.16Z" fill="#C43100"/>
<path d="M22.8801 24.12C25.4001 24.95 28.9001 27.7 31.7501 26.6C34.0901 25.69 35.5701 23.91 37.0001 21.91C37.3301 21.45 37.1101 20.66 36.6101 20.42C33.3101 18.81 29.7501 18.85 26.3401 17.74C26.1701 17.56 20.0901 18.55 19.6101 20.52C19.0301 22.85 21.0101 23.51 22.8901 24.13L22.8801 24.12Z" fill="#C43100"/>
<path d="M17.2098 20.42C17.2098 20.42 17.2398 20.47 17.2598 20.49C17.3698 21.01 18.0098 21.31 18.4598 20.92C18.6898 20.82 18.8698 20.64 18.9098 20.38C19.3998 19.69 19.7598 18.87 20.2998 18.23C20.5698 17.92 20.7898 17.52 21.1498 17.29C21.7998 16.89 22.7898 16.86 23.2198 16.19C23.4598 16.19 23.5798 15.93 23.4198 15.73C23.3698 15.67 23.3198 15.61 23.2698 15.55C23.2398 15.49 23.1998 15.44 23.1498 15.4C22.0298 14.04 20.9798 13.08 20.6498 11.16C20.5198 10.39 19.5298 10.6 19.2998 11.16C18.6498 12.75 17.5098 13.98 17.1898 15.71C16.9198 17.23 16.6498 18.94 17.2098 20.41V20.42Z" fill="#731D00"/>
<path d="M40.7902 40.2C41.1902 39.95 41.7002 39.99 42.1302 40.09C42.7702 40.25 43.2302 40.48 43.7902 40.94C44.3202 41.37 44.8402 41.96 45.0702 42.61C45.1002 42.68 45.1102 42.76 45.1202 42.84C45.5202 43.2 45.6902 43.89 45.3802 44.37C45.0702 44.83 44.6702 45.03 44.1402 45.09C43.4402 45.17 42.7202 44.7 42.1802 44.3C41.5202 43.82 40.9502 43.2 40.4902 42.53C39.9702 41.78 39.9102 40.73 40.7802 40.19L40.7902 40.2Z" fill="#731D00"/>
<path d="M38.1198 43.48C38.3798 44.15 38.9398 44.66 39.7098 44.49C40.5098 44.31 41.1698 43.42 40.7698 42.7C40.7398 42.49 40.6498 42.28 40.5098 42.1C40.0598 41.52 38.9698 41.09 38.4098 41.8C38.0398 42.27 37.8798 42.91 38.1098 43.48H38.1198Z" fill="#731D00"/>
<path d="M34.61 43.25C34.84 41.81 36.63 41.9 37.43 42.82C37.65 43.07 37.73 43.4 37.69 43.7C37.87 44.5 37.73 45.51 37.19 46.1C36.49 46.86 35.49 46.48 35.02 45.7C34.59 44.99 34.5 44.05 34.62 43.25H34.61Z" fill="#731D00"/>
<path d="M30.3799 45.58C30.6199 45 31.0499 44.49 31.5599 44.16C31.6999 44.07 31.8599 44.03 32.0199 44.02C32.1199 44 32.2199 43.99 32.3199 44C33.3399 44.15 33.9799 45.46 34.3599 46.29C34.6699 46.98 34.2899 47.65 33.5399 47.73C33.1899 47.76 32.7199 48.09 32.3599 48.22C32.0599 48.32 31.7299 48.29 31.4199 48.18C30.8099 48.41 30.0099 48.08 29.9199 47.19C29.8599 46.59 30.0699 46.06 30.3899 45.57L30.3799 45.58Z" fill="#731D00"/>
<path d="M29.0698 51.69C29.5198 49.95 31.1598 49.17 32.8098 48.94C33.3198 48.87 33.7898 49.14 33.8898 49.59C33.9198 49.62 33.9498 49.65 33.9498 49.7C33.9198 51.32 32.3798 57.77 29.6298 55.35C28.6698 54.51 28.7898 52.79 29.0798 51.69H29.0698Z" fill="#731D00"/>
<path d="M29.7399 65.25C30.1199 65.72 30.8699 65.52 31.1499 65.07C31.8999 63.86 33.0599 62.53 33.1299 61.04C33.1699 60.14 33.0899 59.04 32.7499 58.13C32.8399 57.48 32.2199 56.99 31.6299 56.92C31.4699 56.9 31.3299 56.9 31.1799 56.92C30.5299 56.53 29.6899 56.54 28.7299 57.22C25.8999 59.22 28.1099 63.24 29.7399 65.26V65.25Z" fill="#C43100"/>
<path d="M35.3502 38.59C35.9902 38.7 37.2002 38.99 38.0702 39.49C38.4102 39.49 38.6502 39.73 38.7302 40.01C38.8702 40.17 38.9802 40.33 39.0302 40.52C39.0802 40.72 38.9302 40.91 38.7302 40.92C38.6702 40.92 38.5702 40.9 38.4202 40.87C38.3602 40.91 38.3102 40.95 38.2402 40.97C36.6602 41.46 34.8402 40.83 33.2302 40.79C32.8202 40.78 32.4502 40.45 32.4602 40.02C32.5202 38.44 34.1502 38.38 35.3502 38.59Z" fill="#731D00"/>
<path d="M23.6599 34.93C24.2499 33.93 26.4799 34.41 27.3599 34.52C28.2299 34.63 29.7699 34.89 30.7099 35.55C30.8499 35.57 30.9899 35.57 31.1199 35.59C32.2499 35.76 31.7599 37.45 30.6499 37.29C29.7199 37.15 22.0499 37.65 23.6499 34.92L23.6599 34.93Z" fill="#731D00"/>
<path d="M15.1501 49.76C15.4401 47.94 18.7601 49.13 17.3101 51.01C15.9901 52.72 16.0301 55.58 15.4501 57.55C15.4101 57.68 15.2101 57.69 15.1801 57.55C14.8801 56.25 14.6501 54.84 14.5701 53.51C14.4901 52.24 14.9601 50.99 15.1501 49.76Z" fill="#C43100"/>
<path d="M0.0500859 28.66C0.310086 28.62 0.540086 28.54 0.780086 28.64C1.77009 29.06 2.73009 29.23 3.76009 29.48C5.21009 29.84 6.39009 30.79 7.77009 31.32C9.68009 32.05 8.51009 34.81 6.68009 33.9C5.51009 33.31 4.05009 32.54 3.08009 31.65C2.46009 31.08 2.03009 30.38 1.29009 29.95C0.640086 29.57 0.290086 29.44 -0.00991406 28.77C-0.0299141 28.73 -0.00991406 28.66 0.0400859 28.66H0.0500859Z" fill="#C43100"/>
<path d="M5.00018 16.5C6.08019 16.84 6.78019 17.99 7.84019 18.46C8.35019 18.69 8.82018 19.34 9.19018 19.74C9.76018 20.36 10.3702 20.95 10.9602 21.56C11.4302 22.05 11.4502 22.67 11.1802 23.27C11.1802 23.29 11.1602 23.3 11.1602 23.32C10.7102 24.31 9.59019 24.17 8.96019 23.55C8.96019 23.54 8.94019 23.53 8.93019 23.52C8.85019 23.44 8.78018 23.36 8.73018 23.26C7.95018 22.3 7.20019 21.33 6.55019 20.28C6.18019 19.69 6.11019 19.02 5.77018 18.41C5.45019 17.82 4.99018 17.31 4.81018 16.67C4.78018 16.56 4.89018 16.44 5.00018 16.48V16.5Z" fill="#C43100"/>
<path d="M25.4102 28.55C25.8702 28.33 26.2202 28.34 26.7102 28.42C26.7302 28.42 26.7302 28.42 26.7402 28.42C26.7602 28.42 26.8002 28.42 26.8602 28.43C27.0002 28.45 27.1402 28.46 27.2702 28.47C27.5402 28.5 27.8102 28.53 28.0802 28.54C28.1402 28.54 28.1902 28.54 28.2502 28.54C28.2902 28.54 28.5802 28.51 28.6902 28.53C29.3002 28.61 29.8302 28.89 30.0002 29.53C30.1602 30.13 29.9002 30.75 29.3702 31.07C28.8002 31.42 28.0402 31.34 27.4102 31.26C26.7502 31.18 25.6002 31.1 25.1502 30.53C24.6902 29.95 24.6002 28.92 25.4102 28.54V28.55Z" fill="#731D00"/>
<path d="M20.6001 26.52C21.5901 26.76 25.6701 27.83 24.1501 29.48C23.6001 30.08 22.7701 29.86 22.0801 29.71C21.3401 29.55 20.6001 29.37 19.8501 29.25C18.0801 28.97 18.8001 26.08 20.6001 26.52Z" fill="#731D00"/>
<path d="M12.4299 23.27C13.6699 23.3 14.5799 23.98 15.6999 24.43C16.7099 24.83 17.9899 25.14 18.7099 26C19.2199 26.6 18.9199 27.63 18.0399 27.62C16.9199 27.61 15.6899 27.13 14.6299 26.77C13.5999 26.41 12.4599 25.88 11.6699 25.12C10.9899 24.47 11.4999 23.26 12.4299 23.28V23.27Z" fill="#731D00"/>
<path d="M18.7798 32.81C20.0698 33.26 21.7898 33.32 22.8698 34.18C23.3098 34.53 23.2598 35.33 22.8698 35.69C21.6998 36.77 19.3598 35.99 18.0098 35.62C16.1798 35.13 17.0098 32.19 18.7898 32.81H18.7798Z" fill="#731D00"/>
<path d="M9.78001 31.76C10.94 31.45 12.25 31.56 13.43 31.65C14.48 31.73 16.25 31.94 16.58 33.17C16.65 33.45 16.6 33.85 16.35 34.03C15.56 34.65 14.39 34.5 13.43 34.47C12.34 34.44 11.26 34.52 10.17 34.62C8.50001 34.77 8.23001 32.17 9.78001 31.76Z" fill="#731D00"/>
<path d="M26.7299 39.14C27.5699 38.59 28.6599 38.58 29.6299 38.6C30.5599 38.62 32.1599 38.76 32.6099 39.74C32.7599 40.07 32.7399 40.4 32.4899 40.67C31.9099 41.31 30.8799 41.23 30.0999 41.31C29.4899 41.37 28.4799 41.39 28.1699 41.58C26.5999 42.55 25.1999 40.12 26.7299 39.12V39.14Z" fill="#731D00"/>
<path d="M16.3099 47.04C17.8599 44.88 19.8899 43.46 21.9499 41.84C22.7099 41.24 23.7199 40.37 24.7699 40.57C25.2199 40.66 26.0799 41.03 25.8599 41.67C25.4499 42.85 23.7699 43.85 22.8299 44.63C21.3799 45.83 19.8899 46.94 18.8099 48.5C17.7499 50.02 15.2299 48.56 16.3099 47.04Z" fill="#731D00"/>
<path d="M76.4902 32.38C76.1702 31.36 75.1502 30.1 74.3502 29.05C72.3002 26.35 69.6602 23.48 67.0402 21.65C62.6402 18.58 58.0202 17.75 52.9502 19.53C47.8802 17.75 43.2602 18.58 38.8602 21.65C36.2402 23.48 33.6002 26.34 31.5402 29.05C30.7502 30.09 29.7302 31.36 29.4102 32.38C28.8602 34.12 32.6602 37.34 33.3802 37.73C35.7802 39.06 38.4002 39.42 41.0602 39.91C44.9002 40.62 48.6202 41.75 52.4902 42.35C52.5202 42.37 53.3702 42.37 53.4002 42.35C57.2602 41.75 60.9902 40.62 64.8302 39.91C67.4902 39.42 70.1102 39.05 72.5102 37.73C73.2302 37.33 77.0302 34.12 76.4802 32.38H76.4902ZM52.8602 41.44C52.8602 41.44 52.9202 41.39 52.9502 41.37C52.9802 41.39 53.0102 41.42 53.0402 41.44C53.0102 41.45 52.9802 41.46 52.9502 41.47C52.9202 41.46 52.8902 41.45 52.8602 41.44Z" fill="#C43100"/>
<path d="M53.0001 20.58L52.9501 20.6L52.6201 20.48C50.9801 19.9 49.3501 19.61 47.7901 19.61C44.9301 19.61 42.2001 20.55 39.4401 22.48C36.4101 24.59 33.6901 27.89 32.3501 29.66L32.1001 29.99C31.4401 30.86 30.6101 31.94 30.3701 32.68C30.1001 33.53 32.9301 36.33 33.8701 36.86C35.8701 37.97 38.0701 38.36 40.4101 38.78L41.2501 38.93C42.9801 39.25 44.7101 39.66 46.3801 40.05C47.9801 40.43 49.6201 40.82 51.2601 41.12L52.3101 40.58L52.3301 40.56L52.9501 40.15L53.0001 40.18V20.56V20.58Z" fill="#FF6A38"/>
<path d="M59.0698 42.15C57.5298 41.52 55.6498 42.77 54.0698 42.82C53.5398 42.84 52.3598 42.84 51.8298 42.82C50.2498 42.77 48.3698 41.52 46.8298 42.15C46.1198 42.44 45.6298 43.41 46.3398 44.02C47.1098 44.68 48.1598 44.85 49.1098 45.13C49.9998 45.39 50.8998 45.63 51.8298 45.61C52.3598 45.6 53.5398 45.6 54.0698 45.61C54.9998 45.63 55.8998 45.39 56.7898 45.13C57.7498 44.86 58.7898 44.69 59.5598 44.02C60.2598 43.41 59.7698 42.44 59.0698 42.15Z" fill="#C43100"/>
<path d="M49.6901 16.04C49.6901 14.92 48.7801 14.02 47.6701 14.02C46.5601 14.02 45.6401 14.93 45.6401 16.04C45.6401 17.15 46.5501 21.85 47.6701 21.85C48.7901 21.85 49.6901 17.15 49.6901 16.04Z" fill="#471302"/>
<path d="M60.2702 16.04C60.2702 14.92 59.3602 14.02 58.2502 14.02C57.1402 14.02 56.2202 14.93 56.2202 16.04C56.2202 17.15 57.1302 21.85 58.2502 21.85C59.3702 21.85 60.2702 17.15 60.2702 16.04Z" fill="#471302"/>
<path d="M57.96 15.46C58.25 15.09 58.33 14.66 58.13 14.5C57.93 14.34 57.53 14.52 57.24 14.89C56.95 15.26 56.87 15.69 57.07 15.84C57.27 16 57.67 15.82 57.96 15.45V15.46Z" fill="#FDDD85"/>
<path d="M47.3199 15.46C47.6099 15.09 47.6899 14.66 47.4899 14.5C47.2899 14.34 46.8899 14.52 46.5999 14.89C46.3099 15.26 46.2299 15.69 46.4299 15.84C46.6299 16 47.0199 15.82 47.3199 15.45V15.46Z" fill="#FDDD85"/>
</g>
<defs>
<clipPath id="clip0_178_8490">
<rect width="105.85" height="65.52" fill="white"/>
</clipPath>
</defs>
</svg>
