<svg width="95" height="100" viewBox="0 0 95 100" fill="none" xmlns="http://www.w3.org/2000/svg">
<g clip-path="url(#clip0_178_8609)">
<path d="M91.48 31.3C90.25 28.2 88.23 25.48 86.2 22.79C86.88 23.27 87.54 23.76 88.17 24.33C88.93 25.01 90.53 24.36 90.07 23.23C86.23 13.74 75.26 2.28 64.06 2.89C64.26 2.23 63.7901 1.41 62.98 1.39C59.17 1.29 55.98 2.65 53.0201 4.66C53.6701 3.56 54.4001 2.5 55.16 1.43C55.6101 0.8 54.9 0.18 54.28 0.29C54.2701 0.21 54.26 0.13 54.26 0.03C54.26 -0.01 54.2001 -0.01 54.2001 0.03C54.2001 0.13 54.2201 0.22 54.2401 0.3C54.1901 0.31 54.14 0.32 54.09 0.34C51.44 1.65 49.2101 3.52 47.4001 5.74C45.59 3.52 43.3601 1.65 40.71 0.34C40.66 0.32 40.6101 0.31 40.5601 0.3C40.5801 0.21 40.6 0.13 40.6 0.03C40.6 -0.01 40.5401 -0.01 40.5401 0.03C40.5401 0.13 40.5401 0.21 40.5201 0.29C39.9001 0.17 39.19 0.8 39.64 1.43C40.4 2.5 41.13 3.56 41.78 4.66C38.82 2.65 35.63 1.3 31.82 1.39C31.01 1.41 30.54 2.23 30.74 2.89C19.54 2.28 8.56005 13.74 4.73005 23.23C4.27005 24.37 5.86005 25.02 6.63005 24.33C7.26005 23.76 7.93005 23.27 8.60005 22.79C6.57005 25.48 4.56005 28.2 3.32005 31.3C0.870048 37.46 0.0900479 44.2 4.78583e-05 50.78C-0.00995214 51.77 1.55005 52.33 1.98005 51.32C3.43005 47.92 5.24005 43.68 8.20005 41.1C3.70005 51.54 6.05005 62.71 12.35 72.35C12.89 73.18 14.56 72.97 14.41 71.79C14.25 70.55 14.21 69.33 14.22 68.11C14.95 70.71 15.92 73.23 17.64 75.31C21.91 80.5 26.85 83.8 29.86 90.09C30.35 91.11 31.87 90.56 31.89 89.54C31.94 86 32.05 82.49 31.87 78.97C33.78 81.78 36.7701 86.05 36.87 86.23C37.32 86.95 38.32 87.02 38.92 86.59C40 88.95 40.9001 91.4 42.2201 93.67C42.98 94.98 44.6701 94.03 44.4901 92.71C44.2901 91.27 43.01 87.04 43.5 84.71C44.16 88.94 44.97 93.13 46.03 97.27C46.0201 97.61 46.01 97.95 46 98.29C45.96 99.12 46.7001 99.53 47.3801 99.45C48.0601 99.53 48.8 99.12 48.76 98.29C48.74 97.95 48.74 97.61 48.73 97.27C49.7901 93.12 50.6 88.93 51.26 84.71C51.75 87.05 50.4701 91.28 50.2701 92.71C50.09 94.02 51.7801 94.98 52.5401 93.67C53.8601 91.4 54.76 88.95 55.84 86.59C56.44 87.02 57.44 86.95 57.89 86.23C58 86.06 60.98 81.78 62.89 78.97C62.71 82.49 62.83 86 62.87 89.54C62.88 90.56 64.41 91.1 64.9 90.09C67.91 83.8 72.8501 80.5 77.12 75.31C78.84 73.22 79.81 70.71 80.54 68.11C80.54 69.33 80.5 70.55 80.35 71.79C80.2 72.97 81.87 73.18 82.41 72.35C88.7101 62.72 91.06 51.55 86.56 41.1C89.52 43.68 91.34 47.92 92.78 51.32C93.21 52.33 94.7701 51.77 94.76 50.78C94.6701 44.2 93.89 37.46 91.45 31.3H91.48Z" fill="#FDC11C"/>
<path d="M77.1101 25.23C75.5001 23.96 73.4701 21.94 70.3601 20.97C72.2701 20.65 74.2301 20.61 76.4601 21.35C77.5601 21.72 78.3801 20.45 77.8801 19.57C75.7301 15.78 71.1701 14 66.8101 14.19C64.5201 14.29 61.4801 14.56 59.4901 15.94C59.5301 15.69 59.5701 15.45 59.6301 15.22C60.1501 13.24 61.2701 11.31 63.2601 10.45C64.3101 10 63.7901 8.28 62.6701 8.37C59.6901 8.59 57.2301 9.72001 55.0201 11.64C53.8301 12.68 52.6001 14.18 51.7701 15.78C52.0001 13.49 52.3901 11.27 53.2401 9.02001C53.5401 8.21001 52.5001 7.57001 51.8001 7.96001C49.8501 9.04001 48.8701 11.09 48.0601 13.02C47.8901 13.43 47.6301 13.99 47.3901 14.61C47.1401 14 46.8901 13.44 46.7201 13.02C45.9101 11.1 44.9401 9.04001 42.9801 7.96001C42.2801 7.57001 41.2401 8.22001 41.5501 9.02001C42.4001 11.27 42.7901 13.49 43.0201 15.78C42.1901 14.18 40.9601 12.68 39.7701 11.64C37.5601 9.72001 35.1101 8.59 32.1201 8.37C31.0001 8.29 30.4801 10 31.5301 10.45C33.5201 11.31 34.6401 13.24 35.1601 15.22C35.2201 15.45 35.2601 15.69 35.3001 15.94C33.3101 14.56 30.2701 14.29 27.9801 14.19C23.6101 14 19.0501 15.78 16.9101 19.57C16.4201 20.44 17.2401 21.72 18.3301 21.35C20.5601 20.6 22.5201 20.64 24.4301 20.97C21.3201 21.94 19.2901 23.96 17.6801 25.23C12.2101 29.55 10.9401 37.99 12.4501 44.49C12.7101 45.63 14.5501 45.62 14.8201 44.49C15.7301 40.65 16.7801 37.1 20.4101 35.33C20.6501 35.21 20.8801 35.13 21.1201 35.04C13.3101 43.44 14.5901 54.58 14.8401 65.42C14.8701 66.5 16.5401 67.09 17.0801 66C18.3901 63.37 20.8201 60.85 23.1201 58.58C21.7601 63.38 21.8201 69.26 21.7201 72.79C21.7001 73.46 22.3001 73.94 22.9501 73.98C25.3201 74.11 28.1201 69.02 29.6501 67.54L29.7201 67.47C27.5101 72.23 27.1301 75.92 27.7501 80.74C27.8701 81.66 29.0301 82.41 29.8201 81.57C32.3401 78.89 34.5601 78.23 37.1501 75.61C35.6601 79.79 36.6801 81.48 37.7301 85.53C38.0001 86.57 39.8301 86.68 40.0101 85.53C40.6101 81.83 41.5701 81.57 42.9001 78.04C42.9401 77.93 43.0001 77.81 43.0401 77.7C43.3601 78.58 43.6701 79.44 43.9201 80.28C45.2801 84.71 45.6001 83.54 46.9501 87.91C47.0101 88.09 47.2101 88.16 47.3801 88.11C47.5501 88.15 47.7501 88.09 47.8101 87.91C49.1601 83.54 49.4801 84.71 50.8401 80.28C51.1001 79.44 51.4101 78.57 51.7201 77.7C51.7601 77.81 51.8201 77.92 51.8601 78.04C53.2001 81.57 54.1501 81.83 54.7501 85.53C54.9401 86.68 56.7701 86.57 57.0301 85.53C58.0901 81.48 59.1001 79.8 57.6101 75.61C60.2001 78.23 62.4201 78.89 64.9401 81.57C65.7301 82.41 66.9001 81.66 67.0101 80.74C67.6201 75.92 67.2501 72.23 65.0401 67.47L65.1101 67.54C66.6401 69.02 69.4401 74.11 71.8101 73.98C72.4701 73.94 73.0601 73.47 73.0401 72.79C72.9401 69.26 73.0001 63.39 71.6401 58.58C73.9401 60.85 76.3701 63.37 77.6801 66C78.2201 67.08 79.9001 66.5 79.9201 65.42C80.1701 54.58 81.4601 43.44 73.6401 35.04C73.8701 35.13 74.1001 35.21 74.3501 35.33C77.9801 37.1 79.0301 40.65 79.9401 44.49C80.2101 45.62 82.0501 45.63 82.3101 44.49C83.8201 37.99 82.5601 29.56 77.0801 25.23H77.1101Z" fill="#FDDD85"/>
<path d="M47.3999 82.99C47.0399 82.3 46.6899 81.55 46.1099 79.66C45.8399 78.78 45.5199 77.89 45.1899 76.98C44.8799 76.12 44.0499 75.54 43.0999 75.53H43.0699C42.1399 75.53 41.2999 76.08 40.9699 76.92C40.8899 77.1 40.8499 77.19 40.8199 77.28C40.3499 78.52 39.9499 79.3 39.5499 80.05C39.3299 80.46 39.1199 80.87 38.9199 81.32C38.5399 79.7 38.5299 78.46 39.2899 76.32C39.6299 75.36 39.2299 74.29 38.3299 73.77C37.9699 73.56 37.5699 73.46 37.1699 73.46C36.5699 73.46 35.9699 73.69 35.5399 74.13C34.4299 75.25 33.3799 75.98 32.2799 76.74C31.4799 77.29 30.6699 77.86 29.8199 78.57C29.5699 74.81 30.1599 71.89 31.7999 68.37C32.2399 67.42 31.9199 66.29 31.0199 65.7C30.6299 65.44 30.1899 65.32 29.7499 65.32C29.1699 65.32 28.5899 65.53 28.1599 65.95C27.5099 66.58 26.9199 67.37 26.2299 68.28C25.7399 68.93 24.8299 70.14 24.0399 70.97C24.1099 67.51 24.2499 62.94 25.3199 59.16C25.5899 58.21 25.1499 57.2 24.2699 56.71C23.9199 56.52 23.5399 56.42 23.1499 56.42C22.5599 56.42 21.9699 56.64 21.5399 57.07C20.0199 58.57 18.3799 60.23 17.0199 62.02C16.6999 52.43 16.4099 43.38 22.8199 36.48C23.5199 35.73 23.5899 34.61 22.9799 33.79C22.5499 33.2 21.8599 32.88 21.1399 32.88C20.8499 32.88 20.5599 32.93 20.2799 33.04L20.1299 33.1C19.8899 33.19 19.6599 33.28 19.4099 33.4C16.6499 34.74 15.0999 36.9 14.1299 39.14C14.1399 34.57 15.5599 29.72 19.1199 26.9C19.4099 26.67 19.7099 26.42 20.0299 26.16C21.4199 25 22.9899 23.69 25.1399 23.02C26.1199 22.71 26.7599 21.8 26.6899 20.81C26.6199 19.82 25.8499 19 24.8299 18.83C23.8199 18.66 22.8999 18.58 22.0099 18.58C21.4999 18.58 20.9999 18.61 20.5099 18.66C22.4599 16.99 25.1499 16.35 27.3599 16.35C27.5399 16.35 27.7099 16.35 27.8899 16.36C29.1099 16.41 32.3399 16.55 33.9899 17.7C34.3799 17.97 34.8399 18.11 35.3099 18.11C35.7099 18.11 36.1199 18.01 36.4799 17.8C37.2499 17.35 37.6699 16.5 37.5399 15.64C37.4899 15.32 37.4399 15.01 37.3599 14.71C37.0699 13.6 36.6499 12.6 36.1199 11.73C36.8499 12.13 37.5699 12.64 38.2699 13.25C39.3299 14.18 40.3599 15.49 41.0199 16.75C41.4099 17.5 42.1999 17.95 43.0299 17.95C43.2399 17.95 43.4499 17.92 43.6499 17.86C44.6899 17.57 45.3699 16.61 45.2699 15.57C45.2599 15.44 45.2399 15.31 45.2299 15.19C45.2599 15.25 45.2799 15.32 45.3099 15.38C45.6399 16.21 46.4799 16.77 47.4099 16.77C48.3399 16.77 49.1699 16.22 49.5099 15.39C49.5399 15.32 49.5599 15.26 49.5899 15.19C49.5799 15.32 49.5599 15.44 49.5499 15.57C49.4399 16.61 50.1299 17.57 51.1699 17.86C51.3799 17.92 51.5799 17.95 51.7899 17.95C52.6199 17.95 53.4099 17.5 53.7999 16.75C54.4599 15.48 55.4899 14.18 56.5499 13.25C57.2499 12.64 57.9599 12.14 58.6999 11.73C58.1699 12.6 57.7499 13.6 57.4599 14.7C57.3799 15.01 57.3199 15.32 57.2799 15.63C57.1499 16.49 57.5699 17.34 58.3399 17.79C58.6999 18 59.0999 18.1 59.5099 18.1C59.9699 18.1 60.4299 17.96 60.8299 17.69C62.4899 16.54 65.7199 16.4 66.9299 16.35C67.1099 16.35 67.2799 16.34 67.4599 16.34C69.6699 16.34 72.3699 16.98 74.3099 18.65C73.8099 18.6 73.3099 18.57 72.8099 18.57C71.9199 18.57 70.9999 18.65 69.9899 18.82C68.9699 18.99 68.2099 19.81 68.1299 20.8C68.0599 21.79 68.6999 22.7 69.6799 23.01C71.8299 23.68 73.3999 24.99 74.7899 26.15C75.1099 26.41 75.4099 26.66 75.6999 26.89C79.2699 29.71 80.6799 34.56 80.6899 39.13C79.7199 36.88 78.1699 34.73 75.4099 33.39C75.1599 33.27 74.9299 33.18 74.6899 33.09L74.5399 33.03C74.2599 32.92 73.9699 32.87 73.6899 32.87C72.9799 32.87 72.2799 33.2 71.8499 33.78C71.2499 34.6 71.3099 35.72 72.0099 36.47C78.4299 43.37 78.1299 52.42 77.8199 62.01C76.4499 60.22 74.8099 58.56 73.2999 57.06C72.8599 56.63 72.2799 56.41 71.6899 56.41C71.3099 56.41 70.9199 56.5 70.5699 56.7C69.6799 57.19 69.2499 58.2 69.5199 59.15C70.5899 62.93 70.7299 67.49 70.7999 70.96C70.0099 70.13 69.0999 68.91 68.6099 68.27C67.9199 67.35 67.3299 66.56 66.7599 66.01C66.3099 65.58 65.7099 65.35 65.0999 65.35C64.6599 65.35 64.2299 65.47 63.8499 65.72C62.9499 66.31 62.5899 67.4 63.0399 68.35C64.6799 71.87 65.2699 74.8 65.0199 78.55C64.1699 77.84 63.3599 77.27 62.5599 76.72C61.4499 75.95 60.3999 75.23 59.2999 74.11C58.8599 73.67 58.2699 73.44 57.6699 73.44C57.2699 73.44 56.8699 73.54 56.5099 73.75C55.6099 74.28 55.2099 75.34 55.5499 76.3C56.3099 78.44 56.2999 79.68 55.9199 81.3C55.7199 80.85 55.5099 80.45 55.2899 80.03C54.8999 79.28 54.4999 78.51 54.0299 77.28C53.9899 77.18 53.9499 77.09 53.9099 76.99C53.5699 76.15 52.7199 75.56 51.7899 75.56H51.7599C50.8099 75.57 49.9599 76.11 49.6499 76.97C49.3199 77.88 48.9999 78.78 48.7299 79.65C48.1499 81.54 47.7899 82.29 47.4399 82.98L47.3999 82.99Z" fill="#FDC11C"/>
<path d="M69.9798 28.45C69.8698 28.05 54.8198 20.05 47.4598 20.55C47.4398 20.55 47.4198 20.55 47.3998 20.56C47.3798 20.56 47.3598 20.56 47.3398 20.55C39.9798 20.06 24.9298 28.05 24.8198 28.45C23.8498 32.17 25.5598 34.93 28.5198 37.14C30.1798 38.38 32.1698 39.66 34.2398 40.08C36.3498 40.51 38.3098 39.57 38.1398 42.86C37.8798 47.96 33.7598 53.7 33.6798 58.94C33.6098 63.82 34.3398 72.03 45.6498 69.99C46.2898 69.88 46.8998 69.61 47.3998 69.21C47.8998 69.61 48.4998 69.88 49.1498 69.99C60.4498 72.03 61.1898 63.82 61.1198 58.94C61.0398 53.7 56.9198 47.96 56.6598 42.86C56.4898 39.57 58.4498 40.51 60.5598 40.08C62.6298 39.66 64.6198 38.37 66.2798 37.14C69.2398 34.93 70.9598 32.17 69.9898 28.45H69.9798Z" fill="#FF6A38"/>
<path d="M59.78 31.39C55.64 29.85 53.71 24.88 55.49 20.3C57.26 15.71 62.06 13.25 66.2 14.79C70.35 16.33 72.27 21.3 70.5 25.88C68.73 30.47 63.93 32.93 59.78 31.39Z" fill="#C43100"/>
<path d="M54.13 25.36C54.59 23.1 57.09 20.78 58.72 19.32C60.68 17.58 63.32 16.49 65.93 16.82C66.84 16.94 67.2 17.94 67.1 18.71C67.07 18.89 67.05 19.07 67.03 19.25C66.82 20.94 64.5 20.71 64 19.39C62.24 18.97 60.29 20.34 58.89 21.26C57.07 22.46 56.07 24.07 54.65 25.63C54.44 25.87 54.07 25.63 54.13 25.35V25.36Z" fill="#A82A00"/>
<path d="M35.0201 31.39C39.1601 29.85 41.0901 24.88 39.3101 20.3C37.5401 15.71 32.7401 13.25 28.6001 14.79C24.4601 16.33 22.5301 21.3 24.3001 25.88C26.0801 30.47 30.8701 32.93 35.0201 31.39Z" fill="#C43100"/>
<path d="M40.67 25.36C40.21 23.1 37.71 20.78 36.08 19.32C34.12 17.58 31.48 16.49 28.86 16.82C27.95 16.94 27.59 17.94 27.69 18.71C27.71 18.89 27.73 19.07 27.76 19.25C27.97 20.94 30.29 20.71 30.79 19.39C32.55 18.97 34.5 20.34 35.91 21.26C37.73 22.46 38.73 24.07 40.15 25.63C40.36 25.87 40.73 25.63 40.67 25.35V25.36Z" fill="#A82A00"/>
<path d="M66.2001 29.08C61.8201 25.45 48.1501 21.12 47.5001 21.12C46.8501 21.12 33.1801 25.44 28.8001 29.08C24.9001 32.32 26.9201 37.24 27.3101 41.4C27.5401 43.83 27.4001 46.64 28.6001 48.86C30.1301 51.7 31.7801 56.29 32.8801 59.35C33.8501 62.02 35.1201 64.08 36.8801 66.31C37.3601 66.92 37.7501 67.64 38.3101 68.09C39.3801 71.55 39.5501 74.56 43.2501 74.92C43.3301 74.92 51.6701 74.92 51.7501 74.92C55.4501 74.56 55.6201 71.55 56.6901 68.09C57.2501 67.64 57.6401 66.92 58.1201 66.31C59.8801 64.07 61.1501 62.02 62.1201 59.35C63.2201 56.29 64.8701 51.7 66.4001 48.86C67.6001 46.65 67.4501 43.83 67.6901 41.4C68.0901 37.24 70.1001 32.32 66.2001 29.08Z" fill="#C43100"/>
<path d="M37.5502 39.15C36.5802 36.45 34.3502 34.79 32.5802 35.43C30.8102 36.07 30.1602 38.77 31.1302 41.47C32.1002 44.17 34.3302 45.83 36.0902 45.2C37.8602 44.56 38.5102 41.86 37.5402 39.16L37.5502 39.15Z" fill="#471302"/>
<path d="M33.0603 41.39C32.7703 40.9 32.3303 40.62 32.0903 40.77C31.8403 40.92 31.8803 41.43 32.1703 41.92C32.4603 42.41 32.8903 42.69 33.1403 42.54C33.3903 42.39 33.3503 41.88 33.0603 41.39Z" fill="#FDDD85"/>
<path d="M34.1102 43.15C34.0102 42.99 33.8002 42.94 33.6302 43.04C33.4602 43.14 33.4002 43.35 33.5002 43.51C33.6002 43.67 33.8102 43.72 33.9802 43.62C34.1502 43.52 34.2102 43.31 34.1102 43.15Z" fill="#FDDD85"/>
<path d="M63.8602 41.48C64.8502 38.79 64.2202 36.08 62.4502 35.43C60.6802 34.78 58.4502 36.44 57.4602 39.13C56.4702 41.82 57.1002 44.53 58.8702 45.18C60.6402 45.83 62.8702 44.18 63.8602 41.48Z" fill="#471302"/>
<path d="M58.5804 41.87C58.4204 41.32 58.0604 40.95 57.7904 41.03C57.5104 41.11 57.4204 41.62 57.5904 42.17C57.7504 42.72 58.1104 43.09 58.3804 43.01C58.6504 42.93 58.7504 42.42 58.5804 41.87Z" fill="#FDDD85"/>
<path d="M59.1703 43.84C59.1203 43.66 58.9203 43.56 58.7303 43.62C58.5403 43.68 58.4403 43.87 58.4903 44.04C58.5403 44.22 58.7403 44.32 58.9303 44.26C59.1203 44.2 59.2203 44.01 59.1703 43.83V43.84Z" fill="#FDDD85"/>
<path d="M69.9798 28.45C69.8698 28.05 54.8198 20.05 47.4598 20.55C47.4398 20.55 47.4198 20.55 47.3998 20.56C47.3798 20.56 47.3598 20.56 47.3398 20.55C39.9798 20.06 24.9298 28.05 24.8198 28.45C23.8498 32.17 25.5598 34.93 28.5198 37.14C30.1798 38.38 32.1698 39.66 34.2398 40.08C36.3498 40.51 38.3098 39.57 38.1398 42.86C37.8798 47.96 33.7598 53.7 33.6798 58.94C33.6098 63.82 34.3398 72.03 45.6498 69.99C46.2898 69.88 46.8998 69.61 47.3998 69.21C47.8998 69.61 48.4998 69.88 49.1498 69.99C60.4498 72.03 61.1898 63.82 61.1198 58.94C61.0398 53.7 56.9198 47.96 56.6598 42.86C56.4898 39.57 58.4498 40.51 60.5598 40.08C62.6298 39.66 64.6198 38.37 66.2798 37.14C69.2398 34.93 70.9598 32.17 69.9898 28.45H69.9798Z" fill="#FF6A38"/>
<path d="M38.9702 53.41C38.9702 61.34 38.9702 60.41 47.5002 60.4C56.0402 60.4 56.0302 61.34 56.0302 53.41C56.0302 45.48 52.2102 31.96 47.5002 31.96C42.7902 31.96 38.9702 45.48 38.9702 53.41Z" fill="#FF8961"/>
<path d="M47.5001 69.41C48.3201 70.41 50.5401 71.41 51.7701 71.28C53.1401 71.13 54.8001 70.15 56.3101 69C56.4501 68.69 56.5801 68.37 56.6801 68.05C55.5801 68.8 54.4201 69.46 53.4401 69.62C51.2301 69.98 49.1001 69.62 48.0001 67.7C48.3701 67.42 48.5401 66.52 48.6201 66.27C48.9801 65.1 51.4301 62.44 51.6901 62.24C52.5901 61.59 53.2501 60.68 53.9601 59.83C54.1701 59.58 53.8901 59.12 53.5801 59.34C52.7501 59.93 51.9201 60.63 50.9801 61.03C50.0301 61.44 48.7901 61.29 47.7801 61.42C47.6701 61.43 47.5801 61.46 47.5001 61.5C47.4101 61.46 47.3201 61.44 47.2101 61.42C46.2001 61.28 44.9601 61.44 44.0101 61.03C43.0701 60.63 42.2401 59.92 41.4101 59.34C41.1001 59.12 40.8201 59.58 41.0301 59.83C41.7301 60.67 42.4001 61.58 43.3001 62.24C43.5601 62.43 46.0101 65.09 46.3701 66.27C46.4501 66.52 46.6201 67.41 46.9901 67.7C45.8901 69.61 43.7601 69.98 41.5501 69.62C40.5701 69.46 39.4201 68.8 38.3101 68.05C38.4101 68.37 38.5401 68.69 38.6801 69C40.2001 70.15 41.8501 71.13 43.2201 71.28C44.4501 71.41 46.6601 70.41 47.4901 69.41H47.5001Z" fill="#A82A00"/>
<path d="M41.91 62.26C41.99 62.31 43.94 62.85 44.02 62.88C45.28 63.29 49.72 63.29 50.98 62.88C51.07 62.85 53.01 62.31 53.09 62.26C54.29 61.61 55.18 59.52 56.12 58.68C56.4 58.43 56.03 57.97 55.62 58.19C54.51 58.78 40.49 58.78 39.38 58.19C38.97 57.97 38.6 58.43 38.88 58.68C39.82 59.52 40.71 61.61 41.91 62.26Z" fill="#471302"/>
<path d="M69.9799 28.45C69.9499 28.34 68.7199 27.61 66.8099 26.65C66.0699 26.77 65.3199 26.93 64.5499 27.12C57.4699 28.94 52.4699 33.28 53.3799 36.82C53.8199 38.54 55.5799 39.74 58.0799 40.33C58.7699 40.21 59.6499 40.27 60.5499 40.09C62.6199 39.67 64.6098 38.38 66.2698 37.15C69.2298 34.94 70.9499 32.18 69.9799 28.46V28.45Z" fill="#FF8961"/>
<path d="M24.8198 28.45C23.8498 32.17 25.5598 34.93 28.5198 37.14C30.1798 38.38 32.1698 39.66 34.2398 40.08C35.1398 40.27 36.0198 40.2 36.7098 40.32C39.2098 39.74 40.9698 38.53 41.4098 36.81C42.3198 33.27 37.3198 28.93 30.2398 27.11C29.4798 26.91 28.7198 26.76 27.9798 26.64C26.0698 27.6 24.8498 28.33 24.8198 28.44V28.45Z" fill="#FF8961"/>
</g>
<defs>
<clipPath id="clip0_178_8609">
<rect width="94.8" height="99.45" fill="white"/>
</clipPath>
</defs>
</svg>
