<svg width="73" height="75" viewBox="0 0 73 75" fill="none" xmlns="http://www.w3.org/2000/svg">
<g clip-path="url(#clip0_178_8705)">
<path d="M55.13 14.78C55.13 14.78 56.77 23.02 56.57 24.89C56.4 26.49 55.56 28.35 55.13 29.05C54.8 29.6 59.48 35.45 60.25 36.47C61.02 37.49 60.78 38.41 59.41 39.79C58.04 41.17 57.18 40.95 56.79 41.91C56.41 42.87 57.19 43.19 57.38 43.41C57.72 43.79 57.59 44.35 56.79 44.72C57.56 45.1 57.7 45.75 57.33 46.57C56.96 47.4 56.08 47.66 55.7 48.75C55.32 49.84 57.11 51.69 56.08 53.93C55.06 56.17 51.41 56.36 47.19 54.63C45.85 54.25 44.69 56.36 44.25 57.06C43.8 57.76 41.75 64.16 40.35 68.07C38.94 68.84 23.33 71.26 17.44 63.42C18.69 58.78 21.06 47.65 20.69 44.45C20.32 41.25 19.48 38.89 18.11 37C16.74 35.11 7.58997 15.3 23.43 6.59002C39.26 -2.12998 53.9 9.05002 55.13 14.77V14.78Z" fill="#FF6A38"/>
<path d="M55.1302 14.78C55.1302 14.78 56.7702 23.02 56.5702 24.89C56.4002 26.49 55.5602 28.35 55.1302 29.05C54.8002 29.6 59.4802 35.45 60.2502 36.47C61.0202 37.49 60.7802 38.41 59.4102 39.79C58.0402 41.17 57.1802 40.95 56.7902 41.91C56.4102 42.87 57.1902 43.19 57.3802 43.41C57.7202 43.79 57.5902 44.35 56.7902 44.72C57.5602 45.1 57.7002 45.75 57.3302 46.57C56.9602 47.4 56.0802 47.66 55.7002 48.75C55.3202 49.84 57.1102 51.69 56.0802 53.93C55.0602 56.17 51.4102 56.36 47.1902 54.63C45.8502 54.25 35.9202 49.75 34.9002 46.7C33.6202 42.86 19.4702 38.9 18.1002 37.01C16.7302 35.12 7.5802 15.31 23.4202 6.60003C39.2502 -2.11997 53.8902 9.06003 55.1202 14.78H55.1302Z" fill="#FF8961"/>
<path d="M54.1301 24.38C53.1801 23.51 50.7401 22.59 48.5801 23.47C46.4001 24.35 44.0201 25.2 42.4001 26.99C42.3301 27.07 42.4401 27.19 42.5301 27.15C45.1101 25.73 49.8201 23.53 53.3201 25.38C54.5501 26.03 55.3401 25.49 54.1401 24.39L54.1301 24.38Z" fill="#C43100"/>
<path d="M52.3099 28.98C52.2299 29.78 51.6699 30.41 50.9899 30.41C50.3999 30.41 45.4999 29.96 44.2599 29.33C44.1999 29.42 44.1499 29.5 44.1499 29.6C44.1499 30.63 50.4199 31.46 51.1199 31.46C51.8199 31.46 52.3899 30.63 52.3899 29.6C52.3899 29.38 52.3599 29.18 52.3099 28.99V28.98Z" fill="#471302"/>
<path d="M50.58 38.2C50.89 36.54 49.07 34.8 46.5 34.31C43.93 33.82 41.59 34.77 41.28 36.43C40.97 38.09 42.79 39.83 45.36 40.32C47.93 40.81 50.27 39.86 50.58 38.2Z" fill="#FF6A38"/>
<path d="M52.6299 45.62C52.6299 45.62 55.5299 46.54 56.9999 47.09C57.1299 46.94 57.2499 46.77 57.3399 46.58C57.7099 45.75 57.5599 45.11 56.7999 44.73C57.5999 44.36 57.7299 43.8 57.3899 43.42C57.3699 43.4 57.3499 43.38 57.3199 43.36C55.6199 44.16 52.6299 45.63 52.6299 45.63V45.62Z" fill="#FF6A38"/>
<path d="M8.24007 56.34C8.24007 56.34 8.20007 56.24 8.17007 56.19C8.04007 55.9 7.62007 56.32 7.91007 56.45L8.06007 56.52C8.18007 56.58 8.30007 56.46 8.24007 56.34Z" fill="#A82A00"/>
<path d="M71.02 42.55C70.46 43.69 69.96 44.84 69.48 46.01C67.67 48.24 66.32 50.9 64.56 53.17C62.27 56.13 59.53 58.68 56.35 60.66C51.09 63.94 44.43 65.24 38.65 62.61C31.92 59.54 29.74 51.52 29.18 44.82C28.98 42.48 29.05 40.11 29.22 37.76C30.38 41.5 31.88 45.48 33.69 48.99C33.71 49.02 33.73 49.05 33.76 49.08C33.78 49.12 33.79 49.16 33.8 49.2C33.95 49.59 34.72 49.44 34.7 49.03C34.59 46.59 33.96 44.18 33.83 41.72C33.71 39.41 33.88 37.1 34.16 34.8C34.46 32.35 35.08 29.94 35.91 27.58C36.52 25.84 37.42 24.18 38.19 22.5C37.8 24.07 37.62 25.67 37.55 27.28C37.44 29.74 37.39 33.32 38.75 35.46C38.86 35.64 39.19 35.6 39.21 35.37C39.24 35.05 39.21 34.74 39.18 34.42C40.16 32.15 40.92 29.88 42.14 27.69C43.29 25.64 44.6 23.66 45.74 21.61C47.77 17.95 50.01 12.8 48.26 8.74001C50.41 9.19001 51.99 11.16 53.25 12.65C53.39 12.82 53.53 13 53.66 13.17C54 13.9 54.36 14.63 54.63 15.34C55.36 17.27 55.85 19.28 56.27 21.3C56.24 23.09 56.07 24.87 56.01 26.73C56 27.04 56.44 27.07 56.52 26.8C56.56 26.7 56.58 26.59 56.61 26.49C56.58 26.62 56.56 26.74 56.52 26.87C56.51 26.93 56.59 26.97 56.63 26.91C59.15 22.37 61.36 12.38 57.51 8.09001C57.51 8.09001 57.5 8.09001 57.49 8.08001C56.4 6.27001 54.59 4.71001 52.8 3.76001C50.09 2.32001 46.02 2.29001 42.82 3.02001C37.29 0.440009 30.45 -0.559991 24.21 0.300009C21.04 0.740009 18.02 1.88001 15.43 3.59001C14.64 4.11001 13.82 4.76001 13.06 5.49001C12.99 5.55001 12.92 5.62001 12.85 5.69001C5.14001 10.59 1.24001 22.23 0.240005 30.32C-1.18999 41.91 4.03 55.01 12.08 63.18C21.85 73.1 36.62 77.08 49.84 72.75C62.49 68.61 70.8 55.76 72.29 42.9C72.37 42.22 71.3 41.96 71.01 42.55H71.02Z" fill="#C43100"/>
<path d="M53.8397 67.12C52.8897 66.25 49.4797 64.1 48.4797 65.98C48.4297 66.07 48.4497 66.21 48.5497 66.26C49.1897 66.56 49.8797 66.33 50.5797 66.51C50.5997 66.51 50.6197 66.53 50.6297 66.53C49.7097 67.9 49.1797 69.6 48.3297 71.03C47.9997 71.59 47.6597 72.15 47.3097 72.7C47.3397 71.01 46.1897 69.58 45.0197 68.44C43.7997 67.25 41.6897 65.77 39.9197 65.83C39.5497 65.84 39.4297 66.31 39.7397 66.51C40.3097 66.88 40.9697 67.06 41.5797 67.36C41.8797 67.51 42.1597 67.69 42.4397 67.87C40.7897 69.11 39.6697 71.6 38.2697 73.04C37.7597 73.56 37.2397 74 36.6997 74.4C37.4397 74.44 38.1897 74.46 38.9397 74.46C40.4997 73.17 42.8097 70.86 43.6197 68.8C43.6997 68.87 43.7797 68.94 43.8497 69.01C45.1597 70.24 45.7597 71.9 46.7997 73.31C46.8197 73.34 46.8597 73.36 46.8897 73.38C46.8497 73.44 46.8097 73.51 46.7697 73.57C47.2597 73.46 47.7397 73.33 48.2197 73.2C48.5997 72.68 48.9797 72.16 49.3497 71.62C50.2597 70.27 51.4497 68.61 51.6197 66.93C52.3797 67.33 53.0497 67.89 53.6697 68.48C54.2397 69.03 54.7197 69.67 55.1797 70.32C55.5397 70.12 55.8897 69.91 56.2397 69.69C55.4597 68.65 54.4897 67.7 53.8397 67.11V67.12Z" fill="#A82A00"/>
<path d="M26.7697 72.43C27.4397 72.66 28.1197 72.87 28.7997 73.06C31.8697 72.38 34.9097 71.43 35.8797 68.75C35.9997 68.41 35.5797 68.14 35.2997 68.31C34.5497 68.75 33.9297 69.34 33.2397 69.85C33.4997 68.61 33.0797 66.85 32.9497 65.94C32.6997 64.32 31.7597 61.2 30.1397 60.42C29.9397 60.32 29.7397 60.52 29.8397 60.72C30.5697 62.22 31.0597 63.48 31.3797 64.95C29.0397 65.35 27.0097 66.69 24.9097 67.86C26.1197 65.93 26.4797 62.93 26.7797 61.08C27.2197 58.31 27.3797 54.87 25.8697 52.38C25.7697 52.22 25.5497 52.33 25.5797 52.5C26.1197 55.63 25.9597 58.53 25.2997 61.65C24.8097 63.94 23.1997 66.47 23.1197 68.78C22.7097 68.96 22.2897 69.13 21.8697 69.27C21.3997 69.42 20.9397 69.52 20.4697 69.58C21.0297 69.9 21.5997 70.2 22.1697 70.48C25.4297 69.8 29.0197 67.45 31.5497 65.7C31.5997 66 31.6497 66.3 31.6897 66.62C31.8297 67.73 31.3797 69.6 31.9397 70.64C31.0097 71.08 30.0097 71.38 29.0397 71.67C28.2597 71.9 27.5297 72.16 26.8097 72.42L26.7697 72.43Z" fill="#A82A00"/>
<path d="M37.5999 72.95C37.7599 73.1 37.9799 73.06 38.0999 72.89C38.9699 71.64 37.6899 69.21 37.1799 68C36.6299 66.69 35.9199 64.93 34.4599 64.49C34.3899 64.47 34.3399 64.54 34.3499 64.6C34.5999 66.06 35.6599 67.39 36.1999 68.79C36.6599 69.99 36.6299 72.09 37.5899 72.96L37.5999 72.95Z" fill="#A82A00"/>
<path d="M24.3598 63.68C24.6698 63.53 24.4898 63.1 24.1998 63.08C22.2398 62.94 20.3698 62.93 18.5098 62.85C20.9898 59.7 21.2798 55.39 22.0198 51.56C23.2198 45.42 27.1998 39.93 29.1098 33.97C29.1598 33.81 28.9298 33.72 28.8398 33.86C25.9398 38.38 23.5698 43.1 21.4798 48.06C21.2598 48.59 21.0798 49.12 20.9098 49.67C20.8598 49.58 20.7798 49.52 20.6498 49.53C17.2898 49.96 14.4598 50.02 11.2098 49.11C10.9998 49.21 10.7598 49.12 10.6498 48.95C6.95982 47.8 3.92982 45.49 1.06982 42.99C1.18982 43.51 1.32982 44.03 1.46982 44.55C5.83982 49.39 15.2398 54.05 20.7598 50.17C20.2598 52.03 20.0098 53.98 19.7098 55.87C19.3098 58.36 17.8898 60.36 17.6698 62.83C15.5498 62.72 13.4298 62.5 11.1998 61.87C11.0298 61.82 10.8598 61.76 10.6798 61.7C11.1298 62.21 11.5898 62.71 12.0598 63.19C12.2698 63.4 12.4998 63.6 12.7198 63.81C16.5298 65.15 20.5098 65.48 24.3398 63.68H24.3598Z" fill="#A82A00"/>
<path d="M11.2296 49.1C11.2296 49.1 11.3096 49.06 11.3496 49.03C16.8896 44.09 19.7996 34.2 20.5896 27.06C20.6096 26.84 20.2496 26.73 20.1596 26.94C18.8496 29.98 18.1396 33.27 17.0396 36.39C15.4596 40.89 12.9896 44.43 10.6696 48.5C10.5796 48.66 10.5996 48.82 10.6696 48.94C10.7096 48.95 10.7396 48.97 10.7696 48.98C10.9296 49.03 11.0796 49.06 11.2296 49.1Z" fill="#A82A00"/>
<path d="M23.33 19.12C23.33 16.79 22.42 16.11 21.3 16.11C20.18 16.11 19.27 16.79 19.27 19.12C19.27 21.45 21.3 24.53 21.3 24.53C21.3 24.53 23.33 21.44 23.33 19.12Z" fill="#FDDD85"/>
<path d="M17.6298 20.3C15.4198 19.58 14.4898 20.24 14.1398 21.31C13.7898 22.38 14.1598 23.46 16.3698 24.17C18.5798 24.89 22.1498 23.91 22.1498 23.91C22.1498 23.91 19.8398 21.02 17.6298 20.3Z" fill="#FDDD85"/>
<path d="M16.9897 26.09C15.6197 27.97 15.9597 29.06 16.8697 29.72C17.7797 30.38 18.9197 30.36 20.2797 28.48C21.6497 26.6 21.8197 22.9 21.8197 22.9C21.8197 22.9 18.3597 24.2 16.9897 26.08V26.09Z" fill="#FDDD85"/>
<path d="M22.2998 28.48C23.6698 30.36 24.8098 30.38 25.7098 29.72C26.6198 29.06 26.9498 27.97 25.5898 26.09C24.2198 24.21 20.7598 22.91 20.7598 22.91C20.7598 22.91 20.9298 26.6 22.2998 28.49V28.48Z" fill="#FDDD85"/>
<path d="M26.2097 24.18C28.4197 23.46 28.7897 22.38 28.4397 21.31C28.0897 20.24 27.1597 19.59 24.9497 20.31C22.7397 21.03 20.4297 23.92 20.4297 23.92C20.4297 23.92 23.9997 24.9 26.2097 24.18Z" fill="#FDDD85"/>
<path d="M22.8397 23.77C22.8397 22.91 22.1497 22.22 21.2897 22.22C20.4297 22.22 19.7397 22.91 19.7397 23.77C19.7397 24.63 20.4397 25.32 21.2897 25.32C22.1397 25.32 22.8397 24.63 22.8397 23.77Z" fill="#FDC11C"/>
</g>
<defs>
<clipPath id="clip0_178_8705">
<rect width="72.29" height="74.49" fill="white"/>
</clipPath>
</defs>
</svg>
