<svg width="78" height="72" viewBox="0 0 78 72" fill="none" xmlns="http://www.w3.org/2000/svg">
<g clip-path="url(#clip0_178_8889)">
<path d="M71.7001 13.01C71.7001 13.01 56.9501 9.44 38.7501 9.44C20.5501 9.44 5.81006 13.01 5.81006 13.01C5.81006 13.01 20.5601 16.58 38.7601 16.58C56.9601 16.58 71.7101 13.01 71.7101 13.01H71.7001Z" fill="#FDC11C"/>
<path d="M26.18 42.99C26.18 39.7 20.32 37.04 13.09 37.04C5.86 37.04 0 39.7 0 42.99C0 46.28 5.86 51.62 13.09 51.62C20.32 51.62 26.18 46.28 26.18 42.99Z" fill="#FDC11C"/>
<path d="M4.00996 47.34C6.78996 49.67 10.42 50.32 12.11 48.79C13.8 47.26 12.92 44.13 10.13 41.8C7.34996 39.47 3.71996 38.83 2.02996 40.36C0.339963 41.89 1.21996 45.02 4.00996 47.35V47.34Z" fill="#FDDD85"/>
<path d="M24.7802 42.44C24.7802 40.51 19.6102 37.86 13.0902 37.86C6.57018 37.86 1.18018 40.51 1.18018 42.44C1.18018 44.37 6.46018 45.93 12.9802 45.93C19.5002 45.93 24.7802 44.37 24.7802 42.44Z" fill="#FF6A38"/>
<path d="M24.7802 42.44C24.7802 41.52 23.5902 40.43 21.6402 39.55C21.3702 39.55 21.1002 39.53 20.8202 39.53C14.3002 39.53 8.91016 42.18 8.91016 44.11C8.91016 44.75 9.49016 45.34 10.5002 45.85C11.3002 45.9 12.1302 45.93 12.9802 45.93C19.5002 45.93 24.7802 44.37 24.7802 42.44Z" fill="#FF8961"/>
<path d="M77.16 42.99C77.16 39.7 71.3 37.04 64.07 37.04C56.84 37.04 50.98 39.71 50.98 42.99C50.98 46.27 56.84 51.62 64.07 51.62C71.3 51.62 77.16 46.28 77.16 42.99Z" fill="#FDC11C"/>
<path d="M54.9899 47.34C57.7699 49.67 61.3999 50.32 63.0899 48.79C64.7799 47.26 63.8999 44.13 61.1099 41.8C58.3299 39.47 54.6999 38.83 53.0099 40.36C51.3199 41.89 52.1999 45.02 54.9899 47.35V47.34Z" fill="#FDDD85"/>
<path d="M75.7499 42.44C75.7499 40.51 70.5799 37.86 64.0599 37.86C57.5399 37.86 52.1499 40.51 52.1499 42.44C52.1499 44.37 57.4299 45.93 63.9499 45.93C70.4699 45.93 75.7499 44.37 75.7499 42.44Z" fill="#FF6A38"/>
<path d="M75.7499 42.44C75.7499 41.52 74.5599 40.43 72.6099 39.55C72.3399 39.55 72.0699 39.53 71.7899 39.53C65.2699 39.53 59.8799 42.18 59.8799 44.11C59.8799 44.75 60.4599 45.34 61.4699 45.85C62.2699 45.9 63.0999 45.93 63.9499 45.93C70.4699 45.93 75.7499 44.37 75.7499 42.44Z" fill="#FF8961"/>
<path d="M59.93 64.19C59.93 60.2 50.37 56.97 38.58 56.97C26.79 56.97 17.23 60.2 17.23 64.19C17.23 68.18 26.79 71.41 38.58 71.41C50.37 71.41 59.93 68.18 59.93 64.19Z" fill="#C43100"/>
<path d="M17.2302 64.16C20.3702 66.65 27.2802 68.39 35.3302 68.39C46.3202 68.39 55.2302 65.16 55.2302 61.17C55.2302 60.57 55.0102 59.99 54.6302 59.44C50.7202 57.93 44.9802 56.97 38.5702 56.97C26.8102 56.97 17.2702 60.19 17.2202 64.16H17.2302Z" fill="#FF6A38"/>
<path d="M43.6998 57.53C43.6998 54.89 41.4898 52.75 38.7598 52.75C36.0298 52.75 33.8198 54.89 33.8198 57.53C33.8198 60.17 36.0298 62.31 38.7598 62.31C41.4898 62.31 43.6998 60.17 43.6998 57.53Z" fill="#C43100"/>
<path d="M33.8101 57.53C33.8101 58.16 33.9401 58.77 34.1801 59.32C34.8801 59.71 35.6701 59.95 36.5401 59.95C39.1501 59.95 41.2601 57.9 41.2601 55.38C41.2601 54.54 41.0101 53.77 40.6101 53.1C40.0401 52.88 39.4101 52.75 38.7601 52.75C36.0301 52.75 33.8201 54.89 33.8201 57.53H33.8101Z" fill="#FF6A38"/>
<path d="M42.1199 35.06C42.1199 13.71 40.6099 15.49 38.7599 15.49C36.9099 15.49 35.3999 13.71 35.3999 35.06C35.3999 56.41 36.9099 54.62 38.7599 54.62C40.6099 54.62 42.1199 56.4 42.1199 35.06Z" fill="#C43100"/>
<path d="M40.9001 32.39C40.9001 23.07 40.6101 18.16 40.1301 15.58C39.7101 15.37 39.2401 15.49 38.7501 15.49C36.8901 15.49 35.3901 13.71 35.3901 35.06C35.3901 44.37 35.6801 49.28 36.1601 51.86C36.5801 52.07 37.0501 51.95 37.5401 51.95C39.4001 51.95 40.9001 53.73 40.9001 32.39Z" fill="#FF6A38"/>
<path d="M42.3601 12.93C42.3601 11 40.7401 9.44 38.7501 9.44C36.7601 9.44 35.1401 11 35.1401 12.93C35.1401 14.86 36.7601 16.42 38.7501 16.42C40.7401 16.42 42.3601 14.86 42.3601 12.93Z" fill="#C43100"/>
<path d="M35.1401 12.93C35.1401 13.39 35.2401 13.83 35.4101 14.24C35.9201 14.53 36.5001 14.7 37.1301 14.7C39.0401 14.7 40.5801 13.2 40.5801 11.36C40.5801 10.75 40.4001 10.19 40.1001 9.68999C39.6801 9.52999 39.2301 9.42999 38.7501 9.42999C36.7601 9.42999 35.1401 10.99 35.1401 12.92V12.93Z" fill="#FF6A38"/>
<path d="M27.74 62.82C29.46 62.38 30.76 61.12 30.64 60.01C30.52 58.9 29.02 58.35 27.29 58.79C25.57 59.23 24.27 60.49 24.39 61.6C24.51 62.71 26.01 63.26 27.74 62.82Z" fill="#FDDD85"/>
<path d="M37.2599 56.19C36.9699 57.09 36.2699 57.68 35.6999 57.49C35.1299 57.31 34.9099 56.42 35.1999 55.52C35.4899 54.62 36.1899 54.03 36.7599 54.22C37.3299 54.41 37.5499 55.29 37.2599 56.19Z" fill="#FDDD85"/>
<path d="M38.42 11.82C38.13 12.72 37.43 13.31 36.86 13.12C36.29 12.94 36.07 12.05 36.36 11.15C36.65 10.25 37.35 9.66 37.92 9.85C38.49 10.04 38.71 10.92 38.42 11.82Z" fill="#FDDD85"/>
<path d="M36.23 26.63C36.23 31.5 36.66 35.46 37.19 35.46C37.72 35.46 38.14 31.51 38.14 26.63C38.14 21.75 37.71 17.8 37.19 17.8C36.67 17.8 36.23 21.75 36.23 26.63Z" fill="#FDDD85"/>
<path d="M40.95 6.81C40.95 3.93 38.58 0 38.58 0C38.58 0 36.21 3.93 36.21 6.81C36.21 9.69 37.27 10.41 38.58 10.41C39.89 10.41 40.95 9.68 40.95 6.81Z" fill="#FDC11C"/>
<path d="M38.5099 1C38.1699 1.6 36.6099 4.41 36.6099 6.54C36.6099 8.88 37.4499 9.5 38.5099 9.53V1Z" fill="#FDDD85"/>
<path d="M0.589892 42.54C0.509892 42.54 0.429892 42.52 0.349892 42.48C0.109892 42.35 0.0198918 42.05 0.149892 41.8L13.0899 12.77L26.0299 41.8C26.1599 42.04 26.0699 42.35 25.8299 42.48C25.5899 42.61 25.2899 42.52 25.1499 42.28L13.0899 14.88L1.02989 42.27C0.939892 42.44 0.769892 42.53 0.589892 42.53V42.54Z" fill="#C43100"/>
<path d="M51.5699 42.54C51.4899 42.54 51.4099 42.52 51.3299 42.48C51.0899 42.35 50.9999 42.05 51.1299 41.8L64.0699 12.77L77.0099 41.8C77.1399 42.04 77.0499 42.35 76.8099 42.48C76.5699 42.61 76.2599 42.52 76.1299 42.28L64.0699 14.89L52.0099 42.28C51.9199 42.45 51.7499 42.54 51.5699 42.54Z" fill="#C43100"/>
</g>
<defs>
<clipPath id="clip0_178_8889">
<rect width="77.16" height="71.41" fill="white"/>
</clipPath>
</defs>
</svg>
