<svg width="76" height="74" viewBox="0 0 76 74" fill="none" xmlns="http://www.w3.org/2000/svg">
<g clip-path="url(#clip0_178_8917)">
<path d="M20.4 28.84C20.95 29.57 21.22 30.08 21.11 30.8C21.07 31.05 21.2 31.33 21.43 31.29C24.06 30.84 26.27 30.52 26.73 30.27C26.93 30.17 27.25 29.95 27.11 29.58C26.92 29.07 26.71 29.09 25.88 28.93C24.17 28.59 22.48 28.22 20.73 28.19C20.37 28.19 20.19 28.57 20.4 28.85V28.84Z" fill="#C43100"/>
<path d="M19.8999 28.32C18.2199 29.76 17.8199 31.94 17.8299 34.07C17.8299 35.74 17.4699 38.08 18.4599 39.55C18.6299 39.8 18.9699 39.93 19.2199 39.7C20.5199 38.48 20.9699 36.54 21.2399 34.83C21.5299 33 21.4299 31.02 21.0599 29.13C21.0199 28.93 20.4699 27.85 19.9199 28.32H19.8999Z" fill="#FF6A38"/>
<path d="M28.1601 31.11C28.5701 31.92 28.7501 32.47 28.5101 33.16C28.4301 33.4 28.5101 33.7 28.7401 33.7C31.4101 33.72 33.6401 33.78 34.1401 33.61C34.3501 33.54 34.7101 33.39 34.6401 33C34.5301 32.46 34.3301 32.45 33.5401 32.14C31.9201 31.51 30.3101 30.84 28.5901 30.52C28.2401 30.45 27.9901 30.8 28.1601 31.11Z" fill="#C43100"/>
<path d="M27.7502 30.52C25.8502 31.64 25.0702 33.72 24.7102 35.82C24.4202 37.47 23.6602 39.71 24.3702 41.33C24.4902 41.61 24.8002 41.8 25.0902 41.61C26.5802 40.63 27.3702 38.8 27.9202 37.17C28.5202 35.42 28.7702 33.45 28.7302 31.53C28.7302 31.32 28.3702 30.16 27.7502 30.53V30.52Z" fill="#FF6A38"/>
<path d="M35.6197 34.73C35.8797 35.6 35.9697 36.17 35.6197 36.81C35.4997 37.03 35.5197 37.34 35.7497 37.38C38.3797 37.86 40.5597 38.31 41.0797 38.23C41.2997 38.2 41.6797 38.11 41.6697 37.71C41.6697 37.16 41.4597 37.11 40.7397 36.67C39.2497 35.77 37.7797 34.84 36.1497 34.21C35.8097 34.08 35.5097 34.38 35.6197 34.72V34.73Z" fill="#C43100"/>
<path d="M35.3199 34.08C33.2499 34.86 32.1299 36.76 31.3999 38.77C30.8299 40.34 29.6899 42.42 30.1099 44.14C30.1799 44.43 30.4599 44.67 30.7699 44.54C32.4099 43.83 33.4999 42.16 34.3299 40.66C35.2299 39.04 35.8099 37.15 36.0999 35.24C36.1299 35.03 35.9799 33.83 35.3099 34.09L35.3199 34.08Z" fill="#FF6A38"/>
<path d="M56.2998 64.54C56.6798 63.9 57.1198 63.37 57.6098 62.9C58.5498 63.33 59.9098 62.92 59.9598 61.57C59.9598 61.5 59.9398 61.45 59.9298 61.4C60.7798 61.98 62.1898 61.7 62.3998 60.46C63.0198 61.09 64.2698 60.97 64.6098 60.06C66.0998 59.89 67.5998 59.81 68.9498 59.29C69.2898 59.16 69.2098 58.7 68.9798 58.53C66.9698 56.99 62.9498 57.02 60.5298 57.03C57.2298 57.04 53.4398 57.61 51.1398 60.23C47.7898 64.05 53.8798 68.64 56.3098 64.55L56.2998 64.54Z" fill="#A82A00"/>
<path d="M38.6202 71.81C42.3502 71.69 45.9502 70.83 49.5902 70.06C51.3502 69.69 51.7902 69.73 52.1902 68.63C52.4802 67.83 51.7702 67.38 51.3602 67.17C50.3602 66.65 45.6402 66.03 40.0102 65.16C39.5102 65.08 39.2502 65.68 39.3402 66.21C39.6002 67.74 39.0402 68.84 37.9002 70.41C37.4602 71.02 37.8502 71.83 38.6202 71.81Z" fill="#A82A00"/>
<path d="M58.78 73.49C63.19 72.65 71.1 66.28 70.86 61.35C70.86 61.16 70.6 61.09 70.48 61.23C70.24 61.5 69.98 61.78 69.71 62.07C69.18 61.76 68.36 61.91 68.21 62.69C68.18 62.83 68.19 62.96 68.21 63.08C67.74 63 67.23 63.22 67.12 63.82C67.09 63.95 67.11 64.07 67.12 64.19C66.49 63.92 65.65 64.13 65.49 65C65.43 65.33 65.51 65.59 65.64 65.81C65.57 65.87 65.5 65.93 65.42 65.99C64.83 65.14 63.21 65.15 62.97 66.46C62.93 66.7 62.95 66.9 63 67.09C62.73 66.8 62.37 66.59 61.96 66.51C60.92 66.31 59.88 67.02 59.68 68.07C59.65 68.23 59.65 68.4 59.66 68.56C59.62 68.56 59.58 68.57 59.54 68.57C59.71 67.47 58.96 66.4 57.86 66.19C56.9 66.01 55.96 66.54 55.57 67.4C55.31 66.99 55.08 66.48 54.85 65.79C54.33 64.25 54.28 62.6 52.96 61.5C51.31 60.12 49.11 60.75 48.07 62.5C46.79 64.65 48.48 68.41 49.62 70.33C51.65 73.72 55.08 74.21 58.76 73.5L58.78 73.49Z" fill="#C43100"/>
<path d="M39.0799 69.74C39.8399 65.69 40.0199 61.47 39.3699 57.58C38.7599 53.95 37.7599 49.82 34.9599 47.23C34.4199 46.73 33.6899 47.02 33.3399 47.56C31.2599 50.72 32.0999 55.71 32.1199 59.27C32.1499 63.81 33.0599 68.45 36.6699 71.49C37.8599 72.48 39.0099 70.17 39.0899 69.74H39.0799Z" fill="#C43100"/>
<path d="M63.5 43.79C63.54 44.53 63.69 45.21 63.91 45.85C64.94 45.89 65.96 46.89 65.39 48.1C65.36 48.16 65.32 48.2 65.28 48.24C66.3 48.11 67.43 49.02 67.04 50.21C67.88 49.93 68.93 50.61 68.82 51.58C70.07 52.41 71.37 53.17 72.32 54.25C72.56 54.52 72.28 54.89 72 54.94C69.51 55.38 65.95 53.52 63.8 52.4C60.87 50.88 57.76 48.63 56.92 45.25C55.7 40.32 63.2101 39.03 63.4901 43.78L63.5 43.79Z" fill="#C43100"/>
<path d="M49.82 30.14C50.12 32.06 50.11 33.29 49.18 34.54C48.86 34.97 48.81 35.62 49.29 35.78C54.69 37.59 59.17 39.2 60.3 39.19C60.77 39.19 61.6 39.12 61.71 38.27C61.86 37.11 61.45 36.95 60.05 35.81C57.17 33.45 54.37 31.04 51.1 29.23C50.42 28.86 49.7 29.4 49.81 30.14H49.82Z" fill="#C43100"/>
<path d="M69.8002 36.96C73.3302 39.73 77.4402 49.01 74.9802 53.28C74.8802 53.45 74.6302 53.39 74.5802 53.22C74.4902 52.87 74.3902 52.5 74.2802 52.11C73.6702 52.14 73.0002 51.64 73.2402 50.87C73.2802 50.73 73.3502 50.62 73.4302 50.52C72.9802 50.38 72.6302 49.95 72.8002 49.37C72.8402 49.24 72.9002 49.14 72.9702 49.04C72.2902 48.99 71.6402 48.42 71.8902 47.57C71.9802 47.25 72.1702 47.05 72.4002 46.92C72.3602 46.84 72.3302 46.75 72.2902 46.66C71.3802 47.14 69.9402 46.4 70.3302 45.12C70.4002 44.89 70.5102 44.72 70.6502 44.57C70.2802 44.71 69.8602 44.73 69.4602 44.61C68.4402 44.31 67.8502 43.2 68.1502 42.19C68.1902 42.03 68.2702 41.88 68.3502 41.75C68.3202 41.73 68.2902 41.7 68.2502 41.68C67.9002 42.73 66.7402 43.35 65.6702 43.03C64.7402 42.75 64.1402 41.85 64.1902 40.91C63.7702 41.15 63.3302 41.51 62.8102 42.01C61.6502 43.14 60.8502 44.58 59.1602 44.96C57.0602 45.43 55.3902 43.87 55.2702 41.84C55.1202 39.35 58.3402 36.77 60.2402 35.59C63.6002 33.5 66.8602 34.65 69.8202 36.96H69.8002Z" fill="#FF6A38"/>
<path d="M49.2202 28.62C44.6202 29.66 41.6902 33.36 39.5802 37.39C37.9302 40.55 34.9002 44.6 35.3002 48.36C35.3702 49 35.8702 49.59 36.5902 49.4C40.2702 48.38 43.0502 45.17 45.2502 42.22C47.6102 39.06 49.3902 35.22 50.5702 31.28C50.6902 30.86 50.7302 28.28 49.2202 28.62Z" fill="#FF6A38"/>
<path d="M6.90012 47.79C7.63012 49.38 8.66012 50.78 9.66012 52.21C10.1401 52.9 10.2101 53.1 10.7601 53.07C11.1601 53.05 11.2201 52.66 11.2401 52.44C11.2801 51.91 10.6901 49.76 10.0401 47.18C9.98012 46.95 9.68012 46.95 9.46012 47.08C8.85012 47.47 8.27012 47.43 7.38012 47.22C7.04012 47.14 6.76012 47.46 6.91012 47.79H6.90012Z" fill="#C43100"/>
<path d="M7.90016 47.69C9.78016 47.27 11.6302 46.56 13.1902 45.56C14.6402 44.63 16.2302 43.44 16.8302 41.75C16.9502 41.42 16.6902 41.16 16.3902 41.11C14.6502 40.8 12.6502 42.08 11.1202 42.75C9.17016 43.6 7.34016 44.85 6.70016 46.97C6.49016 47.67 7.70016 47.73 7.90016 47.69Z" fill="#FF6A38"/>
<path d="M13 55.11C14 56.55 15.25 57.75 16.48 58.98C17.08 59.58 17.17 59.76 17.71 59.64C18.1 59.55 18.09 59.16 18.07 58.94C18.02 58.41 17.06 56.4 15.97 53.97C15.87 53.76 15.57 53.8 15.38 53.97C14.84 54.46 14.27 54.52 13.36 54.47C13.01 54.45 12.79 54.81 12.99 55.11H13Z" fill="#C43100"/>
<path d="M13.9701 54.84C15.7501 54.1 17.4501 53.08 18.8101 51.83C20.0801 50.66 21.4401 49.21 21.7301 47.45C21.7901 47.11 21.4901 46.9 21.1901 46.9C19.4201 46.9 17.6801 48.5 16.2801 49.43C14.5001 50.61 12.9201 52.16 12.6601 54.35C12.5701 55.07 13.7701 54.93 13.9701 54.85V54.84Z" fill="#FF6A38"/>
<path d="M21.2997 60.8301C22.5297 62.0801 23.9797 63.0401 25.3997 64.0401C26.0897 64.5301 26.2097 64.6901 26.7197 64.4801C27.0897 64.3201 27.0197 63.9401 26.9497 63.7301C26.8097 63.2201 25.5197 61.4101 24.0197 59.1901C23.8897 59.0001 23.5997 59.1001 23.4397 59.3001C22.9997 59.8801 22.4397 60.0301 21.5397 60.1501C21.1897 60.1901 21.0397 60.5901 21.2897 60.8401L21.2997 60.8301Z" fill="#C43100"/>
<path d="M22.1998 60.39C23.8298 59.35 25.3298 58.06 26.4398 56.58C27.4798 55.21 28.5698 53.54 28.5598 51.75C28.5598 51.4 28.2198 51.25 27.9298 51.3C26.1898 51.6 24.7498 53.49 23.5398 54.64C21.9998 56.11 20.6998 57.91 20.8298 60.11C20.8698 60.83 22.0298 60.49 22.1998 60.37V60.39Z" fill="#FF6A38"/>
<path d="M2.35 16.04C-0.360001 18.22 -0.780001 22.2 1.4 24.9C3.58 27.61 7.56 28.03 10.26 25.85C12.97 23.66 13.39 19.69 11.21 16.99C9.02 14.27 5.05 13.85 2.34 16.04H2.35Z" fill="#A82A00"/>
<path d="M4.56985 24.48C3.74985 24.16 3.01985 23.63 2.45985 22.94C1.60985 21.89 1.21985 20.57 1.36985 19.23C1.50985 17.89 2.16985 16.69 3.21985 15.84C4.61985 14.71 6.53985 14.41 8.21985 15.05C9.03985 15.37 9.76985 15.9 10.3298 16.59C11.1798 17.64 11.5598 18.96 11.4198 20.29C11.2798 21.63 10.6198 22.84 9.56985 23.69C8.16985 24.82 6.25985 25.12 4.57985 24.47L4.56985 24.48Z" fill="#C43100"/>
<path d="M13.8501 33.82C15.1401 30.47 13.4801 26.7 10.1201 25.4C6.77009 24.11 3.00009 25.78 1.70009 29.13C0.410086 32.48 2.08009 36.25 5.43009 37.55C8.79009 38.84 12.5501 37.17 13.8501 33.82Z" fill="#A82A00"/>
<path d="M5.93978 35.36C3.19978 34.3 1.81978 31.21 2.87978 28.46C3.93978 25.72 7.02978 24.34 9.77978 25.4C12.5198 26.46 13.8998 29.55 12.8398 32.3C11.7798 35.05 8.68978 36.42 5.93978 35.36Z" fill="#C43100"/>
<path d="M8.38003 6.55002C5.59003 7.78002 4.33003 11.05 5.57003 13.84C6.80003 16.62 10.07 17.89 12.86 16.65C15.65 15.41 16.91 12.15 15.67 9.37002C14.44 6.58002 11.17 5.32002 8.38003 6.56002V6.55002Z" fill="#A82A00"/>
<path d="M9.20991 15.15C8.05991 14.71 7.14991 13.84 6.64991 12.72C6.14991 11.59 6.11991 10.34 6.55991 9.18002C6.99991 8.03002 7.86991 7.13002 8.98991 6.63002C10.1199 6.13002 11.3699 6.10002 12.5199 6.54002C13.6699 6.99002 14.5799 7.85001 15.0799 8.98001C15.5799 10.11 15.6099 11.36 15.1699 12.5C14.7299 13.65 13.8599 14.56 12.7299 15.06C11.6099 15.56 10.3599 15.59 9.19991 15.15H9.20991Z" fill="#C43100"/>
<path d="M43.9799 49.93C42.3699 54.16 36.1499 55.72 23.6499 50.95C11.1499 46.19 7.54986 40.89 9.15986 36.66C10.7699 32.43 16.9899 30.87 29.4899 35.63C41.9899 40.4 45.5899 45.69 43.9799 49.92V49.93Z" fill="#A82A00"/>
<path d="M28.8299 48.69C26.9699 48.28 24.8899 47.64 22.6399 46.78C13.7399 43.39 9.41989 39.38 10.7899 35.78C11.7899 33.16 15.3399 32.36 20.7699 33.55C22.6299 33.96 24.7099 34.6 26.9599 35.46C35.8599 38.85 40.1799 42.86 38.8099 46.46C37.8099 49.09 34.2699 49.88 28.8299 48.69Z" fill="#C43100"/>
<path d="M16.9101 1.39997C14.0901 1.83997 12.1701 4.47997 12.6101 7.29997C13.0501 10.11 15.6901 12.04 18.5101 11.6C21.3301 11.16 23.2601 8.51997 22.8101 5.69997C22.3701 2.87997 19.7301 0.94997 16.9101 1.39997Z" fill="#A82A00"/>
<path d="M16.4202 8.83001C15.1402 8.34001 14.2202 7.19001 14.0102 5.84001C13.8502 4.83001 14.1002 3.81001 14.7002 2.98001C15.3002 2.15001 16.1902 1.61001 17.2002 1.45001C17.8702 1.34001 18.5502 1.42001 19.1702 1.66001C20.4502 2.15001 21.3702 3.30001 21.5802 4.65001C21.7402 5.66001 21.5002 6.67001 20.9002 7.50001C20.2902 8.33001 19.4002 8.88001 18.3902 9.04001C17.7302 9.15001 17.0502 9.07001 16.4202 8.83001Z" fill="#C43100"/>
<path d="M26.35 0.0300154C23.77 -0.249985 21.45 1.62002 21.18 4.21002C20.9 6.79002 22.78 9.11001 25.36 9.38002C27.94 9.66002 30.26 7.79002 30.53 5.21002C30.81 2.63002 28.94 0.320015 26.36 0.0400154L26.35 0.0300154Z" fill="#A82A00"/>
<path d="M24.7202 6.60001C23.3002 6.05001 22.4202 4.61001 22.5802 3.10001C22.6802 2.20001 23.1202 1.40001 23.8202 0.83001C24.5202 0.26001 25.4002 9.79751e-06 26.2902 0.10001C26.5902 0.13001 26.8802 0.20001 27.1502 0.31001C28.5702 0.86001 29.4402 2.30001 29.2802 3.81001C29.1902 4.71001 28.7502 5.51001 28.0502 6.07001C27.3502 6.64001 26.4702 6.90001 25.5702 6.80001C25.2702 6.77001 24.9802 6.70001 24.7102 6.59001L24.7202 6.60001Z" fill="#C43100"/>
<path d="M35.1501 2.16002C32.0201 1.57002 29.0101 3.63002 28.4201 6.76002C27.8301 9.89002 28.78 13.92 32.85 15.59C36.01 16.89 43.8001 18.15 42.9601 17.49C37.7901 13.44 38.2401 10.67 38.6201 8.67002C39.2101 5.54002 38.2801 2.74002 35.1501 2.15002V2.16002Z" fill="#C43100"/>
<path d="M38.95 14.63C36.6 14.19 34.4 13.61 33.22 13.13C29.78 11.72 29.12 8.28 29.59 5.77C30.04 3.37 32.37 1.78 34.76 2.23C35.82 2.43 36.54 2.94 36.94 3.8C37.34 4.66 37.43 5.86 37.17 7.2C36.78 9.29 36.65 11.7 39.2 14.69C39.12 14.67 39.03 14.66 38.94 14.64L38.95 14.63Z" fill="#FF6A38"/>
<path d="M16.6298 35.87C17.6098 35.71 18.3298 35.11 18.2298 34.55C18.1398 33.98 17.2698 33.65 16.2898 33.82C15.3098 33.98 14.5998 34.58 14.6898 35.14C14.7898 35.71 15.6498 36.03 16.6298 35.87Z" fill="#FDDD85"/>
<path d="M6.8498 28.09C7.8898 28.08 8.7298 27.58 8.7198 26.97C8.7198 26.37 7.8598 25.89 6.8198 25.9C5.7798 25.92 4.9398 26.42 4.9498 27.02C4.9498 27.62 5.8098 28.1 6.8498 28.08V28.09Z" fill="#FDDD85"/>
<path d="M4.87981 18.06C5.79981 18.05 6.53981 17.6 6.53981 17.07C6.53981 16.53 5.77981 16.11 4.84981 16.12C3.92981 16.13 3.18981 16.58 3.19981 17.11C3.19981 17.64 3.95981 18.07 4.87981 18.06Z" fill="#FDDD85"/>
<path d="M10.3498 9.08003C11.2298 9.07003 11.9498 8.64003 11.9398 8.13003C11.9398 7.62003 11.2098 7.21003 10.3298 7.22003C9.44985 7.23003 8.72985 7.66003 8.73985 8.17003C8.73985 8.68003 9.46985 9.09003 10.3498 9.08003Z" fill="#FDDD85"/>
<path d="M18.1201 3.90998C19.0001 3.89998 19.7201 3.46998 19.7101 2.95998C19.7101 2.44998 18.9801 2.03998 18.0901 2.04998C17.2101 2.05998 16.4901 2.48998 16.5001 2.99998C16.5001 3.50998 17.2301 3.91998 18.1201 3.90998Z" fill="#FDDD85"/>
<path d="M26.0898 2.57997C26.9798 2.56997 27.6898 2.13997 27.6798 1.62997C27.6798 1.10997 26.9498 0.709971 26.0598 0.719971C25.1798 0.729971 24.4598 1.15997 24.4698 1.66997C24.4698 2.17997 25.1998 2.58997 26.0798 2.57997H26.0898Z" fill="#FDDD85"/>
<path d="M33.5798 5.24999C34.6998 5.02999 35.5098 4.31999 35.3798 3.66999C35.2498 3.01999 34.2398 2.66999 33.1098 2.88999C31.9898 3.10999 31.1898 3.81999 31.3098 4.46999C31.4398 5.11999 32.4498 5.45999 33.5798 5.23999V5.24999Z" fill="#FDDD85"/>
<path d="M20.1898 35.19C20.6898 35.39 21.2198 35.25 21.3698 34.88C21.5198 34.5 21.2498 34.03 20.7498 33.83C20.2498 33.63 19.7298 33.77 19.5698 34.15C19.4198 34.53 19.6998 34.99 20.1898 35.2V35.19Z" fill="#FDDD85"/>
<path d="M47.1601 50.18C48.4801 50.79 50.0401 50.21 50.6401 48.89C51.2501 47.57 50.6701 46.01 49.3501 45.41C48.0301 44.8 42.0001 43.33 41.3901 44.65C40.7901 45.97 45.8401 49.58 47.1601 50.18Z" fill="#471302"/>
<path d="M44.22 56.74C45.54 57.35 47.1 56.77 47.71 55.45C48.32 54.13 47.74 52.57 46.42 51.97C45.1 51.36 39.07 49.9 38.46 51.22C37.85 52.54 42.91 56.15 44.23 56.75L44.22 56.74Z" fill="#471302"/>
<path d="M46.1502 54.33C46.4302 54.88 46.8902 55.2 47.1802 55.05C47.4702 54.9 47.4802 54.34 47.2002 53.79C46.9202 53.24 46.4602 52.92 46.1702 53.07C45.8802 53.22 45.8702 53.78 46.1502 54.33Z" fill="#FDDD85"/>
<path d="M49.1202 47.7C49.4002 48.25 49.8602 48.57 50.1602 48.42C50.4502 48.27 50.4602 47.71 50.1802 47.16C49.9002 46.62 49.4402 46.29 49.1502 46.44C48.8602 46.59 48.8502 47.15 49.1302 47.7H49.1202Z" fill="#FDDD85"/>
</g>
<defs>
<clipPath id="clip0_178_8917">
<rect width="75.73" height="73.77" fill="white"/>
</clipPath>
</defs>
</svg>
