<svg width="71" height="71" viewBox="0 0 71 71" fill="none" xmlns="http://www.w3.org/2000/svg">
<g clip-path="url(#clip0_178_8971)">
<path d="M64.2102 66.04L64.3202 65.36L5.42023 65.53L5.60023 6.63L4.91023 6.74L4.74023 66.21H4.75023V66.22L64.2102 66.04Z" fill="#A82A00"/>
<path d="M70.2599 61.09C69.9299 60.7 69.2499 60.47 68.6499 60.86C68.6899 60.86 68.7299 60.86 68.7699 60.86C68.1799 60.99 67.5999 61.43 67.4799 62.1C67.3999 62.57 67.3499 62.87 67.3399 63.14C66.5299 63.14 64.6199 62.23 64.4799 62.03C63.9099 61.2 63.5199 60.35 63.3399 59.29C62.9999 57.25 62.6799 55.17 62.9799 52.99C63.7899 47.12 66.0199 41.14 65.1499 37.01C62.8599 26.15 53.6999 17.44 53.6199 17.36C53.5399 17.28 44.8299 8.12 33.9699 5.82C29.8399 4.95 23.8499 7.18 17.9899 7.99C15.7999 8.29 13.7199 7.97 11.6799 7.63C10.6199 7.45 9.76992 7.07 8.93992 6.49C8.73992 6.35 7.83992 4.44 7.82992 3.63C8.09992 3.63 8.39992 3.58 8.86992 3.49C9.53992 3.37 9.97992 2.79 10.1099 2.2C10.1099 2.24 10.1099 2.28 10.1099 2.32C10.4899 1.73 10.2599 1.04 9.87992 0.709996C7.30992 -1.46 4.18992 1.79 3.94992 4.97C3.51992 10.76 9.15992 12.02 13.8999 12.29C20.3399 12.65 30.0299 8.41 36.7299 13.04C46.1399 19.53 51.4299 24.82 57.9199 34.23C62.5399 40.93 58.3099 50.62 58.6699 57.06C58.9399 61.81 60.1899 67.44 65.9899 67.01C69.1599 66.78 72.4099 63.65 70.2599 61.1V61.09Z" fill="#A82A00"/>
<path d="M63.4301 63.38C62.0201 61.97 61.2301 59.44 61.0201 55.63C60.9101 53.65 61.2701 51.26 61.6601 48.74C62.4901 43.29 63.4401 37.11 60.1001 32.27C56.7001 27.34 53.7401 23.7 50.4901 20.46C47.2501 17.22 43.6001 14.25 38.6701 10.85C33.8301 7.51001 27.6501 8.45001 22.2001 9.29001C19.6701 9.67001 17.2901 10.04 15.3101 9.93001C11.5001 9.72001 8.96014 8.93001 7.56014 7.52001C6.60014 6.56001 7.51014 1.32001 7.51014 1.32001L7.53014 2.91001C7.54014 3.99001 8.49014 6.05001 8.91014 6.47001L8.97014 6.53001L9.06014 6.59001C10.0701 7.29001 11.0701 7.70001 12.2101 7.89001C14.5101 8.27001 16.6001 8.57001 18.8901 8.25001C20.9501 7.97001 22.9901 7.52001 24.9701 7.08001C28.5801 6.29001 31.9901 5.54001 34.4601 6.06001C43.9901 8.07001 51.8901 15.6 53.3801 17.09L53.6501 17.36L53.8801 17.59C55.3701 19.08 62.8901 26.98 64.9001 36.51C65.4201 38.98 64.6801 42.39 63.8801 46C63.4501 47.98 63.0001 50.02 62.7201 52.08C62.4001 54.37 62.7001 56.46 63.0801 58.76C63.2701 59.9 63.6901 60.91 64.3801 61.91L64.4301 61.98L64.5001 62.06C64.9101 62.47 69.6401 63.45 69.6401 63.45C69.6401 63.45 64.4001 64.37 63.4401 63.4L63.4301 63.38Z" fill="#C43100"/>
<path d="M6.33021 70.95L5.22021 66.83L6.43021 65.62L7.54022 69.75L6.33021 70.95Z" fill="#FF6A38"/>
<path d="M7.38027 69.9L6.28027 65.78L7.48027 64.57L8.59027 68.69L7.38027 69.9Z" fill="#FDC11C"/>
<path d="M8.43008 68.85L7.33008 64.72L8.54008 63.52L9.64008 67.64L8.43008 68.85Z" fill="#FF6A38"/>
<path d="M9.49037 67.8L8.38037 63.67L9.59037 62.46L10.7004 66.59L9.49037 67.8Z" fill="#FDC11C"/>
<path d="M10.5402 66.74L9.43018 62.62L10.6402 61.41L11.7502 65.53L10.5402 66.74Z" fill="#FF6A38"/>
<path d="M11.5902 65.69L10.4902 61.57L11.6902 60.36L12.8002 64.48L11.5902 65.69Z" fill="#FDC11C"/>
<path d="M12.64 64.64L11.54 60.52L12.75 59.31L13.85 63.43L12.64 64.64Z" fill="#FF6A38"/>
<path d="M13.7003 63.59L12.5903 59.46L13.8003 58.25L14.9003 62.38L13.7003 63.59Z" fill="#FDC11C"/>
<path d="M14.7501 62.53L13.6401 58.41L14.8501 57.2L15.9601 61.33L14.7501 62.53Z" fill="#FF6A38"/>
<path d="M15.8002 61.48L14.7002 57.36L15.9002 56.15L17.0102 60.27L15.8002 61.48Z" fill="#FDC11C"/>
<path d="M0 64.62L4.12 65.73L5.33 64.52L1.21 63.42L0 64.62Z" fill="#FF6A38"/>
<path d="M1.0498 63.57L5.1798 64.68L6.3798 63.47L2.2598 62.36L1.0498 63.57Z" fill="#FDC11C"/>
<path d="M2.1001 62.52L6.2301 63.62L7.4401 62.42L3.3101 61.31L2.1001 62.52Z" fill="#FF6A38"/>
<path d="M3.16016 61.47L7.28016 62.57L8.49016 61.36L4.37016 60.26L3.16016 61.47Z" fill="#FDC11C"/>
<path d="M4.20996 60.42L8.32996 61.52L9.53996 60.31L5.41996 59.21L4.20996 60.42Z" fill="#FF6A38"/>
<path d="M5.25977 59.36L9.38977 60.47L10.5998 59.26L6.46977 58.15L5.25977 59.36Z" fill="#FDC11C"/>
<path d="M6.31006 58.31L10.4401 59.42L11.6501 58.21L7.52006 57.1L6.31006 58.31Z" fill="#FF6A38"/>
<path d="M7.37012 57.26L11.4901 58.36L12.7001 57.15L8.58012 56.05L7.37012 57.26Z" fill="#FDC11C"/>
<path d="M8.41992 56.2L12.5399 57.31L13.7499 56.1L9.62992 55L8.41992 56.2Z" fill="#FF6A38"/>
<path d="M9.47021 55.15L13.6002 56.26L14.8102 55.05L10.6802 53.94L9.47021 55.15Z" fill="#FDC11C"/>
<path d="M59.0757 10.7867L4.12646 65.736L5.22248 66.832L60.1717 11.8827L59.0757 10.7867Z" fill="#471302"/>
<path d="M59.6299 11.33L59.3299 11.04L4.37988 65.99L4.66988 66.28L59.6299 11.33Z" fill="#A82A00"/>
<path d="M65.4399 5.51001L59.6299 11.33L62.6699 14.38L65.4399 5.51001Z" fill="#FDC11C"/>
<path d="M65.4401 5.51001L59.6301 11.33L56.5801 8.28001L65.4401 5.51001Z" fill="#FDC11C"/>
<path d="M57.9502 8.62001L65.4402 5.51001L60.0002 10.66L57.9502 8.62001Z" fill="#FDDD85"/>
</g>
<defs>
<clipPath id="clip0_178_8971">
<rect width="70.95" height="70.95" fill="white"/>
</clipPath>
</defs>
</svg>
