<svg width="106" height="106" viewBox="0 0 106 106" fill="none" xmlns="http://www.w3.org/2000/svg">
<g clip-path="url(#clip0_1196_5684)">
<path d="M36.3337 43.9999H41.3337V63.9999H36.3337C35.8916 63.9999 35.4677 63.8243 35.1551 63.5118C34.8426 63.1992 34.667 62.7753 34.667 62.3333V45.6666C34.667 45.2246 34.8426 44.8007 35.1551 44.4881C35.4677 44.1755 35.8916 43.9999 36.3337 43.9999ZM45.1553 41.8449L55.822 31.1783C55.9638 31.0361 56.1521 30.9499 56.3524 30.9355C56.5526 30.9211 56.7514 30.9795 56.912 31.0999L58.3337 32.1666C58.7285 32.463 59.0267 32.8697 59.1908 33.3354C59.3548 33.801 59.3772 34.3049 59.2553 34.7833L57.3337 42.3333H68.0003C68.8844 42.3333 69.7322 42.6845 70.3573 43.3096C70.9825 43.9347 71.3337 44.7826 71.3337 45.6666V49.1733C71.3341 49.6089 71.2492 50.0403 71.0837 50.4433L65.9253 62.9683C65.7995 63.2736 65.5858 63.5347 65.3113 63.7184C65.0368 63.9021 64.7139 64.0001 64.3837 63.9999H46.3337C45.8916 63.9999 45.4677 63.8243 45.1551 63.5118C44.8426 63.1992 44.667 62.7753 44.667 62.3333V43.0233C44.6671 42.5813 44.8427 42.1574 45.1553 41.8449Z" fill="#80152F"/>
</g>
<path d="M93.0547 39.592C93.6203 38.7673 94.9124 39.1918 94.8788 40.1912L94.7244 44.7793C94.7094 45.2235 94.9895 45.6243 95.4117 45.763L99.564 47.1271C100.459 47.4212 100.488 48.6772 99.607 49.0119L95.1388 50.7095C94.762 50.8526 94.508 51.2079 94.4945 51.6106L94.3294 56.5165C94.2964 57.4958 93.0208 57.8484 92.4896 57.025L90.1777 53.4411C89.9219 53.0445 89.4235 52.8807 88.9823 53.0484L84.9954 54.563C84.0795 54.911 83.2614 53.8706 83.8156 53.0626L86.592 49.0145C86.82 48.6822 86.8262 48.2455 86.6077 47.9068L84.0167 43.8902C83.5058 43.0983 84.2738 42.104 85.1691 42.3981L89.3214 43.7622C89.7436 43.9009 90.2068 43.7443 90.4581 43.3777L93.0547 39.592Z" fill="#F3BD27"/>
<path d="M77.428 68.9094C77.5141 67.9131 78.8477 67.6462 79.3106 68.5326L81.4359 72.6017C81.6416 72.9957 82.0827 73.2065 82.5185 73.1193L86.8041 72.2615C87.7282 72.0765 88.3718 73.1555 87.7699 73.8807L84.7171 77.5587C84.4597 77.8688 84.4137 78.3031 84.6002 78.6603L86.8727 83.0113C87.3263 83.8798 86.3897 84.8149 85.5219 84.3599L81.7448 82.3794C81.3268 82.1602 80.8124 82.2632 80.511 82.6264L77.7871 85.9081C77.1613 86.6621 75.937 86.1595 76.0214 85.1833L76.4441 80.2929C76.4788 79.8914 76.2691 79.5083 75.9122 79.3211L71.6789 77.1015C70.8443 76.6639 71.023 75.4203 71.9471 75.2353L76.2326 74.3775C76.6684 74.2903 76.9944 73.9259 77.0327 73.483L77.428 68.9094Z" fill="#F3BD27"/>
<path d="M47.2435 82.6935C46.9244 81.7457 48.0402 80.9682 48.8188 81.5958L52.3929 84.4768C52.7389 84.7557 53.2275 84.7728 53.5922 84.5187L57.178 82.02C57.9512 81.4812 58.9723 82.2132 58.7103 83.1185L57.3814 87.7098C57.2694 88.097 57.4007 88.5135 57.7144 88.7664L61.5361 91.847C62.299 92.4619 61.814 93.6934 60.8367 93.623L56.5829 93.3166C56.1121 93.2827 55.6817 93.5826 55.5504 94.036L54.3647 98.1327C54.0923 99.074 52.7692 99.1025 52.4565 98.1739L50.8899 93.5219C50.7613 93.1399 50.416 92.8725 50.014 92.8436L45.2466 92.5003C44.3066 92.4326 43.9735 91.2212 44.7467 90.6824L48.3326 88.1837C48.6972 87.9296 48.8504 87.4653 48.7086 87.0441L47.2435 82.6935Z" fill="#F3BD27"/>
<path d="M26.7676 69.9409C27.1949 69.0367 28.538 69.2504 28.6637 70.2425L29.2407 74.7968C29.2966 75.2377 29.6367 75.5888 30.0757 75.6587L34.392 76.3453C35.3227 76.4933 35.5507 77.7288 34.7341 78.1993L30.5926 80.5856C30.2434 80.7868 30.0491 81.178 30.0998 81.5778L30.7167 86.4475C30.8399 87.4196 29.6365 87.9705 28.9812 87.242L26.129 84.0712C25.8133 83.7203 25.2952 83.6379 24.8863 83.8736L21.1909 86.0028C20.3419 86.492 19.3689 85.5949 19.7876 84.709L21.8851 80.271C22.0573 79.9067 21.994 79.4746 21.7245 79.175L18.5278 75.6213C17.8976 74.9207 18.4977 73.8169 19.4284 73.965L23.7447 74.6516C24.1836 74.7214 24.616 74.4931 24.8059 74.0913L26.7676 69.9409Z" fill="#F3BD27"/>
<path d="M10.4794 42.4682C10.5142 41.4688 11.8324 41.1337 12.3403 41.9951L14.6718 45.9497C14.8975 46.3325 15.3488 46.5205 15.7796 46.4109L20.0154 45.3341C20.9288 45.1019 21.6269 46.1464 21.0631 46.9016L18.2034 50.7315C17.9622 51.0544 17.9385 51.4905 18.1432 51.8377L20.6362 56.0662C21.1339 56.9102 20.2466 57.8922 19.3565 57.4824L15.4826 55.6986C15.0539 55.5011 14.5455 55.6304 14.2631 56.0086L11.7115 59.4259C11.1252 60.2111 9.8767 59.7721 9.91081 58.7928L10.0817 53.8871C10.0957 53.4844 9.86661 53.1125 9.50055 52.944L5.15889 50.9448C4.30288 50.5506 4.41741 49.2995 5.33077 49.0673L9.56662 47.9904C9.99737 47.8809 10.3042 47.5003 10.3196 47.0561L10.4794 42.4682Z" fill="#F3BD27"/>
<path d="M27.8203 15.998C28.5243 15.2878 29.7197 15.9364 29.5079 16.9138L28.5357 21.4003C28.4416 21.8347 28.6454 22.2791 29.0361 22.491L32.8776 24.5755C33.7059 25.025 33.5095 26.2659 32.5829 26.4377L27.8832 27.309C27.4869 27.3825 27.1735 27.6866 27.0882 28.0805L26.0486 32.8778C25.8411 33.8354 24.523 33.9542 24.1476 33.0491L22.5137 29.1097C22.3329 28.6737 21.8718 28.4235 21.4077 28.5095L17.2143 29.287C16.2509 29.4656 15.632 28.2957 16.3218 27.5998L19.7772 24.1134C20.0609 23.8271 20.145 23.3986 19.9906 23.0263L18.1595 18.6112C17.7984 17.7406 18.7318 16.8996 19.5601 17.3491L23.4016 19.4336C23.7922 19.6456 24.2759 19.5743 24.5888 19.2586L27.8203 15.998Z" fill="#F3BD27"/>
<path d="M49.7414 3.40583C50.0122 2.44315 51.3722 2.4301 51.6614 3.3874L52.9889 7.78194C53.1174 8.2074 53.5113 8.49698 53.9558 8.49271L58.3261 8.45077C59.2685 8.44172 59.6991 9.62199 58.9723 10.2219L55.2861 13.2647C54.9753 13.5213 54.8489 13.9393 54.9655 14.3251L56.3849 19.0241C56.6683 19.9621 55.5735 20.7057 54.806 20.0965L51.4654 17.4452C51.0957 17.1517 50.5712 17.1568 50.2072 17.4572L46.9181 20.1722C46.1625 20.796 45.0536 20.0735 45.3189 19.1303L46.6479 14.4049C46.757 14.017 46.6226 13.6015 46.3069 13.3509L42.563 10.3794C41.8248 9.79354 42.2327 8.60523 43.1751 8.59618L47.5455 8.55424C47.9899 8.54997 48.3782 8.25289 48.4985 7.82503L49.7414 3.40583Z" fill="#F3BD27"/>
<path d="M73.4485 15.2267C73.3103 14.2363 74.5507 13.6786 75.1997 14.4395L78.1789 17.9321C78.4674 18.2702 78.9444 18.3774 79.3498 18.1952L83.3361 16.4032C84.1956 16.0168 85.0636 16.9251 84.6386 17.7663L82.4831 22.0325C82.3013 22.3921 82.3533 22.8258 82.6148 23.1324L85.8004 26.867C86.4363 27.6125 85.7319 28.7329 84.7844 28.4828L80.6608 27.3946C80.2044 27.2742 79.7259 27.4893 79.5131 27.9106L77.5897 31.7171C77.1478 32.5917 75.8423 32.3748 75.7068 31.4044L75.0282 26.5428C74.9724 26.1437 74.6826 25.817 74.2929 25.7142L69.6713 24.4946C68.7601 24.2541 68.6569 23.002 69.5165 22.6156L73.5028 20.8236C73.9082 20.6414 74.1446 20.2135 74.0832 19.7733L73.4485 15.2267Z" fill="#F3BD27"/>
<defs>
<clipPath id="clip0_1196_5684">
<rect width="40" height="40" fill="white" transform="translate(33 29)"/>
</clipPath>
</defs>
</svg>
