<svg width="88" height="65" viewBox="0 0 88 65" fill="none" xmlns="http://www.w3.org/2000/svg">
<g id="Layer_1" clip-path="url(#clip0_187_15061)">
<g id="Group">
<g id="Group_2">
<path id="Vector" d="M9.84035 25.04C5.17035 27.97 6.11035 23.52 3.96035 20.1C1.81035 16.68 -2.59965 15.59 2.07035 12.66C6.75035 9.72997 12.2704 10.12 14.4204 13.54C16.5704 16.96 14.5204 22.11 9.84035 25.04Z" fill="#471302"/>
<path id="Vector_2" d="M7.0502 20.6C2.3802 23.53 4.5602 21.07 3.9502 20.1C3.3402 19.13 0.170197 20.03 4.8402 17.1C9.5102 14.17 13.8002 12.57 14.4002 13.54C15.0102 14.51 11.7102 17.67 7.0402 20.6H7.0502Z" fill="#A82A00"/>
<g id="Group_3">
<path id="Vector_3" d="M14.4108 13.54C15.6408 15.5 12.6108 19.61 7.65082 22.72C6.61082 23.37 5.87082 23.74 5.34082 23.9C5.81082 25.09 6.60082 25.54 9.15082 23.94C13.8208 21.01 16.1808 16.35 14.4208 13.54H14.4108Z" fill="#A82A00"/>
<path id="Vector_4" d="M2.76057 13.77C0.220571 15.37 0.280571 16.27 1.14057 17.22C1.51057 16.81 2.16057 16.3 3.20057 15.65C8.16057 12.53 13.1806 11.59 14.4106 13.55C12.6506 10.74 7.43057 10.84 2.75057 13.77H2.76057Z" fill="#A82A00"/>
</g>
</g>
<path id="Vector_5" d="M50.8707 29.65C59.3707 35.63 71.2307 41.53 74.0407 34.68C76.8507 27.82 74.3307 11.6 61.0407 4.81999C29.8707 -11.09 6.51074 17.49 6.51074 17.49C6.51074 17.49 29.6507 14.72 50.8707 29.65Z" fill="#FF6A38"/>
<path id="Vector_6" d="M50.8707 29.65C52.9807 31.13 55.2907 32.61 57.6207 33.89C55.8007 27.82 51.7907 21.62 44.7907 18.05C30.2907 10.65 17.4807 12.88 7.93066 17.38C13.2507 17.06 32.7607 16.91 50.8707 29.66V29.65Z" fill="#FF8961"/>
<g id="Group_4">
<path id="Vector_7" d="M38.3306 8.54C40.5406 8.41 42.2606 6.98 42.1606 5.34C42.0606 3.7 40.1906 2.47 37.9806 2.6C35.7706 2.73 34.0506 4.16 34.1506 5.8C34.2506 7.44 36.1106 8.67 38.3306 8.54Z" fill="#C43100"/>
<path id="Vector_8" d="M39.2601 8.00002C41.1401 7.89002 42.6101 6.69002 42.5301 5.32002C42.4501 3.95002 40.8601 2.93002 38.9801 3.03002C37.1001 3.14002 35.6301 4.34002 35.7101 5.71002C35.7901 7.08002 37.3801 8.10002 39.2601 8.00002Z" fill="#FF6A38"/>
<path id="Vector_9" d="M39.4404 4.95003C39.9304 4.91003 40.3104 4.53003 40.2704 4.09003C40.2304 3.66003 39.8004 3.34003 39.3104 3.38003C38.8204 3.42003 38.4404 3.81003 38.4804 4.24003C38.5204 4.67003 38.9404 4.99003 39.4404 4.95003Z" fill="#FDDD85"/>
<path id="Vector_10" d="M37.591 5.30002C37.891 5.18002 38.051 4.87002 37.951 4.60002C37.851 4.33002 37.511 4.21002 37.211 4.33002C36.911 4.45002 36.741 4.76002 36.851 5.03002C36.961 5.30002 37.291 5.42002 37.591 5.30002Z" fill="#FDDD85"/>
</g>
<g id="Group_5">
<path id="Vector_11" d="M30.1007 9.07997C31.7207 8.98997 32.9707 7.93997 32.9007 6.73997C32.8307 5.53997 31.4707 4.64997 29.8507 4.73997C28.2307 4.82997 26.9807 5.87997 27.0507 7.07997C27.1207 8.27997 28.4907 9.16997 30.1007 9.07997Z" fill="#C43100"/>
<path id="Vector_12" d="M30.7811 8.67998C32.1611 8.59998 33.2211 7.72998 33.1711 6.71998C33.1111 5.71998 31.9511 4.96998 30.5711 5.04998C29.1911 5.12998 28.1211 6.00998 28.1811 7.00998C28.2411 8.00998 29.4011 8.75998 30.7811 8.67998Z" fill="#FF6A38"/>
<path id="Vector_13" d="M30.9208 6.45994C31.2808 6.42994 31.5508 6.14994 31.5308 5.82994C31.5108 5.50994 31.1908 5.27994 30.8308 5.30994C30.4708 5.33994 30.2008 5.61994 30.2208 5.93994C30.2408 6.25994 30.5608 6.48994 30.9208 6.45994Z" fill="#FDDD85"/>
<path id="Vector_14" d="M29.5609 6.70996C29.7809 6.61996 29.9009 6.39996 29.8309 6.19996C29.7509 5.99996 29.5109 5.91996 29.2909 5.99996C29.0709 6.08996 28.9509 6.30996 29.0209 6.50996C29.1009 6.70996 29.3409 6.78996 29.5609 6.70996Z" fill="#FDDD85"/>
</g>
<g id="Group_6">
<path id="Vector_15" d="M45.3707 9.35C48.2707 9.81999 50.9107 8.46 51.2607 6.29999C51.6107 4.14999 49.5407 2.01999 46.6307 1.54999C43.7207 1.07999 41.0907 2.43999 40.7407 4.59999C40.3907 6.75 42.4607 8.88 45.3707 9.35Z" fill="#C43100"/>
<path id="Vector_16" d="M46.7409 8.91001C49.2109 9.31001 51.4509 8.18001 51.7509 6.37001C52.0409 4.57001 50.2709 2.79001 47.8009 2.39001C45.3309 1.99001 43.0809 3.12001 42.7909 4.93001C42.5009 6.73001 44.2709 8.51001 46.7409 8.91001Z" fill="#FF6A38"/>
<path id="Vector_17" d="M47.8506 5.01997C48.5006 5.10997 49.0906 4.71997 49.1706 4.13997C49.2506 3.56997 48.7806 3.02997 48.1306 2.93997C47.4806 2.84997 46.8906 3.23997 46.8106 3.81997C46.7306 4.38997 47.2006 4.92997 47.8506 5.01997Z" fill="#FDDD85"/>
<path id="Vector_18" d="M45.3505 4.92997C45.7805 4.85997 46.0805 4.49997 46.0205 4.12997C45.9605 3.74997 45.5605 3.49997 45.1405 3.56997C44.7105 3.63997 44.4105 3.99997 44.4705 4.36997C44.5305 4.74997 44.9305 4.99997 45.3505 4.92997Z" fill="#FDDD85"/>
</g>
<g id="Group_7">
<path id="Vector_19" d="M43.4102 14.6C45.8602 14.99 48.0702 13.84 48.3602 12.02C48.6502 10.21 46.9002 8.42002 44.4502 8.03002C42.0002 7.64002 39.7902 8.80002 39.5002 10.61C39.2102 12.42 40.9602 14.21 43.4102 14.6Z" fill="#C43100"/>
<path id="Vector_20" d="M44.5597 14.24C46.6397 14.57 48.5297 13.61 48.7697 12.09C49.0097 10.57 47.5197 9.07004 45.4297 8.74004C43.3397 8.41004 41.4597 9.37004 41.2197 10.89C40.9797 12.41 42.4697 13.91 44.5597 14.24Z" fill="#FF6A38"/>
<path id="Vector_21" d="M45.5003 10.95C46.0503 11.03 46.5503 10.69 46.6103 10.21C46.6703 9.73004 46.2803 9.28004 45.7303 9.20004C45.1803 9.13004 44.6803 9.46004 44.6203 9.94004C44.5503 10.42 44.9503 10.87 45.4903 10.95H45.5003Z" fill="#FDDD85"/>
<path id="Vector_22" d="M43.3899 10.89C43.7499 10.83 43.9999 10.53 43.9499 10.21C43.8999 9.89003 43.5699 9.68003 43.2099 9.74003C42.8499 9.80003 42.5999 10.1 42.6499 10.42C42.6999 10.74 43.0299 10.95 43.3999 10.89H43.3899Z" fill="#FDDD85"/>
</g>
<g id="Group_8">
<path id="Vector_23" d="M61.66 27.98C64.26 29.05 67.23 27.8 68.3 25.2C69.36 22.6 68.12 19.62 65.52 18.56C62.92 17.49 59.95 18.74 58.88 21.34C57.81 23.94 59.06 26.91 61.66 27.98Z" fill="#471302"/>
<path id="Vector_24" d="M61.9198 27.34C64.1698 28.26 66.7298 27.18 67.6498 24.94C68.5698 22.69 67.4998 20.13 65.2498 19.21C62.9998 18.29 60.4398 19.36 59.5198 21.61C58.5998 23.86 59.6798 26.42 61.9198 27.34Z" fill="#FF8961"/>
<path id="Vector_25" d="M62.7797 25.2399C63.8597 25.6799 65.0997 25.1599 65.5497 24.0799C65.9897 22.9999 65.4797 21.7599 64.3897 21.3099C63.3097 20.8699 62.0697 21.3899 61.6197 22.4699C61.1797 23.5499 61.6897 24.7899 62.7797 25.2399Z" fill="#471302"/>
<path id="Vector_26" d="M66.0303 22.9C66.9803 23.29 67.9403 23.12 68.1903 22.52C68.4403 21.92 67.8603 21.12 66.9203 20.74C65.9703 20.35 65.0003 20.52 64.7603 21.12C64.5103 21.72 65.0903 22.52 66.0403 22.9H66.0303Z" fill="#FDDD85"/>
<path id="Vector_27" d="M63.0198 22.48C63.5498 22.69 64.0798 22.6 64.2198 22.27C64.3598 21.94 64.0398 21.5 63.5098 21.28C62.9798 21.06 62.4498 21.16 62.3098 21.49C62.1798 21.82 62.4898 22.26 63.0198 22.48Z" fill="#FDDD85"/>
</g>
<g id="Group_9">
<path id="Vector_28" d="M52.7303 10.05C55.4503 11.17 58.3303 10.43 59.1503 8.41999C59.9803 6.39999 58.4403 3.85999 55.7203 2.74999C53.0003 1.62999 50.1203 2.36999 49.2903 4.37999C48.4603 6.39999 50.0003 8.93999 52.7203 10.05H52.7303Z" fill="#C43100"/>
<path id="Vector_29" d="M54.1605 9.94001C56.4805 10.89 58.9205 10.29 59.6105 8.60001C60.3005 6.91001 58.9805 4.77001 56.6605 3.82001C54.3405 2.87001 51.9005 3.47001 51.2105 5.16001C50.5205 6.85001 51.8405 8.98001 54.1605 9.94001Z" fill="#FF6A38"/>
<path id="Vector_30" d="M56.1304 6.38998C56.7404 6.62998 57.4104 6.38998 57.6204 5.83998C57.8304 5.28998 57.5004 4.66998 56.8804 4.43998C56.2604 4.19998 55.6004 4.44998 55.3904 4.98998C55.1804 5.52998 55.5104 6.15998 56.1304 6.38998Z" fill="#FDDD85"/>
<path id="Vector_31" d="M53.7202 5.73999C54.1502 5.76999 54.5302 5.48999 54.5502 5.10999C54.5802 4.72999 54.2502 4.39999 53.8202 4.35999C53.3902 4.32999 53.0102 4.60999 52.9902 4.98999C52.9602 5.36999 53.2902 5.70999 53.7202 5.73999Z" fill="#FDDD85"/>
</g>
<g id="Group_10">
<path id="Vector_32" d="M49.0107 14.7C51.2607 15.74 53.7107 15.24 54.4807 13.58C55.2507 11.91 54.0607 9.71998 51.8107 8.66998C49.5607 7.61998 47.1107 8.12998 46.3407 9.78998C45.5607 11.45 46.7607 13.65 49.0007 14.7H49.0107Z" fill="#C43100"/>
<path id="Vector_33" d="M50.2212 14.67C52.1312 15.56 54.2112 15.15 54.8612 13.76C55.5112 12.37 54.4812 10.52 52.5712 9.63C50.6612 8.74 48.5812 9.15 47.9312 10.54C47.2812 11.93 48.3112 13.78 50.2212 14.67Z" fill="#FF6A38"/>
<path id="Vector_34" d="M52.0104 11.76C52.5204 11.98 53.0904 11.8 53.2804 11.35C53.4804 10.9 53.2204 10.36 52.7104 10.14C52.2004 9.91998 51.6304 10.1 51.4404 10.55C51.2504 11 51.5004 11.54 52.0104 11.76Z" fill="#FDDD85"/>
<path id="Vector_35" d="M50.0111 11.12C50.3711 11.16 50.7011 10.94 50.7411 10.62C50.7811 10.3 50.5111 10.01 50.1511 9.96001C49.7911 9.92001 49.4611 10.14 49.4211 10.46C49.3811 10.78 49.6411 11.07 50.0111 11.12Z" fill="#FDDD85"/>
</g>
<path id="Vector_36" d="M67.7102 13.73C70.1602 16.71 71.0202 20.06 71.7902 19.42C72.5602 18.79 71.2002 15.85 68.7502 12.88C66.3002 9.89997 63.6802 7.99997 62.9102 8.63997C62.1402 9.27997 65.2602 10.76 67.7102 13.74V13.73Z" fill="#FDDD85"/>
<path id="Vector_37" d="M71.9704 21.43C72.0704 21.9 72.3804 22.24 72.6604 22.18C72.9504 22.12 73.0904 21.69 73.0004 21.22C72.9004 20.75 72.5904 20.42 72.3104 20.47C72.0304 20.53 71.8804 20.96 71.9704 21.43Z" fill="#FDDD85"/>
<path id="Vector_38" d="M72.7902 24.06C72.8402 24.29 73.0102 24.44 73.1802 24.41C73.3502 24.37 73.4502 24.16 73.4002 23.94C73.3502 23.72 73.1802 23.56 73.0102 23.59C72.8402 23.63 72.7402 23.84 72.7902 24.06Z" fill="#FDDD85"/>
<g id="Group_11">
<path id="Vector_39" d="M37.6203 21.28C32.8403 18.52 36.4703 18.56 37.5703 16.66C38.6703 14.76 36.8103 11.63 41.6003 14.39C46.3803 17.15 49.3703 20.92 48.2703 22.83C47.1703 24.73 42.4103 24.04 37.6303 21.29L37.6203 21.28Z" fill="#471302"/>
<path id="Vector_40" d="M39.0408 18.81C34.2608 16.05 37.2508 17.2 37.5608 16.66C37.8708 16.12 35.3808 14.11 40.1608 16.86C44.9408 19.62 48.5608 22.29 48.2508 22.82C47.9408 23.36 43.8108 21.56 39.0307 18.81H39.0408Z" fill="#A82A00"/>
<g id="Group_12">
<path id="Vector_41" d="M48.2606 22.82C47.6306 23.91 43.0106 22.42 37.9306 19.49C36.8706 18.88 36.1806 18.43 35.7606 18.09C35.2206 18.57 35.3706 19.16 37.9706 20.66C42.7506 23.42 47.3606 24.38 48.2606 22.82Z" fill="#A82A00"/>
<path id="Vector_42" d="M41.2402 15C38.6402 13.5 38.0502 13.66 37.9102 14.37C38.4102 14.56 39.1502 14.93 40.2102 15.55C45.2902 18.48 48.9002 21.73 48.2702 22.82C49.1702 21.26 46.0302 17.75 41.2502 15H41.2402Z" fill="#A82A00"/>
</g>
<path id="Vector_43" d="M47.0701 24.89C49.7701 26.44 52.4901 26.78 53.1501 25.64C53.8101 24.5 52.1501 22.31 49.4601 20.76C46.7601 19.21 44.0401 18.87 43.3801 20.01C42.7201 21.15 44.3801 23.34 47.0701 24.89Z" fill="#C43100"/>
<path id="Vector_44" d="M48.19 25.53C50.27 26.73 52.49 26.78 53.15 25.64C53.81 24.5 52.65 22.6 50.57 21.4C48.49 20.2 46.27 20.15 45.61 21.29C44.95 22.43 46.1 24.33 48.19 25.53Z" fill="#FF6A38"/>
</g>
<path id="Vector_45" d="M52.9199 31.04C60.5299 36.05 69.8599 40.28 73.2999 35.95C68.9499 36.92 63.0499 34.9 58.2299 30.35C53.1699 25.58 50.8199 19.46 51.8899 14.99C51.6499 15.18 51.4299 15.38 51.2099 15.6C47.9199 19.09 48.7999 25.45 52.9099 31.03L52.9199 31.04Z" fill="#C43100"/>
</g>
<g id="Group_13">
<g id="Group_14">
<path id="Vector_46" d="M77.6395 39.52C82.3095 36.59 81.3695 41.04 83.5195 44.46C85.6695 47.88 90.0795 48.97 85.4095 51.9C80.7395 54.83 75.2095 54.44 73.0595 51.02C70.9195 47.6 72.9595 42.45 77.6395 39.52Z" fill="#471302"/>
<path id="Vector_47" d="M80.4295 43.96C85.1095 41.03 82.9195 43.49 83.5295 44.46C84.1395 45.43 87.3095 44.53 82.6395 47.46C77.9695 50.39 73.6795 51.99 73.0795 51.02C72.4695 50.05 75.7695 46.89 80.4395 43.96H80.4295Z" fill="#A82A00"/>
<g id="Group_15">
<path id="Vector_48" d="M73.0692 51.02C71.8392 49.06 74.8692 44.95 79.8392 41.84C80.8792 41.19 81.6192 40.82 82.1492 40.67C81.6792 39.48 80.8892 39.03 78.3392 40.63C73.6692 43.56 71.3092 48.22 73.0692 51.03V51.02Z" fill="#A82A00"/>
<path id="Vector_49" d="M84.7193 50.8C87.2693 49.2 87.1993 48.3 86.3393 47.35C85.9693 47.76 85.3193 48.27 84.2793 48.92C79.3193 52.04 74.2993 52.98 73.0693 51.02C74.8293 53.83 80.0493 53.73 84.7293 50.8H84.7193Z" fill="#A82A00"/>
</g>
</g>
<path id="Vector_50" d="M36.6095 34.91C28.1095 28.93 16.2495 23.03 13.4395 29.88C10.6295 36.74 13.1495 52.96 26.4395 59.74C57.6095 75.64 80.9795 47.07 80.9795 47.07C80.9795 47.07 57.8395 49.84 36.6195 34.91H36.6095Z" fill="#FF6A38"/>
<path id="Vector_51" d="M36.6094 34.91C34.4994 33.43 32.1894 31.95 29.8594 30.67C31.6794 36.74 35.6894 42.94 42.6894 46.51C57.1894 53.91 69.9894 51.68 79.5494 47.19C74.2294 47.51 54.7194 47.66 36.6094 34.91Z" fill="#FF8961"/>
<g id="Group_16">
<path id="Vector_52" d="M49.1496 56.02C46.9396 56.15 45.2196 57.58 45.3196 59.22C45.4096 60.86 47.2796 62.09 49.4996 61.96C51.7196 61.83 53.4296 60.4 53.3296 58.76C53.2396 57.12 51.3696 55.89 49.1496 56.02Z" fill="#C43100"/>
<path id="Vector_53" d="M48.2194 56.56C46.3394 56.67 44.8694 57.87 44.9494 59.24C45.0294 60.61 46.6194 61.63 48.5094 61.53C50.3894 61.42 51.8594 60.22 51.7794 58.85C51.6994 57.48 50.1094 56.46 48.2194 56.56Z" fill="#FF6A38"/>
<path id="Vector_54" d="M48.0292 59.61C47.5392 59.65 47.1592 60.03 47.1992 60.47C47.2392 60.9 47.6692 61.22 48.1592 61.18C48.6492 61.14 49.0292 60.75 48.9892 60.32C48.9492 59.89 48.5192 59.57 48.0292 59.61Z" fill="#FDDD85"/>
<path id="Vector_55" d="M49.8898 59.27C49.5798 59.39 49.4198 59.7 49.5298 59.97C49.6398 60.24 49.9698 60.36 50.2698 60.24C50.5698 60.12 50.7398 59.81 50.6298 59.54C50.5298 59.27 50.1898 59.15 49.8898 59.27Z" fill="#FDDD85"/>
</g>
<g id="Group_17">
<path id="Vector_56" d="M57.379 55.48C55.759 55.58 54.509 56.62 54.579 57.82C54.649 59.02 56.009 59.91 57.629 59.82C59.249 59.72 60.499 58.68 60.429 57.48C60.359 56.28 58.989 55.39 57.379 55.48Z" fill="#C43100"/>
<path id="Vector_57" d="M56.6993 55.88C55.3193 55.96 54.2593 56.84 54.3093 57.84C54.3693 58.84 55.5293 59.59 56.9093 59.51C58.2893 59.43 59.3593 58.55 59.2993 57.55C59.2393 56.55 58.0793 55.8 56.6993 55.88Z" fill="#FF6A38"/>
<path id="Vector_58" d="M56.5593 58.1C56.1993 58.13 55.9293 58.41 55.9493 58.73C55.9793 59.05 56.2893 59.28 56.6493 59.25C57.0093 59.22 57.2793 58.94 57.2593 58.62C57.2293 58.3 56.9193 58.07 56.5593 58.1Z" fill="#FDDD85"/>
<path id="Vector_59" d="M57.9188 57.85C57.6988 57.94 57.5789 58.17 57.6489 58.36C57.7289 58.56 57.9688 58.64 58.1888 58.56C58.4088 58.47 58.5288 58.25 58.4588 58.05C58.3788 57.85 58.1388 57.77 57.9188 57.85Z" fill="#FDDD85"/>
</g>
<g id="Group_18">
<path id="Vector_60" d="M42.1092 55.21C39.2092 54.74 36.5692 56.1 36.2192 58.26C35.8692 60.41 37.9392 62.54 40.8492 63.01C43.7492 63.48 46.3892 62.12 46.7392 59.96C47.0892 57.81 45.0192 55.68 42.1092 55.21Z" fill="#C43100"/>
<path id="Vector_61" d="M40.7394 55.65C38.2694 55.25 36.0294 56.38 35.7294 58.19C35.4394 59.99 37.2094 61.77 39.6794 62.17C42.1494 62.57 44.3894 61.44 44.6894 59.63C44.9794 57.83 43.2094 56.05 40.7394 55.65Z" fill="#FF6A38"/>
<path id="Vector_62" d="M39.6298 59.5399C38.9798 59.4499 38.3898 59.8399 38.3098 60.4199C38.2298 60.9899 38.6898 61.5299 39.3498 61.6199C39.9998 61.7099 40.5898 61.3199 40.6698 60.7499C40.7498 60.1799 40.2898 59.6399 39.6298 59.5499V59.5399Z" fill="#FDDD85"/>
<path id="Vector_63" d="M42.119 59.63C41.689 59.7 41.389 60.06 41.449 60.43C41.509 60.81 41.909 61.06 42.329 60.99C42.759 60.92 43.059 60.56 42.999 60.19C42.939 59.81 42.549 59.56 42.119 59.63Z" fill="#FDDD85"/>
</g>
<g id="Group_19">
<path id="Vector_64" d="M44.0703 49.96C41.6203 49.57 39.4103 50.72 39.1203 52.54C38.8303 54.35 40.5803 56.14 43.0303 56.53C45.4803 56.92 47.6903 55.76 47.9803 53.95C48.2703 52.14 46.5203 50.35 44.0703 49.96Z" fill="#C43100"/>
<path id="Vector_65" d="M42.9199 50.32C40.8399 49.99 38.9499 50.95 38.7099 52.47C38.4699 53.99 39.9599 55.49 42.0499 55.82C44.1399 56.15 46.0199 55.19 46.2599 53.67C46.4999 52.15 45.0099 50.65 42.9199 50.32Z" fill="#FF6A38"/>
<path id="Vector_66" d="M41.9903 53.6C41.4403 53.53 40.9403 53.86 40.8703 54.34C40.8103 54.82 41.2003 55.27 41.7503 55.35C42.3003 55.42 42.8003 55.09 42.8603 54.61C42.9203 54.13 42.5303 53.67 41.9903 53.6Z" fill="#FDDD85"/>
<path id="Vector_67" d="M44.0898 53.68C43.7298 53.74 43.4798 54.04 43.5298 54.36C43.5798 54.68 43.9098 54.89 44.2798 54.83C44.6398 54.77 44.8898 54.47 44.8398 54.15C44.7898 53.83 44.4598 53.62 44.0898 53.68Z" fill="#FDDD85"/>
</g>
<g id="Group_20">
<path id="Vector_68" d="M21.9598 46C24.5598 47.06 27.5398 45.82 28.5998 43.22C29.6598 40.62 28.4198 37.65 25.8198 36.58C23.2198 35.51 20.2498 36.76 19.1798 39.36C18.1098 41.96 19.3598 44.94 21.9598 46Z" fill="#471302"/>
<path id="Vector_69" d="M22.2295 45.36C24.4795 46.28 27.0395 45.2 27.9695 42.96C28.8895 40.71 27.8095 38.15 25.5695 37.23C23.3195 36.31 20.7595 37.38 19.8395 39.63C18.9195 41.88 19.9895 44.44 22.2395 45.36H22.2295Z" fill="#FF8961"/>
<path id="Vector_70" d="M23.0899 43.25C24.1699 43.7 25.4099 43.17 25.8599 42.09C26.3099 41.01 25.7899 39.77 24.6999 39.32C23.6199 38.88 22.3799 39.39 21.9299 40.48C21.4899 41.56 22.0099 42.8 23.0899 43.25Z" fill="#471302"/>
<path id="Vector_71" d="M26.3401 40.91C27.2901 41.3 28.2601 41.13 28.5001 40.53C28.7401 39.93 28.1701 39.14 27.2201 38.75C26.2701 38.36 25.3001 38.53 25.0601 39.13C24.8101 39.73 25.3901 40.52 26.3301 40.91H26.3401Z" fill="#FDDD85"/>
<path id="Vector_72" d="M23.3294 40.5C23.8594 40.71 24.3894 40.62 24.5294 40.29C24.6694 39.96 24.3494 39.51 23.8194 39.3C23.2894 39.08 22.7594 39.18 22.6194 39.51C22.4894 39.84 22.7994 40.28 23.3294 40.5Z" fill="#FDDD85"/>
</g>
<g id="Group_21">
<path id="Vector_73" d="M34.7496 54.52C32.0296 53.4 29.1496 54.14 28.3196 56.15C27.4896 58.17 29.0296 60.71 31.7496 61.82C34.4696 62.94 37.3496 62.2 38.1796 60.19C39.0096 58.17 37.4696 55.63 34.7496 54.52Z" fill="#C43100"/>
<path id="Vector_74" d="M33.3196 54.63C30.9996 53.68 28.5596 54.28 27.8696 55.97C27.1796 57.66 28.4996 59.8 30.8196 60.75C33.1396 61.7 35.5796 61.1 36.2696 59.41C36.9596 57.72 35.6396 55.59 33.3196 54.63Z" fill="#FF6A38"/>
<path id="Vector_75" d="M31.3501 58.17C30.7401 57.93 30.0701 58.17 29.8601 58.72C29.6501 59.26 29.9801 59.89 30.6001 60.12C31.2101 60.35 31.8801 60.11 32.0901 59.57C32.3001 59.03 31.9701 58.4 31.3501 58.17Z" fill="#FDDD85"/>
<path id="Vector_76" d="M33.7596 58.82C33.3296 58.79 32.9496 59.07 32.9296 59.45C32.8996 59.83 33.2296 60.17 33.6596 60.2C34.0896 60.23 34.4696 59.95 34.4896 59.57C34.5196 59.19 34.1896 58.86 33.7596 58.82Z" fill="#FDDD85"/>
</g>
<g id="Group_22">
<path id="Vector_77" d="M38.4698 49.86C36.2198 48.82 33.7698 49.32 32.9998 50.98C32.2298 52.65 33.4198 54.84 35.6698 55.89C37.9198 56.93 40.3598 56.43 41.1398 54.77C41.9198 53.11 40.7198 50.91 38.4798 49.86H38.4698Z" fill="#C43100"/>
<path id="Vector_78" d="M37.2597 49.9C35.3497 49.01 33.2697 49.42 32.6197 50.81C31.9697 52.2 32.9997 54.05 34.9097 54.94C36.8197 55.83 38.8997 55.42 39.5497 54.03C40.1997 52.64 39.1697 50.79 37.2597 49.9Z" fill="#FF6A38"/>
<path id="Vector_79" d="M35.4695 52.8C34.9595 52.58 34.3895 52.76 34.1995 53.21C33.9995 53.66 34.2595 54.2 34.7595 54.42C35.2695 54.64 35.8395 54.46 36.0295 54.02C36.2295 53.57 35.9695 53.03 35.4695 52.81V52.8Z" fill="#FDDD85"/>
<path id="Vector_80" d="M37.4693 53.44C37.1093 53.4 36.7793 53.62 36.7393 53.94C36.6993 54.26 36.9693 54.55 37.3293 54.6C37.6893 54.64 38.0193 54.42 38.0593 54.1C38.0993 53.78 37.8293 53.49 37.4693 53.44Z" fill="#FDDD85"/>
</g>
<path id="Vector_81" d="M19.77 50.83C17.32 47.85 16.46 44.5 15.69 45.14C14.92 45.77 16.28 48.71 18.73 51.68C21.18 54.66 23.8 56.56 24.57 55.92C25.34 55.28 22.22 53.8 19.77 50.82V50.83Z" fill="#FDDD85"/>
<path id="Vector_82" d="M15.5092 43.13C15.4092 42.66 15.0992 42.32 14.8192 42.38C14.5292 42.44 14.3892 42.87 14.4792 43.34C14.5792 43.81 14.8892 44.14 15.1692 44.09C15.4492 44.03 15.5992 43.6 15.5092 43.13Z" fill="#FDDD85"/>
<path id="Vector_83" d="M14.6893 40.5C14.6393 40.27 14.4693 40.12 14.2993 40.15C14.1293 40.19 14.0293 40.4 14.0793 40.62C14.1293 40.85 14.2993 41 14.4693 40.97C14.6393 40.93 14.7393 40.72 14.6893 40.5Z" fill="#FDDD85"/>
<g id="Group_23">
<path id="Vector_84" d="M49.8593 43.28C54.6393 46.04 51.0093 46 49.9093 47.9C48.8093 49.8 50.6593 52.93 45.8793 50.17C41.0993 47.41 38.1093 43.64 39.2093 41.73C40.3093 39.83 45.0693 40.52 49.8493 43.28H49.8593Z" fill="#471302"/>
<path id="Vector_85" d="M48.4297 45.75C53.2097 48.51 50.2197 47.36 49.9097 47.9C49.5997 48.44 52.0897 50.45 47.3097 47.7C42.5297 44.94 38.9097 42.27 39.2197 41.73C39.5297 41.19 43.6597 42.99 48.4397 45.75H48.4297Z" fill="#A82A00"/>
<g id="Group_24">
<path id="Vector_86" d="M39.2197 41.74C39.8497 40.65 44.4697 42.14 49.5497 45.07C50.6197 45.68 51.2997 46.13 51.7297 46.47C52.2697 45.99 52.1197 45.4 49.5197 43.9C44.7397 41.14 40.1297 40.18 39.2297 41.74H39.2197Z" fill="#A82A00"/>
<path id="Vector_87" d="M46.2393 49.56C48.8393 51.06 49.4293 50.9 49.5793 50.19C49.0793 49.99 48.3393 49.62 47.2793 49.01C42.1993 46.08 38.5893 42.83 39.2193 41.74C38.3193 43.31 41.4593 46.81 46.2393 49.56Z" fill="#A82A00"/>
</g>
<path id="Vector_88" d="M40.4099 39.6699C37.7099 38.1199 34.9899 37.7799 34.3299 38.9199C33.6699 40.0599 35.3199 42.2499 38.0199 43.7999C40.7199 45.3499 43.4399 45.6899 44.0999 44.5499C44.7599 43.4099 43.0999 41.2199 40.4099 39.6699Z" fill="#C43100"/>
<path id="Vector_89" d="M39.2897 39.03C37.2097 37.83 34.9897 37.78 34.3297 38.92C33.6697 40.06 34.8197 41.96 36.9097 43.16C38.9897 44.36 41.2097 44.41 41.8697 43.27C42.5297 42.13 41.3697 40.23 39.2897 39.03Z" fill="#FF6A38"/>
</g>
<path id="Vector_90" d="M34.5597 33.52C26.9497 28.51 17.6197 24.28 14.1797 28.61C18.5197 27.64 24.4197 29.66 29.2397 34.21C34.2997 38.98 36.6497 45.1 35.5797 49.57C35.8097 49.38 36.0397 49.18 36.2597 48.96C39.5497 45.47 38.6797 39.1 34.5597 33.53V33.52Z" fill="#C43100"/>
</g>
</g>
<defs>
<clipPath id="clip0_187_15061">
<rect width="87.48" height="64.56" fill="white"/>
</clipPath>
</defs>
</svg>
