<svg width="72" height="75" viewBox="0 0 72 75" fill="none" xmlns="http://www.w3.org/2000/svg">
<g clip-path="url(#clip0_1678_7461)">
<path d="M69.4785 23.4569C68.5443 21.1337 67.0102 19.0953 65.4684 17.0793C65.9848 17.439 66.4861 17.8063 66.9646 18.2334C67.5418 18.743 68.757 18.2559 68.4076 17.4091C65.4912 10.2971 57.1595 1.70868 48.6532 2.16583C48.8051 1.67121 48.4481 1.05668 47.8329 1.0417C44.9393 0.966754 42.5165 1.98597 40.2684 3.49231C40.7621 2.66794 41.3165 1.87355 41.8937 1.07167C42.2355 0.599537 41.6962 0.134896 41.2254 0.217332C41.2178 0.157379 41.2102 0.0974248 41.2102 0.0224827C41.2102 -0.00749422 41.1646 -0.00749422 41.1646 0.0224827C41.1646 0.0974248 41.1798 0.164873 41.195 0.224827C41.157 0.232321 41.119 0.239815 41.081 0.254803C39.0684 1.23655 37.3747 2.63796 36 4.30168C34.6254 2.63796 32.9317 1.23655 30.919 0.254803C30.881 0.239815 30.8431 0.232321 30.8051 0.224827C30.8203 0.157379 30.8355 0.0974248 30.8355 0.0224827C30.8355 -0.00749422 30.7899 -0.00749422 30.7899 0.0224827C30.7899 0.0974248 30.7899 0.157379 30.7747 0.217332C30.3038 0.127402 29.7646 0.599537 30.1064 1.07167C30.6836 1.87355 31.238 2.66794 31.7317 3.49231C29.4836 1.98597 27.0608 0.974248 24.1671 1.0417C23.5519 1.05668 23.195 1.67121 23.3469 2.16583C14.8405 1.70868 6.5013 10.2971 3.59244 17.4091C3.24307 18.2634 4.45067 18.7505 5.03548 18.2334C5.51396 17.8063 6.02282 17.439 6.53168 17.0793C4.98991 19.0953 3.46333 21.1337 2.52156 23.4569C0.660796 28.0733 0.0683908 33.1244 3.63481e-05 38.0556C-0.00755859 38.7976 1.17725 39.2172 1.50383 38.4603C2.6051 35.9123 3.97978 32.7347 6.22788 30.8012C2.81016 38.6252 4.59497 46.9962 9.37978 54.2207C9.78991 54.8427 11.0583 54.6853 10.9443 53.801C10.8228 52.8717 10.7924 51.9574 10.8 51.0431C11.3545 52.9916 12.0912 54.8802 13.3975 56.439C16.6405 60.3285 20.3924 62.8015 22.6785 67.5154C23.0507 68.2798 24.2051 67.8676 24.2203 67.1032C24.2583 64.4503 24.3418 61.8198 24.2051 59.1818C25.6557 61.2877 27.9266 64.4878 28.0026 64.6226C28.3443 65.1622 29.1038 65.2147 29.5595 64.8924C30.3798 66.6611 31.0633 68.4972 32.0659 70.1983C32.6431 71.1801 33.9266 70.4681 33.7899 69.4789C33.638 68.3997 32.6659 65.2297 33.038 63.4835C33.5393 66.6536 34.1545 69.7937 34.9595 72.8963C34.9519 73.1511 34.9443 73.4059 34.9367 73.6607C34.9064 74.2827 35.4684 74.59 35.9848 74.53C36.5013 74.59 37.0633 74.2827 37.0329 73.6607C37.0178 73.4059 37.0178 73.1511 37.0102 72.8963C37.8152 69.7862 38.4304 66.6461 38.9317 63.4835C39.3038 65.2372 38.3317 68.4072 38.1798 69.4789C38.0431 70.4606 39.3266 71.1801 39.9038 70.1983C40.9064 68.4972 41.5899 66.6611 42.4102 64.8924C42.8659 65.2147 43.6254 65.1622 43.9671 64.6226C44.0507 64.4952 46.314 61.2877 47.7646 59.1818C47.6279 61.8198 47.719 64.4503 47.7494 67.1032C47.757 67.8676 48.919 68.2723 49.2912 67.5154C51.5772 62.8015 55.3291 60.3285 58.5722 56.439C59.8785 54.8727 60.6152 52.9916 61.1697 51.0431C61.1697 51.9574 61.1393 52.8717 61.0253 53.801C60.9114 54.6853 62.1798 54.8427 62.5899 54.2207C67.3747 47.0037 69.1595 38.6327 65.7418 30.8012C67.9899 32.7347 69.3722 35.9123 70.4659 38.4603C70.7924 39.2172 71.9772 38.7976 71.9697 38.0556C71.9013 33.1244 71.3089 28.0733 69.4557 23.4569H69.4785Z" fill="#FDC11C"/>
<path d="M58.5642 18.9079C57.3415 17.9562 55.7997 16.4423 53.4377 15.7154C54.8883 15.4756 56.3769 15.4456 58.0706 16.0002C58.906 16.2774 59.5288 15.3257 59.149 14.6662C57.5161 11.8259 54.0528 10.4919 50.7415 10.6343C49.0022 10.7092 46.6934 10.9116 45.182 11.9458C45.2123 11.7584 45.2427 11.5786 45.2883 11.4062C45.6832 9.92235 46.5339 8.47597 48.0453 7.83146C48.8427 7.49422 48.4478 6.20522 47.5971 6.27267C45.3339 6.43754 43.4655 7.28439 41.787 8.72328C40.8832 9.50268 39.9491 10.6268 39.3187 11.8259C39.4934 10.1097 39.7896 8.44599 40.4351 6.75979C40.663 6.15276 39.8731 5.67313 39.3415 5.9654C37.8604 6.77478 37.1161 8.31109 36.501 9.75748C36.3718 10.0647 36.1744 10.4844 35.9921 10.9491C35.8022 10.4919 35.6123 10.0722 35.4832 9.75748C34.868 8.31859 34.1313 6.77478 32.6427 5.9654C32.1111 5.67313 31.3212 6.16025 31.5566 6.75979C32.2022 8.44599 32.4984 10.1097 32.6731 11.8259C32.0427 10.6268 31.1085 9.50268 30.2047 8.72328C28.5263 7.28439 26.6655 6.43754 24.3946 6.27267C23.544 6.21271 23.149 7.49422 23.9465 7.83146C25.4579 8.47597 26.3085 9.92235 26.7035 11.4062C26.749 11.5786 26.7794 11.7584 26.8098 11.9458C25.2984 10.9116 22.9896 10.7092 21.2503 10.6343C17.9313 10.4919 14.468 11.8259 12.8427 14.6662C12.4706 15.3182 13.0934 16.2774 13.9212 16.0002C15.6149 15.4381 17.1035 15.4681 18.5541 15.7154C16.1921 16.4423 14.6503 17.9562 13.4275 18.9079C9.2731 22.1454 8.30854 28.4705 9.45538 33.3418C9.65285 34.1961 11.0503 34.1886 11.2554 33.3418C11.9465 30.464 12.744 27.8036 15.5009 26.4771C15.6832 26.3872 15.8579 26.3272 16.0402 26.2597C10.1085 32.5549 11.0807 40.9034 11.2706 49.0272C11.2934 49.8366 12.5617 50.2787 12.9718 49.4618C13.9668 47.4909 15.8123 45.6023 17.5592 43.9011C16.5263 47.4984 16.5718 51.905 16.4959 54.5504C16.4807 55.0525 16.9364 55.4123 17.4301 55.4422C19.2301 55.5397 21.3566 51.7251 22.5187 50.616L22.5718 50.5635C20.8934 54.1307 20.6047 56.8961 21.0756 60.5083C21.1668 61.1978 22.0478 61.7599 22.6478 61.1303C24.5617 59.1219 26.2478 58.6273 28.2149 56.6638C27.0832 59.7964 27.8579 61.0629 28.6554 64.0981C28.8604 64.8775 30.2503 64.9599 30.387 64.0981C30.8427 61.3252 31.5718 61.1303 32.582 58.4849C32.6123 58.4025 32.6579 58.3125 32.6883 58.2301C32.9313 58.8896 33.1668 59.5341 33.3566 60.1636C34.3896 63.4835 34.6326 62.6067 35.6579 65.8817C35.7035 66.0166 35.8554 66.069 35.9845 66.0316C36.1136 66.0615 36.2655 66.0166 36.3111 65.8817C37.3364 62.6067 37.5794 63.4835 38.6123 60.1636C38.8098 59.5341 39.0453 58.8821 39.2807 58.2301C39.3111 58.3125 39.3566 58.395 39.387 58.4849C40.4047 61.1303 41.1263 61.3252 41.582 64.0981C41.7263 64.9599 43.1161 64.8775 43.3136 64.0981C44.1187 61.0629 44.8858 59.8039 43.7541 56.6638C45.7212 58.6273 47.4073 59.1219 49.3212 61.1303C49.9212 61.7599 50.8098 61.1978 50.8934 60.5083C51.3566 56.8961 51.0756 54.1307 49.3972 50.5635L49.4503 50.616C50.6123 51.7251 52.7389 55.5397 54.5389 55.4422C55.0402 55.4123 55.4883 55.06 55.4731 54.5504C55.3972 51.905 55.4427 47.5059 54.4098 43.9011C56.1566 45.6023 58.0022 47.4909 58.9972 49.4618C59.4073 50.2712 60.6832 49.8366 60.6984 49.0272C60.8883 40.9034 61.868 32.5549 55.9288 26.2597C56.1035 26.3272 56.2782 26.3872 56.468 26.4771C59.225 27.8036 60.0225 30.464 60.7136 33.3418C60.9187 34.1886 62.3161 34.1961 62.5136 33.3418C63.6604 28.4705 62.7035 22.1529 58.5415 18.9079H58.5642Z" fill="#FDDD85"/>
<path d="M35.9998 62.1945C35.7264 61.6774 35.4606 61.1153 35.0201 59.6989C34.815 59.0395 34.5719 58.3725 34.3213 57.6905C34.0859 57.046 33.4555 56.6113 32.734 56.6038H32.7112C32.0049 56.6038 31.3669 57.016 31.1163 57.6455C31.0555 57.7804 31.0251 57.8479 31.0023 57.9153C30.6454 58.8446 30.3416 59.4291 30.0378 59.9912C29.8707 60.2985 29.7112 60.6057 29.5593 60.943C29.2707 59.7289 29.2631 58.7996 29.8403 57.1959C30.0985 56.4764 29.7947 55.6745 29.1112 55.2848C28.8378 55.1275 28.534 55.0525 28.2302 55.0525C27.7745 55.0525 27.3188 55.2249 26.9922 55.5546C26.1492 56.394 25.3517 56.9411 24.5163 57.5106C23.9087 57.9228 23.2935 58.35 22.6479 58.8821C22.458 56.0642 22.9061 53.8759 24.1517 51.238C24.4859 50.526 24.2428 49.6792 23.5593 49.237C23.2631 49.0422 22.9289 48.9522 22.5947 48.9522C22.1542 48.9522 21.7137 49.1096 21.3871 49.4244C20.8935 49.8965 20.4454 50.4885 19.9213 51.1705C19.5492 51.6576 18.858 52.5644 18.258 53.1865C18.3112 50.5935 18.4175 47.1686 19.2302 44.3358C19.4352 43.6238 19.1011 42.8669 18.4327 42.4997C18.1669 42.3573 17.8783 42.2824 17.5821 42.2824C17.134 42.2824 16.6859 42.4472 16.3593 42.7695C15.2049 43.8936 13.9593 45.1377 12.9264 46.4791C12.6833 39.2922 12.4631 32.5099 17.3314 27.3389C17.8631 26.7768 17.9163 25.9375 17.453 25.323C17.1264 24.8808 16.6023 24.641 16.0555 24.641C15.8352 24.641 15.615 24.6785 15.4023 24.7609L15.2884 24.8059C15.1061 24.8733 14.9314 24.9408 14.7416 25.0307C12.6454 26.0349 11.4682 27.6537 10.7314 29.3324C10.739 25.9075 11.8175 22.2728 14.5213 20.1594C14.7416 19.9871 14.9694 19.7997 15.2125 19.6049C16.2682 18.7355 17.4606 17.7538 19.0935 17.2517C19.8378 17.0194 20.3239 16.3374 20.2707 15.5955C20.2175 14.8535 19.6327 14.239 18.858 14.1116C18.0909 13.9842 17.3922 13.9243 16.7163 13.9243C16.3289 13.9243 15.9492 13.9467 15.577 13.9842C17.058 12.7327 19.1011 12.253 20.7795 12.253C20.9163 12.253 21.0454 12.253 21.1821 12.2605C22.1087 12.298 24.5618 12.4029 25.815 13.2648C26.1112 13.4671 26.4606 13.572 26.8175 13.572C27.1213 13.572 27.4327 13.4971 27.7061 13.3397C28.2909 13.0025 28.6099 12.3655 28.5112 11.721C28.4732 11.4811 28.4352 11.2488 28.3745 11.024C28.1542 10.1921 27.8352 9.44271 27.4327 8.79071C27.9871 9.09048 28.534 9.47268 29.0656 9.92983C29.8707 10.6268 30.653 11.6085 31.1542 12.5528C31.4504 13.1149 32.0504 13.4521 32.6808 13.4521C32.8403 13.4521 32.9998 13.4296 33.1517 13.3847C33.9416 13.1673 34.458 12.4479 34.3821 11.6685C34.3745 11.5711 34.3593 11.4736 34.3517 11.3837C34.3745 11.4287 34.3897 11.4811 34.4125 11.5261C34.6631 12.1481 35.3011 12.5678 36.0074 12.5678C36.7137 12.5678 37.3441 12.1556 37.6023 11.5336C37.6251 11.4811 37.6403 11.4362 37.6631 11.3837C37.6555 11.4811 37.6403 11.5711 37.6327 11.6685C37.5492 12.4479 38.0732 13.1673 38.8631 13.3847C39.0226 13.4296 39.1745 13.4521 39.334 13.4521C39.9644 13.4521 40.5644 13.1149 40.8606 12.5528C41.3618 11.601 42.1441 10.6268 42.9492 9.92983C43.4808 9.47268 44.0201 9.09797 44.5821 8.79071C44.1795 9.44271 43.8606 10.1921 43.6403 11.0165C43.5795 11.2488 43.534 11.4811 43.5036 11.7135C43.4049 12.358 43.7238 12.995 44.3087 13.3322C44.5821 13.4896 44.8859 13.5645 45.1973 13.5645C45.5466 13.5645 45.896 13.4596 46.1998 13.2573C47.4606 12.3954 49.9137 12.2905 50.8327 12.253C50.9694 12.253 51.0985 12.2455 51.2352 12.2455C52.9137 12.2455 54.9644 12.7252 56.4378 13.9767C56.058 13.9392 55.6783 13.9168 55.2985 13.9168C54.6226 13.9168 53.9238 13.9767 53.1568 14.1041C52.3821 14.2315 51.8049 14.846 51.7441 15.588C51.6909 16.3299 52.177 17.0119 52.9213 17.2442C54.5542 17.7463 55.7466 18.728 56.8023 19.5974C57.0454 19.7922 57.2732 19.9796 57.4935 20.1519C60.2049 22.2653 61.2758 25.9 61.2833 29.3249C60.5466 27.6387 59.3694 26.0274 57.2732 25.0232C57.0833 24.9333 56.9087 24.8658 56.7264 24.7984L56.6125 24.7534C56.3998 24.671 56.1795 24.6335 55.9669 24.6335C55.4276 24.6335 54.896 24.8808 54.5694 25.3155C54.1137 25.93 54.1593 26.7693 54.6909 27.3314C59.5669 32.5024 59.339 39.2847 59.1036 46.4716C58.0631 45.1302 56.8175 43.8861 55.6707 42.762C55.3365 42.4398 54.896 42.2749 54.4479 42.2749C54.1593 42.2749 53.8631 42.3423 53.5973 42.4922C52.9213 42.8594 52.5947 43.6163 52.7998 44.3283C53.6125 47.1611 53.7188 50.5785 53.772 53.179C53.172 52.5569 52.4808 51.6426 52.1087 51.163C51.5846 50.4736 51.1365 49.8815 50.7036 49.4693C50.3618 49.1471 49.9061 48.9747 49.4428 48.9747C49.1087 48.9747 48.7821 49.0646 48.4935 49.252C47.8099 49.6942 47.5365 50.511 47.8783 51.223C49.1238 53.8609 49.5719 56.0568 49.3821 58.8671C48.7365 58.335 48.1213 57.9078 47.5137 57.4956C46.6707 56.9186 45.8732 56.379 45.0378 55.5396C44.7036 55.2099 44.2555 55.0375 43.7998 55.0375C43.496 55.0375 43.1922 55.1125 42.9188 55.2699C42.2352 55.667 41.9314 56.4614 42.1897 57.1809C42.7669 58.7846 42.7593 59.7139 42.4707 60.928C42.3188 60.5908 42.1593 60.291 41.9922 59.9762C41.696 59.4142 41.3922 58.8371 41.0352 57.9153C41.0049 57.8404 40.9745 57.7729 40.9441 57.698C40.6859 57.0685 40.0403 56.6263 39.334 56.6263H39.3112C38.5897 56.6338 37.9441 57.0385 37.7087 57.683C37.458 58.365 37.215 59.0394 37.0099 59.6914C36.5694 61.1078 36.296 61.6699 36.0302 62.187L35.9998 62.1945Z" fill="#FDC11C"/>
<path d="M53.1492 21.321C53.0657 21.0213 41.6353 15.0259 36.0454 15.4006C36.0302 15.4006 36.015 15.4006 35.9999 15.4081C35.9847 15.4081 35.9695 15.4081 35.9543 15.4006C30.3644 15.0334 18.934 21.0213 18.8505 21.321C18.1138 24.1089 19.4125 26.1773 21.6606 27.8335C22.9214 28.7628 24.4328 29.7221 26.0049 30.0368C27.6075 30.3591 29.0961 29.6546 28.9669 32.1202C28.7695 35.9423 25.6404 40.2439 25.5796 44.1709C25.5264 47.8281 26.0809 53.9808 34.6707 52.452C35.1568 52.3696 35.6201 52.1672 35.9999 51.8675C36.3796 52.1672 36.8353 52.3696 37.329 52.452C45.9113 53.9808 46.4733 47.8281 46.4201 44.1709C46.3594 40.2439 43.2302 35.9423 43.0328 32.1202C42.9037 29.6546 44.3923 30.3591 45.9948 30.0368C47.5669 29.7221 49.0783 28.7553 50.3391 27.8335C52.5872 26.1773 53.8935 24.1089 53.1568 21.321H53.1492Z" fill="#FF6A38"/>
<path d="M45.4023 23.5244C42.258 22.3702 40.7922 18.6456 42.1441 15.2133C43.4884 11.7734 47.134 9.92984 50.2783 11.0839C53.4302 12.2381 54.8884 15.9627 53.5441 19.395C52.1998 22.8349 48.5542 24.6785 45.4023 23.5244Z" fill="#C43100"/>
<path d="M41.1114 19.0053C41.4607 17.3116 43.3595 15.573 44.5975 14.4788C46.0861 13.1748 48.0911 12.358 50.0734 12.6053C50.7645 12.6952 51.038 13.4446 50.962 14.0217C50.9392 14.1566 50.924 14.2915 50.9088 14.4264C50.7494 15.6929 48.9873 15.5205 48.6076 14.5313C47.2709 14.2165 45.7899 15.2432 44.7266 15.9327C43.3443 16.832 42.5848 18.0386 41.5063 19.2077C41.3468 19.3875 41.0658 19.2077 41.1114 18.9978V19.0053Z" fill="#A82A00"/>
<path d="M26.5978 23.5244C29.7421 22.3702 31.208 18.6456 29.8561 15.2133C28.5118 11.7734 24.8662 9.92984 21.7219 11.0839C18.5776 12.2381 17.1118 15.9627 18.4561 19.395C19.808 22.8349 23.4459 24.6785 26.5978 23.5244Z" fill="#C43100"/>
<path d="M30.8891 19.0053C30.5397 17.3116 28.641 15.573 27.403 14.4788C25.9144 13.1748 23.9093 12.358 21.9195 12.6053C21.2283 12.6952 20.9549 13.4446 21.0309 14.0217C21.046 14.1566 21.0612 14.2915 21.084 14.4264C21.2435 15.6929 23.0055 15.5205 23.3853 14.5313C24.722 14.2165 26.203 15.2432 27.2739 15.9327C28.6562 16.832 29.4157 18.0386 30.4941 19.2077C30.6536 19.3875 30.9346 19.2077 30.8891 18.9978V19.0053Z" fill="#A82A00"/>
<path d="M50.2783 21.7932C46.9517 19.0728 36.5694 15.8278 36.0758 15.8278C35.5821 15.8278 25.1998 19.0653 21.8732 21.7932C18.9112 24.2213 20.4454 27.9085 20.7416 31.0261C20.9163 32.8472 20.8099 34.953 21.7213 36.6167C22.8833 38.7451 24.1365 42.1849 24.972 44.4782C25.7087 46.4791 26.6732 48.0229 28.0099 49.6942C28.3745 50.1513 28.6707 50.6909 29.096 51.0281C29.9087 53.6211 30.0378 55.8769 32.8479 56.1467C32.9087 56.1467 39.2428 56.1467 39.3036 56.1467C42.1137 55.8769 42.2428 53.6211 43.0555 51.0281C43.4808 50.6909 43.777 50.1513 44.1416 49.6942C45.4783 48.0155 46.4428 46.4791 47.1795 44.4782C48.015 42.1849 49.2682 38.7451 50.4302 36.6167C51.3416 34.9605 51.2277 32.8472 51.4099 31.0261C51.7137 27.9085 53.2403 24.2213 50.2783 21.7932Z" fill="#C43100"/>
<path d="M28.5185 29.3399C27.7818 27.3164 26.0882 26.0724 24.7439 26.552C23.3996 27.0316 22.9059 29.0551 23.6426 31.0785C24.3793 33.102 26.073 34.346 27.4097 33.8739C28.754 33.3942 29.2477 31.3708 28.5109 29.3474L28.5185 29.3399Z" fill="#471302"/>
<path d="M25.1081 31.0186C24.8879 30.6514 24.5537 30.4415 24.3714 30.5539C24.1815 30.6664 24.2119 31.0486 24.4322 31.4158C24.6524 31.783 24.979 31.9928 25.1689 31.8804C25.3587 31.768 25.3284 31.3858 25.1081 31.0186Z" fill="#FDDD85"/>
<path d="M25.9054 32.3376C25.8295 32.2177 25.67 32.1802 25.5409 32.2551C25.4117 32.3301 25.3662 32.4874 25.4421 32.6074C25.5181 32.7273 25.6776 32.7647 25.8067 32.6898C25.9358 32.6148 25.9814 32.4575 25.9054 32.3376Z" fill="#FDDD85"/>
<path d="M48.5017 31.086C49.2536 29.0701 48.7751 27.0391 47.4308 26.552C46.0865 26.0649 44.3929 27.3089 43.641 29.3249C42.8891 31.3408 43.3675 33.3718 44.7118 33.8589C46.0561 34.346 47.7498 33.1095 48.5017 31.086Z" fill="#471302"/>
<path d="M44.492 31.3783C44.3705 30.9661 44.0971 30.6888 43.892 30.7488C43.6794 30.8087 43.611 31.1909 43.7401 31.6031C43.8616 32.0153 44.135 32.2926 44.3401 32.2326C44.5452 32.1727 44.6211 31.7905 44.492 31.3783Z" fill="#FDDD85"/>
<path d="M44.9393 32.8547C44.9013 32.7198 44.7494 32.6448 44.6051 32.6898C44.4608 32.7348 44.3848 32.8772 44.4228 33.0046C44.4608 33.1395 44.6127 33.2144 44.757 33.1694C44.9013 33.1245 44.9772 32.9821 44.9393 32.8472V32.8547Z" fill="#FDDD85"/>
<path d="M53.1492 21.321C53.0657 21.0213 41.6353 15.0259 36.0454 15.4006C36.0302 15.4006 36.015 15.4006 35.9999 15.4081C35.9847 15.4081 35.9695 15.4081 35.9543 15.4006C30.3644 15.0334 18.934 21.0213 18.8505 21.321C18.1138 24.1089 19.4125 26.1773 21.6606 27.8335C22.9214 28.7628 24.4328 29.7221 26.0049 30.0368C27.6075 30.3591 29.0961 29.6546 28.9669 32.1202C28.7695 35.9423 25.6404 40.2439 25.5796 44.1709C25.5264 47.8281 26.0809 53.9808 34.6707 52.452C35.1568 52.3696 35.6201 52.1672 35.9999 51.8675C36.3796 52.1672 36.8353 52.3696 37.329 52.452C45.9113 53.9808 46.4733 47.8281 46.4201 44.1709C46.3594 40.2439 43.2302 35.9423 43.0328 32.1202C42.9037 29.6546 44.3923 30.3591 45.9948 30.0368C47.5669 29.7221 49.0783 28.7553 50.3391 27.8335C52.5872 26.1773 53.8935 24.1089 53.1568 21.321H53.1492Z" fill="#FF6A38"/>
<path d="M29.5977 40.0266C29.5977 45.9695 29.5977 45.2726 36.0761 45.2651C42.5622 45.2651 42.5546 45.9695 42.5546 40.0266C42.5546 34.0837 39.6534 23.9515 36.0761 23.9515C32.4989 23.9515 29.5977 34.0837 29.5977 40.0266Z" fill="#FF8961"/>
<path d="M36.0764 52.0174C36.6992 52.7668 38.3853 53.5162 39.3195 53.4188C40.36 53.3064 41.6207 52.5719 42.7676 51.7101C42.8739 51.4778 42.9726 51.238 43.0486 50.9981C42.2131 51.5602 41.3321 52.0548 40.5878 52.1747C38.9093 52.4445 37.2916 52.1747 36.4562 50.7358C36.7372 50.526 36.8663 49.8515 36.9271 49.6642C37.2005 48.7873 39.0612 46.7939 39.2587 46.644C39.9422 46.1569 40.4435 45.4749 40.9828 44.8379C41.1422 44.6505 40.9296 44.3058 40.6941 44.4707C40.0638 44.9128 39.4334 45.4374 38.7195 45.7372C37.9979 46.0445 37.0562 45.9321 36.2891 46.0295C36.2055 46.037 36.1372 46.0595 36.0764 46.0894C36.0081 46.0595 35.9397 46.0445 35.8562 46.0295C35.0891 45.9246 34.1473 46.0445 33.4258 45.7372C32.7119 45.4374 32.0815 44.9053 31.4511 44.4707C31.2157 44.3058 31.003 44.6505 31.1625 44.8379C31.6941 45.4674 32.203 46.1494 32.8866 46.644C33.084 46.7864 34.9448 48.7799 35.2182 49.6642C35.279 49.8515 35.4081 50.5185 35.6891 50.7358C34.8536 52.1672 33.2359 52.4445 31.5574 52.1747C30.8131 52.0548 29.9397 51.5602 29.0967 50.9981C29.1726 51.238 29.2714 51.4778 29.3777 51.7101C30.5321 52.5719 31.7853 53.3064 32.8258 53.4188C33.76 53.5162 35.4385 52.7668 36.0688 52.0174H36.0764Z" fill="#A82A00"/>
<path d="M31.8306 46.659C31.8913 46.6965 33.3723 47.1012 33.4331 47.1237C34.3901 47.4309 37.7622 47.4309 38.7192 47.1237C38.7875 47.1012 40.2609 46.6965 40.3217 46.659C41.2331 46.1719 41.909 44.6056 42.623 43.9761C42.8356 43.7887 42.5546 43.444 42.2432 43.6089C41.4002 44.051 30.7521 44.051 29.909 43.6089C29.5977 43.444 29.3166 43.7887 29.5293 43.9761C30.2432 44.6056 30.9192 46.1719 31.8306 46.659Z" fill="#471302"/>
<path d="M53.1488 21.3212C53.126 21.2387 52.1918 20.6916 50.7412 19.9722C50.1791 20.0621 49.6095 20.182 49.0247 20.3244C43.6475 21.6884 39.85 24.9409 40.5412 27.5938C40.8753 28.8828 42.212 29.7821 44.1108 30.2243C44.6348 30.1344 45.3032 30.1793 45.9867 30.0444C47.5589 29.7297 49.0703 28.7629 50.331 27.8411C52.5791 26.1849 53.8855 24.1165 53.1488 21.3287V21.3212Z" fill="#FF8961"/>
<path d="M18.8505 21.3211C18.1138 24.1089 19.4125 26.1773 21.6606 27.8335C22.9214 28.7628 24.4328 29.7221 26.0049 30.0368C26.6885 30.1792 27.3568 30.1268 27.8809 30.2167C29.7796 29.782 31.1163 28.8752 31.4505 27.5862C32.1416 24.9333 28.3442 21.6808 22.9669 20.3168C22.3897 20.1669 21.8125 20.0545 21.2505 19.9646C19.7999 20.684 18.8733 21.2311 18.8505 21.3136V21.3211Z" fill="#FF8961"/>
</g>
<defs>
<clipPath id="clip0_1678_7461">
<rect width="72" height="74.53" fill="white"/>
</clipPath>
</defs>
</svg>
