<svg width="74" height="75" viewBox="0 0 74 75" fill="none" xmlns="http://www.w3.org/2000/svg">
<g clip-path="url(#clip0_187_14788)">
<path d="M68.0999 17.86C68.0999 17.86 69.6899 25.86 69.4999 27.68C69.3399 29.23 68.5199 31.04 68.0999 31.72C67.7799 32.25 72.3299 37.94 73.0699 38.93C73.8199 39.92 73.5899 40.82 72.2599 42.16C70.9299 43.5 70.0899 43.28 69.7199 44.22C69.3499 45.15 70.1099 45.46 70.2999 45.68C70.6299 46.05 70.4999 46.6 69.7199 46.95C70.4699 47.32 70.6099 47.95 70.2499 48.75C69.8899 49.55 69.0399 49.81 68.6699 50.86C68.2999 51.92 70.0399 53.72 69.0399 55.89C68.0399 58.07 64.4999 58.25 60.3999 56.57C59.0999 56.2 57.9799 58.25 57.5399 58.93C57.0999 59.61 55.1199 65.83 53.7499 69.62C52.3799 70.37 37.2099 72.72 31.4999 65.11C32.7099 60.6 35.0099 49.79 34.6599 46.69C34.2999 43.58 33.4899 41.29 32.1599 39.45C30.8299 37.61 21.9399 18.37 37.3199 9.91C52.6999 1.44 66.9099 12.3 68.1099 17.85L68.0999 17.86Z" fill="#FDC11C"/>
<path d="M68.1001 17.86C68.1001 17.86 69.6901 25.86 69.5001 27.68C69.3401 29.23 68.5201 31.04 68.1001 31.72C67.7801 32.25 72.3301 37.94 73.0701 38.93C73.8201 39.92 73.5901 40.82 72.2601 42.16C70.9301 43.5 70.0901 43.28 69.7201 44.22C69.3501 45.15 70.1101 45.46 70.3001 45.68C70.6301 46.05 70.5001 46.6 69.7201 46.95C70.4701 47.32 70.6101 47.95 70.2501 48.75C69.8901 49.55 69.0401 49.81 68.6701 50.86C68.3001 51.92 70.0401 53.72 69.0401 55.89C68.0401 58.07 64.5001 58.25 60.4001 56.57C59.1001 56.2 49.4501 51.83 48.4701 48.86C47.2301 45.13 33.4901 41.28 32.1501 39.45C30.8201 37.61 21.9301 18.37 37.3101 9.91C52.6901 1.44 66.9001 12.3 68.1001 17.85V17.86Z" fill="#FDDD85"/>
<path d="M67.7705 26.8C66.0505 25.26 63.6105 25.3 61.5905 26.33C59.5605 27.38 57.3305 28.4 55.9205 30.28C55.8605 30.36 55.9805 30.48 56.0605 30.42C58.4305 28.82 63.6105 25.54 66.0605 28.5C67.0505 29.7 68.9505 27.84 67.7705 26.79V26.8Z" fill="#FF6A38"/>
<path d="M59.6 32.76C60.63 32 63.65 31.45 64.21 31.45C64.77 31.45 65.24 32.01 65.39 32.76C65.42 32.6 65.44 32.43 65.44 32.26C65.44 31.26 64.89 30.45 64.21 30.45C63.53 30.45 59.25 31.26 59.25 32.26C59.25 32.43 59.38 32.6 59.6 32.76Z" fill="#FF6A38"/>
<path d="M71.4303 14.93C71.6303 11.77 68.9003 8.68999 66.2203 7.17999C63.7403 5.77999 60.0203 5.75999 57.0903 6.45999C51.9903 3.92999 45.7303 2.96999 40.0203 3.79999C37.1203 4.22999 34.3503 5.32999 31.9803 6.99999C29.7603 8.56999 27.2703 11.26 26.9303 13.94C26.9203 14.05 27.0103 14.12 27.1003 14.12C27.1003 14.13 27.1003 14.15 27.0903 14.16C27.0403 14.36 27.3103 14.47 27.4103 14.27C28.2703 12.65 30.1303 11.97 31.8203 11.29C30.7403 12.01 29.8503 13.21 29.1603 14.11C27.8403 15.82 26.0403 17.82 25.1403 19.75C23.1303 24.07 23.0803 30.59 26.0003 34.47C26.1803 34.71 26.5603 34.47 26.5203 34.22C26.4203 33.65 26.2903 33.08 26.1403 32.53C26.0703 31.16 25.6803 29.82 25.9303 28.43C26.2503 26.64 27.0403 24.98 27.8803 23.36C26.8103 25.59 26.8003 26.53 26.7103 29.2C26.6203 31.85 28.0703 36.59 28.8403 39.1C29.5603 41.44 31.3403 43.69 32.7203 45.74C33.7503 47.28 35.3603 49.42 37.3103 49.93C37.5703 50 37.7603 49.72 37.6003 49.52C37.4803 49.37 37.3403 49.22 37.2003 49.08C35.3203 46.38 34.3103 43.49 33.9103 40.47C35.2203 45.99 38.8203 51.42 43.0403 54.72C43.1303 54.79 43.2203 54.71 43.2203 54.62C43.3003 54.71 43.3903 54.79 43.4803 54.87C43.5303 54.92 43.6603 54.88 43.6303 54.8C42.3903 51.28 42.3503 47.63 42.6803 43.91C42.8703 41.76 43.3603 39.83 44.0503 37.95C44.2003 38.67 44.3903 39.39 44.6003 40.12C45.6703 43.77 47.0503 47.66 48.7103 51.08C48.7303 51.11 48.7503 51.14 48.7703 51.16C48.7803 51.2 48.8003 51.24 48.8103 51.28C48.9503 51.66 49.6503 51.51 49.6303 51.11C49.5303 48.74 48.9503 46.4 48.8403 44.01C48.7303 41.77 48.8803 39.52 49.1403 37.29C49.4203 34.91 49.9903 32.57 50.7503 30.28C51.3103 28.59 52.1303 26.98 52.8403 25.34C52.4903 26.86 52.3203 28.42 52.2503 29.99C52.1503 32.38 52.1003 35.85 53.3403 37.94C53.4403 38.11 53.7403 38.07 53.7603 37.85C53.7903 37.54 53.7603 37.24 53.7403 36.93C54.6303 34.73 55.3303 32.52 56.4503 30.39C57.5003 28.4 58.7003 26.48 59.7403 24.49C61.6003 20.94 63.6403 15.93 62.0503 11.99C64.0203 12.43 65.4603 14.34 66.6103 15.79C68.4503 18.11 69.5303 20.41 70.3203 23.23C70.3903 23.47 70.7703 23.4 70.7303 23.15C70.7303 23.14 70.7303 23.12 70.7303 23.11C70.7903 23.07 70.8403 23.01 70.8503 22.91C71.2703 20.15 70.2003 17.25 68.9203 14.85C68.3403 13.77 67.5003 12.44 66.4603 11.37C66.5303 11.41 66.6003 11.44 66.6703 11.47C68.7103 12.52 69.9903 14.14 71.5303 15.71C71.5903 15.78 71.7403 15.72 71.7103 15.62C71.6203 15.37 71.5203 15.13 71.4103 14.89L71.4303 14.93Z" fill="#FF6A38"/>
<path d="M65.4404 32.63C65.4404 33.48 64.9804 34.17 64.4004 34.17C63.8204 34.17 63.3604 33.48 63.3604 32.63C63.3604 31.78 63.8204 31.09 64.4004 31.09C64.9804 31.09 65.4404 31.78 65.4404 32.63Z" fill="#FF6A38"/>
<path d="M52.3204 15.86C52.3204 15.86 54.0804 24.7 53.8604 26.71C53.6804 28.43 52.7804 30.42 52.3204 31.17C51.9604 31.76 56.9904 38.04 57.8104 39.14C58.6304 40.24 58.3804 41.22 56.9104 42.71C55.4404 44.19 54.5104 43.95 54.1004 44.98C53.6904 46.01 54.5304 46.36 54.7304 46.59C55.0904 47 54.9504 47.6 54.1004 48C54.9204 48.41 55.0804 49.1 54.6804 49.99C54.2804 50.88 53.3404 51.16 52.9304 52.32C52.5204 53.48 54.4404 55.48 53.3404 57.88C52.2404 60.28 48.3304 60.49 43.8004 58.64C42.3604 58.23 41.1204 60.49 40.6404 61.25C40.1604 62.01 37.9604 68.87 36.4504 73.06C34.9404 73.88 18.1804 76.48 11.8604 68.08C13.2004 63.1 15.7404 51.16 15.3504 47.73C14.9504 44.3 14.0604 41.76 12.5804 39.73C11.1104 37.7 1.29045 16.45 18.2904 7.09001C35.2804 -2.26999 50.9904 9.73001 52.3104 15.86H52.3204Z" fill="#A82A00"/>
<path d="M52.3202 15.86C52.3202 15.86 54.0802 24.7 53.8602 26.71C53.6802 28.43 52.7802 30.42 52.3202 31.17C51.9602 31.76 56.9902 38.04 57.8102 39.14C58.6302 40.24 58.3802 41.22 56.9102 42.71C55.4402 44.19 54.5102 43.95 54.1002 44.98C53.6902 46.01 54.5302 46.36 54.7302 46.59C55.0902 47 54.9502 47.6 54.1002 48C54.9202 48.41 55.0802 49.1 54.6802 49.99C54.2802 50.88 53.3402 51.16 52.9302 52.32C52.5202 53.48 54.4402 55.48 53.3402 57.88C52.2402 60.28 48.3302 60.49 43.8002 58.64C42.3602 58.23 31.7102 53.4 30.6202 50.13C29.2502 46.01 14.0702 41.76 12.5902 39.73C11.1202 37.7 1.30021 16.45 18.3002 7.09001C35.2902 -2.26999 51.0002 9.73001 52.3202 15.86Z" fill="#C43100"/>
<path d="M51.9498 25.73C50.0498 24.03 47.3498 24.07 45.1298 25.22C42.8798 26.38 40.4198 27.51 38.8598 29.59C38.7898 29.68 38.9198 29.81 39.0098 29.74C41.6298 27.97 47.3498 24.35 50.0498 27.62C51.1398 28.94 53.2398 26.89 51.9398 25.73H51.9498Z" fill="#471302"/>
<path d="M42.8503 32.25C43.9203 31.39 47.3703 30.75 48.0103 30.75C48.6503 30.75 49.1703 31.39 49.3203 32.25C49.3503 32.09 49.3703 31.92 49.3703 31.75C49.3703 30.65 48.7603 29.75 48.0103 29.75C47.2603 29.75 42.5303 30.65 42.5303 31.75C42.5303 31.92 42.6603 32.09 42.8503 32.25Z" fill="#471302"/>
<path d="M55.97 12.62C56.21 9.13002 53 5.73002 49.86 4.06002C46.95 2.51002 42.59 2.49002 39.15 3.26002C33.17 0.470021 25.84 -0.599979 19.14 0.330021C15.74 0.800021 12.49 2.02002 9.70996 3.87002C7.09996 5.60002 4.17996 8.57002 3.77996 11.54C3.75996 11.66 3.86996 11.74 3.97996 11.74C3.97996 11.76 3.97996 11.77 3.95996 11.78C3.89996 12.01 4.21996 12.12 4.33996 11.91C5.34996 10.12 7.52996 9.37002 9.50996 8.62002C8.23996 9.42002 7.19996 10.74 6.38996 11.74C4.84996 13.63 2.72996 15.84 1.67996 17.97C-0.680041 22.75 -0.740041 29.94 2.67996 34.23C2.88996 34.5 3.33996 34.23 3.28996 33.95C3.16996 33.32 3.01996 32.7 2.83996 32.08C2.75996 30.57 2.29996 29.09 2.59996 27.55C2.96996 25.57 3.89996 23.74 4.88996 21.95C3.63996 24.41 3.62996 25.45 3.51996 28.4C3.41996 31.32 5.10996 36.56 6.01996 39.34C6.86996 41.93 8.95996 44.41 10.56 46.67C11.77 48.37 13.66 50.74 15.94 51.3C16.24 51.38 16.46 51.07 16.28 50.85C16.13 50.68 15.98 50.52 15.81 50.37C13.6 47.38 12.42 44.19 11.95 40.86C13.49 46.96 17.71 52.95 22.66 56.6C22.76 56.68 22.87 56.59 22.87 56.49C22.97 56.59 23.07 56.68 23.18 56.77C23.24 56.82 23.39 56.79 23.36 56.69C21.91 52.8 21.86 48.77 22.25 44.66C22.47 42.29 23.05 40.15 23.86 38.08C24.04 38.88 24.25 39.67 24.5 40.48C25.75 44.52 27.37 48.81 29.32 52.59C29.34 52.63 29.37 52.66 29.39 52.68C29.41 52.72 29.42 52.77 29.44 52.81C29.6 53.23 30.43 53.07 30.41 52.63C30.29 50.01 29.61 47.42 29.48 44.79C29.35 42.32 29.53 39.83 29.83 37.37C30.15 34.74 30.82 32.16 31.71 29.62C32.37 27.75 33.33 25.98 34.16 24.17C33.75 25.85 33.55 27.57 33.47 29.3C33.35 31.94 33.3 35.78 34.75 38.08C34.87 38.27 35.22 38.23 35.24 37.99C35.27 37.65 35.25 37.31 35.21 36.97C36.26 34.54 37.07 32.1 38.39 29.74C39.62 27.54 41.03 25.42 42.26 23.22C44.44 19.29 46.84 13.77 44.96 9.41002C47.27 9.90002 48.97 12.01 50.31 13.61C52.47 16.17 53.73 18.71 54.67 21.83C54.75 22.1 55.2 22.02 55.15 21.74C55.15 21.72 55.15 21.71 55.15 21.7C55.22 21.66 55.28 21.59 55.29 21.48C55.78 18.43 54.52 15.22 53.02 12.58C52.35 11.39 51.36 9.92002 50.14 8.73002C50.22 8.77002 50.31 8.81002 50.39 8.85002C52.78 10.01 54.28 11.8 56.09 13.53C56.17 13.6 56.34 13.54 56.3 13.43C56.2 13.15 56.08 12.89 55.95 12.63L55.97 12.62Z" fill="#FDDD85"/>
<path d="M15.8095 50.3501C15.5995 50.0701 15.4195 49.7901 15.2295 49.5101C15.5295 50.0901 15.8495 50.6701 16.1895 51.2501C16.3395 51.1701 16.3995 50.9901 16.2795 50.8401C16.1295 50.6701 15.9795 50.5101 15.8095 50.3601V50.3501Z" fill="#FDC11C"/>
<path d="M36.4096 27.71C36.5396 23.83 36.5396 20.16 37.2796 16.31C37.8996 13.1 38.9996 9.89005 38.6696 6.62005C38.6296 6.27005 38.1396 6.19005 38.0196 6.54005C35.5896 13.24 33.7596 20.04 32.8096 27.04C33.2596 26.08 33.7396 25.12 34.1796 24.16C33.7696 25.84 33.5696 27.56 33.4896 29.29C33.3696 31.93 33.3196 35.77 34.7696 38.07C34.8896 38.26 35.2396 38.22 35.2596 37.98C35.2896 37.64 35.2696 37.3 35.2296 36.96C35.7396 35.77 36.1996 34.58 36.6896 33.4C36.4396 31.57 36.3496 29.7 36.4096 27.71Z" fill="#FDC11C"/>
<path d="M26.1496 35.23C25.4996 27.85 24.3996 18.85 29.0696 12.45C29.2896 12.14 28.8196 11.85 28.5496 12.07C22.2896 17.35 22.9196 28 23.0596 35.23C23.0796 36.47 23.1496 38 23.2896 39.67C23.4596 39.13 23.6496 38.6 23.8596 38.07C24.0396 38.87 24.2496 39.6601 24.4996 40.4701C25.7496 44.5101 27.3696 48.8001 29.3196 52.5801C29.3396 52.6201 29.3696 52.65 29.3896 52.67C29.4096 52.71 29.4196 52.76 29.4396 52.8C29.5996 53.22 30.4296 53.06 30.4096 52.62C30.3796 51.92 30.2996 51.23 30.2096 50.5401C29.6096 49.43 29.0296 48.32 28.5996 47.19C27.1396 43.37 26.4896 39.26 26.1296 35.23H26.1496Z" fill="#FDC11C"/>
<path d="M7.85971 10.0101C8.37971 9.69005 8.89971 9.38005 9.44971 9.11005C15.3997 6.10005 21.2497 6.18005 27.5997 4.82005C27.7997 4.78005 27.8097 4.47005 27.5997 4.43005C22.2297 3.39005 13.6397 4.06005 6.46971 6.63005C5.09971 8.11005 4.00971 9.82005 3.77971 11.5401C3.75971 11.6601 3.86971 11.7401 3.97971 11.7401C3.97971 11.7601 3.97971 11.7701 3.95971 11.7801C3.89971 12.01 4.21971 12.1201 4.33971 11.9101C5.34971 10.1201 7.52971 9.37005 9.50971 8.62005C8.90971 9.00005 8.35971 9.50005 7.85971 10.0301V10.0101Z" fill="#FDC11C"/>
<path d="M22.6598 56.5801C22.7598 56.6601 22.8698 56.5701 22.8698 56.4701C22.9698 56.5701 23.0698 56.6601 23.1798 56.7501C23.2398 56.8001 23.3898 56.7701 23.3598 56.6701C22.8898 55.4001 22.5698 54.1101 22.3698 52.8001C22.2498 52.7001 22.1398 52.6101 22.0198 52.5001C19.2898 50.0801 17.1698 46.7301 15.8298 43.4601C13.0398 36.6101 14.2998 29.5201 15.0498 22.4501C15.0898 22.0601 14.4598 21.9201 14.2798 22.2501C10.7798 28.6301 10.5098 35.6901 12.4598 42.5001C14.2898 48.0101 18.1798 53.2601 22.6698 56.5701L22.6598 56.5801Z" fill="#FDC11C"/>
<path d="M14.5001 50.67C14.2701 50.47 14.0301 50.26 13.7901 50.04C12.6701 49.04 11.7001 48.04 10.8301 47.03C11.7501 48.3 13.0101 49.79 14.5001 50.67Z" fill="#FDC11C"/>
<path d="M6.26995 38.1C4.43995 30.71 4.68995 22.08 8.84995 15.51C9.08995 15.12 8.59994 14.65 8.18994 14.89C2.25994 18.37 1.85995 26.94 2.02995 33.29C2.22995 33.61 2.44995 33.92 2.67995 34.22C2.88995 34.49 3.33995 34.22 3.28995 33.94C3.16995 33.31 3.01995 32.69 2.83995 32.07C2.75995 30.56 2.29995 29.08 2.59995 27.54C2.96995 25.56 3.89995 23.73 4.88995 21.94C3.63995 24.4 3.62995 25.44 3.51995 28.39C3.41995 31.31 5.10995 36.55 6.01995 39.33C6.56995 41.01 7.63995 42.64 8.76995 44.2C7.67995 42.41 6.84995 40.44 6.26995 38.11V38.1Z" fill="#FDC11C"/>
<path d="M49.37 31.98C49.37 32.83 48.91 33.52 48.33 33.52C47.75 33.52 47.29 32.83 47.29 31.98C47.29 31.13 47.75 30.44 48.33 30.44C48.91 30.44 49.37 31.13 49.37 31.98Z" fill="#471302"/>
</g>
<defs>
<clipPath id="clip0_187_14788">
<rect width="73.5" height="74.09" fill="white"/>
</clipPath>
</defs>
</svg>
