<svg width="106" height="66" viewBox="0 0 106 66" fill="none" xmlns="http://www.w3.org/2000/svg">
<g clip-path="url(#clip0_187_14852)">
<path d="M24.0998 13.87C23.6798 14.36 22.9798 14.68 22.3798 14.89C21.7098 15.12 20.9898 15.18 20.3498 14.82C19.7698 14.49 19.3898 13.87 19.4398 13.19C19.4898 12.58 19.7898 11.83 20.2498 11.42C20.5198 11.19 20.8098 10.93 21.1498 10.81C21.3298 10.75 21.5498 10.72 21.7398 10.77C21.7398 10.77 21.7398 10.77 21.7598 10.77C21.8798 10.77 21.9898 10.81 22.0798 10.87C22.7698 10.65 23.4898 10.72 24.0198 11.29C24.7298 12.04 24.7598 13.1 24.0798 13.88L24.0998 13.87ZM23.7298 18.04C23.4098 16.86 22.2398 16.15 21.0698 16.1C19.4898 16.03 18.4698 17.45 17.9498 18.74C17.7398 19.26 17.9498 19.79 18.3098 20.17C18.5598 20.73 19.2298 21.1 19.8098 21.21C20.5298 21.35 21.2898 21.28 21.9798 21.02C23.2198 20.54 24.0998 19.41 23.7298 18.04ZM37.2398 22.27C36.9798 22.14 36.7198 22.04 36.4698 21.96C36.4498 21.95 36.4398 21.93 36.4198 21.91C35.9298 21.61 35.3798 21.64 34.8498 21.83C34.7898 21.83 34.7298 21.83 34.6698 21.85C34.3098 21.92 34.0198 22.14 33.8098 22.42C33.3898 22.74 33.0298 23.12 32.7898 23.46C32.0898 24.44 32.0298 26.08 33.1598 26.76C35.0498 27.89 37.4398 25.79 37.9798 24.06C38.1798 23.41 37.8598 22.56 37.2398 22.25V22.27Z" fill="#FF6A38"/>
<path d="M81.8597 11.29C82.3897 10.72 83.1197 10.65 83.7997 10.87C83.8897 10.81 83.9997 10.77 84.1197 10.77C84.1197 10.77 84.1197 10.77 84.1397 10.77C84.3297 10.72 84.5497 10.75 84.7297 10.81C85.0697 10.93 85.3597 11.18 85.6297 11.42C86.0997 11.83 86.3997 12.59 86.4397 13.19C86.4897 13.87 86.1197 14.49 85.5297 14.82C84.8897 15.18 84.1697 15.13 83.4997 14.89C82.8997 14.68 82.2097 14.36 81.7797 13.87C81.0997 13.09 81.1297 12.03 81.8397 11.28L81.8597 11.29ZM83.9197 21.04C84.6097 21.3 85.3697 21.37 86.0897 21.23C86.6697 21.12 87.3397 20.75 87.5897 20.19C87.9597 19.81 88.1597 19.28 87.9497 18.76C87.4297 17.47 86.4097 16.05 84.8297 16.12C83.6597 16.17 82.4997 16.88 82.1697 18.06C81.7997 19.44 82.6797 20.57 83.9197 21.04ZM67.9197 24.09C68.4597 25.82 70.8497 27.92 72.7397 26.79C73.8797 26.11 73.8197 24.47 73.1097 23.49C72.8697 23.15 72.4997 22.77 72.0897 22.45C71.8797 22.16 71.5897 21.94 71.2297 21.88C71.1697 21.87 71.1097 21.88 71.0497 21.86C70.5197 21.67 69.9697 21.64 69.4797 21.94C69.4597 21.95 69.4497 21.97 69.4297 21.99C69.1697 22.07 68.9197 22.17 68.6597 22.3C68.0397 22.61 67.7197 23.46 67.9197 24.11V24.09Z" fill="#FF6A38"/>
<path d="M32.4004 32.16C24.9604 30.11 16.2904 28.36 10.2704 23.19C10.1204 23.06 10.3104 22.85 10.4704 22.93C14.5404 24.93 18.4104 26.83 22.8204 27.98C26.2004 28.86 29.6404 29.06 33.0404 29.82C34.5604 30.16 33.9104 32.57 32.4004 32.16ZM34.7304 34.61C28.4204 35.57 23.5904 34.43 17.5004 32.98C14.1804 32.19 10.3804 31.63 7.05043 32.49C6.74043 32.57 6.69043 33.12 7.05043 33.17C9.05043 33.45 11.0504 33.39 13.0604 33.55C16.1504 33.8 19.0104 35 21.9404 35.91C26.2904 37.26 30.7804 37.31 35.2204 36.38C36.3904 36.13 35.8704 34.44 34.7304 34.62V34.61ZM39.9904 37.71C34.2104 38.75 29.0304 38.76 24.0204 42.02C20.8004 44.12 16.6104 46.49 15.8104 50.56C15.7304 50.95 16.2204 51.15 16.4404 50.82C19.1504 46.8 22.9504 44.34 27.0104 41.87C31.1704 39.34 36.3104 41.58 40.4104 38.71C40.9304 38.35 40.6104 37.6 39.9904 37.71ZM47.2404 38.04C44.5804 39.59 42.4204 41.32 39.4004 42.18C37.4204 42.75 35.2604 43.39 33.6304 44.71C30.1104 47.56 29.2704 54.08 29.8204 58.32C29.8904 58.88 30.5704 58.98 30.7904 58.45C32.5404 54.22 30.9304 48.38 35.5304 45.66C37.3604 44.58 39.7504 44.1 41.7504 43.41C44.0104 42.63 46.0304 41.3 48.2404 40.4C50.0004 39.68 48.8304 37.12 47.2504 38.04H47.2404ZM73.5104 32.15C80.9504 30.1 89.6104 28.35 95.6404 23.18C95.7904 23.05 95.6004 22.84 95.4404 22.92C91.3804 24.92 87.5104 26.82 83.0904 27.97C79.7104 28.85 76.2704 29.05 72.8704 29.81C71.3504 30.15 72.0004 32.56 73.5104 32.15ZM70.6904 36.36C75.1304 37.29 79.6104 37.24 83.9704 35.89C86.9004 34.98 89.7604 33.78 92.8504 33.53C94.8604 33.37 96.8704 33.43 98.8704 33.15C99.2304 33.1 99.1804 32.55 98.8704 32.47C95.5404 31.61 91.7404 32.17 88.4204 32.96C82.3204 34.41 77.4904 35.55 71.1804 34.59C70.0404 34.42 69.5204 36.11 70.6904 36.35V36.36ZM65.4904 38.7C69.5904 41.58 74.7304 39.33 78.8904 41.86C82.9604 44.34 86.7504 46.8 89.4704 50.81C89.6904 51.14 90.1804 50.93 90.1004 50.55C89.3004 46.48 85.1104 44.11 81.8904 42.01C76.8704 38.74 71.7004 38.74 65.9204 37.7C65.3004 37.59 64.9804 38.34 65.5004 38.7H65.4904ZM57.6704 40.39C59.8804 41.3 61.9004 42.62 64.1604 43.4C66.1604 44.09 68.5604 44.57 70.3804 45.65C74.9804 48.37 73.3704 54.21 75.1204 58.44C75.3404 58.97 76.0104 58.87 76.0904 58.31C76.6404 54.07 75.8004 47.55 72.2804 44.7C70.6504 43.38 68.4904 42.74 66.5104 42.17C63.4904 41.31 61.3304 39.59 58.6704 38.03C57.0804 37.1 55.9204 39.66 57.6804 40.39H57.6704Z" fill="#FF6A38"/>
<path d="M60.1602 20.27C60.1602 17.85 56.9302 15.89 52.9502 15.89C48.9702 15.89 45.7402 17.85 45.7402 20.27C45.7402 22.69 48.9702 24.65 52.9502 24.65C56.9302 24.65 60.1602 22.69 60.1602 20.27Z" fill="#FF6A38"/>
<path d="M75.5996 34.92C75.5996 29.69 65.4596 25.44 52.9496 25.44C40.4396 25.44 30.3096 29.68 30.3096 34.92C30.3096 40.16 40.4496 44.4 52.9496 44.4C65.4496 44.4 75.5996 40.16 75.5996 34.92Z" fill="#FF6A38"/>
<path d="M69.8395 6.9C68.1595 4.92 67.6395 4.49 65.3695 3.47C64.4395 3.05 60.5695 2.81 59.5595 2.72C57.6095 2.54 56.8495 1.61 55.3195 0.680001C55.1595 0.580001 54.9495 0.740001 55.0095 0.920001C55.6995 3.1 57.9295 4.23 60.0595 4.57C61.6995 4.83 63.1795 5.93 64.8095 6.32C66.3695 6.69 67.9695 7.13 69.5495 7.4C69.8495 7.45 70.0395 7.14 69.8395 6.9Z" fill="#731D00"/>
<path d="M84.5998 9.40002C84.1898 8.13002 76.6998 4.31002 75.9398 3.88002C70.7198 0.920024 64.9698 0.410024 59.1298 2.35533e-05C58.8198 -0.0199764 58.7498 0.490024 59.0598 0.540024C59.8898 0.680024 60.7198 0.840024 61.5398 1.01002C61.5598 1.02002 61.5898 1.04002 61.6198 1.05002C65.3998 1.96002 68.4998 5.31002 71.6398 8.18002C72.7698 9.66002 73.9998 11.07 75.4598 12.11C76.6298 12.95 78.3298 13.85 79.9198 13.85C80.9298 14.21 81.9598 13.96 82.9298 13.16C83.8898 12.36 85.0398 10.75 84.5998 9.41002V9.40002Z" fill="#C43100"/>
<path d="M86.2499 20.51C85.7599 18.54 79.6799 17.55 79.5199 17.73C76.1099 18.85 72.5499 18.8 69.2499 20.41C68.7499 20.65 68.5299 21.45 68.8599 21.9C70.2999 23.9 71.7699 25.68 74.1099 26.59C76.9499 27.69 80.4499 24.94 82.9799 24.11C84.8599 23.49 86.8299 22.83 86.2599 20.5L86.2499 20.51Z" fill="#C43100"/>
<path d="M88.6603 15.73C88.3503 14 87.2103 12.77 86.5503 11.18C86.3203 10.62 85.3303 10.41 85.2003 11.18C84.8703 13.1 83.8203 14.06 82.7003 15.42C82.6503 15.46 82.6103 15.51 82.5803 15.57C82.5303 15.63 82.4803 15.69 82.4303 15.75C82.2703 15.95 82.3903 16.2 82.6303 16.21C83.0603 16.88 84.0403 16.91 84.7003 17.31C85.0603 17.53 85.2803 17.93 85.5503 18.25C86.1003 18.89 86.4503 19.71 86.9403 20.4C86.9903 20.66 87.1603 20.84 87.3903 20.94C87.8403 21.34 88.4803 21.03 88.5903 20.51C88.6003 20.48 88.6203 20.47 88.6403 20.44C89.2103 18.97 88.9303 17.26 88.6603 15.74V15.73Z" fill="#731D00"/>
<path d="M65.0702 40.2C64.6702 39.95 64.1602 39.99 63.7302 40.09C63.0902 40.25 62.6302 40.48 62.0702 40.94C61.5402 41.37 61.0202 41.96 60.7902 42.61C60.7602 42.68 60.7502 42.76 60.7402 42.84C60.3402 43.2 60.1702 43.89 60.4802 44.37C60.7902 44.83 61.1902 45.03 61.7202 45.09C62.4202 45.17 63.1402 44.7 63.6802 44.3C64.3402 43.82 64.9102 43.2 65.3702 42.53C65.8902 41.78 65.9502 40.73 65.0802 40.19L65.0702 40.2Z" fill="#731D00"/>
<path d="M67.4305 41.79C66.8705 41.08 65.7905 41.51 65.3305 42.09C65.1905 42.27 65.1005 42.48 65.0705 42.69C64.6705 43.42 65.3405 44.31 66.1305 44.48C66.9005 44.65 67.4605 44.14 67.7205 43.47C67.9505 42.89 67.7905 42.25 67.4205 41.79H67.4305Z" fill="#731D00"/>
<path d="M71.2402 43.25C71.0102 41.81 69.2202 41.9 68.4202 42.82C68.2002 43.07 68.1202 43.4 68.1602 43.7C67.9802 44.5 68.1202 45.51 68.6602 46.1C69.3602 46.86 70.3602 46.48 70.8302 45.7C71.2602 44.99 71.3502 44.05 71.2302 43.25H71.2402Z" fill="#731D00"/>
<path d="M75.4702 45.58C75.2302 45 74.8002 44.49 74.2902 44.16C74.1502 44.07 73.9902 44.03 73.8302 44.02C73.7302 44 73.6302 43.99 73.5302 44C72.5102 44.15 71.8702 45.46 71.4902 46.29C71.1802 46.98 71.5602 47.65 72.3102 47.73C72.6602 47.76 73.1302 48.09 73.4902 48.22C73.7902 48.32 74.1202 48.29 74.4302 48.18C75.0402 48.41 75.8402 48.08 75.9302 47.19C75.9902 46.59 75.7802 46.06 75.4602 45.57L75.4702 45.58Z" fill="#731D00"/>
<path d="M76.7902 51.69C76.3402 49.95 74.7002 49.17 73.0502 48.94C72.5402 48.87 72.0702 49.14 71.9702 49.59C71.9402 49.62 71.9102 49.65 71.9102 49.7C71.9402 51.32 73.4802 57.77 76.2302 55.35C77.1902 54.51 77.0702 52.79 76.7802 51.69H76.7902Z" fill="#731D00"/>
<path d="M77.1303 57.21C76.1703 56.53 75.3304 56.52 74.6804 56.91C74.5304 56.9 74.3904 56.9 74.2304 56.91C73.6404 56.98 73.0104 57.47 73.1104 58.12C72.7604 59.03 72.6804 60.13 72.7304 61.03C72.8004 62.52 73.9603 63.86 74.7103 65.06C74.9903 65.51 75.7504 65.71 76.1204 65.24C77.7404 63.22 79.9603 59.2 77.1303 57.2V57.21Z" fill="#C43100"/>
<path d="M70.5002 38.59C69.8602 38.7 68.6502 38.99 67.7802 39.49C67.4402 39.49 67.2002 39.73 67.1202 40.01C66.9802 40.17 66.8702 40.33 66.8202 40.52C66.7702 40.72 66.9202 40.91 67.1202 40.92C67.1802 40.92 67.2802 40.9 67.4302 40.87C67.4902 40.91 67.5402 40.95 67.6102 40.97C69.1902 41.46 71.0102 40.83 72.6202 40.79C73.0302 40.78 73.4002 40.45 73.3902 40.02C73.3302 38.44 71.7002 38.38 70.5002 38.59Z" fill="#731D00"/>
<path d="M82.1903 34.93C81.6003 33.93 79.3703 34.41 78.4903 34.52C77.6203 34.63 76.0803 34.89 75.1403 35.55C75.0003 35.57 74.8603 35.57 74.7303 35.59C73.6003 35.76 74.0903 37.45 75.2003 37.29C76.1303 37.15 83.8003 37.65 82.2003 34.92L82.1903 34.93Z" fill="#731D00"/>
<path d="M90.7104 49.76C90.4204 47.94 87.1004 49.13 88.5504 51.01C89.8704 52.72 89.8304 55.58 90.4104 57.55C90.4504 57.68 90.6504 57.69 90.6804 57.55C90.9804 56.25 91.2104 54.84 91.2904 53.51C91.3704 52.24 90.9004 50.99 90.7104 49.76Z" fill="#C43100"/>
<path d="M105.8 28.66C105.54 28.62 105.31 28.54 105.07 28.64C104.08 29.06 103.12 29.23 102.09 29.48C100.64 29.84 99.4598 30.79 98.0798 31.32C96.1698 32.05 97.3398 34.81 99.1698 33.9C100.34 33.31 101.8 32.54 102.77 31.65C103.39 31.08 103.82 30.38 104.56 29.95C105.21 29.57 105.56 29.44 105.86 28.77C105.88 28.73 105.86 28.66 105.81 28.66H105.8Z" fill="#C43100"/>
<path d="M100.85 16.5C99.77 16.84 99.07 17.99 98.01 18.46C97.5 18.69 97.03 19.34 96.66 19.74C96.09 20.36 95.48 20.95 94.89 21.56C94.42 22.05 94.4 22.67 94.67 23.27C94.67 23.29 94.69 23.3 94.69 23.32C95.14 24.31 96.26 24.17 96.89 23.55C96.89 23.54 96.91 23.53 96.92 23.52C97 23.44 97.07 23.36 97.12 23.26C97.9 22.3 98.65 21.33 99.3 20.28C99.67 19.69 99.74 19.02 100.08 18.41C100.4 17.82 100.86 17.31 101.04 16.67C101.07 16.56 100.96 16.44 100.85 16.48V16.5Z" fill="#C43100"/>
<path d="M80.4503 28.55C79.9903 28.33 79.6403 28.34 79.1503 28.42C79.1303 28.42 79.1303 28.42 79.1203 28.42C79.1003 28.42 79.0603 28.42 79.0003 28.43C78.8603 28.45 78.7203 28.46 78.5903 28.47C78.3203 28.5 78.0503 28.53 77.7803 28.54C77.7203 28.54 77.6703 28.54 77.6103 28.54C77.5703 28.54 77.2803 28.51 77.1703 28.53C76.5603 28.61 76.0303 28.89 75.8603 29.53C75.7003 30.13 75.9603 30.75 76.4903 31.07C77.0603 31.42 77.8203 31.34 78.4503 31.26C79.1103 31.18 80.2603 31.1 80.7103 30.53C81.1703 29.95 81.2603 28.92 80.4503 28.54V28.55Z" fill="#731D00"/>
<path d="M85.2498 26.52C84.2598 26.76 80.1798 27.83 81.6998 29.48C82.2498 30.08 83.0798 29.86 83.7698 29.71C84.5098 29.55 85.2498 29.37 85.9998 29.25C87.7698 28.97 87.0498 26.08 85.2498 26.52Z" fill="#731D00"/>
<path d="M93.4201 23.27C92.1801 23.3 91.2701 23.98 90.1501 24.43C89.1401 24.83 87.8601 25.14 87.1401 26C86.6301 26.6 86.9301 27.63 87.8101 27.62C88.9301 27.61 90.1601 27.13 91.2201 26.77C92.2501 26.41 93.3901 25.88 94.1801 25.12C94.8601 24.47 94.3501 23.26 93.4201 23.28V23.27Z" fill="#731D00"/>
<path d="M87.0705 32.81C85.7805 33.26 84.0605 33.32 82.9805 34.18C82.5405 34.53 82.5905 35.33 82.9805 35.69C84.1505 36.77 86.4905 35.99 87.8405 35.62C89.6705 35.13 88.8405 32.19 87.0605 32.81H87.0705Z" fill="#731D00"/>
<path d="M96.0701 31.76C94.9101 31.45 93.6001 31.56 92.4201 31.65C91.3701 31.73 89.6001 31.94 89.2701 33.17C89.2001 33.45 89.2501 33.85 89.5001 34.03C90.2901 34.65 91.4601 34.5 92.4201 34.47C93.5101 34.44 94.5901 34.52 95.6801 34.62C97.3501 34.77 97.6201 32.17 96.0701 31.76Z" fill="#731D00"/>
<path d="M79.1201 39.14C78.2801 38.59 77.1901 38.58 76.2201 38.6C75.2901 38.62 73.6901 38.76 73.2401 39.74C73.0901 40.07 73.1101 40.4 73.3601 40.67C73.9401 41.31 74.9701 41.23 75.7501 41.31C76.3601 41.37 77.3701 41.39 77.6801 41.58C79.2501 42.55 80.6501 40.12 79.1201 39.12V39.14Z" fill="#731D00"/>
<path d="M89.5405 47.04C87.9905 44.88 85.9605 43.46 83.9005 41.84C83.1405 41.24 82.1305 40.37 81.0805 40.57C80.6305 40.66 79.7705 41.03 79.9905 41.67C80.4005 42.85 82.0805 43.85 83.0205 44.63C84.4705 45.83 85.9605 46.94 87.0405 48.5C88.1005 50.02 90.6205 48.56 89.5405 47.04Z" fill="#731D00"/>
<path d="M36.0102 6.9C37.6902 4.92 38.2102 4.49 40.4802 3.47C41.4102 3.05 45.2802 2.81 46.2902 2.72C48.2402 2.54 49.0002 1.61 50.5302 0.680001C50.6902 0.580001 50.9002 0.740001 50.8402 0.920001C50.1502 3.1 47.9202 4.23 45.7902 4.57C44.1502 4.83 42.6702 5.93 41.0402 6.32C39.4802 6.69 37.8802 7.13 36.3002 7.4C36.0002 7.45 35.8102 7.14 36.0102 6.9Z" fill="#731D00"/>
<path d="M22.9201 13.16C23.8901 13.97 24.9201 14.22 25.9301 13.85C27.5201 13.85 29.2201 12.95 30.3901 12.11C31.8501 11.07 33.0801 9.65002 34.2101 8.18002C37.3501 5.31002 40.4501 1.96002 44.2301 1.05002C44.2601 1.05002 44.2801 1.03002 44.3101 1.01002C45.1401 0.840024 45.9601 0.680024 46.7901 0.540024C47.0901 0.490024 47.0201 -0.0199764 46.7201 2.35533e-05C40.8801 0.410024 35.1301 0.920024 29.9101 3.88002C29.1501 4.31002 21.6601 8.13002 21.2501 9.40002C20.8201 10.74 21.9701 12.35 22.9201 13.15V13.16Z" fill="#C43100"/>
<path d="M22.8796 24.12C25.3996 24.95 28.8996 27.7 31.7496 26.6C34.0896 25.69 35.5696 23.91 36.9996 21.91C37.3296 21.45 37.1096 20.66 36.6096 20.42C33.3096 18.81 29.7496 18.85 26.3396 17.74C26.1696 17.56 20.0896 18.55 19.6096 20.52C19.0296 22.85 21.0096 23.51 22.8896 24.13L22.8796 24.12Z" fill="#C43100"/>
<path d="M17.2098 20.42C17.2098 20.42 17.2398 20.47 17.2598 20.49C17.3698 21.01 18.0098 21.31 18.4598 20.92C18.6898 20.82 18.8698 20.64 18.9098 20.38C19.3998 19.69 19.7598 18.87 20.2998 18.23C20.5698 17.92 20.7898 17.52 21.1498 17.29C21.7998 16.89 22.7898 16.86 23.2198 16.19C23.4598 16.19 23.5798 15.93 23.4198 15.73C23.3698 15.67 23.3198 15.61 23.2698 15.55C23.2398 15.49 23.1998 15.44 23.1498 15.4C22.0298 14.04 20.9798 13.08 20.6498 11.16C20.5198 10.39 19.5298 10.6 19.2998 11.16C18.6498 12.75 17.5098 13.98 17.1898 15.71C16.9198 17.23 16.6498 18.94 17.2098 20.41V20.42Z" fill="#731D00"/>
<path d="M40.7902 40.2C41.1902 39.95 41.7002 39.99 42.1302 40.09C42.7702 40.25 43.2302 40.48 43.7902 40.94C44.3202 41.37 44.8402 41.96 45.0702 42.61C45.1002 42.68 45.1102 42.76 45.1202 42.84C45.5202 43.2 45.6902 43.89 45.3802 44.37C45.0702 44.83 44.6702 45.03 44.1402 45.09C43.4402 45.17 42.7202 44.7 42.1802 44.3C41.5202 43.82 40.9502 43.2 40.4902 42.53C39.9702 41.78 39.9102 40.73 40.7802 40.19L40.7902 40.2Z" fill="#731D00"/>
<path d="M38.1198 43.48C38.3798 44.15 38.9398 44.66 39.7098 44.49C40.5098 44.31 41.1698 43.42 40.7698 42.7C40.7398 42.49 40.6498 42.28 40.5098 42.1C40.0598 41.52 38.9698 41.09 38.4098 41.8C38.0398 42.27 37.8798 42.91 38.1098 43.48H38.1198Z" fill="#731D00"/>
<path d="M34.61 43.25C34.84 41.81 36.63 41.9 37.43 42.82C37.65 43.07 37.73 43.4 37.69 43.7C37.87 44.5 37.73 45.51 37.19 46.1C36.49 46.86 35.49 46.48 35.02 45.7C34.59 44.99 34.5 44.05 34.62 43.25H34.61Z" fill="#731D00"/>
<path d="M30.3804 45.58C30.6204 45 31.0504 44.49 31.5604 44.16C31.7004 44.07 31.8604 44.03 32.0204 44.02C32.1204 44 32.2204 43.99 32.3204 44C33.3404 44.15 33.9804 45.46 34.3604 46.29C34.6704 46.98 34.2904 47.65 33.5404 47.73C33.1904 47.76 32.7204 48.09 32.3604 48.22C32.0604 48.32 31.7304 48.29 31.4204 48.18C30.8104 48.41 30.0104 48.08 29.9204 47.19C29.8604 46.59 30.0704 46.06 30.3904 45.57L30.3804 45.58Z" fill="#731D00"/>
<path d="M29.0703 51.69C29.5203 49.95 31.1603 49.17 32.8103 48.94C33.3203 48.87 33.7903 49.14 33.8903 49.59C33.9203 49.62 33.9503 49.65 33.9503 49.7C33.9203 51.32 32.3803 57.77 29.6303 55.35C28.6703 54.51 28.7903 52.79 29.0803 51.69H29.0703Z" fill="#731D00"/>
<path d="M29.7404 65.25C30.1204 65.72 30.8704 65.52 31.1504 65.07C31.9004 63.86 33.0604 62.53 33.1304 61.04C33.1704 60.14 33.0904 59.04 32.7504 58.13C32.8404 57.48 32.2204 56.99 31.6304 56.92C31.4704 56.9 31.3304 56.9 31.1804 56.92C30.5304 56.53 29.6904 56.54 28.7304 57.22C25.9004 59.22 28.1104 63.24 29.7404 65.26V65.25Z" fill="#C43100"/>
<path d="M35.3502 38.59C35.9902 38.7 37.2002 38.99 38.0702 39.49C38.4102 39.49 38.6502 39.73 38.7302 40.01C38.8702 40.17 38.9802 40.33 39.0302 40.52C39.0802 40.72 38.9302 40.91 38.7302 40.92C38.6702 40.92 38.5702 40.9 38.4202 40.87C38.3602 40.91 38.3102 40.95 38.2402 40.97C36.6602 41.46 34.8402 40.83 33.2302 40.79C32.8202 40.78 32.4502 40.45 32.4602 40.02C32.5202 38.44 34.1502 38.38 35.3502 38.59Z" fill="#731D00"/>
<path d="M23.6604 34.93C24.2504 33.93 26.4804 34.41 27.3604 34.52C28.2304 34.63 29.7704 34.89 30.7104 35.55C30.8504 35.57 30.9904 35.57 31.1204 35.59C32.2504 35.76 31.7604 37.45 30.6504 37.29C29.7204 37.15 22.0504 37.65 23.6504 34.92L23.6604 34.93Z" fill="#731D00"/>
<path d="M15.1496 49.76C15.4396 47.94 18.7596 49.13 17.3096 51.01C15.9896 52.72 16.0296 55.58 15.4496 57.55C15.4096 57.68 15.2096 57.69 15.1796 57.55C14.8796 56.25 14.6496 54.84 14.5696 53.51C14.4896 52.24 14.9596 50.99 15.1496 49.76Z" fill="#C43100"/>
<path d="M0.0500859 28.66C0.310086 28.62 0.540086 28.54 0.780086 28.64C1.77009 29.06 2.73009 29.23 3.76009 29.48C5.21009 29.84 6.39009 30.79 7.77009 31.32C9.68009 32.05 8.51009 34.81 6.68009 33.9C5.51009 33.31 4.05009 32.54 3.08009 31.65C2.46009 31.08 2.03009 30.38 1.29009 29.95C0.640086 29.57 0.290086 29.44 -0.00991406 28.77C-0.0299141 28.73 -0.00991406 28.66 0.0400859 28.66H0.0500859Z" fill="#C43100"/>
<path d="M4.9997 16.5C6.0797 16.84 6.7797 17.99 7.8397 18.46C8.3497 18.69 8.8197 19.34 9.1897 19.74C9.7597 20.36 10.3697 20.95 10.9597 21.56C11.4297 22.05 11.4497 22.67 11.1797 23.27C11.1797 23.29 11.1597 23.3 11.1597 23.32C10.7097 24.31 9.5897 24.17 8.9597 23.55C8.9597 23.54 8.9397 23.53 8.9297 23.52C8.8497 23.44 8.7797 23.36 8.7297 23.26C7.9497 22.3 7.1997 21.33 6.5497 20.28C6.1797 19.69 6.1097 19.02 5.7697 18.41C5.4497 17.82 4.9897 17.31 4.8097 16.67C4.7797 16.56 4.8897 16.44 4.9997 16.48V16.5Z" fill="#C43100"/>
<path d="M25.4102 28.55C25.8702 28.33 26.2202 28.34 26.7102 28.42C26.7302 28.42 26.7302 28.42 26.7402 28.42C26.7602 28.42 26.8002 28.42 26.8602 28.43C27.0002 28.45 27.1402 28.46 27.2702 28.47C27.5402 28.5 27.8102 28.53 28.0802 28.54C28.1402 28.54 28.1902 28.54 28.2502 28.54C28.2902 28.54 28.5802 28.51 28.6902 28.53C29.3002 28.61 29.8302 28.89 30.0002 29.53C30.1602 30.13 29.9002 30.75 29.3702 31.07C28.8002 31.42 28.0402 31.34 27.4102 31.26C26.7502 31.18 25.6002 31.1 25.1502 30.53C24.6902 29.95 24.6002 28.92 25.4102 28.54V28.55Z" fill="#731D00"/>
<path d="M20.6001 26.52C21.5901 26.76 25.6701 27.83 24.1501 29.48C23.6001 30.08 22.7701 29.86 22.0801 29.71C21.3401 29.55 20.6001 29.37 19.8501 29.25C18.0801 28.97 18.8001 26.08 20.6001 26.52Z" fill="#731D00"/>
<path d="M12.4299 23.27C13.6699 23.3 14.5799 23.98 15.6999 24.43C16.7099 24.83 17.9899 25.14 18.7099 26C19.2199 26.6 18.9199 27.63 18.0399 27.62C16.9199 27.61 15.6899 27.13 14.6299 26.77C13.5999 26.41 12.4599 25.88 11.6699 25.12C10.9899 24.47 11.4999 23.26 12.4299 23.28V23.27Z" fill="#731D00"/>
<path d="M18.7803 32.81C20.0703 33.26 21.7903 33.32 22.8703 34.18C23.3103 34.53 23.2603 35.33 22.8703 35.69C21.7003 36.77 19.3603 35.99 18.0103 35.62C16.1803 35.13 17.0103 32.19 18.7903 32.81H18.7803Z" fill="#731D00"/>
<path d="M9.78001 31.76C10.94 31.45 12.25 31.56 13.43 31.65C14.48 31.73 16.25 31.94 16.58 33.17C16.65 33.45 16.6 33.85 16.35 34.03C15.56 34.65 14.39 34.5 13.43 34.47C12.34 34.44 11.26 34.52 10.17 34.62C8.50001 34.77 8.23001 32.17 9.78001 31.76Z" fill="#731D00"/>
<path d="M26.7299 39.14C27.5699 38.59 28.6599 38.58 29.6299 38.6C30.5599 38.62 32.1599 38.76 32.6099 39.74C32.7599 40.07 32.7399 40.4 32.4899 40.67C31.9099 41.31 30.8799 41.23 30.0999 41.31C29.4899 41.37 28.4799 41.39 28.1699 41.58C26.5999 42.55 25.1999 40.12 26.7299 39.12V39.14Z" fill="#731D00"/>
<path d="M16.3104 47.04C17.8604 44.88 19.8904 43.46 21.9504 41.84C22.7104 41.24 23.7204 40.37 24.7704 40.57C25.2204 40.66 26.0804 41.03 25.8604 41.67C25.4504 42.85 23.7704 43.85 22.8304 44.63C21.3804 45.83 19.8904 46.94 18.8104 48.5C17.7504 50.02 15.2304 48.56 16.3104 47.04Z" fill="#731D00"/>
<path d="M76.4897 32.38C76.1697 31.36 75.1497 30.1 74.3497 29.05C72.2997 26.35 69.6597 23.48 67.0397 21.65C62.6397 18.58 58.0197 17.75 52.9497 19.53C47.8797 17.75 43.2597 18.58 38.8597 21.65C36.2397 23.48 33.5997 26.34 31.5397 29.05C30.7497 30.09 29.7297 31.36 29.4097 32.38C28.8597 34.12 32.6597 37.34 33.3797 37.73C35.7797 39.06 38.3997 39.42 41.0597 39.91C44.8997 40.62 48.6197 41.75 52.4897 42.35C52.5197 42.37 53.3697 42.37 53.3997 42.35C57.2597 41.75 60.9897 40.62 64.8297 39.91C67.4897 39.42 70.1097 39.05 72.5097 37.73C73.2297 37.33 77.0297 34.12 76.4797 32.38H76.4897ZM52.8597 41.44C52.8597 41.44 52.9197 41.39 52.9497 41.37C52.9797 41.39 53.0097 41.42 53.0397 41.44C53.0097 41.45 52.9797 41.46 52.9497 41.47C52.9197 41.46 52.8897 41.45 52.8597 41.44Z" fill="#C43100"/>
<path d="M52.9996 20.58L52.9496 20.6L52.6196 20.48C50.9796 19.9 49.3496 19.61 47.7896 19.61C44.9296 19.61 42.1996 20.55 39.4396 22.48C36.4096 24.59 33.6896 27.89 32.3496 29.66L32.0996 29.99C31.4396 30.86 30.6096 31.94 30.3696 32.68C30.0996 33.53 32.9296 36.33 33.8696 36.86C35.8696 37.97 38.0696 38.36 40.4096 38.78L41.2496 38.93C42.9796 39.25 44.7096 39.66 46.3796 40.05C47.9796 40.43 49.6196 40.82 51.2596 41.12L52.3096 40.58L52.3296 40.56L52.9496 40.15L52.9996 40.18V20.56V20.58Z" fill="#FF6A38"/>
<path d="M59.0698 42.15C57.5298 41.52 55.6498 42.77 54.0698 42.82C53.5398 42.84 52.3598 42.84 51.8298 42.82C50.2498 42.77 48.3698 41.52 46.8298 42.15C46.1198 42.44 45.6298 43.41 46.3398 44.02C47.1098 44.68 48.1598 44.85 49.1098 45.13C49.9998 45.39 50.8998 45.63 51.8298 45.61C52.3598 45.6 53.5398 45.6 54.0698 45.61C54.9998 45.63 55.8998 45.39 56.7898 45.13C57.7498 44.86 58.7898 44.69 59.5598 44.02C60.2598 43.41 59.7698 42.44 59.0698 42.15Z" fill="#C43100"/>
<path d="M49.6896 16.04C49.6896 14.92 48.7796 14.02 47.6696 14.02C46.5596 14.02 45.6396 14.93 45.6396 16.04C45.6396 17.15 46.5496 21.85 47.6696 21.85C48.7896 21.85 49.6896 17.15 49.6896 16.04Z" fill="#471302"/>
<path d="M60.2697 16.04C60.2697 14.92 59.3597 14.02 58.2497 14.02C57.1397 14.02 56.2197 14.93 56.2197 16.04C56.2197 17.15 57.1297 21.85 58.2497 21.85C59.3697 21.85 60.2697 17.15 60.2697 16.04Z" fill="#471302"/>
<path d="M57.9595 15.46C58.2495 15.09 58.3296 14.66 58.1296 14.5C57.9296 14.34 57.5296 14.52 57.2396 14.89C56.9496 15.26 56.8696 15.69 57.0696 15.84C57.2696 16 57.6695 15.82 57.9595 15.45V15.46Z" fill="#FDDD85"/>
<path d="M47.3199 15.46C47.6099 15.09 47.6899 14.66 47.4899 14.5C47.2899 14.34 46.8899 14.52 46.5999 14.89C46.3099 15.26 46.2299 15.69 46.4299 15.84C46.6299 16 47.0199 15.82 47.3199 15.45V15.46Z" fill="#FDDD85"/>
</g>
<defs>
<clipPath id="clip0_187_14852">
<rect width="105.85" height="65.52" fill="white"/>
</clipPath>
</defs>
</svg>
