<svg width="89" height="75" viewBox="0 0 89 75" fill="none" xmlns="http://www.w3.org/2000/svg">
<g id="Layer_1" clip-path="url(#clip0_187_14916)">
<g id="Group">
<g id="Group_2">
<path id="Vector" d="M31.0303 32.89C32.4503 31.45 30.8603 27.56 27.4703 24.2C24.0803 20.83 20.1703 19.27 18.7503 20.71C17.3203 22.15 18.9203 26.04 22.3103 29.4C25.7003 32.77 29.6103 34.33 31.0303 32.89Z" fill="#C43100"/>
<path id="Vector_2" d="M26.4699 25.47C26.1499 24.32 24.7699 23.2 23.8699 22.5C22.7899 21.67 21.3799 21.2 20.0399 21.46C19.5699 21.55 19.4199 22.08 19.4999 22.48C19.5199 22.57 19.5399 22.67 19.5599 22.76C19.7299 23.63 20.9299 23.43 21.1399 22.72C22.0399 22.44 23.0999 23.08 23.8599 23.51C24.8499 24.07 25.4199 24.87 26.2199 25.63C26.3399 25.75 26.5199 25.61 26.4799 25.46L26.4699 25.47Z" fill="#A82A00"/>
</g>
<g id="Group_3">
<path id="Vector_3" d="M57.7803 32.89C56.3603 31.45 57.9503 27.56 61.3403 24.2C64.7303 20.83 68.6303 19.27 70.0603 20.71C71.4903 22.15 69.8903 26.04 66.5003 29.4C63.1103 32.77 59.2003 34.33 57.7803 32.89Z" fill="#C43100"/>
<path id="Vector_4" d="M62.3406 25.47C62.6606 24.32 64.0406 23.2 64.9406 22.5C66.0206 21.67 67.4306 21.2 68.7806 21.46C69.2506 21.55 69.4006 22.08 69.3206 22.48C69.3006 22.57 69.2806 22.67 69.2606 22.76C69.0906 23.63 67.8906 23.43 67.6806 22.72C66.7806 22.44 65.7206 23.08 64.9606 23.51C63.9706 24.07 63.4006 24.87 62.6006 25.63C62.4806 25.75 62.3006 25.61 62.3406 25.46V25.47Z" fill="#A82A00"/>
</g>
</g>
<path id="Vector_5" d="M60.3498 28.78C56.6198 25.65 44.9598 21.92 44.3998 21.92C43.8398 21.92 32.1898 25.65 28.4498 28.78C25.1198 31.57 26.8398 35.82 27.1798 39.4C27.3798 41.5 27.2598 43.92 28.2798 45.83C29.5898 48.28 30.9898 58.3 31.9298 60.94C32.7498 63.24 33.8398 65.01 35.3398 66.94C35.7498 67.47 36.0798 68.09 36.5598 68.47C37.4698 71.45 40.6198 74.04 43.7698 74.36C43.8398 74.36 43.8998 74.36 43.9698 74.38C44.0398 74.38 44.1098 74.38 44.1798 74.39C44.2498 74.39 44.3198 74.39 44.3998 74.39C44.4798 74.39 44.5498 74.39 44.6198 74.39C44.6898 74.39 44.7598 74.39 44.8298 74.38C44.8998 74.38 44.9598 74.38 45.0298 74.36C48.1898 74.05 51.3298 71.45 52.2398 68.47C52.7098 68.09 53.0498 67.46 53.4598 66.94C54.9598 65.01 56.0498 63.24 56.8698 60.94C57.8098 58.31 59.2198 48.28 60.5198 45.83C61.5398 43.92 61.4198 41.5 61.6198 39.4C61.9598 35.82 63.6798 31.57 60.3498 28.78Z" fill="#C43100"/>
<path id="Vector_6" d="M54.2799 21.67C49.4099 19.37 45.8999 19.35 44.5399 15.98C44.4899 15.98 44.4399 15.99 44.3999 16.01C44.3499 16 44.2999 15.99 44.2599 15.98C42.8999 19.36 39.3999 19.38 34.5199 21.67C31.4099 23.14 28.2199 25.6 25.3799 27.69C25.2599 28.03 25.1399 28.38 25.0499 28.72C24.2199 31.89 25.6799 34.25 28.2099 36.13C29.6199 37.18 31.3199 39.83 33.0899 40.19C34.8899 40.56 36.5599 42.86 36.4199 45.67C36.1999 50.02 32.6799 56.26 32.6199 60.73C32.5599 64.89 38.3899 72.79 42.8299 70.15C43.4199 70.05 43.9699 69.8 44.4099 69.42C44.8499 69.8 45.3999 70.05 45.9899 70.15C50.4299 72.79 56.2599 64.88 56.1999 60.73C56.1299 56.26 52.6199 50.02 52.3999 45.67C52.2599 42.87 53.9299 40.56 55.7299 40.19C57.4899 39.83 59.1899 37.18 60.6099 36.13C63.1399 34.25 64.5999 31.89 63.7699 28.72C63.6799 28.38 57.4099 23.14 54.2999 21.67H54.2799Z" fill="#A82A00"/>
<g id="Group_4">
<g id="Group_5">
<path id="Vector_7" d="M33.8199 36.85C33.8199 33.79 32.2099 31.31 30.1999 31.31C28.1899 31.31 26.5599 33.78 26.5499 36.83C26.5399 39.88 28.1599 42.37 30.1699 42.37C32.1799 42.37 33.8099 39.9 33.8199 36.85Z" fill="#471302"/>
<path id="Vector_8" d="M28.51 37.45C28.4 36.85 28.06 36.41 27.76 36.47C27.46 36.53 27.3 37.06 27.42 37.66C27.53 38.26 27.87 38.7 28.17 38.64C28.47 38.58 28.62 38.05 28.51 37.45Z" fill="#FDDD85"/>
<path id="Vector_9" d="M28.9099 39.6C28.8699 39.4 28.6799 39.28 28.4699 39.32C28.2699 39.36 28.1299 39.55 28.1699 39.74C28.2099 39.94 28.3999 40.06 28.6099 40.03C28.8099 39.99 28.9499 39.8 28.9099 39.61V39.6Z" fill="#FDDD85"/>
</g>
<g id="Group_6">
<path id="Vector_10" d="M62.2602 36.85C62.2702 33.79 60.6502 31.31 58.6402 31.31C56.6302 31.31 55.0002 33.78 54.9902 36.83C54.9902 39.89 56.6002 42.37 58.6102 42.37C60.6202 42.37 62.2502 39.9 62.2602 36.85Z" fill="#471302"/>
<path id="Vector_11" d="M57.1202 39.16C56.7602 38.67 56.2602 38.42 56.0202 38.61C55.7702 38.79 55.8702 39.34 56.2302 39.83C56.5902 40.32 57.0902 40.56 57.3302 40.38C57.5802 40.2 57.4802 39.65 57.1202 39.17V39.16Z" fill="#FDDD85"/>
<path id="Vector_12" d="M58.4204 40.91C58.3004 40.75 58.0704 40.72 57.9004 40.85C57.7304 40.97 57.6904 41.2 57.8104 41.36C57.9304 41.52 58.1604 41.55 58.3304 41.42C58.5004 41.3 58.5404 41.07 58.4204 40.91Z" fill="#FDDD85"/>
</g>
</g>
<path id="Vector_13" d="M61.0696 24.22C56.1996 21.92 45.8996 19.36 44.5496 15.98C44.4996 15.98 44.4496 15.99 44.4096 16.01C44.3596 16 44.3096 15.99 44.2696 15.98C42.9096 19.36 32.6196 21.92 27.7496 24.22C24.6396 25.69 25.1496 28.38 25.0596 28.72C24.2296 31.89 25.6896 34.25 28.2196 36.13C29.6296 37.18 31.3296 38.28 33.0996 38.64C34.8996 39.01 36.5696 38.21 36.4296 41.01C36.2096 45.36 32.6896 56.25 32.6296 60.72C32.5696 64.88 38.3996 72.78 42.8396 70.14C43.4296 70.04 43.9796 69.79 44.4196 69.41C44.8596 69.79 45.4096 70.04 45.9996 70.14C50.4396 72.78 56.2696 64.87 56.2096 60.72C56.1396 56.25 52.6296 45.35 52.4096 41.01C52.2696 38.21 53.9396 39.01 55.7396 38.64C57.4996 38.28 59.1996 37.18 60.6196 36.13C63.1496 34.25 64.6096 31.89 63.7796 28.72C63.6896 28.38 64.1996 25.68 61.0896 24.22H61.0696Z" fill="#FF6A38"/>
<path id="Vector_14" d="M88.0302 26.38C87.1902 19.9 85.4902 13.96 81.6302 8.6C78.1702 3.79 73.1202 0 66.9902 0C57.9302 0 47.3302 12.66 46.3602 14.98C44.5802 19.26 47.5102 19.93 50.1502 21.47C54.0902 23.77 59.1802 26.01 61.2502 24.21C62.1202 23.45 63.1902 21.75 64.1102 20.61C66.5802 17.55 70.5802 14.67 73.7002 18.31C82.0002 28 83.3302 55.63 83.7102 60.29C83.9102 62.72 85.4602 69.58 86.5302 68.07C88.2902 65.6 89.7802 39.8 88.0302 26.38ZM2.28016 68.07C3.36016 69.58 4.90016 62.72 5.10016 60.29C5.48016 55.63 6.81016 28 15.1102 18.31C18.2302 14.67 22.2302 17.55 24.7002 20.61C25.6202 21.75 26.7002 23.46 27.5602 24.21C29.6302 26 34.7202 23.77 38.6502 21.47C41.2902 19.93 44.2202 19.26 42.4402 14.98C41.4902 12.66 30.8902 0 21.8202 0C15.6902 0 10.6402 3.79 7.19016 8.59C3.33016 13.95 1.63016 19.89 0.780164 26.38C-0.969836 39.8 0.520164 65.6 2.28016 68.07Z" fill="#FDDD85"/>
<path id="Vector_15" d="M88.0302 26.38C87.1902 19.9 85.4902 13.96 81.6302 8.6C78.1702 3.79 73.1202 0 66.9902 0C57.9302 0 47.3302 12.66 46.3602 14.98C44.5802 19.26 47.5102 19.93 50.1502 21.47C54.0902 23.77 59.1802 26.01 61.2502 24.21C62.1202 23.45 63.1902 21.75 64.1102 20.61C66.5802 17.55 70.5802 14.67 73.7002 18.31C82.0002 28 83.3302 55.63 83.7102 60.29C83.9102 62.72 85.4602 69.58 86.5302 68.07C88.2902 65.6 89.7802 39.8 88.0302 26.38ZM2.28016 68.07C3.36016 69.58 4.90016 62.72 5.10016 60.29C5.48016 55.63 6.81016 28 15.1102 18.31C18.2302 14.67 22.2302 17.55 24.7002 20.61C25.6202 21.75 26.7002 23.46 27.5602 24.21C29.6302 26 34.7202 23.77 38.6502 21.47C41.2902 19.93 44.2202 19.26 42.4402 14.98C41.4902 12.66 30.8902 0 21.8202 0C15.6902 0 10.6402 3.79 7.19016 8.59C3.33016 13.95 1.63016 19.89 0.780164 26.38C-0.969836 39.8 0.520164 65.6 2.28016 68.07Z" fill="#FDC11C"/>
<g id="Group_7">
<path id="Vector_16" d="M81.62 8.59C78.17 3.79 73.12 0 66.99 0C57.93 0 47.33 12.66 46.36 14.98C46.33 15.05 46.32 15.11 46.29 15.18C47.06 16.32 48.65 16.91 50.15 17.79C54.09 20.09 59.18 22.33 61.25 20.53C62.12 19.77 63.19 18.07 64.11 16.93C66.58 13.87 69.66 12.05 73.7 14.63C87.59 23.51 86.72 51.95 87.11 56.61C87.19 57.61 87.51 59.37 87.92 60.99C88.89 51.77 89.28 35.95 88.04 26.39C87.2 19.91 85.5 13.97 81.64 8.61L81.62 8.59Z" fill="#FDDD85"/>
<path id="Vector_17" d="M15.1198 14.63C19.3898 12.46 22.2398 13.87 24.7098 16.93C25.6298 18.07 26.7098 19.78 27.5698 20.53C29.6398 22.32 34.7298 20.09 38.6598 17.79C40.1598 16.91 41.7498 16.32 42.5198 15.18C42.4898 15.11 42.4798 15.05 42.4498 14.98C41.4898 12.66 30.8898 0 21.8198 0C15.6898 0 10.6398 3.79 7.1898 8.59C3.3298 13.95 1.6298 19.89 0.779805 26.38C-0.470195 35.94 -0.0701954 51.76 0.899805 60.98C1.3098 59.37 1.6298 57.61 1.7098 56.6C2.0898 51.94 1.6298 21.47 15.1198 14.62V14.63Z" fill="#FDDD85"/>
</g>
<g id="Group_8">
<path id="Vector_18" d="M44.4106 31C48.6906 31 49.9806 16.03 44.4106 16C38.8406 15.97 40.1306 31 44.4106 31Z" fill="#FF8961"/>
<path id="Vector_19" d="M24.8604 31.08C25.0804 33.11 26.3604 34.75 28.2204 36.13C29.6304 37.18 31.3303 38.28 33.1003 38.64C34.2403 38.87 35.3303 38.64 35.9403 39.15C36.4103 38.46 36.6804 37.72 36.6804 36.93C36.6704 33.64 32.0304 30.98 26.3204 31C25.8304 31 25.3504 31.03 24.8704 31.07L24.8604 31.08Z" fill="#FF8961"/>
<path id="Vector_20" d="M51.6499 45.83C51.6499 38.89 48.4099 31.71 44.4099 31.71C40.4099 31.71 37.1699 38.89 37.1699 45.83C37.1699 52.77 40.4099 64.61 44.4099 64.61C48.4099 64.61 51.6499 52.77 51.6499 45.83Z" fill="#FF8961"/>
<path id="Vector_21" d="M62.4704 31.01C56.7604 31.03 52.1404 33.71 52.1504 37.01C52.1504 37.78 52.4104 38.5 52.8704 39.17C53.4704 38.64 54.5704 38.88 55.7204 38.64C57.4804 38.28 59.1804 37.18 60.6004 36.13C62.4604 34.74 63.7404 33.1 63.9604 31.07C63.4704 31.03 62.9804 31 62.4704 31.01Z" fill="#FF8961"/>
</g>
<path id="Vector_22" d="M44.4096 69.66C45.1096 70.51 46.9996 71.37 48.0496 71.26C49.2196 71.14 50.6296 70.3 51.9196 69.32C52.0396 69.05 52.1496 68.78 52.2396 68.51C51.2996 69.15 50.3096 69.71 49.4796 69.85C47.5896 70.16 45.7796 69.85 44.8396 68.22C45.1496 67.98 45.2996 67.21 45.3696 67C45.6796 66 47.7696 63.73 47.9896 63.57C48.7596 63.01 49.3196 62.24 49.9196 61.52C50.0996 61.31 49.8596 60.92 49.5996 61.1C48.8896 61.6 48.1896 62.2 47.3896 62.54C46.5796 62.89 45.5196 62.76 44.6596 62.88C44.5696 62.89 44.4896 62.92 44.4196 62.94C44.3496 62.91 44.2696 62.89 44.1796 62.88C43.3196 62.76 42.2596 62.89 41.4496 62.54C40.6496 62.2 39.9396 61.6 39.2396 61.1C38.9796 60.91 38.7396 61.3 38.9196 61.52C39.5196 62.24 40.0896 63.02 40.8496 63.57C41.0696 63.73 43.1596 66 43.4696 67C43.5296 67.21 43.6796 67.98 43.9996 68.22C43.0596 69.85 41.2496 70.16 39.3596 69.85C38.5196 69.71 37.5396 69.15 36.5996 68.51C36.6896 68.79 36.7896 69.06 36.9196 69.32C38.2096 70.3 39.6196 71.14 40.7896 71.26C41.8396 71.37 43.7296 70.52 44.4296 69.66H44.4096Z" fill="#A82A00"/>
<path id="Vector_23" d="M40.8304 63.56C40.8804 63.6 41.0504 63.77 41.2704 64C41.3204 64.03 41.3804 64.06 41.4304 64.08C42.2404 64.43 46.5704 64.43 47.3804 64.08C47.4304 64.06 47.4904 64.02 47.5404 64C47.7604 63.76 47.9304 63.6 47.9804 63.56C48.7504 63 49.3104 62.23 49.9104 61.51C50.0904 61.3 49.8504 60.91 49.5904 61.09C48.8804 61.59 48.1804 62.19 47.3804 62.53C46.5704 62.88 42.2404 62.88 41.4304 62.53C40.6304 62.19 39.9204 61.59 39.2204 61.09C38.9604 60.9 38.7204 61.29 38.9004 61.51C39.5004 62.23 40.0704 63.01 40.8304 63.56Z" fill="#471302"/>
<g id="Group_9">
<g id="Group_10">
<path id="Vector_24" d="M50.5102 19.27C50.3002 19.27 50.0802 19.22 49.8802 19.1L49.5702 18.92C48.9602 18.57 48.7202 17.77 49.0702 17.16C49.4202 16.55 50.1702 16.33 50.7802 16.68L50.8502 16.72L51.1402 16.89C51.7502 17.24 51.9602 18.01 51.6102 18.63C51.3802 19.04 50.9402 19.27 50.5002 19.27H50.5102Z" fill="#FDC11C"/>
<path id="Vector_25" d="M86.98 54.96C86.3 54.96 85.73 54.42 85.71 53.73L85.68 52.9C85.66 52.28 86.08 51.75 86.66 51.62C86.07 51.53 85.61 51.04 85.58 50.42L85.54 49.6C85.51 48.98 85.92 48.45 86.5 48.3C85.91 48.23 85.44 47.75 85.39 47.13L85.33 46.31C85.28 45.7 85.68 45.15 86.25 44.99C85.66 44.93 85.17 44.47 85.11 43.85L85.02 43.03C84.95 42.42 85.33 41.86 85.89 41.68C85.3 41.64 84.8 41.19 84.71 40.58L84.59 39.77C84.5 39.16 84.85 38.59 85.41 38.39C84.82 38.37 84.3 37.94 84.2 37.34C84.15 37.07 84.1 36.8 84.05 36.53C83.94 35.93 84.26 35.35 84.81 35.12C84.24 35.1 83.69 34.73 83.55 34.13C83.49 33.86 83.43 33.6 83.36 33.33C83.22 32.74 83.51 32.14 84.04 31.88C83.45 31.91 82.9 31.55 82.73 30.96C82.65 30.7 82.58 30.44 82.5 30.18C82.32 29.6 82.58 28.99 83.08 28.7C82.5 28.77 81.93 28.44 81.73 27.87C81.64 27.62 81.54 27.37 81.44 27.12C81.22 26.56 81.44 25.93 81.91 25.61C81.35 25.73 80.75 25.45 80.49 24.9C80.38 24.66 80.26 24.42 80.14 24.18C79.87 23.64 80.02 23.01 80.46 22.64C79.91 22.82 79.3 22.6 78.99 22.09C78.85 21.86 78.71 21.64 78.57 21.42C78.25 20.92 78.32 20.29 78.7 19.87C78.18 20.1 77.56 19.97 77.19 19.51C77.02 19.31 76.86 19.11 76.69 18.91C76.31 18.47 76.28 17.84 76.59 17.37C76.12 17.67 75.49 17.64 75.05 17.25C74.86 17.08 74.66 16.91 74.46 16.75C74.01 16.38 73.88 15.78 74.09 15.27C73.7 15.65 73.09 15.73 72.59 15.45C72.38 15.33 72.17 15.22 71.96 15.13C71.48 14.92 71.2 14.45 71.2 13.97C70.99 14.4 70.52 14.71 70.02 14.68C69.78 14.68 69.59 14.69 69.41 14.72C68.91 14.8 68.44 14.56 68.17 14.17C68.23 14.65 68.02 15.14 67.58 15.41C67.38 15.53 67.19 15.67 67 15.81C66.55 16.15 65.95 16.16 65.51 15.85C65.8 16.31 65.77 16.93 65.4 17.36C65.3 17.48 65.19 17.6 65.1 17.73L64.92 17.96C64.55 18.44 63.9 18.58 63.37 18.33C63.77 18.78 63.82 19.46 63.44 19.95C63.25 20.2 63.06 20.44 62.88 20.65C62.43 21.19 61.63 21.26 61.09 20.8C61.1 20.84 61.11 20.89 61.12 20.93C61.23 21.62 60.75 22.27 60.05 22.38C59.77 22.42 59.47 22.44 59.16 22.44H59.01C58.33 22.43 57.78 21.88 57.76 21.21C57.52 21.81 56.85 22.14 56.22 21.95C55.94 21.87 55.66 21.77 55.37 21.67C54.76 21.46 54.42 20.84 54.54 20.22C54.2 20.74 53.52 20.94 52.94 20.67C52.68 20.55 52.42 20.42 52.16 20.3C51.53 19.99 51.27 19.22 51.58 18.59C51.89 17.96 52.66 17.7 53.29 18.01C53.53 18.13 53.77 18.25 54.01 18.36C54.55 18.61 54.83 19.2 54.72 19.76C55.03 19.29 55.64 19.07 56.2 19.27C56.45 19.36 56.69 19.43 56.93 19.51C57.47 19.67 57.82 20.15 57.84 20.69C58.03 20.22 58.5 19.88 59.04 19.9H59.15C59.33 19.9 59.5 19.9 59.66 19.87C60.04 19.81 60.41 19.93 60.68 20.16C60.58 19.77 60.66 19.35 60.94 19.02C61.1 18.83 61.26 18.63 61.42 18.42C61.79 17.93 62.45 17.79 62.98 18.04C62.57 17.59 62.53 16.9 62.92 16.41L63.13 16.14C63.25 15.99 63.37 15.85 63.49 15.71C63.92 15.21 64.64 15.13 65.17 15.49C64.82 14.94 64.94 14.2 65.47 13.8C65.73 13.6 65.99 13.42 66.26 13.25C66.84 12.89 67.61 13.05 67.99 13.62C67.9 12.93 68.38 12.29 69.07 12.19C69.38 12.15 69.69 12.13 70 12.12H70.12C70.81 12.14 71.36 12.71 71.36 13.4C71.66 12.79 72.39 12.52 73.02 12.8C73.3 12.92 73.58 13.07 73.87 13.23C74.44 13.55 74.67 14.25 74.42 14.84C74.88 14.41 75.6 14.37 76.1 14.78C76.33 14.97 76.55 15.16 76.78 15.35C77.26 15.78 77.34 16.49 76.99 17.01C77.51 16.67 78.22 16.76 78.64 17.24C78.83 17.46 79.02 17.69 79.21 17.92C79.61 18.42 79.58 19.12 79.16 19.58C79.72 19.32 80.4 19.51 80.75 20.05C80.91 20.29 81.06 20.54 81.21 20.79C81.54 21.33 81.41 22.03 80.94 22.43C81.53 22.24 82.18 22.51 82.46 23.08C82.59 23.34 82.71 23.6 82.83 23.86C83.1 24.43 82.9 25.11 82.39 25.45C82.99 25.32 83.61 25.65 83.84 26.24C83.94 26.51 84.05 26.77 84.14 27.04C84.35 27.63 84.11 28.28 83.58 28.58C84.18 28.51 84.77 28.87 84.96 29.47C85.04 29.74 85.12 30.02 85.2 30.29C85.37 30.9 85.08 31.53 84.53 31.79C85.15 31.74 85.71 32.15 85.86 32.76C85.93 33.04 85.99 33.31 86.06 33.59C86.2 34.2 85.87 34.81 85.31 35.05C85.91 35.05 86.46 35.47 86.58 36.09C86.63 36.37 86.68 36.65 86.73 36.92C86.84 37.54 86.49 38.13 85.92 38.34C86.53 38.36 87.05 38.81 87.14 39.43L87.26 40.27C87.35 40.89 86.97 41.47 86.39 41.65C86.99 41.69 87.5 42.16 87.57 42.78L87.66 43.62C87.72 44.24 87.33 44.81 86.75 44.97C87.35 45.03 87.84 45.51 87.89 46.14L87.95 46.98C87.99 47.6 87.58 48.15 87 48.3C87.6 48.38 88.08 48.87 88.11 49.49L88.15 50.33C88.18 50.95 87.76 51.49 87.17 51.63C87.77 51.72 88.23 52.22 88.25 52.84L88.28 53.67C88.3 54.37 87.75 54.96 87.05 54.99H87.01L86.98 54.96Z" fill="#FDC11C"/>
<path id="Vector_26" d="M87.0999 57.88C86.4399 57.88 85.8899 57.38 85.8299 56.71C85.8199 56.58 85.8099 56.42 85.7999 56.25C85.7599 55.55 86.2999 54.95 86.9999 54.91C87.6899 54.89 88.2999 55.41 88.3399 56.11C88.3399 56.25 88.3599 56.38 88.3699 56.49C88.4299 57.19 87.9099 57.81 87.2099 57.87C87.1699 57.87 87.1399 57.87 87.0999 57.87V57.88Z" fill="#FDC11C"/>
</g>
<g id="Group_11">
<path id="Vector_27" d="M1.70985 57.88C1.70985 57.88 1.63985 57.88 1.60985 57.88C0.909847 57.82 0.389847 57.21 0.439847 56.51C0.439847 56.39 0.459847 56.27 0.469847 56.12C0.509847 55.42 1.11985 54.88 1.80985 54.92C2.50985 54.96 3.04985 55.56 3.00985 56.26C3.00985 56.43 2.98985 56.58 2.97985 56.71C2.92985 57.37 2.36985 57.88 1.70985 57.88Z" fill="#FDC11C"/>
<path id="Vector_28" d="M1.83953 54.97H1.78953C1.08953 54.94 0.539531 54.35 0.569531 53.65L0.599531 52.81C0.629531 52.19 1.09953 51.69 1.68953 51.6C1.09953 51.46 0.679531 50.92 0.719531 50.29L0.769531 49.45C0.809531 48.83 1.28953 48.33 1.87953 48.26C1.29953 48.11 0.889531 47.55 0.929531 46.93L0.989531 46.09C1.03953 45.47 1.52953 44.99 2.12953 44.93C1.54953 44.76 1.15953 44.2 1.21953 43.58L1.30953 42.74C1.37953 42.12 1.87953 41.65 2.47953 41.61C1.90953 41.42 1.52953 40.85 1.60953 40.23L1.71953 39.39C1.80953 38.77 2.32953 38.32 2.93953 38.3C2.36953 38.09 2.00953 37.51 2.10953 36.89L2.24953 36.06C2.35953 35.44 2.89953 35.01 3.49953 35.01C2.93953 34.78 2.60953 34.18 2.73953 33.56C2.79953 33.28 2.85953 33.01 2.91953 32.73C3.05953 32.11 3.63953 31.72 4.22953 31.74C3.66953 31.49 3.36953 30.86 3.52953 30.25C3.59953 29.98 3.67953 29.7 3.75953 29.43C3.92953 28.82 4.51953 28.45 5.11953 28.51C4.57953 28.22 4.31953 27.58 4.52953 26.98C4.61953 26.71 4.71953 26.44 4.81953 26.17C5.03953 25.57 5.64953 25.24 6.24953 25.36C5.72953 25.02 5.51953 24.36 5.77953 23.78C5.89953 23.52 6.01953 23.25 6.13953 22.99C6.40953 22.41 7.05953 22.13 7.64953 22.31C7.16953 21.92 7.02953 21.23 7.34953 20.68C7.49953 20.43 7.64953 20.18 7.79953 19.93C8.13953 19.39 8.81953 19.19 9.38953 19.44C8.95953 18.98 8.92953 18.27 9.32953 17.77C9.51953 17.54 9.70953 17.31 9.89953 17.09C10.3295 16.61 11.0395 16.53 11.5595 16.88C11.2195 16.35 11.3295 15.63 11.8295 15.22C12.0695 15.03 12.3095 14.84 12.5495 14.66C13.0795 14.28 13.7995 14.36 14.2295 14.83C14.0295 14.23 14.3095 13.55 14.8995 13.27C15.1895 13.14 15.4695 13.01 15.7495 12.91C16.3795 12.67 17.0795 12.96 17.3595 13.56C17.3595 12.88 17.8895 12.32 18.5695 12.29C18.6795 12.29 18.7795 12.29 18.8895 12.29C19.1295 12.29 19.3595 12.3 19.5795 12.32C20.2695 12.39 20.7795 13 20.7295 13.69C21.0895 13.1 21.8495 12.9 22.4495 13.24C22.7295 13.4 22.9995 13.58 23.2695 13.77C23.8095 14.16 23.9495 14.9 23.6095 15.46C24.1395 15.09 24.8695 15.18 25.2995 15.68C25.4195 15.82 25.5395 15.96 25.6595 16.11L25.8695 16.37C26.2595 16.87 26.2195 17.56 25.8095 18.01C26.3395 17.76 26.9995 17.9 27.3695 18.39C27.5295 18.6 27.6895 18.81 27.8495 18.99C28.1295 19.32 28.2095 19.75 28.0995 20.13C28.3695 19.9 28.7395 19.79 29.1195 19.84C29.2795 19.87 29.4495 19.88 29.6295 19.88H29.7295C30.2695 19.88 30.7395 20.2 30.9395 20.68C30.9595 20.15 31.3095 19.66 31.8495 19.5C32.0895 19.43 32.3395 19.35 32.5795 19.26C33.1395 19.06 33.7395 19.28 34.0595 19.75C33.9495 19.19 34.2295 18.61 34.7695 18.36C35.0095 18.25 35.2495 18.13 35.4895 18.01C36.1195 17.7 36.8795 17.96 37.1995 18.59C37.5095 19.22 37.2495 19.98 36.6195 20.3C36.3595 20.43 36.0995 20.55 35.8395 20.67C35.2595 20.94 34.5895 20.74 34.2395 20.22C34.3595 20.83 34.0195 21.45 33.4095 21.66C33.1195 21.76 32.8395 21.85 32.5595 21.94C31.9195 22.13 31.2595 21.8 31.0195 21.19C30.9995 21.86 30.4495 22.41 29.7695 22.42H29.6195C29.3095 22.42 28.9995 22.4 28.7195 22.36C28.0195 22.25 27.5495 21.6 27.6595 20.91C27.6595 20.87 27.6795 20.82 27.6895 20.78C27.1495 21.23 26.3495 21.16 25.8995 20.62C25.7195 20.4 25.5295 20.16 25.3395 19.92C24.9595 19.42 25.0095 18.74 25.4095 18.29C24.8795 18.54 24.2295 18.4 23.8595 17.92L23.6795 17.7C23.5795 17.57 23.4695 17.45 23.3695 17.33C22.9995 16.9 22.9695 16.3 23.2495 15.84C22.8195 16.14 22.2195 16.15 21.7795 15.82C21.5895 15.68 21.3995 15.56 21.1995 15.45C20.7595 15.2 20.5195 14.72 20.5595 14.24C20.3095 14.64 19.8495 14.9 19.3495 14.85C19.2095 14.84 19.0595 14.83 18.9095 14.83H18.6895C18.1495 14.88 17.6895 14.55 17.4795 14.1C17.4795 14.61 17.1695 15.09 16.6595 15.29C16.4395 15.38 16.2095 15.47 15.9795 15.58C15.4695 15.82 14.8695 15.69 14.5095 15.29C14.6795 15.8 14.5095 16.39 14.0495 16.72C13.8495 16.87 13.6495 17.02 13.4495 17.18C13.0095 17.55 12.3895 17.56 11.9295 17.25C12.2195 17.72 12.1895 18.34 11.8095 18.77C11.6395 18.96 11.4695 19.16 11.3095 19.36C10.9395 19.82 10.3195 19.95 9.79953 19.72C10.1795 20.13 10.2595 20.77 9.94953 21.26C9.80953 21.48 9.66953 21.71 9.53953 21.94C9.23953 22.46 8.62953 22.68 8.07953 22.52C8.52953 22.88 8.68953 23.51 8.42953 24.05C8.31953 24.29 8.20953 24.53 8.09953 24.78C7.85953 25.33 7.26953 25.63 6.69953 25.52C7.18953 25.84 7.40953 26.45 7.19953 27.02C7.10953 27.27 7.01953 27.53 6.92953 27.78C6.72953 28.36 6.16953 28.69 5.58953 28.63C6.09953 28.91 6.36953 29.51 6.19953 30.1C6.11953 30.36 6.04953 30.62 5.97953 30.89C5.81953 31.48 5.26953 31.87 4.67953 31.83C5.21953 32.08 5.52953 32.67 5.38953 33.27C5.32953 33.54 5.26953 33.8 5.20953 34.07C5.07953 34.67 4.54953 35.07 3.96953 35.07C4.50953 35.29 4.84953 35.87 4.73953 36.47L4.59953 37.28C4.49953 37.89 3.97953 38.32 3.38953 38.34C3.94953 38.54 4.30953 39.11 4.21953 39.72L4.10953 40.53C4.02953 41.14 3.52953 41.59 2.93953 41.63C3.49953 41.81 3.87953 42.37 3.80953 42.98L3.71953 43.8C3.65953 44.41 3.16953 44.88 2.57953 44.94C3.14953 45.1 3.53953 45.65 3.48953 46.26L3.42953 47.08C3.37953 47.7 2.90953 48.18 2.31953 48.25C2.89953 48.4 3.29953 48.94 3.26953 49.55L3.22953 50.38C3.19953 51 2.72953 51.49 2.13953 51.57C2.71953 51.71 3.13953 52.24 3.10953 52.86L3.07953 53.69C3.04953 54.38 2.48953 54.91 1.80953 54.91L1.83953 54.97Z" fill="#FDC11C"/>
<path id="Vector_29" d="M38.2998 19.27C37.8598 19.27 37.4298 19.04 37.1898 18.63C36.8398 18.02 37.0498 17.24 37.6598 16.89L37.9498 16.72L38.6598 17.78L39.2998 18.88L38.9298 19.1C38.7298 19.21 38.5098 19.27 38.2998 19.27Z" fill="#FDC11C"/>
</g>
</g>
</g>
<defs>
<clipPath id="clip0_187_14916">
<rect width="88.81" height="74.39" fill="white"/>
</clipPath>
</defs>
</svg>
