<svg width="89" height="61" viewBox="0 0 89 61" fill="none" xmlns="http://www.w3.org/2000/svg">
<g clip-path="url(#clip0_187_15181)">
<path d="M71.5199 2.28997C66.0199 -0.290027 59.7299 -0.510027 53.8699 0.729973C50.4399 1.44997 45.5399 3.29997 43.7899 6.70997C40.1199 10.1 44.3499 17.61 46.7499 20.51C48.5899 22.73 51.8699 23.07 54.5299 23.17C55.3799 23.2 56.3899 23.03 57.3299 22.66C57.2999 22.83 57.4999 22.99 57.6399 22.84C60.1699 20.17 65.6099 20.99 68.2199 23.16C70.7399 25.26 81.0099 37.24 69.9799 48.27C63.6799 54.57 63.3299 43.45 63.7499 42.95C63.7899 42.91 63.8199 42.87 63.8599 42.82C64.3699 42.21 64.0999 41.45 63.5799 41.08C63.2999 40.84 62.9099 40.66 62.4699 40.82C61.1499 41.29 58.8499 45.89 59.4099 49.46C60.2099 54.6 64.6599 57.4 69.4599 56.41C81.3699 53.94 87.5399 43.06 88.2599 31.56C89.0199 19.4 82.6599 7.48997 71.5299 2.26997L71.5199 2.28997Z" fill="#FDC11C"/>
<path d="M71.5898 27.11C71.9298 27.61 72.2598 28.15 72.5798 28.73C75.7698 27.71 78.6598 24.58 80.6698 22.35C82.4998 20.32 83.9998 18.09 85.0398 15.66C84.4298 14.43 83.7398 13.25 82.9698 12.12C82.5198 14.55 81.5899 16.61 80.2299 18.7C77.8899 22.3 75.0698 24.91 71.5998 27.11H71.5898Z" fill="#FDDD85"/>
<path d="M74.2598 32.62C74.3898 33.05 74.5098 33.5 74.6098 33.95C77.9798 33.68 81.4598 32.31 84.6198 31.39C85.8498 31.03 87.0698 30.61 88.2898 30.18C88.2998 29.35 88.2898 28.53 88.2398 27.71C86.7798 28.33 85.3598 28.98 84.0798 29.44C80.8998 30.59 77.4298 31.39 74.2598 32.63V32.62Z" fill="#FDDD85"/>
<path d="M62.0001 42.15C62.3701 42.37 62.9501 42.4 63.3701 42.37C63.7201 42.34 63.7101 41.87 63.3701 41.83C62.9701 41.78 62.7701 41.58 62.4401 41.39C62.3201 41.32 62.1701 41.31 62.0401 41.26C62.0001 41.25 61.9601 41.22 61.9201 41.19C61.8101 41.3 61.6901 41.43 61.5801 41.57C61.6801 41.8 61.8201 42.03 62.0001 42.13V42.15Z" fill="#FDDD85"/>
<path d="M62.8594 44.48C63.1194 44.5 63.3794 44.49 63.6494 44.48C63.6494 44.23 63.6394 44 63.6494 43.79C63.1394 43.87 62.6194 43.82 62.1394 43.98C62.0594 44.01 62.0094 44.12 62.0894 44.19C62.3494 44.4 62.5394 44.46 62.8794 44.49L62.8594 44.48Z" fill="#FDDD85"/>
<path d="M61.03 43.62C61.12 43.64 61.18 43.51 61.09 43.47C60.91 43.39 60.74 43.3 60.59 43.18C60.55 43.27 60.5 43.35 60.46 43.44C60.64 43.52 60.83 43.58 61.02 43.61L61.03 43.62Z" fill="#FDDD85"/>
<path d="M67.1903 3.05001C68.2303 5.73001 68.9403 8.59001 69.1803 11.45C69.3903 13.95 68.9203 16.47 68.2803 18.87C67.9703 20.05 67.4203 21.17 66.8903 22.3C67.3803 22.56 67.8403 22.84 68.2203 23.17C68.3003 23.23 68.3803 23.3 68.4703 23.39C70.4803 20.24 71.1703 15.28 71.3303 12.37C71.5203 9.07001 70.8903 5.12001 69.6303 1.51001C68.4503 1.08001 67.2503 0.75001 66.0303 0.51001C66.4403 1.34001 66.8503 2.19001 67.1803 3.05001H67.1903Z" fill="#FDDD85"/>
<path d="M67.9193 52.3C68.3293 54.28 67.3893 55.3 66.3193 56.54C66.8193 56.61 67.3393 56.64 67.8593 56.62C69.5093 54.78 69.7493 51.66 68.9093 49.24C68.3193 49.69 67.7893 49.97 67.3193 50.11C67.5193 50.85 67.7693 51.59 67.9093 52.31L67.9193 52.3Z" fill="#FDDD85"/>
<path d="M63.0295 6.44998C64.5295 11.42 63.7295 16.29 63.4095 21.25C63.9795 21.32 64.5495 21.43 65.0995 21.59C66.6095 16.38 66.2295 9.84998 64.8095 5.01998C64.3695 3.52998 63.5195 1.72998 62.3995 0.0599814C61.4295 -1.85557e-05 60.4495 -0.0100186 59.4795 0.0299814C61.1895 1.85998 62.3195 4.05998 63.0395 6.45998L63.0295 6.44998Z" fill="#FDDD85"/>
<path d="M69.6699 24.61C69.9499 24.93 70.2499 25.29 70.5599 25.68C75.5099 21.42 78.5299 14.29 78.9499 7.36999C78.0299 6.48999 77.0399 5.67999 75.9999 4.92999C76.2799 7.75999 76.1299 10.59 75.3399 13.63C74.2599 17.77 71.8999 21.11 69.6799 24.61H69.6699Z" fill="#FDDD85"/>
<path d="M74.0594 54.93C74.0494 53.04 73.9394 51.19 73.2494 49.4C72.8594 48.38 72.2694 47.37 71.3894 46.71C71.1594 47 70.9094 47.28 70.6494 47.57C70.7994 47.65 70.9494 47.75 71.0694 47.87C71.9994 48.78 72.3994 50.26 72.7394 51.47C73.0894 52.69 73.2994 54.02 73.1894 55.3C73.4794 55.18 73.7694 55.06 74.0594 54.93Z" fill="#FDDD85"/>
<path d="M64.9493 54.96C65.5393 53.49 65.9893 51.73 65.9993 50.1C65.8193 50.03 65.6493 49.94 65.4893 49.82C64.8893 50.94 64.7193 52.31 64.4193 53.53C64.2293 54.28 63.9493 54.98 63.5693 55.65C63.8393 55.8 64.1193 55.93 64.4093 56.04C64.6393 55.66 64.8193 55.29 64.9493 54.96Z" fill="#FDDD85"/>
<path d="M78.3403 48.67C76.9903 46.55 75.2103 45.18 72.9803 44.46C72.8403 44.71 72.6903 44.95 72.5303 45.19C74.8103 46.32 76.5803 48.14 77.8403 50.41C78.1303 50.94 78.3603 51.54 78.5603 52.18C78.9703 51.85 79.3803 51.51 79.7603 51.15C79.2803 50.21 78.7603 49.34 78.3303 48.67H78.3403Z" fill="#FDDD85"/>
<path d="M74.4495 41.1C74.2695 41.71 74.0495 42.32 73.7695 42.94C75.8395 43.8 78.1695 44.28 80.1595 45.39C81.1695 45.95 82.1395 46.63 83.0695 47.35C83.5395 46.68 83.9695 45.98 84.3695 45.27C81.4295 42.86 77.5495 40.99 74.4495 41.1Z" fill="#FDDD85"/>
<path d="M83.6298 33.25C80.8098 33.58 77.5098 33.86 74.8398 35.14C74.9098 35.62 74.9498 36.1 74.9698 36.59C77.8498 36.1 80.6898 35.17 83.6298 34.92C85.0698 34.8 86.4898 34.63 87.9298 34.54C88.0198 33.91 88.0999 33.27 88.1599 32.63C86.4799 32.75 84.7798 33.12 83.6298 33.25Z" fill="#FDDD85"/>
<path d="M60.2298 52.13C61.1798 51.84 62.0698 51.58 62.8498 50.88C63.2398 50.53 63.8098 50.11 64.0098 49.61C64.1598 49.24 64.3698 48.94 64.5598 48.61C64.4698 48.42 64.3798 48.23 64.3098 48.02C63.5198 48.46 62.8098 49.08 62.1298 49.66C61.6698 50.05 61.2598 50.38 60.8598 50.83C60.5898 51.14 60.3398 51.43 60.0498 51.7C60.1098 51.84 60.1698 51.99 60.2298 52.12V52.13Z" fill="#FDDD85"/>
<path d="M82.9198 40.32C84.0298 40.63 85.0998 41.03 86.1398 41.49C86.3498 40.94 86.5398 40.39 86.7198 39.83C86.1898 39.63 85.6898 39.44 85.2398 39.28C82.1698 38.12 78.3098 37.54 74.9498 38.23C74.9098 38.73 74.8498 39.24 74.7598 39.75C77.3798 40.17 80.2898 39.6 82.9098 40.33L82.9198 40.32Z" fill="#FDDD85"/>
<path d="M82.8594 25.14C79.9394 27.28 76.6394 28.77 73.3994 30.35C73.5694 30.72 73.7294 31.1 73.8794 31.49C77.6594 30.25 81.2694 28.43 84.5694 26.24C85.3794 25.7 86.5894 24.85 87.7694 23.83C87.6094 22.98 87.4194 22.15 87.1894 21.32C85.9394 22.78 84.3894 24.03 82.8594 25.14Z" fill="#FDDD85"/>
<path d="M61.2896 47.38C61.9697 47.33 63.1396 47.16 63.9296 46.74C63.8596 46.42 63.8096 46.1 63.7596 45.78C63.1496 45.81 62.4796 46.06 61.9596 46.13C61.3496 46.21 60.7496 46.26 60.1396 46.17C59.9396 46.14 59.7596 46.07 59.5996 46C59.5096 46.41 59.4296 46.83 59.3896 47.25C60.0296 47.42 60.7796 47.41 61.2996 47.37L61.2896 47.38Z" fill="#FDDD85"/>
<path d="M61.3598 21.21C61.8398 16.48 60.2798 10.84 58.6098 7.14998C57.7398 5.22998 56.4598 2.67998 54.7998 0.539978C54.4798 0.599978 54.1698 0.659978 53.8498 0.719978C52.9898 0.899978 52.0298 1.15998 51.0498 1.48998C51.5798 1.78998 52.0898 2.13998 52.5698 2.58998C54.2298 4.11998 55.3998 6.42998 56.4598 8.39998C58.0498 11.37 59.2998 14.4 59.7198 17.76C59.8798 19.02 59.8398 20.27 59.7998 21.53C60.2898 21.37 60.8098 21.26 61.3498 21.21H61.3598Z" fill="#FDDD85"/>
<path d="M0.0602251 31.58C0.780225 43.08 6.95023 53.95 18.8602 56.43C23.6502 57.43 28.1002 54.62 28.9102 49.48C29.4702 45.91 27.1602 41.31 25.8502 40.84C25.4102 40.68 25.0102 40.86 24.7402 41.1C24.2202 41.47 23.9502 42.23 24.4602 42.84C24.4902 42.88 24.5302 42.93 24.5602 42.97C24.9802 43.47 24.6302 54.59 18.3302 48.29C7.30023 37.26 17.5702 25.28 20.0902 23.18C22.7002 21 28.1502 20.18 30.6802 22.86C30.8202 23.01 31.0202 22.86 30.9902 22.68C31.9302 23.04 32.9402 23.22 33.7902 23.18C36.4602 23.08 39.7302 22.75 41.5802 20.52C43.9802 17.62 48.2102 10.11 44.5402 6.71998C42.7902 3.29998 37.8902 1.45998 34.4602 0.739983C28.5902 -0.500017 22.3102 -0.280017 16.8102 2.29998C5.66022 7.50998 -0.699775 19.42 0.0602251 31.58Z" fill="#FDC11C"/>
<path d="M16.7203 27.11C16.3803 27.61 16.0503 28.15 15.7303 28.73C12.5403 27.71 9.65027 24.58 7.64027 22.35C5.81027 20.32 4.31027 18.09 3.28027 15.66C3.89027 14.43 4.58027 13.25 5.35027 12.12C5.80027 14.55 6.73027 16.61 8.09027 18.7C10.4303 22.3 13.2503 24.91 16.7203 27.11Z" fill="#FDDD85"/>
<path d="M14.0403 32.62C13.9103 33.05 13.7903 33.5 13.6903 33.95C10.3203 33.68 6.84032 32.31 3.68032 31.39C2.45032 31.03 1.22032 30.61 0.0103206 30.18C0.00032063 29.35 0.0103206 28.53 0.0603206 27.71C1.52032 28.33 2.94032 28.98 4.22032 29.44C7.40032 30.59 10.8703 31.39 14.0403 32.63V32.62Z" fill="#FDDD85"/>
<path d="M26.3006 42.15C25.9306 42.37 25.3506 42.4 24.9306 42.37C24.5806 42.34 24.5906 41.87 24.9306 41.83C25.3306 41.78 25.5306 41.58 25.8606 41.39C25.9806 41.32 26.1306 41.31 26.2606 41.26C26.3006 41.25 26.3406 41.22 26.3806 41.19C26.4906 41.3 26.6106 41.43 26.7206 41.57C26.6206 41.8 26.4806 42.03 26.3006 42.13V42.15Z" fill="#FDDD85"/>
<path d="M25.4502 44.48C25.1902 44.5 24.9202 44.49 24.6602 44.48C24.6602 44.23 24.6702 44 24.6602 43.79C25.1702 43.87 25.6902 43.82 26.1702 43.98C26.2502 44.01 26.3002 44.12 26.2302 44.19C25.9702 44.4 25.7802 44.46 25.4402 44.49L25.4502 44.48Z" fill="#FDDD85"/>
<path d="M27.2701 43.62C27.1801 43.64 27.1101 43.51 27.2101 43.47C27.3901 43.39 27.5601 43.3 27.7101 43.18C27.7501 43.27 27.8001 43.35 27.8401 43.44C27.6601 43.52 27.4701 43.58 27.2801 43.61L27.2701 43.62Z" fill="#FDDD85"/>
<path d="M21.1202 3.05001C20.0802 5.73001 19.3702 8.59001 19.1302 11.45C18.9202 13.95 19.3902 16.47 20.0302 18.87C20.3402 20.05 20.8902 21.17 21.4202 22.3C20.9302 22.56 20.4702 22.84 20.0802 23.17C20.0002 23.23 19.9202 23.3 19.8302 23.39C17.8202 20.24 17.1302 15.28 16.9702 12.37C16.7802 9.07001 17.4002 5.12001 18.6702 1.51001C19.8502 1.08001 21.0502 0.75001 22.2702 0.51001C21.8502 1.34001 21.4502 2.19001 21.1202 3.05001Z" fill="#FDDD85"/>
<path d="M20.3807 52.3C19.9707 54.28 20.9107 55.3 21.9807 56.54C21.4807 56.61 20.9607 56.64 20.4407 56.62C18.7907 54.78 18.5507 51.66 19.3807 49.24C19.9707 49.69 20.5007 49.97 20.9707 50.11C20.7707 50.85 20.5307 51.59 20.3807 52.31V52.3Z" fill="#FDDD85"/>
<path d="M25.2799 6.44998C23.7799 11.42 24.5699 16.29 24.8999 21.25C24.3299 21.32 23.7599 21.43 23.2099 21.59C21.6999 16.38 22.0899 9.84998 23.5099 5.01998C23.9499 3.52998 24.7999 1.72998 25.9199 0.0599814C26.8899 -1.85557e-05 27.8699 -0.0100186 28.8399 0.0299814C27.1299 1.85998 25.9999 4.05998 25.2799 6.45998V6.44998Z" fill="#FDDD85"/>
<path d="M18.6404 24.61C18.3604 24.93 18.0604 25.29 17.7504 25.68C12.8004 21.42 9.78035 14.29 9.36035 7.36999C10.2804 6.48999 11.2704 5.67999 12.3104 4.92999C12.0304 7.75999 12.1804 10.59 12.9704 13.63C14.0504 17.77 16.4104 21.11 18.6304 24.61H18.6404Z" fill="#FDDD85"/>
<path d="M14.2405 54.93C14.2405 53.04 14.3605 51.19 15.0405 49.4C15.4305 48.38 16.0205 47.37 16.9005 46.71C17.1305 47 17.3805 47.28 17.6405 47.57C17.4905 47.65 17.3505 47.75 17.2205 47.87C16.3005 48.78 15.9005 50.26 15.5505 51.47C15.2005 52.69 14.9905 54.02 15.1005 55.3C14.8105 55.18 14.5205 55.06 14.2305 54.93H14.2405Z" fill="#FDDD85"/>
<path d="M23.3508 54.96C22.7608 53.49 22.3108 51.73 22.3008 50.1C22.4808 50.03 22.6508 49.94 22.8108 49.82C23.4108 50.94 23.5708 52.31 23.8808 53.53C24.0708 54.28 24.3508 54.98 24.7308 55.65C24.4608 55.8 24.1808 55.93 23.8908 56.04C23.6608 55.66 23.4808 55.29 23.3508 54.96Z" fill="#FDDD85"/>
<path d="M9.96004 48.67C11.31 46.55 13.09 45.18 15.32 44.46C15.46 44.71 15.61 44.95 15.77 45.19C13.49 46.32 11.72 48.14 10.46 50.41C10.17 50.94 9.94004 51.54 9.74004 52.18C9.33004 51.85 8.92004 51.51 8.54004 51.15C9.02004 50.21 9.54004 49.34 9.97004 48.67H9.96004Z" fill="#FDDD85"/>
<path d="M13.8604 41.1C14.0404 41.71 14.2604 42.32 14.5404 42.94C12.4604 43.8 10.1404 44.28 8.14043 45.39C7.13043 45.95 6.16043 46.63 5.24043 47.35C4.77043 46.68 4.34043 45.98 3.94043 45.27C6.88043 42.86 10.7604 40.99 13.8604 41.1Z" fill="#FDDD85"/>
<path d="M4.67039 33.25C7.49039 33.58 10.7904 33.86 13.4704 35.14C13.4004 35.62 13.3604 36.1 13.3404 36.59C10.4604 36.1 7.62039 35.17 4.68039 34.92C3.24039 34.8 1.82039 34.63 0.380391 34.54C0.290391 33.91 0.210391 33.27 0.150391 32.63C1.83039 32.75 3.53039 33.12 4.68039 33.25H4.67039Z" fill="#FDDD85"/>
<path d="M28.08 52.13C27.13 51.84 26.24 51.58 25.46 50.88C25.07 50.53 24.5 50.11 24.3 49.61C24.15 49.24 23.93 48.94 23.75 48.61C23.84 48.42 23.93 48.23 24 48.02C24.79 48.46 25.5 49.08 26.18 49.66C26.64 50.05 27.05 50.38 27.45 50.83C27.72 51.14 27.97 51.43 28.26 51.7C28.2 51.84 28.14 51.99 28.08 52.12V52.13Z" fill="#FDDD85"/>
<path d="M5.39008 40.32C4.28008 40.63 3.21008 41.03 2.17008 41.49C1.96008 40.94 1.76008 40.39 1.58008 39.83C2.11008 39.63 2.61008 39.44 3.06008 39.28C6.13008 38.12 9.99008 37.54 13.3501 38.23C13.3801 38.73 13.4501 39.24 13.5401 39.75C10.9201 40.17 8.01008 39.6 5.39008 40.33V40.32Z" fill="#FDDD85"/>
<path d="M5.44027 25.14C8.36027 27.28 11.6603 28.77 14.9003 30.35C14.7303 30.72 14.5703 31.1 14.4203 31.49C10.6403 30.25 7.02027 28.43 3.73027 26.24C2.92027 25.7 1.71027 24.85 0.530273 23.83C0.690273 22.98 0.880273 22.15 1.11027 21.32C2.36027 22.78 3.91027 24.03 5.43027 25.14H5.44027Z" fill="#FDDD85"/>
<path d="M27.0199 47.38C26.3399 47.33 25.1699 47.16 24.3799 46.74C24.4499 46.42 24.4999 46.1 24.5499 45.78C25.1599 45.81 25.8299 46.06 26.3499 46.13C26.9599 46.21 27.5599 46.26 28.1699 46.17C28.3699 46.14 28.5399 46.07 28.7099 46C28.7999 46.41 28.8699 46.83 28.9199 47.25C28.2799 47.42 27.5299 47.41 27.0099 47.37L27.0199 47.38Z" fill="#FDDD85"/>
<path d="M26.9407 21.21C26.4607 16.48 28.0207 10.84 29.6907 7.14998C30.5607 5.22998 31.8407 2.67998 33.5007 0.539978C33.8207 0.599978 34.1307 0.659978 34.4507 0.719978C35.3207 0.899978 36.2707 1.15998 37.2507 1.48998C36.7207 1.78998 36.2107 2.13998 35.7307 2.58998C34.0607 4.11998 32.9007 6.42998 31.8407 8.39998C30.2507 11.37 29.0007 14.4 28.5807 17.76C28.4207 19.02 28.4607 20.27 28.5007 21.53C28.0107 21.37 27.4807 21.26 26.9507 21.21H26.9407Z" fill="#FDDD85"/>
<path d="M61.5896 18.79C57.5096 15.37 44.7596 11.29 44.1596 11.29C43.5596 11.29 30.8096 15.37 26.7296 18.79C23.0896 21.84 24.9696 26.48 25.3396 30.4C25.5596 32.69 25.4196 35.34 26.5396 37.43C27.9696 40.1 29.4996 42.58 30.5296 45.46C31.4296 47.98 32.6196 49.91 34.2596 52.02C34.7096 52.6 35.0696 53.28 35.5896 53.7C36.5896 56.96 40.0296 59.79 43.4796 60.14C43.5496 60.14 43.6296 60.15 43.6996 60.16C43.7796 60.16 43.8496 60.16 43.9296 60.17C44.0096 60.17 44.0896 60.17 44.1696 60.17C44.2496 60.17 44.3296 60.17 44.4096 60.17C44.4896 60.17 44.5596 60.17 44.6396 60.16C44.7096 60.16 44.7896 60.16 44.8596 60.14C48.3096 59.8 51.7496 56.96 52.7496 53.7C53.2696 53.28 53.6296 52.6 54.0796 52.02C55.7196 49.91 56.9096 47.98 57.8096 45.46C58.8396 42.58 60.3696 40.11 61.7996 37.43C62.9196 35.34 62.7796 32.7 62.9996 30.4C63.3696 26.48 65.2496 21.84 61.6196 18.79H61.5896Z" fill="#C43100"/>
<path d="M64.94 17.59C61.83 15.3 58.35 12.62 54.95 11.01C49.62 8.49998 45.79 8.47998 44.31 4.78998C44.26 4.79998 44.21 4.80998 44.16 4.81998C44.11 4.80998 44.05 4.79998 44 4.78998C42.52 8.47998 38.68 8.49998 33.36 11.01C29.96 12.61 26.48 15.3 23.37 17.59C23.23 17.97 23.11 18.34 23.01 18.72C22.1 22.19 23.7 24.76 26.47 26.82C28.02 27.97 29.87 30.87 31.8 31.26C33.77 31.66 35.59 34.18 35.44 37.25C35.2 42 31.36 40.34 31.28 45.22C31.21 49.77 37.59 58.41 42.44 55.52C43.08 55.41 43.69 55.14 44.17 54.72C44.65 55.13 45.25 55.41 45.89 55.52C50.74 58.41 57.12 49.76 57.05 45.22C56.98 40.33 53.13 42 52.89 37.25C52.73 34.18 54.56 31.66 56.53 31.26C58.46 30.87 60.32 27.97 61.86 26.82C64.63 24.76 66.22 22.19 65.32 18.72C65.22 18.34 65.1 17.97 64.96 17.59H64.94Z" fill="#A82A00"/>
<path d="M31.02 27.53C31.02 24.48 29.41 21.99 27.4 21.99C25.39 21.99 23.76 24.45 23.75 27.51C23.75 30.57 25.36 33.05 27.37 33.06C29.38 33.06 31.01 30.59 31.02 27.54V27.53Z" fill="#471302"/>
<path d="M25.7101 28.13C25.6001 27.53 25.2601 27.09 24.9601 27.15C24.6601 27.21 24.5002 27.74 24.6202 28.33C24.7302 28.93 25.0702 29.37 25.3702 29.31C25.6702 29.25 25.8201 28.72 25.7101 28.13Z" fill="#FDDD85"/>
<path d="M26.1101 30.28C26.0701 30.08 25.8801 29.96 25.6701 29.99C25.4701 30.03 25.3301 30.22 25.3701 30.41C25.4101 30.61 25.6001 30.73 25.8101 30.7C26.0101 30.66 26.1501 30.47 26.1101 30.28Z" fill="#FDDD85"/>
<path d="M64.5503 27.53C64.5503 24.48 62.9403 21.99 60.9303 21.99C58.9203 21.99 57.2903 24.45 57.2803 27.51C57.2803 30.57 58.8903 33.05 60.9003 33.06C62.9103 33.06 64.5403 30.59 64.5503 27.54V27.53Z" fill="#471302"/>
<path d="M59.4102 29.84C59.0502 29.35 58.5502 29.11 58.3102 29.29C58.0602 29.47 58.1602 30.02 58.5202 30.5C58.8802 30.99 59.3802 31.24 59.6202 31.05C59.8702 30.86 59.7702 30.32 59.4102 29.83V29.84Z" fill="#FDDD85"/>
<path d="M60.7202 31.6C60.6002 31.44 60.3702 31.41 60.2002 31.53C60.0302 31.65 59.9902 31.89 60.1102 32.05C60.2302 32.21 60.4602 32.24 60.6302 32.11C60.7902 31.99 60.8402 31.76 60.7202 31.6Z" fill="#FDDD85"/>
<path d="M64.94 17.59C61.83 15.3 58.35 12.62 54.95 11.01C49.62 8.49998 45.79 8.47998 44.31 4.78998C44.26 4.79998 44.21 4.80998 44.16 4.81998C44.11 4.80998 44.05 4.79998 44 4.78998C42.52 8.47998 38.68 8.49998 33.36 11.01C29.96 12.61 26.48 15.3 23.37 17.59C23.23 17.97 23.11 18.34 23.01 18.72C22.1 22.19 23.7 24.76 26.47 26.82C28.02 27.97 29.87 29.17 31.8 29.57C33.77 29.97 35.59 29.1 35.44 32.16C35.2 36.91 31.36 40.34 31.28 45.22C31.21 49.77 37.59 58.41 42.44 55.52C43.08 55.41 43.69 55.14 44.17 54.72C44.65 55.13 45.25 55.41 45.89 55.52C50.74 58.41 57.12 49.76 57.05 45.22C56.98 40.33 53.13 36.91 52.89 32.16C52.73 29.09 54.56 29.97 56.53 29.57C58.46 29.18 60.32 27.98 61.86 26.82C64.63 24.76 66.22 22.19 65.32 18.72C65.22 18.34 65.1 17.97 64.96 17.59H64.94Z" fill="#FF6A38"/>
<path d="M44.1496 21.21C48.8196 21.21 46.7496 4.18999 44.1496 4.81999C41.5496 4.18999 39.4796 21.21 44.1496 21.21Z" fill="#FF8961"/>
<path d="M22.79 21.29C23.03 23.51 24.43 25.3 26.46 26.81C28.01 27.96 29.86 29.16 31.79 29.56C33.04 29.81 34.23 29.56 34.89 30.12C35.41 29.37 35.7 28.55 35.7 27.7C35.69 24.1 30.62 21.2 24.37 21.22C23.83 21.22 23.31 21.25 22.79 21.3V21.29Z" fill="#FF8961"/>
<path d="M52.0705 37.42C52.0705 29.83 48.5305 21.99 44.1505 21.99C39.7705 21.99 36.2305 29.84 36.2305 37.42C36.2305 45 39.7705 49.46 44.1505 49.46C48.5305 49.46 52.0705 45 52.0705 37.42Z" fill="#FF8961"/>
<path d="M63.8896 21.22C57.6396 21.24 52.5896 24.18 52.5996 27.77C52.5996 28.61 52.8896 29.4 53.3896 30.14C54.0496 29.56 55.2496 29.82 56.5096 29.56C58.4396 29.17 60.2996 27.97 61.8396 26.81C63.8696 25.3 65.2696 23.5 65.5096 21.28C64.9796 21.24 64.4396 21.21 63.8796 21.21L63.8896 21.22Z" fill="#FF8961"/>
<path d="M44.1498 54.99C44.9198 55.92 46.9798 56.86 48.1298 56.74C49.4098 56.6 50.9498 55.69 52.3598 54.62C52.4898 54.33 52.6098 54.03 52.7098 53.73C51.6798 54.43 50.6098 55.04 49.6898 55.19C47.6298 55.53 45.6398 55.19 44.6198 53.4C44.9598 53.13 45.1198 52.3 45.1998 52.07C45.5298 50.98 47.8198 48.49 48.0598 48.32C48.8998 47.71 49.5198 46.86 50.1698 46.07C50.3698 45.83 50.1098 45.41 49.8198 45.62C49.0498 46.16 48.2798 46.82 47.3998 47.2C46.5198 47.58 45.3598 47.44 44.4198 47.57C44.3198 47.58 44.2298 47.61 44.1498 47.64C44.0698 47.61 43.9798 47.58 43.8798 47.57C42.9398 47.45 41.7798 47.59 40.8998 47.2C40.0198 46.82 39.2598 46.17 38.4798 45.62C38.1898 45.42 37.9298 45.84 38.1298 46.07C38.7898 46.86 39.4098 47.71 40.2398 48.32C40.4798 48.5 42.7698 50.98 43.1098 52.07C43.1798 52.3 43.3398 53.14 43.6798 53.4C42.6598 55.18 40.6698 55.52 38.6098 55.19C37.6998 55.04 36.6198 54.43 35.5898 53.73C35.6798 54.03 35.7998 54.33 35.9398 54.62C37.3498 55.69 38.8998 56.61 40.1798 56.74C41.3198 56.86 43.3898 55.93 44.1598 54.99H44.1498Z" fill="#A82A00"/>
<path d="M40.2503 48.31C40.3103 48.35 40.4903 48.53 40.7303 48.79C40.7903 48.82 40.8503 48.85 40.9003 48.88C41.7803 49.26 46.5203 49.26 47.4003 48.88C47.4603 48.85 47.5203 48.82 47.5703 48.79C47.8103 48.53 47.9903 48.35 48.0503 48.31C48.8903 47.7 49.5103 46.85 50.1603 46.06C50.3603 45.82 50.1003 45.4 49.8103 45.61C49.0403 46.15 48.2703 46.81 47.3903 47.19C46.5103 47.57 41.7703 47.57 40.8903 47.19C40.0103 46.81 39.2503 46.16 38.4703 45.61C38.1803 45.41 37.9203 45.83 38.1203 46.06C38.7803 46.85 39.4003 47.7 40.2303 48.31H40.2503Z" fill="#471302"/>
</g>
<defs>
<clipPath id="clip0_187_15181">
<rect width="88.31" height="60.15" fill="white"/>
</clipPath>
</defs>
</svg>
