<svg width="78" height="72" viewBox="0 0 78 72" fill="none" xmlns="http://www.w3.org/2000/svg">
<g clip-path="url(#clip0_187_14661)">
<path d="M71.6996 13.01C71.6996 13.01 56.9496 9.44 38.7496 9.44C20.5496 9.44 5.80957 13.01 5.80957 13.01C5.80957 13.01 20.5596 16.58 38.7596 16.58C56.9596 16.58 71.7096 13.01 71.7096 13.01H71.6996Z" fill="#FDC11C"/>
<path d="M26.18 42.99C26.18 39.7 20.32 37.04 13.09 37.04C5.86 37.04 0 39.7 0 42.99C0 46.28 5.86 51.62 13.09 51.62C20.32 51.62 26.18 46.28 26.18 42.99Z" fill="#FDC11C"/>
<path d="M4.01045 47.34C6.79045 49.67 10.4205 50.32 12.1105 48.79C13.8005 47.26 12.9205 44.13 10.1305 41.8C7.35045 39.47 3.72045 38.83 2.03045 40.36C0.340451 41.89 1.22045 45.02 4.01045 47.35V47.34Z" fill="#FDDD85"/>
<path d="M24.7797 42.44C24.7797 40.51 19.6097 37.86 13.0897 37.86C6.56969 37.86 1.17969 40.51 1.17969 42.44C1.17969 44.37 6.45969 45.93 12.9797 45.93C19.4997 45.93 24.7797 44.37 24.7797 42.44Z" fill="#FF6A38"/>
<path d="M24.7802 42.44C24.7802 41.52 23.5902 40.43 21.6402 39.55C21.3702 39.55 21.1002 39.53 20.8202 39.53C14.3002 39.53 8.91016 42.18 8.91016 44.11C8.91016 44.75 9.49016 45.34 10.5002 45.85C11.3002 45.9 12.1302 45.93 12.9802 45.93C19.5002 45.93 24.7802 44.37 24.7802 42.44Z" fill="#FF8961"/>
<path d="M77.1605 42.99C77.1605 39.7 71.3005 37.04 64.0705 37.04C56.8405 37.04 50.9805 39.71 50.9805 42.99C50.9805 46.27 56.8405 51.62 64.0705 51.62C71.3005 51.62 77.1605 46.28 77.1605 42.99Z" fill="#FDC11C"/>
<path d="M54.9909 47.34C57.7709 49.67 61.4009 50.32 63.0909 48.79C64.7809 47.26 63.9009 44.13 61.1109 41.8C58.3309 39.47 54.7009 38.83 53.0109 40.36C51.3209 41.89 52.2009 45.02 54.9909 47.35V47.34Z" fill="#FDDD85"/>
<path d="M75.7504 42.44C75.7504 40.51 70.5804 37.86 64.0604 37.86C57.5404 37.86 52.1504 40.51 52.1504 42.44C52.1504 44.37 57.4304 45.93 63.9504 45.93C70.4704 45.93 75.7504 44.37 75.7504 42.44Z" fill="#FF6A38"/>
<path d="M75.7509 42.44C75.7509 41.52 74.5609 40.43 72.6109 39.55C72.3409 39.55 72.0709 39.53 71.7909 39.53C65.2709 39.53 59.8809 42.18 59.8809 44.11C59.8809 44.75 60.4609 45.34 61.4709 45.85C62.2709 45.9 63.1009 45.93 63.9509 45.93C70.4709 45.93 75.7509 44.37 75.7509 42.44Z" fill="#FF8961"/>
<path d="M59.9305 64.19C59.9305 60.2 50.3705 56.97 38.5805 56.97C26.7905 56.97 17.2305 60.2 17.2305 64.19C17.2305 68.18 26.7905 71.41 38.5805 71.41C50.3705 71.41 59.9305 68.18 59.9305 64.19Z" fill="#C43100"/>
<path d="M17.2297 64.16C20.3697 66.65 27.2797 68.39 35.3297 68.39C46.3197 68.39 55.2297 65.16 55.2297 61.17C55.2297 60.57 55.0097 59.99 54.6297 59.44C50.7197 57.93 44.9797 56.97 38.5697 56.97C26.8097 56.97 17.2697 60.19 17.2197 64.16H17.2297Z" fill="#FF6A38"/>
<path d="M43.7003 57.53C43.7003 54.89 41.4903 52.75 38.7603 52.75C36.0303 52.75 33.8203 54.89 33.8203 57.53C33.8203 60.17 36.0303 62.31 38.7603 62.31C41.4903 62.31 43.7003 60.17 43.7003 57.53Z" fill="#C43100"/>
<path d="M33.8096 57.53C33.8096 58.16 33.9396 58.77 34.1796 59.32C34.8796 59.71 35.6696 59.95 36.5396 59.95C39.1496 59.95 41.2596 57.9 41.2596 55.38C41.2596 54.54 41.0096 53.77 40.6096 53.1C40.0396 52.88 39.4096 52.75 38.7596 52.75C36.0296 52.75 33.8196 54.89 33.8196 57.53H33.8096Z" fill="#FF6A38"/>
<path d="M42.1204 35.06C42.1204 13.71 40.6104 15.49 38.7604 15.49C36.9104 15.49 35.4004 13.71 35.4004 35.06C35.4004 56.41 36.9104 54.62 38.7604 54.62C40.6104 54.62 42.1204 56.4 42.1204 35.06Z" fill="#C43100"/>
<path d="M40.8997 32.39C40.8997 23.07 40.6097 18.16 40.1297 15.58C39.7097 15.37 39.2396 15.49 38.7496 15.49C36.8896 15.49 35.3896 13.71 35.3896 35.06C35.3896 44.37 35.6796 49.28 36.1596 51.86C36.5796 52.07 37.0496 51.95 37.5396 51.95C39.3997 51.95 40.8997 53.73 40.8997 32.39Z" fill="#FF6A38"/>
<path d="M42.3596 12.93C42.3596 11 40.7396 9.44 38.7496 9.44C36.7596 9.44 35.1396 11 35.1396 12.93C35.1396 14.86 36.7596 16.42 38.7496 16.42C40.7396 16.42 42.3596 14.86 42.3596 12.93Z" fill="#C43100"/>
<path d="M35.1396 12.93C35.1396 13.39 35.2396 13.83 35.4096 14.24C35.9196 14.53 36.4997 14.7 37.1297 14.7C39.0396 14.7 40.5797 13.2 40.5797 11.36C40.5797 10.75 40.3996 10.19 40.0996 9.68999C39.6796 9.52999 39.2296 9.42999 38.7496 9.42999C36.7596 9.42999 35.1396 10.99 35.1396 12.92V12.93Z" fill="#FF6A38"/>
<path d="M27.7395 62.82C29.4595 62.38 30.7595 61.12 30.6395 60.01C30.5195 58.9 29.0195 58.35 27.2895 58.79C25.5695 59.23 24.2695 60.49 24.3895 61.6C24.5095 62.71 26.0095 63.26 27.7395 62.82Z" fill="#FDDD85"/>
<path d="M37.2599 56.19C36.9699 57.09 36.2699 57.68 35.6999 57.49C35.1299 57.31 34.9099 56.42 35.1999 55.52C35.4899 54.62 36.1899 54.03 36.7599 54.22C37.3299 54.41 37.5499 55.29 37.2599 56.19Z" fill="#FDDD85"/>
<path d="M38.42 11.82C38.13 12.72 37.43 13.31 36.86 13.12C36.29 12.94 36.07 12.05 36.36 11.15C36.65 10.25 37.35 9.66 37.92 9.85C38.49 10.04 38.71 10.92 38.42 11.82Z" fill="#FDDD85"/>
<path d="M36.2305 26.63C36.2305 31.5 36.6605 35.46 37.1905 35.46C37.7205 35.46 38.1405 31.51 38.1405 26.63C38.1405 21.75 37.7105 17.8 37.1905 17.8C36.6705 17.8 36.2305 21.75 36.2305 26.63Z" fill="#FDDD85"/>
<path d="M40.95 6.81C40.95 3.93 38.58 0 38.58 0C38.58 0 36.21 3.93 36.21 6.81C36.21 9.69 37.27 10.41 38.58 10.41C39.89 10.41 40.95 9.68 40.95 6.81Z" fill="#FDC11C"/>
<path d="M38.5103 1C38.1703 1.6 36.6104 4.41 36.6104 6.54C36.6104 8.88 37.4503 9.5 38.5103 9.53V1Z" fill="#FDDD85"/>
<path d="M0.59038 42.54C0.51038 42.54 0.43038 42.52 0.35038 42.48C0.11038 42.35 0.0203801 42.05 0.15038 41.8L13.0904 12.77L26.0304 41.8C26.1604 42.04 26.0704 42.35 25.8304 42.48C25.5904 42.61 25.2904 42.52 25.1504 42.28L13.0904 14.88L1.03038 42.27C0.94038 42.44 0.77038 42.53 0.59038 42.53V42.54Z" fill="#C43100"/>
<path d="M51.5699 42.54C51.4899 42.54 51.4099 42.52 51.3299 42.48C51.0899 42.35 50.9999 42.05 51.1299 41.8L64.0699 12.77L77.0099 41.8C77.1399 42.04 77.0499 42.35 76.8099 42.48C76.5699 42.61 76.2599 42.52 76.1299 42.28L64.0699 14.89L52.0099 42.28C51.9199 42.45 51.7499 42.54 51.5699 42.54Z" fill="#C43100"/>
</g>
<defs>
<clipPath id="clip0_187_14661">
<rect width="77.16" height="71.41" fill="white"/>
</clipPath>
</defs>
</svg>
