<svg width="73" height="75" viewBox="0 0 73 75" fill="none" xmlns="http://www.w3.org/2000/svg">
<g clip-path="url(#clip0_187_15034)">
<path d="M55.13 14.78C55.13 14.78 56.77 23.02 56.57 24.89C56.4 26.49 55.56 28.35 55.13 29.05C54.8 29.6 59.48 35.45 60.25 36.47C61.02 37.49 60.78 38.41 59.41 39.79C58.04 41.17 57.18 40.95 56.79 41.91C56.41 42.87 57.19 43.19 57.38 43.41C57.72 43.79 57.59 44.35 56.79 44.72C57.56 45.1 57.7 45.75 57.33 46.57C56.96 47.4 56.08 47.66 55.7 48.75C55.32 49.84 57.11 51.69 56.08 53.93C55.06 56.17 51.41 56.36 47.19 54.63C45.85 54.25 44.69 56.36 44.25 57.06C43.8 57.76 41.75 64.16 40.35 68.07C38.94 68.84 23.33 71.26 17.44 63.42C18.69 58.78 21.06 47.65 20.69 44.45C20.32 41.25 19.48 38.89 18.11 37C16.74 35.11 7.58997 15.3 23.43 6.59002C39.26 -2.12998 53.9 9.05002 55.13 14.77V14.78Z" fill="#FF6A38"/>
<path d="M55.1302 14.78C55.1302 14.78 56.7702 23.02 56.5702 24.89C56.4002 26.49 55.5602 28.35 55.1302 29.05C54.8002 29.6 59.4802 35.45 60.2502 36.47C61.0202 37.49 60.7802 38.41 59.4102 39.79C58.0402 41.17 57.1802 40.95 56.7902 41.91C56.4102 42.87 57.1902 43.19 57.3802 43.41C57.7202 43.79 57.5902 44.35 56.7902 44.72C57.5602 45.1 57.7002 45.75 57.3302 46.57C56.9602 47.4 56.0802 47.66 55.7002 48.75C55.3202 49.84 57.1102 51.69 56.0802 53.93C55.0602 56.17 51.4102 56.36 47.1902 54.63C45.8502 54.25 35.9202 49.75 34.9002 46.7C33.6202 42.86 19.4702 38.9 18.1002 37.01C16.7302 35.12 7.5802 15.31 23.4202 6.60003C39.2502 -2.11997 53.8902 9.06003 55.1202 14.78H55.1302Z" fill="#FF8961"/>
<path d="M54.1301 24.38C53.1801 23.51 50.7401 22.59 48.5801 23.47C46.4001 24.35 44.0201 25.2 42.4001 26.99C42.3301 27.07 42.4401 27.19 42.5301 27.15C45.1101 25.73 49.8201 23.53 53.3201 25.38C54.5501 26.03 55.3401 25.49 54.1401 24.39L54.1301 24.38Z" fill="#C43100"/>
<path d="M52.3104 28.98C52.2304 29.78 51.6704 30.41 50.9904 30.41C50.4004 30.41 45.5004 29.96 44.2604 29.33C44.2004 29.42 44.1504 29.5 44.1504 29.6C44.1504 30.63 50.4204 31.46 51.1204 31.46C51.8204 31.46 52.3904 30.63 52.3904 29.6C52.3904 29.38 52.3604 29.18 52.3104 28.99V28.98Z" fill="#471302"/>
<path d="M50.5805 38.2C50.8905 36.54 49.0705 34.8 46.5005 34.31C43.9305 33.82 41.5905 34.77 41.2805 36.43C40.9705 38.09 42.7905 39.83 45.3605 40.32C47.9305 40.81 50.2705 39.86 50.5805 38.2Z" fill="#FF6A38"/>
<path d="M52.6299 45.62C52.6299 45.62 55.5299 46.54 56.9999 47.09C57.1299 46.94 57.2499 46.77 57.3399 46.58C57.7099 45.75 57.5599 45.11 56.7999 44.73C57.5999 44.36 57.7299 43.8 57.3899 43.42C57.3699 43.4 57.3499 43.38 57.3199 43.36C55.6199 44.16 52.6299 45.63 52.6299 45.63V45.62Z" fill="#FF6A38"/>
<path d="M8.23958 56.34C8.23958 56.34 8.19958 56.24 8.16958 56.19C8.03958 55.9 7.61958 56.32 7.90958 56.45L8.05958 56.52C8.17958 56.58 8.29958 56.46 8.23958 56.34Z" fill="#A82A00"/>
<path d="M71.0195 42.55C70.4595 43.69 69.9595 44.84 69.4795 46.01C67.6695 48.24 66.3195 50.9 64.5595 53.17C62.2695 56.13 59.5295 58.68 56.3495 60.66C51.0895 63.94 44.4295 65.24 38.6495 62.61C31.9195 59.54 29.7395 51.52 29.1795 44.82C28.9795 42.48 29.0495 40.11 29.2195 37.76C30.3795 41.5 31.8795 45.48 33.6895 48.99C33.7095 49.02 33.7295 49.05 33.7595 49.08C33.7795 49.12 33.7895 49.16 33.7995 49.2C33.9495 49.59 34.7195 49.44 34.6995 49.03C34.5895 46.59 33.9595 44.18 33.8295 41.72C33.7095 39.41 33.8795 37.1 34.1595 34.8C34.4595 32.35 35.0795 29.94 35.9095 27.58C36.5195 25.84 37.4195 24.18 38.1895 22.5C37.7995 24.07 37.6195 25.67 37.5495 27.28C37.4395 29.74 37.3895 33.32 38.7495 35.46C38.8595 35.64 39.1895 35.6 39.2095 35.37C39.2395 35.05 39.2095 34.74 39.1795 34.42C40.1595 32.15 40.9195 29.88 42.1395 27.69C43.2895 25.64 44.5995 23.66 45.7395 21.61C47.7695 17.95 50.0095 12.8 48.2595 8.74001C50.4095 9.19001 51.9895 11.16 53.2495 12.65C53.3895 12.82 53.5295 13 53.6595 13.17C53.9995 13.9 54.3595 14.63 54.6295 15.34C55.3595 17.27 55.8495 19.28 56.2695 21.3C56.2395 23.09 56.0695 24.87 56.0095 26.73C55.9995 27.04 56.4395 27.07 56.5195 26.8C56.5595 26.7 56.5795 26.59 56.6095 26.49C56.5795 26.62 56.5595 26.74 56.5195 26.87C56.5095 26.93 56.5895 26.97 56.6295 26.91C59.1495 22.37 61.3595 12.38 57.5095 8.09001C57.5095 8.09001 57.4995 8.09001 57.4895 8.08001C56.3995 6.27001 54.5895 4.71001 52.7995 3.76001C50.0895 2.32001 46.0195 2.29001 42.8195 3.02001C37.2895 0.440009 30.4495 -0.559991 24.2095 0.300009C21.0395 0.740009 18.0195 1.88001 15.4295 3.59001C14.6395 4.11001 13.8195 4.76001 13.0595 5.49001C12.9895 5.55001 12.9195 5.62001 12.8495 5.69001C5.13952 10.59 1.23952 22.23 0.239517 30.32C-1.19048 41.91 4.02952 55.01 12.0795 63.18C21.8495 73.1 36.6195 77.08 49.8395 72.75C62.4895 68.61 70.7995 55.76 72.2895 42.9C72.3695 42.22 71.2995 41.96 71.0095 42.55H71.0195Z" fill="#C43100"/>
<path d="M53.8402 67.12C52.8902 66.25 49.4802 64.1 48.4802 65.98C48.4302 66.07 48.4502 66.21 48.5502 66.26C49.1902 66.56 49.8802 66.33 50.5802 66.51C50.6002 66.51 50.6202 66.53 50.6302 66.53C49.7102 67.9 49.1802 69.6 48.3302 71.03C48.0002 71.59 47.6602 72.15 47.3102 72.7C47.3402 71.01 46.1902 69.58 45.0202 68.44C43.8002 67.25 41.6902 65.77 39.9202 65.83C39.5502 65.84 39.4302 66.31 39.7402 66.51C40.3102 66.88 40.9702 67.06 41.5802 67.36C41.8802 67.51 42.1602 67.69 42.4402 67.87C40.7902 69.11 39.6702 71.6 38.2702 73.04C37.7602 73.56 37.2402 74 36.7002 74.4C37.4402 74.44 38.1902 74.46 38.9402 74.46C40.5002 73.17 42.8102 70.86 43.6202 68.8C43.7002 68.87 43.7802 68.94 43.8502 69.01C45.1602 70.24 45.7602 71.9 46.8002 73.31C46.8202 73.34 46.8602 73.36 46.8902 73.38C46.8502 73.44 46.8102 73.51 46.7702 73.57C47.2602 73.46 47.7402 73.33 48.2202 73.2C48.6002 72.68 48.9802 72.16 49.3502 71.62C50.2602 70.27 51.4502 68.61 51.6202 66.93C52.3802 67.33 53.0502 67.89 53.6702 68.48C54.2402 69.03 54.7202 69.67 55.1802 70.32C55.5402 70.12 55.8902 69.91 56.2402 69.69C55.4602 68.65 54.4902 67.7 53.8402 67.11V67.12Z" fill="#A82A00"/>
<path d="M26.7707 72.43C27.4407 72.66 28.1207 72.87 28.8007 73.06C31.8707 72.38 34.9107 71.43 35.8807 68.75C36.0007 68.41 35.5807 68.14 35.3007 68.31C34.5507 68.75 33.9307 69.34 33.2407 69.85C33.5007 68.61 33.0807 66.85 32.9507 65.94C32.7007 64.32 31.7607 61.2 30.1407 60.42C29.9407 60.32 29.7407 60.52 29.8407 60.72C30.5707 62.22 31.0607 63.48 31.3807 64.95C29.0407 65.35 27.0107 66.69 24.9107 67.86C26.1207 65.93 26.4807 62.93 26.7807 61.08C27.2207 58.31 27.3807 54.87 25.8707 52.38C25.7707 52.22 25.5507 52.33 25.5807 52.5C26.1207 55.63 25.9607 58.53 25.3007 61.65C24.8107 63.94 23.2007 66.47 23.1207 68.78C22.7107 68.96 22.2907 69.13 21.8707 69.27C21.4007 69.42 20.9407 69.52 20.4707 69.58C21.0307 69.9 21.6007 70.2 22.1707 70.48C25.4307 69.8 29.0207 67.45 31.5507 65.7C31.6007 66 31.6507 66.3 31.6907 66.62C31.8307 67.73 31.3807 69.6 31.9407 70.64C31.0107 71.08 30.0107 71.38 29.0407 71.67C28.2607 71.9 27.5307 72.16 26.8107 72.42L26.7707 72.43Z" fill="#A82A00"/>
<path d="M37.5999 72.95C37.7599 73.1 37.9799 73.06 38.0999 72.89C38.9699 71.64 37.6899 69.21 37.1799 68C36.6299 66.69 35.9199 64.93 34.4599 64.49C34.3899 64.47 34.3399 64.54 34.3499 64.6C34.5999 66.06 35.6599 67.39 36.1999 68.79C36.6599 69.99 36.6299 72.09 37.5899 72.96L37.5999 72.95Z" fill="#A82A00"/>
<path d="M24.3603 63.68C24.6703 63.53 24.4903 63.1 24.2003 63.08C22.2403 62.94 20.3703 62.93 18.5103 62.85C20.9903 59.7 21.2803 55.39 22.0203 51.56C23.2203 45.42 27.2003 39.93 29.1103 33.97C29.1603 33.81 28.9303 33.72 28.8403 33.86C25.9403 38.38 23.5703 43.1 21.4803 48.06C21.2603 48.59 21.0803 49.12 20.9103 49.67C20.8603 49.58 20.7803 49.52 20.6503 49.53C17.2903 49.96 14.4603 50.02 11.2103 49.11C11.0003 49.21 10.7603 49.12 10.6503 48.95C6.96031 47.8 3.93031 45.49 1.07031 42.99C1.19031 43.51 1.33031 44.03 1.47031 44.55C5.84031 49.39 15.2403 54.05 20.7603 50.17C20.2603 52.03 20.0103 53.98 19.7103 55.87C19.3103 58.36 17.8903 60.36 17.6703 62.83C15.5503 62.72 13.4303 62.5 11.2003 61.87C11.0303 61.82 10.8603 61.76 10.6803 61.7C11.1303 62.21 11.5903 62.71 12.0603 63.19C12.2703 63.4 12.5003 63.6 12.7203 63.81C16.5303 65.15 20.5103 65.48 24.3403 63.68H24.3603Z" fill="#A82A00"/>
<path d="M11.2306 49.1C11.2306 49.1 11.3106 49.06 11.3506 49.03C16.8906 44.09 19.8006 34.2 20.5906 27.06C20.6106 26.84 20.2506 26.73 20.1606 26.94C18.8506 29.98 18.1406 33.27 17.0406 36.39C15.4606 40.89 12.9906 44.43 10.6706 48.5C10.5806 48.66 10.6006 48.82 10.6706 48.94C10.7106 48.95 10.7406 48.97 10.7706 48.98C10.9306 49.03 11.0806 49.06 11.2306 49.1Z" fill="#A82A00"/>
<path d="M23.3305 19.12C23.3305 16.79 22.4205 16.11 21.3005 16.11C20.1805 16.11 19.2705 16.79 19.2705 19.12C19.2705 21.45 21.3005 24.53 21.3005 24.53C21.3005 24.53 23.3305 21.44 23.3305 19.12Z" fill="#FDDD85"/>
<path d="M17.6303 20.3C15.4203 19.58 14.4903 20.24 14.1403 21.31C13.7903 22.38 14.1603 23.46 16.3703 24.17C18.5803 24.89 22.1503 23.91 22.1503 23.91C22.1503 23.91 19.8403 21.02 17.6303 20.3Z" fill="#FDDD85"/>
<path d="M16.9902 26.09C15.6202 27.97 15.9602 29.06 16.8702 29.72C17.7802 30.38 18.9202 30.36 20.2802 28.48C21.6502 26.6 21.8202 22.9 21.8202 22.9C21.8202 22.9 18.3602 24.2 16.9902 26.08V26.09Z" fill="#FDDD85"/>
<path d="M22.3007 28.48C23.6707 30.36 24.8107 30.38 25.7107 29.72C26.6207 29.06 26.9507 27.97 25.5907 26.09C24.2207 24.21 20.7607 22.91 20.7607 22.91C20.7607 22.91 20.9307 26.6 22.3007 28.49V28.48Z" fill="#FDDD85"/>
<path d="M26.2107 24.18C28.4207 23.46 28.7907 22.38 28.4407 21.31C28.0907 20.24 27.1607 19.59 24.9507 20.31C22.7407 21.03 20.4307 23.92 20.4307 23.92C20.4307 23.92 24.0007 24.9 26.2107 24.18Z" fill="#FDDD85"/>
<path d="M22.8402 23.77C22.8402 22.91 22.1502 22.22 21.2902 22.22C20.4302 22.22 19.7402 22.91 19.7402 23.77C19.7402 24.63 20.4402 25.32 21.2902 25.32C22.1402 25.32 22.8402 24.63 22.8402 23.77Z" fill="#FDC11C"/>
</g>
<defs>
<clipPath id="clip0_187_15034">
<rect width="72.29" height="74.49" fill="white"/>
</clipPath>
</defs>
</svg>
