<svg width="72" height="74" viewBox="0 0 72 74" fill="none" xmlns="http://www.w3.org/2000/svg">
<g id="Layer_1" clip-path="url(#clip0_187_14995)">
<g id="Group">
<g id="Group_2">
<path id="Vector" d="M50.1603 29.23C58.2703 26.64 62.8803 18.35 60.4403 10.71C58.0103 3.07004 49.4503 -1.02996 41.3403 1.55004C33.2303 4.14004 28.6203 12.43 31.0603 20.07C33.5003 27.71 42.0503 31.81 50.1603 29.23ZM35.0803 18.79C33.3103 13.24 36.6603 7.22004 42.5503 5.34004C48.4403 3.46004 54.6503 6.44004 56.4203 11.99C58.1903 17.54 54.8503 23.57 48.9503 25.44C43.0603 27.32 36.8503 24.34 35.0803 18.79Z" fill="#C43100"/>
<path id="Vector_2" d="M27.5399 28.1301C20.2699 31.5301 17.3199 40.5501 20.9299 48.2501C24.5499 55.9601 33.3599 59.4501 40.6199 56.0501C47.8899 52.6401 50.8399 43.6401 47.2299 35.9301C43.6199 28.2201 34.7999 24.7301 27.5399 28.1301ZM43.6299 37.6101C46.2599 43.2101 44.1099 49.7501 38.8299 52.2301C33.5499 54.7001 27.1499 52.1701 24.5299 46.5701C21.8999 40.9701 24.0499 34.4201 29.3299 31.9501C34.6099 29.4801 41.0099 32.0101 43.6299 37.6101Z" fill="#FF6A38"/>
</g>
<path id="Vector_3" d="M38.3597 41.6L51.6797 47.42L61.6197 24.68L48.2997 18.86C49.0797 11.89 46.8097 6.01 39.1097 2.65C27.2597 -2.53 6.43972 -0.110003 1.22972 11.82C-3.99028 23.76 8.36972 40.68 20.2197 45.86C27.9197 49.23 33.7797 46.91 38.3697 41.6H38.3597Z" fill="#C43100"/>
<path id="Vector_4" d="M2.88969 8.70003C2.13969 17.53 14.2197 29.83 24.9797 34.53C32.6797 37.9 38.0697 36.65 41.9597 32.94L55.2797 38.76L61.4697 24.61L48.1497 18.79C48.9297 11.81 46.6597 5.94003 38.9497 2.58003C28.1897 -2.12997 10.0497 -0.559975 2.88969 8.70003Z" fill="#FF6A38"/>
<path id="Vector_5" d="M58.0398 23.11C56.2598 25.54 54.0898 29.46 52.0798 34.05C50.0698 38.64 48.6698 42.9 48.0898 45.85L51.6798 47.42L61.6198 24.68L58.0298 23.11H58.0398Z" fill="#C43100"/>
<path id="Vector_6" d="M50.0797 50.65C51.5597 51.29 55.6197 45.25 59.1697 37.14C62.7197 29.03 64.3897 21.94 62.9097 21.3C62.7497 21.23 62.1497 20.97 61.9997 20.9C60.5197 20.26 56.4497 26.3 52.9097 34.41C49.3697 42.51 47.6897 49.61 49.1697 50.25C49.3197 50.32 49.9297 50.58 50.0797 50.65Z" fill="#FF8961"/>
<path id="Vector_7" d="M51.7801 47.47C52.4301 47.76 55.1801 42.89 57.9301 36.61C60.6701 30.33 62.3701 25.01 61.7201 24.73C61.0701 24.45 58.3201 29.31 55.5801 35.59C52.8301 41.87 51.1301 47.19 51.7801 47.47Z" fill="#471302"/>
<path id="Vector_8" d="M14.2993 7.01004C16.4393 -0.489964 32.3093 0.660037 41.9793 6.40004C46.0293 8.81004 48.4493 14.83 46.3093 22.32C44.1693 29.82 38.7593 34.85 34.2293 33.56C29.6993 32.27 12.1593 14.51 14.2993 7.01004Z" fill="#FF8961"/>
<path id="Vector_9" d="M51.3196 23.87C49.3996 23.02 48.0296 21.9 48.2596 21.37C48.4896 20.84 50.2396 21.1 52.1696 21.95C54.0896 22.8 55.4596 23.92 55.2296 24.45C54.9996 24.98 53.2496 24.72 51.3296 23.87H51.3196Z" fill="white"/>
<path id="Vector_10" d="M58.3795 11.71C57.9695 10.55 57.9995 9.48003 58.4395 9.33003C58.8795 9.17003 59.5795 9.98003 59.9895 11.14C60.3995 12.3 60.3695 13.37 59.9295 13.52C59.4795 13.68 58.7895 12.87 58.3795 11.71Z" fill="white"/>
<path id="Vector_11" d="M61.2501 24.2501C60.6101 24.9601 59.8601 25.34 59.5701 25.08C59.2901 24.8201 59.5701 24.04 60.2201 23.32C60.8601 22.61 61.6101 22.23 61.8901 22.49C62.1701 22.75 61.8901 23.5301 61.2401 24.2501H61.2501Z" fill="white"/>
<path id="Vector_12" d="M41.7695 12.79C40.9695 10.82 40.8795 9.00003 41.5695 8.72003C42.2595 8.44003 43.4695 9.81003 44.2695 11.77C45.0695 13.74 45.1595 15.56 44.4795 15.84C43.7895 16.12 42.5795 14.76 41.7795 12.79H41.7695Z" fill="white"/>
</g>
<g id="Group_3">
<g id="Group_4">
<path id="Vector_13" d="M49.6498 59.09C46.1698 63.27 44.1198 68.65 45.9798 71.32C48.1898 74.5 56.4298 75.06 60.5298 68.43C70.1498 52.87 54.6498 39.43 54.6498 39.43C54.6498 39.43 58.3398 48.67 49.6498 59.08V59.09Z" fill="#FF8961"/>
<path id="Vector_14" d="M51.8499 59.3C48.9299 62.96 47.1099 67.6 48.4999 69.81C50.1499 72.43 56.7099 72.62 60.2099 66.85C68.4199 53.31 56.5299 42.45 56.5299 42.45C56.5299 42.45 59.1499 50.16 51.8599 59.3H51.8499Z" fill="#FF6A38"/>
<path id="Vector_15" d="M54.4396 59.95C51.5496 64.51 52.3796 67.03 52.7296 67.64C54.1796 70.16 57.4896 70.86 60.8596 65.78C69.3196 53.06 56.3496 42.69 56.3496 42.69C56.3496 42.69 58.4196 53.65 54.4396 59.95Z" fill="#FF8961"/>
<path id="Vector_16" d="M57.8598 63.3C58.3498 62.19 59.2898 61.53 59.9598 61.83C60.6298 62.13 60.7798 63.27 60.2898 64.38C59.7998 65.49 58.8598 66.15 58.1898 65.85C57.5198 65.56 57.3698 64.41 57.8598 63.3Z" fill="white"/>
<path id="Vector_17" d="M60.1699 58.77C60.2699 58.15 60.6699 57.69 61.0399 57.75C61.4199 57.81 61.6399 58.37 61.5299 59C61.4299 59.62 61.0399 60.08 60.6599 60.02C60.2799 59.96 60.0599 59.4 60.1699 58.77Z" fill="white"/>
</g>
<g id="Group_5">
<path id="Vector_18" d="M63.2195 45.57C63.8795 48.51 65.5595 51.23 67.3595 51.32C69.4995 51.42 72.5395 47.99 71.0095 43.94C67.4195 34.45 56.2695 36.72 56.2695 36.72C56.2695 36.72 61.5695 38.22 63.2195 45.56V45.57Z" fill="#FF8961"/>
<path id="Vector_19" d="M64.0495 44.68C64.6695 47.2 66.0995 49.57 67.5395 49.71C69.2495 49.87 71.5495 47.05 70.1995 43.56C67.0195 35.37 58.2295 36.93 58.2295 36.93C58.2295 36.93 62.4995 38.39 64.0595 44.68H64.0495Z" fill="#FF6A38"/>
<path id="Vector_20" d="M65.2098 43.76C66.2398 46.57 67.6298 47.06 68.0098 47.11C69.6098 47.32 71.0298 46.11 69.9398 42.9C67.2098 34.88 58.2598 37.08 58.2598 37.08C58.2598 37.08 63.7798 39.87 65.1998 43.76H65.2098Z" fill="#FF8961"/>
<path id="Vector_21" d="M67.8395 43.39C67.5195 42.8 67.5495 42.16 67.9095 41.97C68.2595 41.77 68.8195 42.1 69.1395 42.68C69.4595 43.27 69.4295 43.91 69.0795 44.1C68.7195 44.3 68.1695 43.98 67.8495 43.39H67.8395Z" fill="white"/>
<path id="Vector_22" d="M66.6297 40.84C66.3897 40.58 66.3197 40.25 66.4797 40.11C66.6397 39.97 66.9597 40.06 67.1897 40.31C67.4297 40.57 67.4997 40.89 67.3397 41.04C67.1797 41.18 66.8597 41.09 66.6297 40.84Z" fill="white"/>
</g>
<g id="Group_6">
<path id="Vector_23" d="M64.9193 61.82C63.9793 63.76 63.6993 66.04 64.6693 66.89C65.8293 67.91 69.0593 67.34 70.0093 64.39C72.2393 57.47 64.9793 53.76 64.9793 53.76C64.9793 53.76 67.2793 56.97 64.9193 61.82Z" fill="#FF8961"/>
<path id="Vector_24" d="M65.7897 61.69C65.0097 63.38 64.7497 65.35 65.4997 66.06C66.3897 66.92 68.9297 66.36 69.7397 63.81C71.6197 57.8 65.9997 54.75 65.9997 54.75C65.9997 54.75 67.7397 57.47 65.7997 61.7L65.7897 61.69Z" fill="#FF6A38"/>
<path id="Vector_25" d="M66.8494 61.7C66.1694 63.74 66.7294 64.63 66.9194 64.83C67.7194 65.67 69.0594 65.62 69.8794 63.34C71.9294 57.62 65.9395 54.86 65.9395 54.86C65.9395 54.86 67.7794 58.89 66.8394 61.7H66.8494Z" fill="#FF8961"/>
<path id="Vector_26" d="M68.4893 62.66C68.5693 62.18 68.8693 61.84 69.1593 61.89C69.4493 61.94 69.6093 62.37 69.5293 62.84C69.4493 63.31 69.1493 63.66 68.8593 63.61C68.5693 63.56 68.4093 63.13 68.4893 62.66Z" fill="white"/>
<path id="Vector_27" d="M68.9496 60.7C68.9296 60.45 69.0396 60.24 69.1896 60.22C69.3396 60.22 69.4796 60.41 69.4996 60.66C69.5196 60.91 69.4096 61.12 69.2596 61.14C69.1096 61.15 68.9696 60.96 68.9496 60.71V60.7Z" fill="white"/>
</g>
</g>
</g>
<defs>
<clipPath id="clip0_187_14995">
<rect width="71.42" height="73.61" fill="white"/>
</clipPath>
</defs>
</svg>
