<svg width="76" height="74" viewBox="0 0 76 74" fill="none" xmlns="http://www.w3.org/2000/svg">
<g id="Layer_1" clip-path="url(#clip0_187_14729)">
<g id="Group">
<path id="Vector" d="M20.4 28.84C20.95 29.57 21.22 30.08 21.11 30.8C21.07 31.05 21.2 31.33 21.43 31.29C24.06 30.84 26.27 30.52 26.73 30.27C26.93 30.17 27.25 29.95 27.11 29.58C26.92 29.07 26.71 29.09 25.88 28.93C24.17 28.59 22.48 28.22 20.73 28.19C20.37 28.19 20.19 28.57 20.4 28.85V28.84Z" fill="#C43100"/>
<path id="Vector_2" d="M19.9004 28.32C18.2204 29.76 17.8204 31.94 17.8304 34.07C17.8304 35.74 17.4704 38.08 18.4604 39.55C18.6304 39.8 18.9704 39.93 19.2204 39.7C20.5204 38.48 20.9704 36.54 21.2404 34.83C21.5304 33 21.4304 31.02 21.0604 29.13C21.0204 28.93 20.4704 27.85 19.9204 28.32H19.9004Z" fill="#FF6A38"/>
</g>
<g id="Group_2">
<path id="Vector_3" d="M28.1601 31.11C28.5701 31.92 28.7501 32.47 28.5101 33.16C28.4301 33.4 28.5101 33.7 28.7401 33.7C31.4101 33.72 33.6401 33.78 34.1401 33.61C34.3501 33.54 34.7101 33.39 34.6401 33C34.5301 32.46 34.3301 32.45 33.5401 32.14C31.9201 31.51 30.3101 30.84 28.5901 30.52C28.2401 30.45 27.9901 30.8 28.1601 31.11Z" fill="#C43100"/>
<path id="Vector_4" d="M27.7497 30.52C25.8497 31.64 25.0697 33.72 24.7097 35.82C24.4197 37.47 23.6597 39.71 24.3697 41.33C24.4897 41.61 24.7997 41.8 25.0897 41.61C26.5797 40.63 27.3697 38.8 27.9197 37.17C28.5197 35.42 28.7697 33.45 28.7297 31.53C28.7297 31.32 28.3697 30.16 27.7497 30.53V30.52Z" fill="#FF6A38"/>
</g>
<g id="Group_3">
<path id="Vector_5" d="M35.6202 34.73C35.8802 35.6 35.9702 36.17 35.6202 36.81C35.5002 37.03 35.5202 37.34 35.7502 37.38C38.3802 37.86 40.5602 38.31 41.0802 38.23C41.3002 38.2 41.6802 38.11 41.6702 37.71C41.6702 37.16 41.4602 37.11 40.7402 36.67C39.2502 35.77 37.7802 34.84 36.1502 34.21C35.8102 34.08 35.5102 34.38 35.6202 34.72V34.73Z" fill="#C43100"/>
<path id="Vector_6" d="M35.3204 34.08C33.2504 34.86 32.1304 36.76 31.4004 38.77C30.8304 40.34 29.6904 42.42 30.1104 44.14C30.1804 44.43 30.4604 44.67 30.7704 44.54C32.4104 43.83 33.5004 42.16 34.3304 40.66C35.2304 39.04 35.8104 37.15 36.1004 35.24C36.1304 35.03 35.9804 33.83 35.3104 34.09L35.3204 34.08Z" fill="#FF6A38"/>
</g>
<path id="Vector_7" d="M56.3003 64.54C56.6803 63.9 57.1203 63.37 57.6103 62.9C58.5503 63.33 59.9103 62.92 59.9603 61.57C59.9603 61.5 59.9403 61.45 59.9303 61.4C60.7803 61.98 62.1903 61.7 62.4003 60.46C63.0203 61.09 64.2703 60.97 64.6103 60.06C66.1003 59.89 67.6003 59.81 68.9503 59.29C69.2903 59.16 69.2103 58.7 68.9803 58.53C66.9703 56.99 62.9503 57.02 60.5303 57.03C57.2303 57.04 53.4403 57.61 51.1403 60.23C47.7903 64.05 53.8803 68.64 56.3103 64.55L56.3003 64.54Z" fill="#A82A00"/>
<path id="Vector_8" d="M38.6202 71.81C42.3502 71.69 45.9502 70.83 49.5902 70.06C51.3502 69.69 51.7902 69.73 52.1902 68.63C52.4802 67.83 51.7702 67.38 51.3602 67.17C50.3602 66.65 45.6402 66.03 40.0102 65.16C39.5102 65.08 39.2502 65.68 39.3402 66.21C39.6002 67.74 39.0402 68.84 37.9002 70.41C37.4602 71.02 37.8502 71.83 38.6202 71.81Z" fill="#A82A00"/>
<path id="Vector_9" d="M58.7795 73.49C63.1895 72.65 71.0995 66.28 70.8595 61.35C70.8595 61.16 70.5995 61.09 70.4795 61.23C70.2395 61.5 69.9795 61.78 69.7095 62.07C69.1795 61.76 68.3595 61.91 68.2095 62.69C68.1795 62.83 68.1895 62.96 68.2095 63.08C67.7395 63 67.2295 63.22 67.1195 63.82C67.0895 63.95 67.1095 64.07 67.1195 64.19C66.4895 63.92 65.6495 64.13 65.4895 65C65.4295 65.33 65.5095 65.59 65.6395 65.81C65.5695 65.87 65.4995 65.93 65.4195 65.99C64.8295 65.14 63.2095 65.15 62.9695 66.46C62.9295 66.7 62.9495 66.9 62.9995 67.09C62.7295 66.8 62.3695 66.59 61.9595 66.51C60.9195 66.31 59.8795 67.02 59.6795 68.07C59.6495 68.23 59.6495 68.4 59.6595 68.56C59.6195 68.56 59.5795 68.57 59.5395 68.57C59.7095 67.47 58.9595 66.4 57.8595 66.19C56.8995 66.01 55.9595 66.54 55.5695 67.4C55.3095 66.99 55.0795 66.48 54.8495 65.79C54.3295 64.25 54.2795 62.6 52.9595 61.5C51.3095 60.12 49.1095 60.75 48.0695 62.5C46.7895 64.65 48.4795 68.41 49.6195 70.33C51.6495 73.72 55.0795 74.21 58.7595 73.5L58.7795 73.49Z" fill="#C43100"/>
<path id="Vector_10" d="M39.0799 69.74C39.8399 65.69 40.0199 61.47 39.3699 57.58C38.7599 53.95 37.7599 49.82 34.9599 47.23C34.4199 46.73 33.6899 47.02 33.3399 47.56C31.2599 50.72 32.0999 55.71 32.1199 59.27C32.1499 63.81 33.0599 68.45 36.6699 71.49C37.8599 72.48 39.0099 70.17 39.0899 69.74H39.0799Z" fill="#C43100"/>
<path id="Vector_11" d="M63.5 43.79C63.54 44.53 63.69 45.21 63.91 45.85C64.94 45.89 65.96 46.89 65.39 48.1C65.36 48.16 65.32 48.2 65.28 48.24C66.3 48.11 67.43 49.02 67.04 50.21C67.88 49.93 68.93 50.61 68.82 51.58C70.07 52.41 71.37 53.17 72.32 54.25C72.56 54.52 72.28 54.89 72 54.94C69.51 55.38 65.95 53.52 63.8 52.4C60.87 50.88 57.76 48.63 56.92 45.25C55.7 40.32 63.2101 39.03 63.4901 43.78L63.5 43.79Z" fill="#C43100"/>
<path id="Vector_12" d="M49.82 30.14C50.12 32.06 50.11 33.29 49.18 34.54C48.86 34.97 48.81 35.62 49.29 35.78C54.69 37.59 59.17 39.2 60.3 39.19C60.77 39.19 61.6 39.12 61.71 38.27C61.86 37.11 61.45 36.95 60.05 35.81C57.17 33.45 54.37 31.04 51.1 29.23C50.42 28.86 49.7 29.4 49.81 30.14H49.82Z" fill="#C43100"/>
<path id="Vector_13" d="M69.7997 36.96C73.3297 39.73 77.4397 49.01 74.9797 53.28C74.8797 53.45 74.6297 53.39 74.5797 53.22C74.4897 52.87 74.3897 52.5 74.2797 52.11C73.6697 52.14 72.9997 51.64 73.2397 50.87C73.2797 50.73 73.3497 50.62 73.4297 50.52C72.9797 50.38 72.6297 49.95 72.7997 49.37C72.8397 49.24 72.8997 49.14 72.9697 49.04C72.2897 48.99 71.6397 48.42 71.8897 47.57C71.9797 47.25 72.1697 47.05 72.3997 46.92C72.3597 46.84 72.3297 46.75 72.2897 46.66C71.3797 47.14 69.9397 46.4 70.3297 45.12C70.3997 44.89 70.5097 44.72 70.6497 44.57C70.2797 44.71 69.8597 44.73 69.4597 44.61C68.4397 44.31 67.8497 43.2 68.1497 42.19C68.1897 42.03 68.2697 41.88 68.3497 41.75C68.3197 41.73 68.2897 41.7 68.2497 41.68C67.8997 42.73 66.7397 43.35 65.6697 43.03C64.7397 42.75 64.1397 41.85 64.1897 40.91C63.7697 41.15 63.3297 41.51 62.8097 42.01C61.6497 43.14 60.8497 44.58 59.1597 44.96C57.0597 45.43 55.3897 43.87 55.2697 41.84C55.1197 39.35 58.3397 36.77 60.2397 35.59C63.5997 33.5 66.8597 34.65 69.8197 36.96H69.7997Z" fill="#FF6A38"/>
<path id="Vector_14" d="M49.2197 28.62C44.6197 29.66 41.6897 33.36 39.5797 37.39C37.9297 40.55 34.8997 44.6 35.2997 48.36C35.3697 49 35.8697 49.59 36.5897 49.4C40.2697 48.38 43.0497 45.17 45.2497 42.22C47.6097 39.06 49.3897 35.22 50.5697 31.28C50.6897 30.86 50.7297 28.28 49.2197 28.62Z" fill="#FF6A38"/>
<g id="Group_4">
<path id="Vector_15" d="M6.90061 47.79C7.63061 49.38 8.66061 50.78 9.66061 52.21C10.1406 52.9 10.2106 53.1 10.7606 53.07C11.1606 53.05 11.2206 52.66 11.2406 52.44C11.2806 51.91 10.6906 49.76 10.0406 47.18C9.98061 46.95 9.68061 46.95 9.46061 47.08C8.85061 47.47 8.27061 47.43 7.38061 47.22C7.04061 47.14 6.76061 47.46 6.91061 47.79H6.90061Z" fill="#C43100"/>
<path id="Vector_16" d="M7.90016 47.69C9.78016 47.27 11.6302 46.56 13.1902 45.56C14.6402 44.63 16.2302 43.44 16.8302 41.75C16.9502 41.42 16.6902 41.16 16.3902 41.11C14.6502 40.8 12.6502 42.08 11.1202 42.75C9.17016 43.6 7.34016 44.85 6.70016 46.97C6.49016 47.67 7.70016 47.73 7.90016 47.69Z" fill="#FF6A38"/>
</g>
<g id="Group_5">
<path id="Vector_17" d="M13 55.11C14 56.55 15.25 57.75 16.48 58.98C17.08 59.58 17.17 59.76 17.71 59.64C18.1 59.55 18.09 59.16 18.07 58.94C18.02 58.41 17.06 56.4 15.97 53.97C15.87 53.76 15.57 53.8 15.38 53.97C14.84 54.46 14.27 54.52 13.36 54.47C13.01 54.45 12.79 54.81 12.99 55.11H13Z" fill="#C43100"/>
<path id="Vector_18" d="M13.9701 54.84C15.7501 54.1 17.4501 53.08 18.8101 51.83C20.0801 50.66 21.4401 49.21 21.7301 47.45C21.7901 47.11 21.4901 46.9 21.1901 46.9C19.4201 46.9 17.6801 48.5 16.2801 49.43C14.5001 50.61 12.9201 52.16 12.6601 54.35C12.5701 55.07 13.7701 54.93 13.9701 54.85V54.84Z" fill="#FF6A38"/>
</g>
<g id="Group_6">
<path id="Vector_19" d="M21.3002 60.8301C22.5302 62.0801 23.9802 63.0401 25.4002 64.0401C26.0902 64.5301 26.2102 64.6901 26.7202 64.4801C27.0902 64.3201 27.0202 63.9401 26.9502 63.7301C26.8102 63.2201 25.5202 61.4101 24.0202 59.1901C23.8902 59.0001 23.6002 59.1001 23.4402 59.3001C23.0002 59.8801 22.4402 60.0301 21.5402 60.1501C21.1902 60.1901 21.0402 60.5901 21.2902 60.8401L21.3002 60.8301Z" fill="#C43100"/>
<path id="Vector_20" d="M22.2003 60.39C23.8303 59.35 25.3303 58.06 26.4403 56.58C27.4803 55.21 28.5703 53.54 28.5603 51.75C28.5603 51.4 28.2203 51.25 27.9303 51.3C26.1903 51.6 24.7503 53.49 23.5403 54.64C22.0003 56.11 20.7003 57.91 20.8303 60.11C20.8703 60.83 22.0303 60.49 22.2003 60.37V60.39Z" fill="#FF6A38"/>
</g>
<path id="Vector_21" d="M2.35049 16.04C-0.359513 18.22 -0.779513 22.2 1.40049 24.9C3.58049 27.61 7.56049 28.03 10.2605 25.85C12.9705 23.66 13.3905 19.69 11.2105 16.99C9.02049 14.27 5.05049 13.85 2.34049 16.04H2.35049Z" fill="#A82A00"/>
<path id="Vector_22" d="M4.57034 24.48C3.75034 24.16 3.02033 23.63 2.46033 22.94C1.61033 21.89 1.22033 20.57 1.37033 19.23C1.51033 17.89 2.17033 16.69 3.22033 15.84C4.62033 14.71 6.54034 14.41 8.22034 15.05C9.04034 15.37 9.77033 15.9 10.3303 16.59C11.1803 17.64 11.5603 18.96 11.4203 20.29C11.2803 21.63 10.6203 22.84 9.57033 23.69C8.17033 24.82 6.26033 25.12 4.58033 24.47L4.57034 24.48Z" fill="#C43100"/>
<path id="Vector_23" d="M13.8496 33.82C15.1396 30.47 13.4796 26.7 10.1196 25.4C6.7696 24.11 2.9996 25.78 1.6996 29.13C0.409598 32.48 2.0796 36.25 5.4296 37.55C8.7896 38.84 12.5496 37.17 13.8496 33.82Z" fill="#A82A00"/>
<path id="Vector_24" d="M5.93978 35.36C3.19978 34.3 1.81978 31.21 2.87978 28.46C3.93978 25.72 7.02978 24.34 9.77978 25.4C12.5198 26.46 13.8998 29.55 12.8398 32.3C11.7798 35.05 8.68978 36.42 5.93978 35.36Z" fill="#C43100"/>
<path id="Vector_25" d="M8.38003 6.55002C5.59003 7.78002 4.33003 11.05 5.57003 13.84C6.80003 16.62 10.07 17.89 12.86 16.65C15.65 15.41 16.91 12.15 15.67 9.37002C14.44 6.58002 11.17 5.32002 8.38003 6.56002V6.55002Z" fill="#A82A00"/>
<path id="Vector_26" d="M9.20991 15.15C8.05991 14.71 7.14991 13.84 6.64991 12.72C6.14991 11.59 6.11991 10.34 6.55991 9.18002C6.99991 8.03002 7.86991 7.13002 8.98991 6.63002C10.1199 6.13002 11.3699 6.10002 12.5199 6.54002C13.6699 6.99002 14.5799 7.85001 15.0799 8.98001C15.5799 10.11 15.6099 11.36 15.1699 12.5C14.7299 13.65 13.8599 14.56 12.7299 15.06C11.6099 15.56 10.3599 15.59 9.19991 15.15H9.20991Z" fill="#C43100"/>
<path id="Vector_27" d="M43.9803 49.93C42.3703 54.16 36.1503 55.72 23.6503 50.95C11.1503 46.19 7.55034 40.89 9.16034 36.66C10.7703 32.43 16.9903 30.87 29.4903 35.63C41.9903 40.4 45.5903 45.69 43.9803 49.92V49.93Z" fill="#A82A00"/>
<path id="Vector_28" d="M28.8304 48.69C26.9704 48.28 24.8904 47.64 22.6404 46.78C13.7404 43.39 9.42038 39.38 10.7904 35.78C11.7904 33.16 15.3404 32.36 20.7704 33.55C22.6304 33.96 24.7104 34.6 26.9604 35.46C35.8604 38.85 40.1804 42.86 38.8104 46.46C37.8104 49.09 34.2704 49.88 28.8304 48.69Z" fill="#C43100"/>
<path id="Vector_29" d="M16.9096 1.39997C14.0896 1.83997 12.1696 4.47997 12.6096 7.29997C13.0496 10.11 15.6896 12.04 18.5096 11.6C21.3296 11.16 23.2596 8.51997 22.8096 5.69997C22.3696 2.87997 19.7296 0.94997 16.9096 1.39997Z" fill="#A82A00"/>
<path id="Vector_30" d="M16.4202 8.83001C15.1402 8.34001 14.2202 7.19001 14.0102 5.84001C13.8502 4.83001 14.1002 3.81001 14.7002 2.98001C15.3002 2.15001 16.1902 1.61001 17.2002 1.45001C17.8702 1.34001 18.5502 1.42001 19.1702 1.66001C20.4502 2.15001 21.3702 3.30001 21.5802 4.65001C21.7402 5.66001 21.5002 6.67001 20.9002 7.50001C20.2902 8.33001 19.4002 8.88001 18.3902 9.04001C17.7302 9.15001 17.0502 9.07001 16.4202 8.83001Z" fill="#C43100"/>
<path id="Vector_31" d="M26.35 0.0300154C23.77 -0.249985 21.45 1.62002 21.18 4.21002C20.9 6.79002 22.78 9.11001 25.36 9.38002C27.94 9.66002 30.26 7.79002 30.53 5.21002C30.81 2.63002 28.94 0.320015 26.36 0.0400154L26.35 0.0300154Z" fill="#A82A00"/>
<path id="Vector_32" d="M24.7202 6.60001C23.3002 6.05001 22.4202 4.61001 22.5802 3.10001C22.6802 2.20001 23.1202 1.40001 23.8202 0.83001C24.5202 0.26001 25.4002 9.79751e-06 26.2902 0.10001C26.5902 0.13001 26.8802 0.20001 27.1502 0.31001C28.5702 0.86001 29.4402 2.30001 29.2802 3.81001C29.1902 4.71001 28.7502 5.51001 28.0502 6.07001C27.3502 6.64001 26.4702 6.90001 25.5702 6.80001C25.2702 6.77001 24.9802 6.70001 24.7102 6.59001L24.7202 6.60001Z" fill="#C43100"/>
<path id="Vector_33" d="M35.1496 2.16002C32.0196 1.57002 29.0096 3.63002 28.4196 6.76002C27.8296 9.89002 28.7796 13.92 32.8496 15.59C36.0096 16.89 43.7996 18.15 42.9596 17.49C37.7896 13.44 38.2396 10.67 38.6196 8.67002C39.2096 5.54002 38.2796 2.74002 35.1496 2.15002V2.16002Z" fill="#C43100"/>
<path id="Vector_34" d="M38.9504 14.63C36.6004 14.19 34.4004 13.61 33.2204 13.13C29.7804 11.72 29.1204 8.28 29.5904 5.77C30.0404 3.37 32.3704 1.78 34.7604 2.23C35.8204 2.43 36.5404 2.94 36.9404 3.8C37.3404 4.66 37.4304 5.86 37.1704 7.2C36.7804 9.29 36.6504 11.7 39.2004 14.69C39.1204 14.67 39.0304 14.66 38.9404 14.64L38.9504 14.63Z" fill="#FF6A38"/>
<path id="Vector_35" d="M16.6303 35.87C17.6103 35.71 18.3303 35.11 18.2303 34.55C18.1403 33.98 17.2703 33.65 16.2903 33.82C15.3103 33.98 14.6003 34.58 14.6903 35.14C14.7903 35.71 15.6503 36.03 16.6303 35.87Z" fill="#FDDD85"/>
<path id="Vector_36" d="M6.85028 28.09C7.89028 28.08 8.73028 27.58 8.72028 26.97C8.72028 26.37 7.86028 25.89 6.82028 25.9C5.78028 25.92 4.94028 26.42 4.95028 27.02C4.95028 27.62 5.81028 28.1 6.85028 28.08V28.09Z" fill="#FDDD85"/>
<path id="Vector_37" d="M4.8803 18.06C5.8003 18.05 6.5403 17.6 6.5403 17.07C6.5403 16.53 5.7803 16.11 4.8503 16.12C3.9303 16.13 3.1903 16.58 3.2003 17.11C3.2003 17.64 3.9603 18.07 4.8803 18.06Z" fill="#FDDD85"/>
<path id="Vector_38" d="M10.3503 9.08003C11.2303 9.07003 11.9503 8.64003 11.9403 8.13003C11.9403 7.62003 11.2103 7.21003 10.3303 7.22003C9.45034 7.23003 8.73034 7.66003 8.74034 8.17003C8.74034 8.68003 9.47034 9.09003 10.3503 9.08003Z" fill="#FDDD85"/>
<path id="Vector_39" d="M18.1201 3.90998C19.0001 3.89998 19.7201 3.46998 19.7101 2.95998C19.7101 2.44998 18.9801 2.03998 18.0901 2.04998C17.2101 2.05998 16.4901 2.48998 16.5001 2.99998C16.5001 3.50998 17.2301 3.91998 18.1201 3.90998Z" fill="#FDDD85"/>
<path id="Vector_40" d="M26.0898 2.57997C26.9798 2.56997 27.6898 2.13997 27.6798 1.62997C27.6798 1.10997 26.9498 0.709971 26.0598 0.719971C25.1798 0.729971 24.4598 1.15997 24.4698 1.66997C24.4698 2.17997 25.1998 2.58997 26.0798 2.57997H26.0898Z" fill="#FDDD85"/>
<path id="Vector_41" d="M33.5798 5.24999C34.6998 5.02999 35.5098 4.31999 35.3798 3.66999C35.2498 3.01999 34.2398 2.66999 33.1098 2.88999C31.9898 3.10999 31.1898 3.81999 31.3098 4.46999C31.4398 5.11999 32.4498 5.45999 33.5798 5.23999V5.24999Z" fill="#FDDD85"/>
<path id="Vector_42" d="M20.1898 35.19C20.6898 35.39 21.2198 35.25 21.3698 34.88C21.5198 34.5 21.2498 34.03 20.7498 33.83C20.2498 33.63 19.7298 33.77 19.5698 34.15C19.4198 34.53 19.6998 34.99 20.1898 35.2V35.19Z" fill="#FDDD85"/>
<g id="Group_7">
<path id="Vector_43" d="M47.1601 50.18C48.4801 50.79 50.0401 50.21 50.6401 48.89C51.2501 47.57 50.6701 46.01 49.3501 45.41C48.0301 44.8 42.0001 43.33 41.3901 44.65C40.7901 45.97 45.8401 49.58 47.1601 50.18Z" fill="#471302"/>
<path id="Vector_44" d="M44.22 56.74C45.54 57.35 47.1 56.77 47.71 55.45C48.32 54.13 47.74 52.57 46.42 51.97C45.1 51.36 39.07 49.9 38.46 51.22C37.85 52.54 42.91 56.15 44.23 56.75L44.22 56.74Z" fill="#471302"/>
<path id="Vector_45" d="M46.1502 54.33C46.4302 54.88 46.8902 55.2 47.1802 55.05C47.4702 54.9 47.4802 54.34 47.2002 53.79C46.9202 53.24 46.4602 52.92 46.1702 53.07C45.8802 53.22 45.8702 53.78 46.1502 54.33Z" fill="#FDDD85"/>
<path id="Vector_46" d="M49.1197 47.7C49.3997 48.25 49.8597 48.57 50.1597 48.42C50.4497 48.27 50.4597 47.71 50.1797 47.16C49.8997 46.62 49.4397 46.29 49.1497 46.44C48.8597 46.59 48.8497 47.15 49.1297 47.7H49.1197Z" fill="#FDDD85"/>
</g>
</g>
<defs>
<clipPath id="clip0_187_14729">
<rect width="75.73" height="73.77" fill="white"/>
</clipPath>
</defs>
</svg>
