<svg width="138" height="28" viewBox="0 0 138 28" fill="none" xmlns="http://www.w3.org/2000/svg">
<path d="M12.104 0.44751L14.8215 9.77578H23.6156L16.501 15.541L19.2185 24.8692L12.104 19.1041L4.98942 24.8692L7.70694 15.541L0.592382 9.77578H9.38646L12.104 0.44751Z" fill="#FFA300"/>
<path d="M40.2171 0.44751L42.9346 9.77578H51.7287L44.6141 15.541L47.3317 24.8692L40.2171 19.1041L33.1026 24.8692L35.8201 15.541L28.7055 9.77578H37.4996L40.2171 0.44751Z" fill="#FFA300"/>
<path d="M68.3302 0.44751L71.0478 9.77578H79.8418L72.7273 15.541L75.4448 24.8692L68.3302 19.1041L61.2157 24.8692L63.9332 15.541L56.8186 9.77578H65.6127L68.3302 0.44751Z" fill="#FFA300"/>
<path d="M96.4434 0.44751L99.1609 9.77578H107.955L100.84 15.541L103.558 24.8692L96.4434 19.1041L89.3288 24.8692L92.0463 15.541L84.9318 9.77578H93.7258L96.4434 0.44751Z" fill="#FFA300"/>
<path d="M125.009 0.44751L127.828 9.77578H136.951L129.57 15.541L132.39 24.8692L125.009 19.1041L117.628 24.8692L120.448 15.541L113.067 9.77578H122.19L125.009 0.44751Z" fill="#FFA300"/>
</svg>
